<svg width="22" height="16" viewBox="0 0 22 16" fill="none" xmlns="http://www.w3.org/2000/svg">
<path d="M9.29133 7.43265C9.33526 7.23498 9.26937 7.0373 9.11562 6.92748L6.17241 4.70909C5.88688 4.48945 5.46956 4.6432 5.3817 4.99463L4.56902 8.57479C4.5251 8.77247 4.59099 8.97015 4.74474 9.07997C7.81973 11.4082 7.79776 11.496 8.14919 11.3643C8.30294 11.2984 8.43473 11.1666 8.45669 11.0128L9.29133 7.43265ZM7.66598 10.0464L5.60134 8.48694L6.17241 5.98302L8.23705 7.54248L7.66598 10.0464Z" fill="currentColor"/>
<path d="M21.4818 2.99575C12.7401 -0.189067 13.2892 -0.0572818 13.0036 0.0525393C12.7401 0.184325 12.8938 -0.0572817 11.0049 5.12627C9.11597 -0.0572817 9.26972 0.16236 9.00615 0.0525393C8.74258 -0.079246 9.31365 -0.211031 0.527964 2.97378C0.264394 3.06164 0.132608 3.34717 0.220465 3.61074L4.59135 15.6471C4.63527 15.7789 4.72313 15.8668 4.85492 15.9327C4.92081 15.9546 4.9867 15.9766 5.07456 15.9766C5.14045 15.9766 5.18438 15.9766 5.25027 15.9546L11.0049 13.868C17.2427 16.1304 16.8035 15.9986 16.9352 15.9986C17.1549 15.9986 17.3306 15.8668 17.3965 15.6691L21.7674 3.63271C21.8772 3.36914 21.7454 3.0836 21.4818 2.99575ZM5.36009 14.8564L1.34064 3.76449L8.50098 1.15075L10.4778 6.59788C8.19348 12.8577 8.28133 12.4843 8.39116 12.7479C8.50098 12.9895 8.63276 12.9895 9.55526 13.3189L5.36009 14.8564ZM16.6497 14.8564C15.7272 14.527 9.99454 12.4404 9.48937 12.2427L13.5308 1.15075L20.6692 3.76449L16.6497 14.8564Z" fill="currentColor"/>
<path d="M12.894 6.9712C13.7946 10.6173 13.7287 10.3757 13.7726 10.4855C13.8385 10.6832 14.0362 10.8149 14.2338 10.8149C14.4974 10.8149 14.3876 10.8369 17.3967 8.61852C18.5169 7.80584 18.2753 6.0487 16.9574 5.58746C16.6279 5.47763 16.2985 5.45567 15.969 5.52156C15.7713 5.25799 15.4858 5.03835 15.1563 4.92853C13.8824 4.44532 12.5646 5.60942 12.894 6.9712ZM14.8488 5.85103C15.376 6.0487 15.1783 6.44406 15.5956 6.59781C15.991 6.75156 16.1228 6.31228 16.6499 6.50995C16.9794 6.61977 17.1771 6.9712 17.1331 7.32263C17.0672 7.71799 17.0233 7.67406 14.5633 9.47512L13.8824 6.7296C13.7287 6.15853 14.2778 5.65335 14.8488 5.85103Z" fill="currentColor"/>
</svg>
