<svg width="50" height="50" viewBox="0 0 347 326" version="1.1" xmlns="http://www.w3.org/2000/svg">
<g id="#f7f7f7ff">
</g>
<g id="#000000ff">
<path fill="#000000" opacity="1.00" d=" M 175.75 34.80 C 178.38 33.77 181.29 33.84 183.92 34.83 C 222.86 47.69 261.82 60.51 300.76 73.38 C 304.88 74.58 308.03 78.56 307.96 82.90 C 308.05 95.29 307.99 107.68 307.99 120.07 C 308.30 125.18 304.13 130.10 298.98 130.41 C 292.82 130.64 286.66 130.42 280.50 130.50 C 280.50 136.76 280.49 143.02 280.50 149.28 C 289.21 151.80 296.98 157.53 301.67 165.33 C 303.74 168.74 305.86 172.77 304.50 176.85 C 302.95 182.74 295.49 185.89 290.21 182.81 C 285.99 180.86 285.48 175.65 282.22 172.74 C 276.47 166.70 266.15 166.56 259.97 172.01 C 253.30 177.68 252.79 188.87 258.72 195.25 C 262.01 199.01 267.12 200.50 271.98 200.57 C 281.40 200.93 290.81 204.80 297.18 211.86 C 307.98 223.41 309.97 242.15 301.74 255.67 C 297.14 263.59 289.15 269.04 280.50 271.71 C 280.23 276.56 281.57 282.14 278.32 286.28 C 274.61 291.14 266.37 291.14 262.67 286.27 C 259.40 282.09 260.79 276.46 260.50 271.56 C 250.30 268.44 241.44 260.82 237.40 250.88 C 235.88 246.96 237.28 242.19 240.61 239.64 C 245.12 235.85 252.80 237.31 255.45 242.62 C 257.56 247.22 261.41 251.13 266.42 252.41 C 274.94 254.92 284.99 249.26 286.53 240.33 C 288.86 231.25 281.96 221.19 272.47 220.67 C 263.38 220.46 254.01 218.01 247.10 211.83 C 234.28 200.95 230.90 180.82 239.22 166.25 C 243.68 158.04 251.70 152.25 260.50 149.43 C 260.50 143.12 260.50 136.81 260.50 130.50 C 243.50 130.50 226.50 130.50 209.50 130.50 C 209.48 167.01 209.53 203.52 209.47 240.02 C 209.65 245.53 204.54 250.35 199.07 249.99 C 156.71 250.01 114.36 249.99 72.00 250.00 C 72.00 256.67 72.00 263.33 72.00 270.00 C 121.71 270.01 171.42 269.97 221.13 270.02 C 226.64 269.68 231.70 274.47 231.44 280.02 C 231.67 285.56 226.61 290.30 221.13 289.98 C 168.07 290.01 115.01 290.02 61.94 289.97 C 56.65 290.11 51.87 285.36 52.03 280.05 C 51.96 267.03 52.03 254.00 51.99 240.97 C 51.75 237.30 53.43 233.54 56.60 231.58 C 60.43 229.10 65.22 230.25 69.51 230.00 C 69.49 196.83 69.51 163.66 69.50 130.49 C 65.76 130.34 61.86 131.03 58.26 129.77 C 54.39 128.27 51.80 124.19 52.01 120.05 C 51.99 108.03 52.01 96.00 52.00 83.98 C 51.92 81.28 52.60 78.48 54.47 76.45 C 56.58 73.88 59.97 73.17 62.96 72.16 C 100.56 59.72 138.16 47.26 175.75 34.80 M 72.00 90.22 C 72.00 96.98 71.99 103.74 72.01 110.51 C 144.00 110.50 215.99 110.49 287.99 110.51 C 288.01 103.75 288.00 96.99 288.00 90.23 C 251.91 78.35 215.85 66.38 179.75 54.53 C 143.84 66.46 107.92 78.32 72.00 90.22 M 89.50 130.50 C 89.49 163.66 89.50 196.83 89.49 229.99 C 96.17 230.00 102.84 230.01 109.51 229.98 C 109.49 196.82 109.51 163.66 109.50 130.50 C 102.83 130.50 96.17 130.50 89.50 130.50 M 129.50 130.50 C 129.49 163.66 129.52 196.82 129.48 229.98 C 136.16 230.02 142.83 230.00 149.51 229.99 C 149.49 196.83 149.51 163.66 149.50 130.50 C 142.83 130.50 136.17 130.50 129.50 130.50 M 169.50 130.50 C 169.49 163.66 169.51 196.82 169.49 229.98 C 176.16 230.01 182.83 230.00 189.51 229.99 C 189.49 196.83 189.51 163.66 189.50 130.50 C 182.83 130.50 176.17 130.50 169.50 130.50 Z" />
<path fill="#000000" opacity="1.00" d=" M 176.37 76.52 C 182.88 74.03 190.40 80.07 189.45 86.95 C 189.07 94.00 180.37 98.40 174.42 94.63 C 167.16 90.89 168.37 78.56 176.37 76.52 Z" />
</g>
</svg>