<svg width="72" height="36" viewBox="0 0 72 36" fill="none" xmlns="http://www.w3.org/2000/svg">
<path d="M1.035 14.5349C1.701 15.2018 2.367 15.8615 3.0303 16.5311C3.4893 16.9964 3.9411 17.4725 4.3524 17.8937C3.6279 18.6479 2.8881 19.4237 2.1384 20.1932C1.7739 20.5667 1.4022 20.933 1.0341 21.3029L0 22.3109V13.5251C0.3573 13.8725 0.6957 14.2055 1.035 14.5349ZM70.992 21.3398C70.5216 20.8664 70.0503 20.3939 69.5781 19.9223C68.9409 19.2887 68.3073 18.656 67.6665 18.026C67.5819 17.945 67.5783 17.9045 67.6665 17.8208C68.751 16.7516 69.8292 15.6743 70.911 14.6015C70.9398 14.5727 70.965 14.5394 70.9947 14.5061L72 13.5287V22.3253C71.6472 21.977 71.3187 21.6584 70.992 21.3398Z" fill="white"/>
<path d="M6.77411 24.021C6.77411 22.2075 6.77411 20.3949 6.77051 18.5823C6.77051 18.4428 6.80291 18.4023 6.94511 18.4023C9.15911 18.4068 11.3776 18.4068 13.5916 18.4023C13.7086 18.4023 13.7743 18.432 13.8355 18.5382C14.1892 19.1646 14.3422 19.8306 14.3386 20.5488C14.3314 22.2768 14.3422 24.0021 14.3458 25.7301C14.3458 26.1666 14.2945 26.5941 14.1604 27.0081C13.7266 28.3635 12.3937 29.6487 10.6414 29.6523C9.41111 29.6559 8.17541 29.6487 6.94511 29.6559C6.79571 29.6559 6.77051 29.6127 6.77051 29.4732C6.77771 27.6606 6.77771 25.8408 6.77411 24.0201V24.021ZM9.29771 23.1417H9.29411C9.29411 24.4044 9.29771 25.668 9.29051 26.9316C9.29051 27.063 9.31571 27.1116 9.45791 27.1035C9.77471 27.0927 10.0879 27.0999 10.4047 27.0999C10.5577 27.0999 10.7071 27.1107 10.8565 27.0675C11.4325 26.9055 11.7961 26.415 11.7997 25.7895C11.8033 24.8481 11.8033 23.9103 11.8069 22.9689C11.8069 22.1562 11.8141 21.3471 11.8105 20.5344C11.8069 19.7244 11.2795 19.1934 10.4785 19.1934C10.1428 19.1934 9.81161 19.2006 9.47591 19.1898C9.33461 19.1862 9.29411 19.2231 9.29411 19.3698C9.30131 20.6298 9.29771 21.8862 9.29771 23.1417ZM6.77411 11.8035C6.77411 9.99087 6.77771 8.17827 6.77051 6.36567C6.77051 6.21177 6.80651 6.17847 6.95591 6.17847C8.07371 6.18567 9.18791 6.18207 10.3066 6.18207C11.2113 6.18201 12.0862 6.50534 12.7734 7.09369C13.4606 7.68205 13.9149 8.49669 14.0542 9.39057C14.0947 9.63177 14.0947 9.87747 14.0947 10.1196C14.0947 11.8476 14.0983 13.5729 14.1019 15.3009C14.1019 16.0146 13.9417 16.6887 13.57 17.3043C13.5115 17.3997 13.453 17.4357 13.3405 17.4357C11.203 17.4321 9.06821 17.4321 6.93071 17.4393C6.77411 17.4393 6.77411 17.3772 6.77411 17.2593V11.8035ZM9.27251 12.7008C9.27611 12.7008 9.27611 12.7008 9.27251 12.7008C9.27611 13.9536 9.27971 15.2028 9.26891 16.4538C9.26891 16.623 9.31211 16.6599 9.46871 16.6518C9.70901 16.6374 9.95381 16.6482 10.1977 16.6482C11.0131 16.6482 11.545 16.1172 11.545 15.3009C11.545 14.7258 11.5414 14.1543 11.5414 13.5801C11.5414 12.4263 11.5342 11.2725 11.5378 10.1187C11.5414 9.29967 11.05 8.82627 10.4632 8.75337C10.1284 8.70927 9.78551 8.74617 9.44351 8.73087C9.30131 8.72367 9.26171 8.76417 9.26171 8.91087C9.27611 10.1781 9.27251 11.4372 9.27251 12.7008Z" fill="#FDFDFD"/>
<path d="M49.9797 22.3766C49.9797 23.5916 49.995 24.8039 49.9761 26.0198C49.9509 27.9638 48.1518 29.9015 45.8208 29.6378C43.8435 29.4146 42.4413 27.8036 42.4485 25.8038C42.4593 23.3981 42.4557 20.996 42.4521 18.5894C42.4521 18.4139 42.4953 18.3698 42.6708 18.3698C43.3701 18.3806 44.0658 18.3806 44.7651 18.3698C44.9181 18.3662 44.9541 18.4103 44.9541 18.5606C44.9469 20.9591 44.9469 23.3576 44.9469 25.7561C44.9469 26.4221 45.2997 26.9063 45.8937 27.0674C46.6182 27.2618 47.394 26.7272 47.4669 25.9757C47.4741 25.892 47.4741 25.8047 47.4741 25.7201C47.4741 23.3396 47.4777 20.9591 47.4741 18.5786C47.4741 18.4103 47.5182 18.3662 47.6856 18.3698C48.3885 18.3806 49.095 18.377 49.7979 18.3698C49.9545 18.3662 50.0022 18.4031 50.0022 18.5678C49.995 19.8386 49.9986 21.1058 49.9986 22.3766H49.9797ZM42.471 13.4738C42.471 12.2651 42.4557 11.0573 42.4737 9.84864C42.4998 8.13414 43.8102 6.58524 45.4824 6.25584C46.418 6.06193 47.3924 6.23105 48.2079 6.72891C49.0235 7.22677 49.6192 8.01612 49.8744 8.93694C49.9842 9.31764 50.0166 9.71274 50.013 10.1123C50.0058 11.5766 50.0058 13.0418 50.0058 14.5061C50.0058 15.4106 49.9986 16.3115 50.0058 17.216C50.0058 17.3852 49.9545 17.414 49.8015 17.414C49.0914 17.4068 48.3813 17.4068 47.6712 17.414C47.5182 17.414 47.4822 17.3735 47.4822 17.2241C47.4894 14.8616 47.4894 12.4991 47.493 10.1375C47.493 9.69474 47.3796 9.29874 47.0223 9.01704C46.6146 8.69484 46.1592 8.63274 45.6903 8.85954C45.2052 9.09354 44.9577 9.50394 44.9577 10.0493C44.9541 11.3129 44.9541 12.5765 44.9541 13.8401C44.9541 14.9678 44.9505 16.0991 44.9577 17.2277C44.9577 17.3807 44.9172 17.4176 44.7687 17.4176C44.0643 17.4085 43.3598 17.4085 42.6555 17.4176C42.4845 17.4212 42.4593 17.3636 42.4629 17.2088C42.4701 15.9641 42.4665 14.7185 42.4665 13.4738H42.471ZM35.6706 18.3734H35.8857C37.1421 18.3734 38.3985 18.377 39.6549 18.3698C39.7791 18.3698 39.8547 18.4058 39.9276 18.5012C40.4631 19.2122 40.7763 20.0132 40.9113 20.8889C41.0787 21.9689 40.9653 23.0579 40.9878 24.1406C40.9986 24.7454 41.0094 25.3493 40.977 25.9541C40.8897 27.5579 40.1031 28.7333 38.6496 29.3561C36.4275 30.3119 34.119 28.9601 33.5619 26.8433C33.4745 26.5125 33.4339 26.1711 33.4413 25.829C33.4485 25.2872 33.4485 24.7418 33.4449 24.2C33.4449 24.0713 33.4782 24.0353 33.6051 24.038C34.3413 24.0461 35.073 24.0461 35.8092 24.038C35.9541 24.038 35.9766 24.0857 35.9694 24.2144C35.95 24.7206 35.938 25.2271 35.9334 25.7336C35.9289 26.2286 36.0963 26.6426 36.5337 26.9126C37.3455 27.4148 38.4381 26.8622 38.4597 25.9028C38.4858 24.6833 38.529 23.4602 38.4237 22.2443C38.3292 21.1166 37.845 20.168 36.9594 19.4426C36.5409 19.106 36.1296 18.7586 35.6706 18.3734ZM38.7225 17.3807C38.6496 17.4284 38.5875 17.4104 38.5335 17.4104C37.2879 17.4104 36.0459 17.4104 34.8003 17.414C34.7439 17.4175 34.6877 17.4061 34.6371 17.381C34.5866 17.3559 34.5435 17.3179 34.5123 17.2709C33.984 16.5536 33.6933 15.7445 33.5583 14.8688C33.4377 14.1038 33.4926 13.3343 33.489 12.5693C33.4854 11.6351 33.4746 10.7018 33.5106 9.76764C33.5763 8.07924 34.8768 6.58164 36.5193 6.25584C37.4424 6.06432 38.4038 6.22684 39.2127 6.71115C40.0216 7.19547 40.6189 7.96617 40.8861 8.87034C40.9986 9.24384 41.0463 9.63264 41.0427 10.0241C41.0355 10.5623 41.031 11.0969 41.0355 11.6351C41.0355 11.7485 41.013 11.7926 40.8861 11.7926C40.1391 11.7854 39.3921 11.789 38.6451 11.7926C38.5335 11.7926 38.5038 11.7602 38.5038 11.6495C38.5074 11.0753 38.5182 10.5038 38.5002 9.92874C38.4944 9.61484 38.3671 9.31542 38.145 9.0935C37.9229 8.87159 37.6234 8.74448 37.3095 8.73894C36.6354 8.72364 36.0531 9.21504 36.0198 9.89184C35.9838 10.6469 35.9982 11.4038 35.991 12.1625C35.9874 12.6863 35.9694 13.2101 36.0495 13.7339C36.2133 14.8544 36.7371 15.7589 37.6155 16.4654C37.9899 16.7588 38.3508 17.0693 38.7225 17.3807Z" fill="white"/>
<path d="M16.1598 23.9985C16.1598 22.1859 16.1634 20.3733 16.1562 18.5598C16.1562 18.4068 16.1967 18.3699 16.3452 18.3699C18.4107 18.3735 20.4726 18.3735 22.5372 18.3699C22.6938 18.3699 22.7343 18.414 22.719 18.5634C22.7051 18.722 22.7039 18.8815 22.7154 19.0404C22.7262 19.1718 22.6794 19.2006 22.5516 19.1979C21.3249 19.1898 20.1009 19.1979 18.8733 19.1898C18.7239 19.1898 18.6807 19.2231 18.6807 19.377C18.6843 21.8853 18.6843 24.3936 18.6771 26.9019C18.6771 27.0558 18.7059 27.1035 18.8697 27.1035C20.0973 27.0999 21.3204 27.1107 22.548 27.1071C22.6974 27.1071 22.7262 27.1521 22.7262 27.2907C22.7118 28.0341 22.7046 28.7811 22.701 29.5245C22.701 29.6235 22.6794 29.6595 22.5741 29.6595C20.4798 29.6559 18.3855 29.6523 16.2912 29.6595C16.1274 29.6595 16.1562 29.5686 16.1562 29.4768C16.1562 27.6498 16.1562 25.8228 16.1598 23.9985Z" fill="#FDFDFD"/>
<path d="M51.696 11.782C51.696 9.98019 51.6987 8.18199 51.6915 6.38019C51.6915 6.22269 51.7212 6.17499 51.8886 6.17949C53.9676 6.18669 56.0511 6.18309 58.131 6.17949C58.2804 6.17949 58.3236 6.21189 58.32 6.36579C58.3096 7.09804 58.3084 7.8304 58.3164 8.56269C58.3164 8.71659 58.266 8.73909 58.131 8.73909C56.8926 8.73549 55.6542 8.74269 54.4158 8.73549C54.2592 8.73549 54.2304 8.77959 54.2304 8.92899C54.234 11.4382 54.234 13.9465 54.2268 16.4512C54.2268 16.6123 54.2628 16.6528 54.4266 16.6528C55.6578 16.6456 56.889 16.6492 58.1238 16.642C58.2732 16.642 58.3272 16.678 58.3128 16.8319C58.3 16.972 58.3 17.113 58.3128 17.2531C58.3236 17.3845 58.2768 17.4151 58.149 17.4151C57.33 17.4106 56.511 17.4106 55.6911 17.4106C54.4266 17.4106 53.1666 17.407 51.903 17.4142C51.732 17.4142 51.6807 17.3809 51.6807 17.1982C51.6879 15.3928 51.6843 13.5874 51.6843 11.7784L51.696 11.782Z" fill="white"/>
<path d="M16.164 11.7927C16.164 9.98727 16.164 8.17827 16.1595 6.37287C16.1595 6.22977 16.182 6.17847 16.3422 6.17847C18.4068 6.18567 20.4678 6.18567 22.5333 6.18207C22.6863 6.18207 22.7079 6.23337 22.7043 6.36567C22.6971 7.09827 22.6971 7.82997 22.7007 8.56257C22.7007 8.70567 22.6683 8.74617 22.5225 8.74257C21.2949 8.73447 20.0709 8.73897 18.8442 8.73447C18.7056 8.73447 18.6615 8.76417 18.6615 8.91087C18.6651 11.4309 18.6651 13.95 18.6579 16.4727C18.6579 16.6266 18.7056 16.6482 18.8442 16.6482C20.0745 16.6446 21.3102 16.6482 22.5405 16.641C22.6935 16.641 22.752 16.6815 22.7259 16.8318C22.7187 16.8903 22.7223 16.9524 22.7223 17.0145C22.7187 17.4069 22.7187 17.4069 22.3218 17.4069C20.3301 17.4069 18.3411 17.4033 16.3494 17.4105C16.1784 17.4105 16.1523 17.3592 16.1523 17.2053C16.1559 15.3999 16.1559 13.5909 16.1559 11.7855C16.1595 11.7927 16.164 11.7927 16.164 11.7927Z" fill="#FDFDFD"/>
<path d="M64.3151 13.0861C64.3151 14.4658 64.3115 15.8428 64.3187 17.2234C64.3187 17.3773 64.2791 17.4178 64.1261 17.4142C63.4052 17.407 62.6798 17.407 61.9589 17.4142C61.8059 17.4178 61.7699 17.3737 61.7699 17.2234C61.7735 14.4658 61.7735 11.7082 61.7807 8.95151C61.7807 8.77151 61.733 8.73101 61.562 8.73551C60.8447 8.74631 60.131 8.73911 59.4128 8.74271C59.2859 8.74271 59.249 8.70941 59.249 8.58071C59.2562 7.83101 59.2598 7.07951 59.2526 6.32891C59.2526 6.20471 59.2931 6.18311 59.4056 6.18311C61.7546 6.18671 64.1036 6.18671 66.4499 6.18311C66.5732 6.18311 66.5993 6.21911 66.5993 6.33611C66.5921 7.08761 66.5876 7.83821 66.5921 8.58881C66.5921 8.70941 66.5588 8.74181 66.4391 8.74181C65.7911 8.73911 65.1386 8.74631 64.4906 8.73911C64.3484 8.73911 64.3079 8.77151 64.3079 8.91821C64.3187 10.306 64.3187 11.6974 64.3151 13.0852V13.0861Z" fill="white"/>
<path d="M29.5159 13.0679C29.5159 14.4512 29.5123 15.8354 29.5195 17.2196C29.5195 17.3699 29.4835 17.414 29.3305 17.4104C28.6141 17.4013 27.8976 17.4013 27.1813 17.4104C27.0139 17.414 26.9878 17.3591 26.9878 17.2052C26.995 14.4476 26.9914 11.69 26.9986 8.9324C26.9986 8.7794 26.9734 8.7272 26.806 8.7317C26.077 8.7425 25.3489 8.7353 24.6208 8.7389C24.5038 8.7389 24.4678 8.7092 24.4678 8.5886C24.475 7.838 24.4786 7.0874 24.4714 6.3359C24.4714 6.2045 24.5146 6.1793 24.6352 6.1793C26.9662 6.1829 29.2936 6.1793 31.6246 6.1748C31.7515 6.1748 31.8028 6.1901 31.7992 6.3404C31.7884 7.0793 31.7848 7.8164 31.7884 8.5553C31.7884 8.6984 31.7479 8.7389 31.6021 8.7353C30.9649 8.7281 30.3277 8.7389 29.6905 8.7317C29.5483 8.7317 29.5078 8.7641 29.5078 8.9108C29.5231 10.2986 29.5195 11.6828 29.5159 13.067C29.5195 13.067 29.5195 13.067 29.5159 13.067V13.0679Z" fill="#FDFDFD"/>
<path d="M51.6918 23.9985C51.6918 22.1859 51.6963 20.3733 51.6882 18.5643C51.6882 18.414 51.7242 18.3735 51.8772 18.3735C53.9652 18.3771 56.0514 18.3771 58.1385 18.3735C58.2735 18.3735 58.3356 18.3987 58.3212 18.549C58.3084 18.7077 58.3084 18.8672 58.3212 19.026C58.332 19.1646 58.2879 19.197 58.1502 19.197C56.9406 19.1934 55.7346 19.197 54.5259 19.197C54.2451 19.197 54.2451 19.197 54.2451 19.4724C54.2415 22.797 54.2343 26.1225 54.2379 29.4471C54.2379 29.6271 54.1902 29.6676 54.0192 29.6631C53.2971 29.6539 52.5749 29.6539 51.8529 29.6631C51.7143 29.6631 51.6846 29.6235 51.6846 29.4921C51.6918 27.6561 51.6918 25.8291 51.6918 23.9985ZM61.7763 23.9985C61.7763 22.1859 61.7808 20.3733 61.7736 18.5607C61.7736 18.4104 61.8096 18.3699 61.9626 18.3699C62.6799 18.3771 63.3936 18.3771 64.1118 18.3699C64.272 18.3663 64.3224 18.4032 64.3224 18.5751C64.3161 21.4569 64.3161 24.3351 64.3161 27.2178C64.3161 27.9756 64.3116 28.7298 64.3197 29.4876C64.3197 29.6226 64.2864 29.6604 64.1487 29.6604C63.4197 29.6523 62.6907 29.6523 61.9626 29.6604C61.8132 29.6604 61.7736 29.6271 61.7736 29.4732C61.7772 27.6498 61.7727 25.8219 61.7763 23.9985Z" fill="white"/>
<path d="M29.5086 24.0353C29.5086 25.8479 29.505 27.6605 29.5122 29.4731C29.5122 29.6306 29.4681 29.6594 29.3232 29.6594C28.6014 29.6522 27.8769 29.6522 27.156 29.6594C27.0318 29.6594 26.9805 29.645 26.9805 29.4947C26.9877 25.8407 26.9913 22.1858 26.9877 18.5309C26.9877 18.4031 27.021 18.3689 27.1479 18.3689C27.8841 18.377 28.6158 18.377 29.352 18.3689C29.4942 18.3689 29.5194 18.4139 29.5194 18.5417C29.5158 20.3732 29.5158 22.2047 29.5158 24.0353H29.5086Z" fill="#FDFDFD"/>
</svg>
