<svg width="14" height="14" viewBox="0 0 14 14" fill="none" xmlns="http://www.w3.org/2000/svg">
<path d="M1 5H13.0273M3.67273 1V2.33333M10.3545 1V2.33333M3.00455 7.66667H4.34091M3.00455 10.3333H4.34091M6.34545 7.66667H7.68182M6.34545 10.3333H7.68182M9.68636 7.66667H11.0227M9.68636 10.3333H11.0227M3.13818 13H10.8891C11.6375 13 12.0118 13 12.2976 12.8547C12.5491 12.7269 12.7535 12.5229 12.8816 12.272C13.0273 11.9868 13.0273 11.6134 13.0273 10.8667V4.46667C13.0273 3.71993 13.0273 3.34656 12.8816 3.06135C12.7535 2.81046 12.5491 2.60649 12.2976 2.47866C12.0118 2.33333 11.6375 2.33333 10.8891 2.33333H3.13818C2.38975 2.33333 2.01553 2.33333 1.72967 2.47866C1.47821 2.60649 1.27377 2.81046 1.14566 3.06135C1 3.34656 1 3.71993 1 4.46667V10.8667C1 11.6134 1 11.9868 1.14566 12.272C1.27377 12.5229 1.47821 12.7269 1.72967 12.8547C2.01553 13 2.38974 13 3.13818 13Z" stroke="white" stroke-linecap="round" stroke-linejoin="round"/>
</svg>
