<svg width="22" height="14" viewBox="0 0 22 14" fill="none" xmlns="http://www.w3.org/2000/svg">
<path d="M2.54665 0C1.39744 0 0.454106 0.948184 0.454106 2.09739V6.28247V11.4526C0.4541 11.4543 0.4541 11.4559 0.454106 11.4575C0.454557 12.5671 1.15692 13.4442 2.04259 13.8069C2.92826 14.1695 4.04654 14.0397 4.84153 13.2616C4.84274 13.2616 4.84395 13.2616 4.84517 13.2616L8.97814 9.18682H13.0227L17.1556 13.2616C17.1573 13.2616 17.1589 13.2616 17.1605 13.2616C17.9555 14.0397 19.0726 14.1695 19.9582 13.8069C20.8439 13.4442 21.5463 12.5671 21.5467 11.4575C21.5467 11.4571 21.5467 11.4579 21.5467 11.4575C21.5467 11.4571 21.5467 11.4555 21.5467 11.4551C21.5467 11.4546 21.5467 11.4555 21.5467 11.4551C21.5467 11.4546 21.5467 11.453 21.5467 11.4526V6.28247V2.09739C21.5467 0.948182 20.6034 0 19.4542 0H2.54665ZM2.54665 1.24074H19.4542C19.9375 1.24074 20.306 1.61409 20.306 2.09739V6.28247V11.4526C20.3057 12.0551 19.9582 12.4635 19.4857 12.657C19.0145 12.8499 18.468 12.8036 18.0305 12.3783H18.0256L13.7157 8.12419C13.7125 8.12174 13.7093 8.11932 13.7061 8.11692C13.6819 8.09387 13.656 8.0728 13.6285 8.05392C13.6206 8.0485 13.6125 8.04326 13.6043 8.03821C13.5786 8.02256 13.5519 8.00879 13.5243 7.99702C13.5167 7.99366 13.509 7.99045 13.5013 7.9874C13.4294 7.95938 13.353 7.945 13.2759 7.94499H8.72491C8.68462 7.94515 8.64445 7.94923 8.60495 7.95718C8.60455 7.95718 8.60536 7.95718 8.60495 7.95718C8.56981 7.96428 8.53414 7.97442 8.50075 7.98747C8.49629 7.98867 8.49184 7.98992 8.48741 7.99122C8.48701 7.99163 8.48781 7.99082 8.48741 7.99122C8.48213 7.99357 8.47566 7.99721 8.47044 7.9997C8.44493 8.01134 8.42024 8.0247 8.39653 8.03968C8.38542 8.04622 8.3745 8.0531 8.36382 8.06031C8.34263 8.07519 8.3224 8.09137 8.30323 8.10878C8.29708 8.1139 8.29102 8.11913 8.28506 8.12449L3.97155 12.3786C3.53402 12.8039 2.98626 12.8514 2.51513 12.6585C2.04256 12.465 1.69508 12.0567 1.69483 11.4541V6.28276V2.09768C1.69483 1.61439 2.06335 1.24074 2.54665 1.24074ZM5.49946 2.4524C5.33556 2.45272 5.17844 2.51789 5.06243 2.63368C4.94642 2.74946 4.88095 2.90645 4.88031 3.07035V4.4262H3.48447C3.40259 4.42588 3.32147 4.44177 3.24576 4.47296C3.17005 4.50414 3.10127 4.55 3.04338 4.6079C2.98548 4.66579 2.93962 4.73458 2.90843 4.81028C2.87725 4.88599 2.86136 4.96712 2.86168 5.04899C2.862 5.13046 2.87836 5.21107 2.90983 5.28622C2.9413 5.36136 2.98726 5.42957 3.04509 5.48695C3.10292 5.54434 3.17149 5.58977 3.24688 5.62065C3.32227 5.65153 3.403 5.66726 3.48447 5.66694H4.88031V7.02764C4.88095 7.19154 4.94642 7.34853 5.06243 7.46431C5.17844 7.5801 5.33556 7.64527 5.49946 7.64559C5.66316 7.64495 5.81996 7.57964 5.93571 7.46389C6.05146 7.34814 6.11677 7.19133 6.11741 7.02764V5.66694H7.51446C7.59593 5.66726 7.67666 5.65153 7.75205 5.62065C7.82744 5.58977 7.89601 5.54434 7.95384 5.48695C8.01167 5.42957 8.05763 5.36136 8.0891 5.28622C8.12057 5.21107 8.13693 5.13046 8.13725 5.04899C8.13757 4.96712 8.12168 4.88599 8.0905 4.81028C8.05931 4.73458 8.01345 4.66579 7.95555 4.6079C7.89766 4.55 7.82888 4.50414 7.75317 4.47296C7.67746 4.44177 7.59634 4.42588 7.51446 4.4262H6.11741V3.07035C6.11677 2.90666 6.05146 2.74985 5.93571 2.6341C5.81996 2.51835 5.66316 2.45304 5.49946 2.4524ZM16.7049 2.61477C15.3679 2.61477 14.2683 3.70961 14.2683 5.04658C14.2683 6.38355 15.3679 7.48323 16.7049 7.48323C18.0419 7.48323 19.1367 6.38355 19.1367 5.04658C19.1367 3.70961 18.0419 2.61477 16.7049 2.61477ZM16.7049 3.85552C17.3713 3.85552 17.8996 4.38016 17.8996 5.04658C17.8996 5.71301 17.3713 6.24128 16.7049 6.24128C16.0385 6.24128 15.509 5.71301 15.509 5.04658C15.509 4.38016 16.0385 3.85552 16.7049 3.85552Z" fill="currentColor"/>
</svg>
