<svg width="18" height="18" viewBox="0 0 512 512" version="1.1" xmlns="http://www.w3.org/2000/svg">
<g id="#000000ff">
<path fill="#686868" opacity="1.00" d=" M 131.29 62.59 C 138.11 44.50 156.70 31.77 176.04 32.02 C 250.70 31.99 325.35 31.99 400.00 32.02 C 419.11 31.76 437.49 44.21 444.46 61.97 C 447.37 68.93 448.20 76.54 448.01 84.02 C 447.99 176.66 448.00 269.29 448.00 361.93 C 448.08 368.30 448.02 374.79 446.18 380.95 C 442.09 395.97 430.17 408.54 415.39 413.44 C 405.33 417.09 394.47 415.73 384.00 416.00 C 383.77 426.72 385.08 437.84 381.19 448.10 C 374.88 466.47 356.50 479.83 337.05 479.95 C 265.35 480.06 193.65 479.97 121.96 480.00 C 115.29 479.92 108.51 480.39 101.95 478.89 C 88.99 476.19 77.38 467.78 70.69 456.37 C 66.12 448.75 63.90 439.84 64.00 430.99 C 64.01 335.31 63.98 239.64 64.02 143.96 C 63.71 123.42 78.22 103.91 97.91 98.15 C 107.63 95.00 117.96 96.26 128.00 95.99 C 128.21 84.82 126.85 73.17 131.29 62.59 M 173.11 64.26 C 165.71 65.48 159.85 72.48 160.01 79.99 C 159.99 176.01 159.99 272.04 160.02 368.07 C 159.81 376.56 167.51 384.15 175.98 383.98 C 250.66 384.01 325.34 384.01 400.03 383.99 C 408.52 384.18 416.16 376.56 415.98 368.06 C 416.01 272.01 416.02 175.95 415.98 79.89 C 416.12 71.43 408.50 63.78 400.02 64.01 C 327.00 63.98 253.99 64.01 180.98 64.00 C 178.35 64.01 175.71 63.87 173.11 64.26 M 96.02 143.95 C 95.99 239.98 95.99 336.01 96.02 432.05 C 95.80 440.54 103.49 448.14 111.95 447.98 C 186.64 448.01 261.33 448.01 336.02 447.99 C 344.14 448.16 351.61 441.18 351.93 433.06 C 352.10 427.38 351.95 421.69 352.00 416.00 C 297.32 416.00 242.65 416.00 187.98 416.00 C 179.31 415.91 170.42 416.62 162.04 413.88 C 142.63 408.25 128.13 389.25 128.04 368.99 C 127.94 288.66 128.03 208.33 128.00 128.01 C 122.30 128.04 116.59 127.90 110.90 128.06 C 102.77 128.38 95.82 135.83 96.02 143.95 Z"></path>
</g>
</svg>