<svg xmlns="http://www.w3.org/2000/svg" width="17" height="17"
                                            viewBox="0 0 17 17" fill="none">
                                            <path
                                                d="M11.8217 0.166748H4.845C1.81167 0.166748 0 1.97758 0 5.01175V11.9884C0 15.0226 1.81167 16.8334 4.845 16.8334H11.8217C14.855 16.8334 16.6667 15.0226 16.6667 11.9884V5.01175C16.6667 1.97758 14.855 0.166748 11.8217 0.166748ZM6.77333 10.5834C6.83139 10.6415 6.87744 10.7104 6.90886 10.7862C6.94028 10.8621 6.95645 10.9434 6.95645 11.0255C6.95645 11.1076 6.94028 11.1889 6.90886 11.2648C6.87744 11.3406 6.83139 11.4095 6.77333 11.4676C6.71528 11.5256 6.64636 11.5717 6.5705 11.6031C6.49465 11.6345 6.41335 11.6507 6.33125 11.6507C6.24915 11.6507 6.16785 11.6345 6.092 11.6031C6.01614 11.5717 5.94722 11.5256 5.88917 11.4676L3.81333 9.38758C3.57899 9.15182 3.44746 8.83291 3.44746 8.5005C3.44746 8.16809 3.57899 7.84918 3.81333 7.61341L5.88917 5.53675C6.00641 5.4195 6.16544 5.35363 6.33125 5.35363C6.49706 5.35363 6.65609 5.4195 6.77333 5.53675C6.89058 5.654 6.95645 5.81302 6.95645 5.97883C6.95645 6.14464 6.89058 6.30367 6.77333 6.42092L4.6975 8.50008L6.77333 10.5834ZM12.8567 9.39091L10.78 11.4676C10.7219 11.5258 10.653 11.572 10.5771 11.6036C10.5012 11.6352 10.4198 11.6515 10.3376 11.6516C10.2553 11.6517 10.1739 11.6356 10.0979 11.6043C10.0219 11.5729 9.9528 11.5269 9.89458 11.4688C9.83636 11.4108 9.79015 11.3418 9.75858 11.2659C9.72701 11.19 9.7107 11.1086 9.71058 11.0264C9.71047 10.9442 9.72655 10.8627 9.7579 10.7867C9.78926 10.7107 9.83528 10.6416 9.89333 10.5834L11.9692 8.50842L9.89333 6.42508C9.77609 6.30783 9.71022 6.14881 9.71022 5.983C9.71022 5.81718 9.77609 5.65816 9.89333 5.54092C10.0106 5.42367 10.1696 5.3578 10.3354 5.3578C10.5012 5.3578 10.6603 5.42367 10.7775 5.54092L12.8533 7.61675C13.0865 7.85222 13.2174 8.17018 13.2176 8.50158C13.2177 8.83297 13.0871 9.15105 12.8542 9.38675L12.8567 9.39091Z"
                                                fill="url(#paint0_linear_545_6952)" />
                                            <defs>
                                                <linearGradient id="paint0_linear_545_6952" x1="-2.00468e-07"
                                                    y1="1.53039" x2="18.4057" y2="4.03035"
                                                    gradientUnits="userSpaceOnUse">
                                                    <stop stop-color="#36E2FA" />
                                                    <stop offset="1" stop-color="#EBFFBF" />
                                                </linearGradient>
                                            </defs>
                                        </svg>