<svg xmlns="http://www.w3.org/2000/svg" width="20" height="21"
                                            viewBox="0 0 20 21" fill="none">
                                            <path
                                                d="M10 0.500488C4.47773 0.500488 0 4.97734 0 10.5C0 16.0228 4.47729 20.4996 10 20.4996C15.5231 20.4996 20 16.0228 20 10.5C20 4.97734 15.5231 0.500488 10 0.500488ZM10 3.49047C11.8273 3.49047 13.308 4.97163 13.308 6.79804C13.308 8.62488 11.8273 10.1056 10 10.1056C8.17359 10.1056 6.69288 8.62488 6.69288 6.79804C6.69288 4.97163 8.17359 3.49047 10 3.49047ZM9.9978 17.8852C8.17535 17.8852 6.50619 17.2215 5.21875 16.1229C4.90512 15.8554 4.72415 15.4632 4.72415 15.0516C4.72415 13.1992 6.22332 11.7168 8.07608 11.7168H11.9248C13.778 11.7168 15.2715 13.1992 15.2715 15.0516C15.2715 15.4636 15.0914 15.855 14.7773 16.1225C13.4903 17.2215 11.8207 17.8852 9.9978 17.8852Z"
                                                fill="url(#paint0_linear_545_6935)" />
                                            <defs>
                                                <linearGradient id="paint0_linear_545_6935" x1="-2.40561e-07"
                                                    y1="2.13678" x2="22.0867" y2="5.13686"
                                                    gradientUnits="userSpaceOnUse">
                                                    <stop stop-color="#36E2FA" />
                                                    <stop offset="1" stop-color="#EBFFBF" />
                                                </linearGradient>
                                            </defs>
                                        </svg>