<svg width="20" height="14" viewBox="0 0 20 14" fill="none" xmlns="http://www.w3.org/2000/svg">
<path d="M19.1863 0H12.1863C12.1035 0.00322723 12.0229 0.0284236 11.9529 0.0730098C11.883 0.117596 11.8261 0.179971 11.7882 0.253748L10.5895 2.87873L9.59198 5.06622C9.56001 5.13652 9.54722 5.21402 9.55491 5.29086C9.56259 5.36771 9.59048 5.44114 9.63573 5.50372L11.7138 8.36495L9.59636 13.3918C9.5682 13.4583 9.55693 13.5307 9.56356 13.6026C9.5702 13.6745 9.59453 13.7437 9.63439 13.8039C9.67424 13.8641 9.72838 13.9135 9.79198 13.9477C9.85557 13.9819 9.92664 13.9999 9.99886 13.9999H19.1863C19.3023 13.9999 19.4136 13.9538 19.4957 13.8718C19.5777 13.7897 19.6238 13.6785 19.6238 13.5624V0.437497C19.6238 0.321466 19.5777 0.210187 19.4957 0.12814C19.4136 0.0460934 19.3023 0 19.1863 0ZM18.7488 2.62498H11.6788L12.4751 0.874995H18.7488V2.62498ZM18.7488 13.1249H10.6595L12.6238 8.48308C12.6552 8.4124 12.6673 8.33468 12.6588 8.25783C12.6503 8.18098 12.6217 8.10775 12.5757 8.04558L10.502 5.18872L11.2763 3.49998H18.7488V13.1249Z" fill="currentColor"/>
<path d="M2.125 1.31274C2.03847 1.31274 1.95388 1.3384 1.88194 1.38648C1.80999 1.43455 1.75392 1.50288 1.7208 1.58282C1.68769 1.66276 1.67903 1.75073 1.69591 1.83559C1.71279 1.92046 1.75446 1.99841 1.81564 2.0596C1.87683 2.12078 1.95478 2.16245 2.03965 2.17933C2.12451 2.19621 2.21248 2.18755 2.29242 2.15444C2.37236 2.12132 2.44069 2.06525 2.48876 1.9933C2.53684 1.92136 2.5625 1.83677 2.5625 1.75024C2.5625 1.63421 2.5164 1.52293 2.43436 1.44088C2.35231 1.35884 2.24103 1.31274 2.125 1.31274Z" fill="currentColor"/>
<path d="M3.4375 1.31274C3.35097 1.31274 3.26638 1.3384 3.19444 1.38648C3.12249 1.43455 3.06642 1.50288 3.0333 1.58282C3.00019 1.66276 2.99153 1.75073 3.00841 1.83559C3.02529 1.92046 3.06696 1.99841 3.12814 2.0596C3.18933 2.12078 3.26728 2.16245 3.35215 2.17933C3.43701 2.19621 3.52498 2.18755 3.60492 2.15444C3.68486 2.12132 3.75319 2.06525 3.80126 1.9933C3.84934 1.92136 3.875 1.83677 3.875 1.75024C3.875 1.63421 3.8289 1.52293 3.74686 1.44088C3.66481 1.35884 3.55353 1.31274 3.4375 1.31274Z" fill="currentColor"/>
<path d="M4.75 1.31274C4.66347 1.31274 4.57888 1.3384 4.50694 1.38648C4.43499 1.43455 4.37892 1.50288 4.3458 1.58282C4.31269 1.66276 4.30403 1.75073 4.32091 1.83559C4.33779 1.92046 4.37946 1.99841 4.44064 2.0596C4.50183 2.12078 4.57978 2.16245 4.66465 2.17933C4.74951 2.19621 4.83748 2.18755 4.91742 2.15444C4.99736 2.12132 5.06569 2.06525 5.11376 1.9933C5.16184 1.92136 5.1875 1.83677 5.1875 1.75024C5.1875 1.63421 5.1414 1.52293 5.05936 1.44088C4.97731 1.35884 4.86603 1.31274 4.75 1.31274Z" fill="currentColor"/>
<path d="M10.3543 8.49628L8.3112 5.63067L10.4112 0.608203C10.4397 0.541025 10.4509 0.467793 10.4438 0.395174C10.4368 0.322555 10.4117 0.252855 10.3708 0.192416C10.3299 0.131978 10.2746 0.0827209 10.2098 0.0491287C10.145 0.0155365 10.0729 -0.00132431 9.99994 8.1198e-05H0.812497C0.696466 8.1198e-05 0.585187 0.0461746 0.50314 0.128221C0.421093 0.210268 0.375 0.321547 0.375 0.437579V13.5625C0.375 13.6785 0.421093 13.7898 0.50314 13.8719C0.585187 13.9539 0.696466 14 0.812497 14H7.59808C7.67887 13.9998 7.75802 13.9771 7.82675 13.9347C7.89548 13.8922 7.9511 13.8315 7.98746 13.7594L10.3893 8.9469C10.4251 8.87572 10.4407 8.79613 10.4345 8.71672C10.4283 8.63731 10.4006 8.56109 10.3543 8.49628ZM1.24999 0.875076H9.35245L8.61745 2.62507H1.24999V0.875076ZM7.32683 13.125H1.24999V3.50006H8.24995L7.40558 5.51692C7.37423 5.5876 7.36217 5.66531 7.37062 5.74217C7.37908 5.81902 7.40775 5.89225 7.45371 5.95442L9.48807 8.80253L7.32683 13.125Z" fill="currentColor"/>
</svg>
