<svg width="24" height="24" viewBox="0 0 18 18" fill="none" className="ip-event-icon">
	<path d="M17.9998 9.00008C18.0031 10.5583 17.5987 12.0905 16.8268 13.4441C16.7213 13.6304 16.6095 13.8134 16.4885 13.9935C16.3579 14.1931 16.217 14.3858 16.0664 14.5707C15.9299 14.7475 15.7809 14.9214 15.6289 15.0889C15.4458 15.2876 15.2534 15.4769 15.0547 15.6599C14.8716 15.8276 14.6793 15.989 14.4807 16.138C14.3379 16.2528 14.1889 16.3582 14.04 16.4607C13.8072 16.6159 13.5713 16.7617 13.3262 16.8982H13.32C12.9063 17.1238 12.4757 17.3169 12.032 17.4755C11.7047 17.5947 11.3698 17.6922 11.0296 17.7672C10.6711 17.8522 10.3071 17.9124 9.94034 17.9473C9.91782 17.9518 9.89502 17.955 9.87209 17.9565C9.58343 17.9845 9.29476 18 8.99992 18C4.02947 18 0 13.9705 0 9.00008C0.000137328 8.09221 0.136092 7.18941 0.403469 6.32178C0.523219 5.94357 0.667413 5.57348 0.834816 5.21381C0.97956 4.90222 1.14119 4.59859 1.31903 4.30457L1.32521 4.29523C1.58559 3.87061 1.88139 3.46879 2.20974 3.0943C2.39005 2.8824 2.58286 2.68135 2.78693 2.49211L2.79311 2.48593C3.07752 2.20881 3.38252 1.95365 3.70552 1.72253C3.90409 1.57669 4.10899 1.44018 4.3169 1.30972C4.53415 1.1794 4.75759 1.05841 4.98418 0.946625C5.18495 0.841844 5.39108 0.747637 5.60174 0.664279H5.60476C5.81281 0.577351 6.02375 0.49976 6.241 0.431508C6.44274 0.366278 6.65065 0.307364 6.85857 0.257651C9.54319 -0.398639 12.3804 0.214256 14.5546 1.92028C16.7287 3.6263 17.999 6.2365 17.9998 9.00008Z" fill="#C03A2B" />
	<path d="M15.055 15.6598C14.8719 15.8275 14.6795 15.9888 14.4809 16.1378C8.21877 15.3199 3.53932 9.97729 3.55374 3.662C3.55237 3.01244 3.60318 2.36384 3.70577 1.72238C3.90434 1.57654 4.10924 1.44003 4.31715 1.30957C4.36219 1.3748 4.37895 1.45541 4.3637 1.533C3.77567 4.80113 4.57093 8.16649 6.55985 10.8256C8.54863 13.4845 11.5523 15.1982 14.8532 15.5575C14.9305 15.5663 15.0022 15.6027 15.055 15.6598Z" fill="#E6E7E8" />
	<path d="M16.067 14.5705C15.9304 14.7474 15.7814 14.9212 15.6294 15.0887C15.4867 15.0671 15.3471 15.0454 15.2074 15.0205C15.1263 15.0061 15.0542 14.9601 15.0071 14.8926C14.96 14.8251 14.9415 14.7416 14.956 14.6606C14.9593 14.6424 14.9645 14.6247 14.9715 14.6077C15.0216 14.4656 15.1679 14.3812 15.316 14.4091C15.5115 14.4463 15.707 14.4743 15.9056 14.5022C15.9652 14.508 16.0215 14.5317 16.067 14.5705Z" fill="#E6E7E8" />
	<path d="M7.54962 9.35146C7.45336 9.2096 7.26041 9.17266 7.11855 9.26893C6.97669 9.36506 6.93975 9.55814 7.03602 9.7C7.26879 10.0429 7.5223 10.3789 7.78885 10.6982C7.85889 10.7868 7.97136 10.8303 8.08273 10.8121C8.19397 10.7938 8.28666 10.7165 8.32456 10.6102C8.3626 10.5039 8.33981 10.3854 8.26524 10.3008C8.01173 9.9969 7.77086 9.67762 7.54962 9.35146Z" fill="#E6E7E8" />
	<path d="M5.84448 7.50491C6.00488 7.88723 6.18588 8.26639 6.38542 8.63209C6.43829 8.72946 6.53922 8.79139 6.65005 8.79428C6.76087 8.79716 6.86483 8.74072 6.92278 8.64624C6.98073 8.55176 6.98389 8.43338 6.93102 8.33601C6.74192 7.98775 6.5704 7.63029 6.41714 7.26499C6.35081 7.10693 6.16899 7.03236 6.01079 7.09869C5.85272 7.16488 5.77829 7.3467 5.84448 7.50491Z" fill="#E6E7E8" />
	<path d="M5.23845 4.15844H5.26948C5.35147 4.15061 5.427 4.11051 5.47946 4.04693C5.53178 3.98334 5.55677 3.90149 5.54881 3.81951C5.51091 3.43101 5.49195 3.03482 5.49168 2.63121C5.49154 2.5495 5.45858 2.47123 5.40022 2.41396C5.34199 2.35656 5.26317 2.32497 5.18146 2.32621C5.00897 2.32868 4.87068 2.46944 4.87109 2.64179C4.87109 3.05459 4.89128 3.47138 4.93124 3.8798C4.94745 4.03745 5.07997 4.15761 5.23845 4.15844Z" fill="#E6E7E8" />
	<path d="M5.11347 5.11583C5.19491 5.52507 5.29694 5.92991 5.41916 6.32885C5.45913 6.45931 5.57943 6.5483 5.71579 6.5483C5.74655 6.54816 5.77718 6.54363 5.8067 6.5347C5.88553 6.51053 5.95145 6.45629 5.99004 6.3835C6.02876 6.31086 6.03686 6.22571 6.01283 6.14702C5.89665 5.768 5.7997 5.38321 5.72225 4.99443C5.68874 4.82634 5.52532 4.71717 5.35723 4.75067C5.189 4.78418 5.07996 4.9476 5.11347 5.11583Z" fill="#E6E7E8" />
	<path d="M10.4929 12.7527C10.4478 12.8217 10.432 12.9057 10.4491 12.9862C10.466 13.0668 10.5142 13.1372 10.5831 13.1823C10.9316 13.4094 11.295 13.622 11.6635 13.8129C11.8151 13.8883 11.9992 13.8283 12.0772 13.678C12.1552 13.5277 12.0982 13.3425 11.9492 13.2621C11.5992 13.0805 11.2538 12.8791 10.924 12.6618C10.8547 12.6163 10.7704 12.6004 10.6894 12.6176C10.6085 12.6346 10.5376 12.6832 10.4929 12.7527Z" fill="#E6E7E8" />
	<path d="M8.63281 11.1781C8.51278 11.3004 8.51457 11.4969 8.63679 11.6169C8.9326 11.9078 9.24694 12.1874 9.57131 12.448C9.70493 12.556 9.90062 12.5351 10.0086 12.4015C10.1165 12.2678 10.0956 12.0722 9.96201 11.9642C9.65357 11.7159 9.3546 11.4503 9.07322 11.174C9.01444 11.1159 8.93479 11.0837 8.85212 11.0845C8.76945 11.0852 8.69049 11.119 8.63281 11.1781Z" fill="#E6E7E8" />
	<path d="M12.6285 13.9307C12.598 14.0072 12.5991 14.0927 12.6317 14.1684C12.6642 14.2441 12.7255 14.3037 12.8021 14.3341C13.1899 14.4884 13.5853 14.6229 13.9867 14.7376C14.0143 14.7457 14.0431 14.7497 14.072 14.7497C14.227 14.75 14.3584 14.6358 14.3799 14.4825C14.4014 14.3289 14.3064 14.1831 14.1574 14.1408C13.7781 14.0324 13.3992 13.9033 13.0317 13.7572C12.8726 13.6938 12.692 13.7715 12.6285 13.9307Z" fill="#E6E7E8" />
	<path d="M5.62715 0.835005C5.59611 1.03358 5.57126 1.23532 5.54956 1.43389C5.535 1.59264 5.40166 1.7139 5.24222 1.71322H5.21118C5.04062 1.69468 4.91634 1.54279 4.93199 1.37182C4.94751 1.22914 4.96303 1.08632 4.98473 0.946653C5.1855 0.841872 5.39163 0.747665 5.60229 0.664307H5.60531C5.62811 0.718139 5.63566 0.77719 5.62715 0.835005Z" fill="#E6E7E8" />
	<path d="M1.32536 4.29492C1.42932 4.35397 1.48974 4.46754 1.48054 4.58674C1.46502 4.78532 1.45568 4.98705 1.45266 5.18879C1.44827 5.35729 1.3108 5.49187 1.1423 5.49283H1.13598C0.979704 5.48899 0.850616 5.36924 0.834961 5.21351L1.32536 4.29492Z" fill="#E6E7E8" />
	<path d="M2.45011 10.2131C2.27749 9.81898 2.12629 9.41565 1.99734 9.00504C1.9641 8.89916 1.8769 8.81909 1.76869 8.79506C1.66034 8.77089 1.54745 8.80632 1.47247 8.88817C1.39735 8.96988 1.37167 9.08537 1.40491 9.19125C1.54086 9.62356 1.70002 10.0483 1.88157 10.4636C1.92373 10.5687 2.01958 10.6424 2.13192 10.6563C2.24425 10.67 2.35508 10.6215 2.42141 10.5298C2.4876 10.4381 2.49858 10.3176 2.45011 10.2153V10.2131Z" fill="#E6E7E8" />
	<path d="M1.67778 7.75449C1.59428 7.33248 1.53358 6.90622 1.49596 6.47775C1.48813 6.36583 1.42056 6.26682 1.31908 6.21875C1.21773 6.17083 1.09825 6.18126 1.00679 6.24622C0.915196 6.31118 0.865896 6.42049 0.877706 6.532C0.917256 6.98285 0.980976 7.43108 1.06887 7.87493C1.09029 7.98383 1.16815 8.07309 1.27321 8.10894C1.37827 8.14478 1.49445 8.12184 1.57794 8.04865C1.66144 7.97545 1.69948 7.86339 1.67778 7.75449Z" fill="#E6E7E8" />
	<path d="M7.55857 15.8518C7.18366 15.6407 6.82043 15.4098 6.47011 15.1603C6.37988 15.0959 6.26219 15.0845 6.16126 15.1304C6.06032 15.1764 5.99152 15.2726 5.98095 15.3831C5.97023 15.4935 6.01926 15.6011 6.10949 15.6655C6.4778 15.9281 6.85984 16.1708 7.25411 16.3927C7.40339 16.4767 7.59263 16.4237 7.67681 16.2745C7.76085 16.125 7.70784 15.9358 7.55857 15.8518Z" fill="#E6E7E8" />
	<path d="M4.54619 13.4477C4.42987 13.3263 4.23816 13.3196 4.11361 13.4325C3.98905 13.5455 3.9771 13.7369 4.08655 13.8645C4.39005 14.1996 4.71112 14.5183 5.04867 14.8191C5.17666 14.9331 5.3729 14.9217 5.48675 14.7937C5.60073 14.6657 5.58933 14.4694 5.46134 14.3555C5.14041 14.0694 4.83485 13.7663 4.54619 13.4477Z" fill="#E6E7E8" />
	<path d="M9.92549 16.8617C9.51433 16.7366 9.11032 16.5894 8.71509 16.4208C8.55785 16.3551 8.37712 16.4285 8.31024 16.5852C8.24323 16.7418 8.31505 16.9231 8.47119 16.9914C8.88716 17.1695 9.31246 17.3249 9.74518 17.4569C9.77443 17.4657 9.80492 17.4702 9.83541 17.4702C9.98921 17.4702 10.1198 17.3576 10.1425 17.2055C10.165 17.0533 10.0727 16.9076 9.92549 16.863V16.8617Z" fill="#E6E7E8" />
	<path d="M3.03092 11.3645C2.94523 11.2159 2.7553 11.1649 2.60672 11.2505C2.45813 11.3362 2.40704 11.5262 2.49273 11.6749C2.71823 12.0672 2.96459 12.4472 3.23073 12.8132C3.28924 12.8935 3.38276 12.9412 3.48218 12.9411C3.59891 12.9409 3.70561 12.8753 3.75848 12.7712C3.81136 12.6671 3.80133 12.5423 3.73253 12.4479C3.47943 12.0995 3.24529 11.7379 3.03092 11.3645Z" fill="#E6E7E8" />
	<path d="M12.0319 17.4757C11.7047 17.5949 11.3697 17.6924 11.0296 17.7673C10.8749 17.7164 10.7863 17.5541 10.8274 17.3966C10.8685 17.239 11.0249 17.1404 11.1847 17.1715C11.3833 17.2087 11.5819 17.2397 11.7806 17.2676C11.8977 17.282 11.9958 17.3632 12.0319 17.4757Z" fill="#E6E7E8" />
	<path d="M2.79384 2.48584C2.86126 2.55464 2.89244 2.65132 2.87761 2.74663C2.84973 2.9452 2.82803 3.14378 2.80935 3.34867C2.79493 3.50907 2.66008 3.6317 2.49899 3.63102C2.48965 3.63157 2.48018 3.63047 2.47111 3.628C2.38954 3.62085 2.31401 3.58144 2.26169 3.51855C2.20923 3.45565 2.1841 3.37435 2.19179 3.29278C2.19797 3.22453 2.20415 3.1593 2.21047 3.0942L2.79384 2.48584Z" fill="#E6E7E8" />
	<path d="M9.4281 15.8094C9.5289 15.8574 9.64783 15.8477 9.73929 15.7837C9.83089 15.7198 9.88115 15.6118 9.87085 15.5005C9.86041 15.3894 9.7912 15.2923 9.68944 15.2463C9.32085 15.0751 8.96119 14.885 8.61196 14.6768C8.46461 14.5891 8.27414 14.6374 8.18638 14.7848C8.09863 14.932 8.14683 15.1226 8.29419 15.2103C8.66181 15.4291 9.04029 15.6289 9.4281 15.8094Z" fill="#E6E7E8" />
	<path d="M6.65666 13.2246C6.57481 13.1498 6.45918 13.1244 6.35358 13.1577C6.24784 13.1912 6.16791 13.2785 6.14402 13.3868C6.12012 13.495 6.15583 13.6079 6.23767 13.6827C6.55353 13.9714 6.8838 14.2439 7.2274 14.4989C7.28054 14.5391 7.34536 14.561 7.41196 14.561C7.54558 14.561 7.6641 14.4755 7.7064 14.3488C7.74869 14.222 7.70502 14.0825 7.59818 14.0023C7.27148 13.7591 6.95713 13.4996 6.65666 13.2246Z" fill="#E6E7E8" />
	<path d="M11.9905 16.0401C11.5947 15.9477 11.204 15.8352 10.8197 15.7031C10.7142 15.6644 10.5961 15.6857 10.5108 15.7587C10.4255 15.8317 10.3864 15.9451 10.4084 16.0552C10.4303 16.1654 10.5101 16.255 10.617 16.2896C11.0214 16.429 11.4328 16.5477 11.8493 16.6449C12.0144 16.6795 12.1767 16.576 12.2152 16.4119C12.2535 16.2476 12.1538 16.083 11.9905 16.0408V16.0401Z" fill="#E6E7E8" />
	<path d="M4.25506 10.8085C4.32633 10.7672 4.37824 10.6993 4.39925 10.6197C4.4204 10.5402 4.40914 10.4555 4.36781 10.3843C4.1636 10.0321 3.97766 9.66952 3.81067 9.29805C3.73775 9.14644 3.55716 9.08066 3.40363 9.14974C3.25023 9.21881 3.17978 9.39775 3.24501 9.55293C3.42066 9.94322 3.61621 10.3244 3.83113 10.6947C3.91723 10.8427 4.10688 10.8931 4.25506 10.8073V10.8085Z" fill="#E6E7E8" />
	<path d="M5.03324 11.4072C4.92983 11.2768 4.74224 11.251 4.60752 11.3488C4.47294 11.4464 4.4393 11.6329 4.53131 11.7715C4.78248 12.118 5.05109 12.4514 5.33605 12.7706C5.45017 12.8984 5.64641 12.9095 5.77426 12.7954C5.90211 12.6812 5.91324 12.4851 5.79912 12.3572C5.52803 12.0536 5.27233 11.7365 5.03324 11.4072Z" fill="#E6E7E8" />
	<path d="M2.53329 6.12967C2.54537 6.12981 2.55746 6.12898 2.56941 6.12747C2.65112 6.11813 2.72582 6.07666 2.77691 6.01212C2.82813 5.94757 2.85161 5.86545 2.84214 5.78374C2.79504 5.37958 2.76839 4.97337 2.76235 4.56647C2.75796 4.39604 2.61829 4.26009 2.44773 4.2605C2.36534 4.2616 2.28692 4.29552 2.22952 4.35443C2.17212 4.41348 2.14053 4.49286 2.14163 4.57525C2.14767 5.00289 2.17527 5.43012 2.2243 5.85501C2.24243 6.01198 2.3755 6.13008 2.53329 6.12967Z" fill="#E6E7E8" />
	<path d="M2.67423 6.75003C2.50682 6.78697 2.40108 6.95259 2.43802 7.11999C2.53072 7.53816 2.6447 7.95138 2.77942 8.35787C2.82158 8.4849 2.94023 8.57045 3.07399 8.57045C3.10722 8.57059 3.14018 8.56523 3.17177 8.55466C3.24991 8.52884 3.31459 8.47295 3.35153 8.39934C3.38847 8.32573 3.39465 8.24059 3.36883 8.16245C3.24057 7.77615 3.13235 7.38353 3.04446 6.98624C3.02675 6.90576 2.97772 6.83572 2.90837 6.79137C2.83888 6.74715 2.7547 6.73218 2.67423 6.75003Z" fill="#E6E7E8" />
	<path d="M14.04 16.4609C13.8073 16.6161 13.5713 16.762 13.3262 16.8985H13.32C13.2548 16.8891 13.1865 16.883 13.1213 16.8736C12.9594 16.8433 12.8494 16.6917 12.8708 16.5282C12.8923 16.3648 13.0377 16.2467 13.2021 16.2592C13.4006 16.2841 13.5994 16.3026 13.8041 16.3181C13.9015 16.3239 13.9898 16.3773 14.04 16.4609Z" fill="#E6E7E8" />
	<path d="M6.86864 0.366439C6.8501 0.568173 6.83458 0.766887 6.82209 0.971643C6.81398 1.13534 6.67871 1.26374 6.51488 1.26333H6.49621C6.32592 1.25344 6.19573 1.10787 6.20452 0.937585C6.2107 0.769908 6.22622 0.59921 6.24174 0.43167C6.44347 0.366439 6.65139 0.307525 6.8593 0.257812C6.86878 0.293243 6.87194 0.330047 6.86864 0.366439Z" fill="#E6E7E8" />
	<path d="M10.0831 10.7225C10.1634 10.799 10.2785 10.8269 10.3849 10.7956C10.4913 10.7644 10.573 10.6787 10.5991 10.5708C10.6254 10.463 10.592 10.3494 10.5117 10.2728C10.2003 9.97572 9.90522 9.6622 9.6274 9.33371C9.55668 9.24651 9.44421 9.20435 9.33352 9.22358C9.22284 9.24266 9.1311 9.32025 9.09375 9.42613C9.05653 9.53215 9.07933 9.64998 9.15349 9.7343C9.44544 10.0801 9.75581 10.41 10.0831 10.7225Z" fill="#E6E7E8" />
	<path d="M13.4256 13.0131C13.8351 13.2052 14.2547 13.3751 14.6825 13.5217C14.7149 13.533 14.7488 13.5388 14.7831 13.5388C14.9347 13.5388 15.0642 13.429 15.0891 13.2795C15.1141 13.1298 15.0272 12.9841 14.8836 12.9349C14.477 12.7954 14.0782 12.6339 13.6892 12.4514C13.5882 12.4006 13.4678 12.4086 13.3746 12.4723C13.2813 12.536 13.2299 12.6453 13.2407 12.7578C13.2512 12.8703 13.3221 12.968 13.4256 13.0131Z" fill="#E6E7E8" />
	<path d="M12.2308 12.3712C12.3769 12.4567 12.5646 12.4095 12.6528 12.2647C12.7408 12.1201 12.6966 11.9316 12.5535 11.8411C12.1861 11.6174 11.8311 11.3742 11.49 11.1124C11.3538 11.0142 11.1644 11.042 11.0622 11.1752C10.9601 11.3082 10.9822 11.4984 11.1122 11.6046C11.4711 11.8799 11.8444 12.1358 12.2308 12.3712Z" fill="#E6E7E8" />
	<path d="M7.63664 7.48927C7.84827 7.88931 8.08117 8.27781 8.33454 8.65299C8.39662 8.74486 8.50304 8.79663 8.61359 8.7888C8.72414 8.78098 8.82219 8.71465 8.87067 8.61495C8.91929 8.51525 8.91091 8.39728 8.84884 8.30541C8.60796 7.94932 8.38645 7.58032 8.18554 7.20033C8.13377 7.10214 8.03352 7.03925 7.9227 7.03513C7.81187 7.03101 7.70723 7.08621 7.64818 7.18015C7.58913 7.27408 7.58473 7.39232 7.63664 7.49051V7.48927Z" fill="#E6E7E8" />
	<path d="M6.49678 1.96773C6.32567 1.97693 6.19438 2.12304 6.20358 2.29429C6.22748 2.7461 6.27568 3.19626 6.34777 3.64299C6.36563 3.75244 6.44047 3.84417 6.54415 3.88345C6.64797 3.92286 6.7647 3.90377 6.85067 3.83374C6.93664 3.76356 6.97852 3.65288 6.96081 3.54343C6.89214 3.11881 6.84614 2.6909 6.8232 2.26133C6.81895 2.17907 6.78214 2.10203 6.72089 2.04696C6.65965 1.9919 6.57904 1.96333 6.49678 1.96773Z" fill="#E6E7E8" />
	<path d="M6.63702 4.96889C6.75732 5.4056 6.90124 5.8353 7.06836 6.25621C7.11519 6.37458 7.22959 6.45245 7.35689 6.45245C7.45975 6.45231 7.55588 6.40136 7.61356 6.31636C7.67137 6.23121 7.68318 6.12314 7.64528 6.02755C7.48666 5.62738 7.34975 5.21911 7.23535 4.8041C7.18784 4.64123 7.01851 4.54675 6.85496 4.59179C6.6914 4.63684 6.59431 4.80479 6.63702 4.96889Z" fill="#E6E7E8" />
	<path d="M16.8274 13.4439C16.7219 13.6301 16.6102 13.8131 16.4892 13.9932C16.3216 13.9653 16.1571 13.9311 15.9957 13.8939C15.8845 13.8725 15.7939 13.7921 15.7591 13.6845C15.7244 13.5767 15.751 13.4586 15.8288 13.3763C15.9063 13.2939 16.0227 13.2604 16.1323 13.2887C16.3278 13.3321 16.5264 13.3694 16.725 13.4035C16.7618 13.409 16.7968 13.4229 16.8274 13.4439Z" fill="#E6E7E8" />
	<path d="M15.2966 5.07586C14.598 4.20795 13.5988 3.85282 13.0647 4.28265C12.5306 4.71263 12.664 5.76456 13.3624 6.63247C14.061 7.50038 15.0602 7.85538 15.5943 7.42554C16.1283 6.9957 15.995 5.94363 15.2966 5.07586Z" fill="#E64C3C" />
	<path d="M11.2217 2.12187C10.7183 2.01763 10.2424 2.25961 10.1591 2.66239C10.0756 3.06517 10.4162 3.47633 10.9197 3.58056C11.4232 3.68479 11.899 3.44282 11.9824 3.04004C12.0659 2.63726 11.7253 2.2261 11.2217 2.12187Z" fill="#E64C3C" />
</svg>
