<svg width="16" height="16" viewBox="0 0 16 16" fill="none" xmlns="http://www.w3.org/2000/svg">
<path d="M13.3798 6.02329H13.1765C12.9665 6.02329 12.7732 5.88663 12.6598 5.65996C12.4465 5.22663 12.0132 4.95996 11.5298 4.95996H9.33318C9.14984 4.95996 8.99984 5.10996 8.99984 5.29329C8.99984 5.47663 9.14984 5.62663 9.33318 5.62663H11.5332C11.7598 5.62663 11.9632 5.75329 12.0632 5.95663C12.2865 6.40996 12.7132 6.68996 13.1765 6.68996H13.3732V9.81663H13.1865C12.7098 9.81663 12.2632 10.0033 11.9332 10.34C11.4798 10.8 10.8565 11.86 10.6232 12.5633C10.5398 12.8133 10.3698 12.9066 10.2298 12.8866C10.0932 12.8666 10.0065 12.74 9.99984 12.55C9.96651 11.7966 10.3565 10.8166 10.8632 10.3666C10.9665 10.2733 11.0032 10.13 10.9532 9.99996C10.9032 9.86996 10.7798 9.78329 10.6398 9.78329H9.17318C8.98984 9.78329 8.83984 9.93329 8.83984 10.1166C8.83984 10.3 8.98984 10.45 9.17318 10.45H9.93651C9.54651 11.0666 9.29984 11.89 9.32984 12.58C9.35651 13.1766 9.75318 13.4966 10.1365 13.55C10.1798 13.5566 10.2232 13.56 10.2665 13.56C10.7032 13.56 11.0965 13.2533 11.2565 12.7766C11.4565 12.1733 12.0265 11.2 12.4098 10.81C12.6165 10.6 12.8932 10.4866 13.1898 10.4866H13.3898C13.4465 10.8666 13.7732 11.16 14.1665 11.16H15.5032C15.6865 11.16 15.8365 11.01 15.8365 10.8266C15.8365 10.6433 15.6865 10.4933 15.5032 10.4933H14.1665C14.0998 10.4933 14.0432 10.44 14.0432 10.37V10.1533V6.35663V6.07329C14.0432 6.00663 14.0965 5.94996 14.1665 5.94996H15.5032C15.6865 5.94996 15.8365 5.79996 15.8365 5.61663C15.8365 5.43329 15.6865 5.28329 15.5032 5.28329H14.1665C13.7465 5.28329 13.4065 5.60996 13.3798 6.02329Z" fill="white"/>
<path d="M1.95699 9.64336V9.92669C1.95699 9.99336 1.90033 10.05 1.83366 10.05H0.500326C0.316992 10.05 0.166992 10.2 0.166992 10.3834C0.166992 10.5667 0.316992 10.7167 0.500326 10.7167H1.83699C2.25699 10.7167 2.59699 10.3867 2.62033 9.97669H2.82366C3.03699 9.97669 3.22699 10.1134 3.34033 10.34C3.55366 10.7734 3.98699 11.04 4.47033 11.04H7.33366C7.90366 11.04 8.40033 10.6334 8.51366 10.0667C8.54366 9.91002 8.52033 9.74669 8.45699 9.60669C8.56699 9.50002 8.64366 9.35669 8.67366 9.19669L8.73366 8.87002C8.76366 8.71336 8.74033 8.55002 8.67699 8.41002C8.78699 8.30336 8.86366 8.16002 8.89366 8.00002L8.95366 7.67336C8.98366 7.51669 8.96033 7.35336 8.89366 7.21336C9.00366 7.10669 9.08033 6.96336 9.11033 6.80336L9.14699 6.60669C9.20033 6.34669 9.13366 6.08336 8.96699 5.87669C8.80033 5.67336 8.55366 5.55669 8.28699 5.55669H6.05699C6.44699 4.94002 6.69366 4.11669 6.66366 3.42669C6.63699 2.83002 6.24033 2.51002 5.85699 2.45669C5.37366 2.39002 4.91366 2.70669 4.74033 3.23336C4.54033 3.83669 3.97033 4.81002 3.58699 5.20002C3.38033 5.41002 3.10366 5.52336 2.80699 5.52336H2.60699C2.55033 5.14336 2.22366 4.85002 1.83033 4.85002H0.500326C0.316992 4.85002 0.166992 5.00002 0.166992 5.18336C0.166992 5.36669 0.316992 5.51669 0.500326 5.51669H1.83699C1.90366 5.51669 1.96033 5.57002 1.96033 5.64002V5.85669V9.64336H1.95699ZM4.06699 5.66002C4.52033 5.20002 5.14366 4.14002 5.37699 3.43669C5.46033 3.18669 5.63033 3.09336 5.77033 3.11336C5.90699 3.13336 5.99366 3.26002 6.00033 3.45002C6.03366 4.20336 5.64366 5.18336 5.13366 5.63336C5.03033 5.72669 4.99366 5.87002 5.04366 6.00002C5.09366 6.13002 5.21699 6.21669 5.35699 6.21669H8.29033C8.37699 6.21669 8.43033 6.26669 8.45366 6.29336C8.47699 6.32002 8.51366 6.38336 8.49699 6.47336L8.46033 6.67669C8.45033 6.72669 8.41033 6.76002 8.36033 6.76002H7.99033C7.80699 6.76002 7.65699 6.91002 7.65699 7.09336C7.65699 7.27669 7.80699 7.42669 7.99033 7.42669H8.20033C8.24033 7.42669 8.26699 7.45002 8.28033 7.46336C8.29033 7.47669 8.31033 7.50669 8.30366 7.54669L8.24366 7.87336C8.23366 7.92336 8.19366 7.95669 8.14366 7.95669H7.76699C7.58366 7.95669 7.43366 8.10669 7.43366 8.29002C7.43366 8.47336 7.58366 8.62336 7.76699 8.62336H7.98699C8.02699 8.62336 8.05366 8.64669 8.06699 8.66002C8.07699 8.67336 8.09699 8.70336 8.09033 8.74336L8.03033 9.07002C8.02033 9.12002 7.98033 9.15336 7.93033 9.15336H7.56699C7.38366 9.15336 7.23366 9.30336 7.23366 9.48669C7.23366 9.67002 7.38366 9.82002 7.56699 9.82002H7.76033C7.80033 9.82002 7.82699 9.84336 7.84033 9.85669C7.85033 9.87002 7.87033 9.90002 7.86366 9.93336C7.81366 10.1834 7.59033 10.3634 7.33699 10.3634H4.47033C4.24366 10.3634 4.04033 10.2367 3.94033 10.0334C3.71699 9.58002 3.29033 9.30002 2.82699 9.30002H2.62366V6.17336H2.81033C3.28699 6.18336 3.73366 6.00002 4.06699 5.66002Z" fill="currentColor"/>
</svg>
