<svg width="10" height="12" viewBox="0 0 10 12" fill="none" xmlns="http://www.w3.org/2000/svg">
<g id="Layer_1">
<g id="Group">
<path id="Vector" d="M6.3125 8.90625C6.51957 8.90625 6.6875 8.73833 6.6875 8.53125V4.78125C6.6875 4.57418 6.51957 4.40625 6.3125 4.40625C6.10543 4.40625 5.9375 4.57418 5.9375 4.78125V8.53125C5.9375 8.73833 6.10543 8.90625 6.3125 8.90625Z" fill="#EF4444"/>
<path id="Vector_2" d="M3.6875 8.90625C3.89457 8.90625 4.0625 8.73833 4.0625 8.53125V4.78125C4.0625 4.57418 3.89457 4.40625 3.6875 4.40625C3.48043 4.40625 3.3125 4.57418 3.3125 4.78125V8.53125C3.3125 8.73833 3.48043 8.90625 3.6875 8.90625Z" fill="#EF4444"/>
<path id="Vector_3" d="M6.5 1.59375C6.70708 1.59375 6.875 1.42582 6.875 1.21875C6.875 1.01168 6.70708 0.84375 6.5 0.84375H3.5C3.29293 0.84375 3.125 1.01168 3.125 1.21875C3.125 1.42582 3.29293 1.59375 3.5 1.59375H6.5Z" fill="#EF4444"/>
<path id="Vector_4" d="M0.875 1.96875C0.667925 1.96875 0.5 2.13668 0.5 2.34375C0.5 2.55082 0.667925 2.71875 0.875 2.71875H1.25V9.61875C1.25 10.4662 1.94 11.1562 2.7875 11.1562H7.2125C8.05996 11.1562 8.75 10.4662 8.75 9.61875V2.71875H9.125C9.33208 2.71875 9.5 2.55082 9.5 2.34375C9.5 2.13668 9.33208 1.96875 9.125 1.96875H8.375H1.625H0.875ZM8 2.71875V9.61875C8 10.0538 7.6475 10.4062 7.2125 10.4062H2.7875C2.3525 10.4062 2 10.0538 2 9.61875V2.71875H8Z" fill="#EF4444"/>
</g>
</g>
</svg>
