<svg width="18" height="18" viewBox="0 0 18 18" fill="none" xmlns="http://www.w3.org/2000/svg">
<mask id="path-1-outside-1_203_2990" maskUnits="userSpaceOnUse" x="0" y="-0.289062" width="18" height="18" fill="black">
<rect fill="currentColor" y="-0.289062" width="18" height="18"/>
<path d="M14.2711 0.845861C14.2458 0.801138 14.2081 0.764705 14.1625 0.740975C14.117 0.717245 14.0655 0.707236 14.0144 0.712161L9.80194 1.08652C9.77807 1.08825 9.75462 1.09366 9.73241 1.10256L7.21708 2.04737C6.30436 2.36469 5.40768 3.93164 5.18663 4.33631L1.42523 6.21166C1.38659 6.23097 1.35325 6.25941 1.32809 6.29451C1.30293 6.32961 1.28671 6.37032 1.28083 6.4131L1.00274 8.33481C0.995171 8.38728 1.00338 8.44082 1.02631 8.48862C1.04924 8.53642 1.08586 8.57633 1.13153 8.60327C1.17719 8.63021 1.22983 8.64296 1.28276 8.63992C1.33569 8.63687 1.38652 8.61816 1.42879 8.58616C1.7158 8.3669 2.5376 7.77505 2.88522 7.66631C3.23284 7.55757 5.04224 7.24917 6.04766 7.07982C6.00327 7.32561 5.88294 7.5513 5.70361 7.72514C5.22229 8.16189 3.1758 9.72706 3.1544 9.74311C3.09881 9.78526 3.06204 9.8476 3.05203 9.91665C3.04203 9.9857 3.05959 10.0559 3.10092 10.1121C3.27036 10.3238 3.39801 10.5658 3.47707 10.8252C3.47412 10.8738 3.48432 10.9223 3.50659 10.9656C3.52886 11.0088 3.56238 11.0453 3.60363 11.0712C3.64526 11.0965 3.69305 11.1099 3.74179 11.1099C3.79053 11.1099 3.83832 11.0965 3.87995 11.0712L5.79987 9.94277C6.70368 9.39192 7.67701 8.94448 7.8838 8.99974C8.26529 9.16018 9.26179 9.08352 9.95168 8.60042C10.0382 8.53838 10.1204 8.47048 10.1977 8.3972C10.4105 8.42683 10.6028 8.53967 10.7325 8.71095C10.9321 9.00865 10.8287 9.47036 10.7057 9.8055C10.6023 10.0889 9.69319 10.5186 8.81434 10.9197C6.52541 11.9803 3.06705 13.5847 2.50195 16.9807C2.49459 17.0191 2.49572 17.0586 2.50526 17.0965C2.51481 17.1343 2.53254 17.1697 2.55721 17.2C2.5825 17.2288 2.61381 17.2517 2.64892 17.2671C2.68404 17.2825 2.7221 17.29 2.76044 17.2891H7.03882H7.06199H7.08873H12.3957C12.4364 17.2892 12.4765 17.28 12.513 17.262C12.5495 17.2441 12.5813 17.218 12.6061 17.1857C12.6315 17.1538 12.6492 17.1164 12.6575 17.0765C12.6659 17.0365 12.6648 16.9952 12.6542 16.9557C12.4278 16.0537 12.6809 14.6615 12.9109 13.7167L13.0179 14.1962C13.0278 14.2355 13.0467 14.272 13.0729 14.3029C13.0992 14.3338 13.1322 14.3583 13.1694 14.3745C13.2063 14.3934 13.2473 14.4033 13.2888 14.4033C13.3303 14.4033 13.3713 14.3934 13.4083 14.3745C14.7042 13.6596 15.0608 11.9055 15.1642 10.8519L15.535 11.4045C15.5609 11.4439 15.5969 11.4755 15.6392 11.4962C15.6816 11.5169 15.7287 11.5259 15.7756 11.5222C15.8228 11.5188 15.8682 11.5029 15.9074 11.4763C15.9465 11.4497 15.9779 11.4133 15.9985 11.3707C16.6473 10.0141 16.2623 7.25808 16.0894 6.24375L16.6866 6.34714C16.7277 6.35402 16.7698 6.35132 16.8097 6.33926C16.8496 6.3272 16.8861 6.30611 16.9165 6.27762C16.9464 6.24852 16.9693 6.21303 16.9835 6.17382C16.9977 6.13461 17.0028 6.0927 16.9985 6.05122C16.6652 3.15262 14.4083 2.46273 13.3958 2.30051L14.2532 1.13643C14.2838 1.09481 14.3017 1.04528 14.3048 0.993765C14.308 0.942247 14.2963 0.890906 14.2711 0.845861ZM12.6881 2.35755C12.6592 2.39736 12.6417 2.44434 12.6376 2.49336C12.6335 2.54239 12.643 2.5916 12.6649 2.63565C12.6866 2.68004 12.7203 2.71744 12.7622 2.7436C12.8041 2.76976 12.8526 2.78362 12.902 2.78361C13.0268 2.78361 15.8594 2.846 16.412 5.75708L15.8024 5.65012C15.7593 5.64288 15.7151 5.64624 15.6736 5.65989C15.6321 5.67355 15.5945 5.6971 15.5642 5.72851C15.5338 5.75993 15.5116 5.79825 15.4993 5.84019C15.4871 5.88213 15.4853 5.92641 15.494 5.96922C15.494 6.00131 16.0965 8.99974 15.6722 10.6647L15.1374 9.87681C15.1046 9.82893 15.0572 9.79287 15.0024 9.77394C14.9475 9.755 14.888 9.75419 14.8326 9.77163C14.7788 9.7906 14.7325 9.82625 14.7005 9.8734C14.6684 9.92054 14.6522 9.9767 14.6543 10.0337C14.6543 10.0622 14.7132 12.6399 13.4457 13.697L13.2032 12.5651C13.1905 12.5078 13.1593 12.4564 13.1145 12.4186C13.0697 12.3809 13.0137 12.3589 12.9552 12.3561C12.8966 12.3532 12.8388 12.3697 12.7905 12.403C12.7423 12.4362 12.7063 12.4844 12.6881 12.5401C12.6506 12.6506 11.8449 15.1196 12.073 16.7632H7.25987C7.25987 16.5725 7.30978 16.1999 7.70375 15.6669V15.6562C8.08524 15.1428 8.77334 14.4832 10.0212 13.6953C10.3524 13.4889 10.6665 13.2564 10.9607 13C11.6844 12.3583 12.0748 11.6844 12.1176 10.9856C12.1278 10.6477 12.0672 10.3114 11.9398 9.9983C11.8124 9.68517 11.621 9.40213 11.3778 9.16731C11.3912 8.89858 11.3201 8.63241 11.1746 8.40611C11.0172 8.18202 10.7914 8.01501 10.531 7.93014C10.6549 7.66585 10.7107 7.37475 10.6933 7.08338C10.69 7.01246 10.6586 6.94576 10.6061 6.89796C10.5536 6.85015 10.4843 6.82515 10.4134 6.82846C10.3425 6.83177 10.2758 6.86312 10.228 6.9156C10.1802 6.96809 10.1552 7.03742 10.1585 7.10834C10.1836 7.40559 10.0907 7.7008 9.89998 7.93014L9.88394 7.94975C9.81257 8.02992 9.73177 8.10115 9.64328 8.16189C9.07105 8.56477 8.25459 8.57547 8.0888 8.50594C7.58609 8.29737 6.26336 9.04074 5.52356 9.49888L3.91916 10.4473C3.8529 10.299 3.77543 10.1559 3.68742 10.0194C4.22222 9.60763 5.65904 8.49881 6.07083 8.12624C6.25039 7.94626 6.39186 7.73197 6.48681 7.49614C6.58175 7.26031 6.62822 7.00777 6.62346 6.75359C6.6216 6.71564 6.61193 6.67848 6.59506 6.64443C6.57819 6.61038 6.55448 6.58018 6.52541 6.55571C6.49488 6.53156 6.45942 6.5144 6.42153 6.50547C6.38364 6.49653 6.34425 6.49604 6.30614 6.50402C6.17957 6.52541 3.20788 7.01564 2.72657 7.16538C2.33412 7.3298 1.96301 7.54109 1.62132 7.79466L1.78889 6.63593L5.50751 4.76771C5.55799 4.74334 5.59926 4.70333 5.62517 4.65362C5.89078 4.14556 6.72685 2.77648 7.40783 2.54295L9.89107 1.61597L13.4706 1.29687L12.6881 2.35755ZM11.2031 9.98198C11.2191 9.93742 11.2316 9.89285 11.2459 9.84828C11.4799 10.1705 11.5975 10.5628 11.5792 10.9607C11.5317 11.4106 11.3404 11.8332 11.0338 12.1657C10.9617 11.9019 10.8371 11.6554 10.6674 11.4409C10.4977 11.2265 10.2864 11.0486 10.0462 10.9179C10.6737 10.6041 11.0801 10.3189 11.2031 9.98198ZM7.53261 15.0251C6.88907 14.1338 5.82126 13.7773 5.15455 13.6436C5.75343 13.1579 6.39685 12.73 7.07625 12.3654C7.4203 12.4848 8.57012 12.9555 8.71452 13.9484C8.28659 14.2682 7.89076 14.6288 7.53261 15.0251ZM9.19048 13.599C8.95339 12.7772 8.22072 12.2905 7.69305 12.0392C8.16367 11.8021 8.61825 11.5899 9.03361 11.3974L9.43471 11.2102C9.73419 11.3279 10.6291 11.7611 10.5275 12.6595C10.2808 12.867 10.0199 13.057 9.74667 13.2282C9.5488 13.3566 9.36518 13.4796 9.19048 13.6008V13.599ZM4.64471 14.0999C5.0672 14.1498 6.52006 14.3958 7.18499 15.4654C6.79637 16.0288 6.71259 16.4655 6.72329 16.7525H3.08666C3.34033 15.7375 3.88128 14.8171 4.64471 14.1017V14.0999Z"/>
</mask>
<path d="M14.2711 0.845861C14.2458 0.801138 14.2081 0.764705 14.1625 0.740975C14.117 0.717245 14.0655 0.707236 14.0144 0.712161L9.80194 1.08652C9.77807 1.08825 9.75462 1.09366 9.73241 1.10256L7.21708 2.04737C6.30436 2.36469 5.40768 3.93164 5.18663 4.33631L1.42523 6.21166C1.38659 6.23097 1.35325 6.25941 1.32809 6.29451C1.30293 6.32961 1.28671 6.37032 1.28083 6.4131L1.00274 8.33481C0.995171 8.38728 1.00338 8.44082 1.02631 8.48862C1.04924 8.53642 1.08586 8.57633 1.13153 8.60327C1.17719 8.63021 1.22983 8.64296 1.28276 8.63992C1.33569 8.63687 1.38652 8.61816 1.42879 8.58616C1.7158 8.3669 2.5376 7.77505 2.88522 7.66631C3.23284 7.55757 5.04224 7.24917 6.04766 7.07982C6.00327 7.32561 5.88294 7.5513 5.70361 7.72514C5.22229 8.16189 3.1758 9.72706 3.1544 9.74311C3.09881 9.78526 3.06204 9.8476 3.05203 9.91665C3.04203 9.9857 3.05959 10.0559 3.10092 10.1121C3.27036 10.3238 3.39801 10.5658 3.47707 10.8252C3.47412 10.8738 3.48432 10.9223 3.50659 10.9656C3.52886 11.0088 3.56238 11.0453 3.60363 11.0712C3.64526 11.0965 3.69305 11.1099 3.74179 11.1099C3.79053 11.1099 3.83832 11.0965 3.87995 11.0712L5.79987 9.94277C6.70368 9.39192 7.67701 8.94448 7.8838 8.99974C8.26529 9.16018 9.26179 9.08352 9.95168 8.60042C10.0382 8.53838 10.1204 8.47048 10.1977 8.3972C10.4105 8.42683 10.6028 8.53967 10.7325 8.71095C10.9321 9.00865 10.8287 9.47036 10.7057 9.8055C10.6023 10.0889 9.69319 10.5186 8.81434 10.9197C6.52541 11.9803 3.06705 13.5847 2.50195 16.9807C2.49459 17.0191 2.49572 17.0586 2.50526 17.0965C2.51481 17.1343 2.53254 17.1697 2.55721 17.2C2.5825 17.2288 2.61381 17.2517 2.64892 17.2671C2.68404 17.2825 2.7221 17.29 2.76044 17.2891H7.03882H7.06199H7.08873H12.3957C12.4364 17.2892 12.4765 17.28 12.513 17.262C12.5495 17.2441 12.5813 17.218 12.6061 17.1857C12.6315 17.1538 12.6492 17.1164 12.6575 17.0765C12.6659 17.0365 12.6648 16.9952 12.6542 16.9557C12.4278 16.0537 12.6809 14.6615 12.9109 13.7167L13.0179 14.1962C13.0278 14.2355 13.0467 14.272 13.0729 14.3029C13.0992 14.3338 13.1322 14.3583 13.1694 14.3745C13.2063 14.3934 13.2473 14.4033 13.2888 14.4033C13.3303 14.4033 13.3713 14.3934 13.4083 14.3745C14.7042 13.6596 15.0608 11.9055 15.1642 10.8519L15.535 11.4045C15.5609 11.4439 15.5969 11.4755 15.6392 11.4962C15.6816 11.5169 15.7287 11.5259 15.7756 11.5222C15.8228 11.5188 15.8682 11.5029 15.9074 11.4763C15.9465 11.4497 15.9779 11.4133 15.9985 11.3707C16.6473 10.0141 16.2623 7.25808 16.0894 6.24375L16.6866 6.34714C16.7277 6.35402 16.7698 6.35132 16.8097 6.33926C16.8496 6.3272 16.8861 6.30611 16.9165 6.27762C16.9464 6.24852 16.9693 6.21303 16.9835 6.17382C16.9977 6.13461 17.0028 6.0927 16.9985 6.05122C16.6652 3.15262 14.4083 2.46273 13.3958 2.30051L14.2532 1.13643C14.2838 1.09481 14.3017 1.04528 14.3048 0.993765C14.308 0.942247 14.2963 0.890906 14.2711 0.845861ZM12.6881 2.35755C12.6592 2.39736 12.6417 2.44434 12.6376 2.49336C12.6335 2.54239 12.643 2.5916 12.6649 2.63565C12.6866 2.68004 12.7203 2.71744 12.7622 2.7436C12.8041 2.76976 12.8526 2.78362 12.902 2.78361C13.0268 2.78361 15.8594 2.846 16.412 5.75708L15.8024 5.65012C15.7593 5.64288 15.7151 5.64624 15.6736 5.65989C15.6321 5.67355 15.5945 5.6971 15.5642 5.72851C15.5338 5.75993 15.5116 5.79825 15.4993 5.84019C15.4871 5.88213 15.4853 5.92641 15.494 5.96922C15.494 6.00131 16.0965 8.99974 15.6722 10.6647L15.1374 9.87681C15.1046 9.82893 15.0572 9.79287 15.0024 9.77394C14.9475 9.755 14.888 9.75419 14.8326 9.77163C14.7788 9.7906 14.7325 9.82625 14.7005 9.8734C14.6684 9.92054 14.6522 9.9767 14.6543 10.0337C14.6543 10.0622 14.7132 12.6399 13.4457 13.697L13.2032 12.5651C13.1905 12.5078 13.1593 12.4564 13.1145 12.4186C13.0697 12.3809 13.0137 12.3589 12.9552 12.3561C12.8966 12.3532 12.8388 12.3697 12.7905 12.403C12.7423 12.4362 12.7063 12.4844 12.6881 12.5401C12.6506 12.6506 11.8449 15.1196 12.073 16.7632H7.25987C7.25987 16.5725 7.30978 16.1999 7.70375 15.6669V15.6562C8.08524 15.1428 8.77334 14.4832 10.0212 13.6953C10.3524 13.4889 10.6665 13.2564 10.9607 13C11.6844 12.3583 12.0748 11.6844 12.1176 10.9856C12.1278 10.6477 12.0672 10.3114 11.9398 9.9983C11.8124 9.68517 11.621 9.40213 11.3778 9.16731C11.3912 8.89858 11.3201 8.63241 11.1746 8.40611C11.0172 8.18202 10.7914 8.01501 10.531 7.93014C10.6549 7.66585 10.7107 7.37475 10.6933 7.08338C10.69 7.01246 10.6586 6.94576 10.6061 6.89796C10.5536 6.85015 10.4843 6.82515 10.4134 6.82846C10.3425 6.83177 10.2758 6.86312 10.228 6.9156C10.1802 6.96809 10.1552 7.03742 10.1585 7.10834C10.1836 7.40559 10.0907 7.7008 9.89998 7.93014L9.88394 7.94975C9.81257 8.02992 9.73177 8.10115 9.64328 8.16189C9.07105 8.56477 8.25459 8.57547 8.0888 8.50594C7.58609 8.29737 6.26336 9.04074 5.52356 9.49888L3.91916 10.4473C3.8529 10.299 3.77543 10.1559 3.68742 10.0194C4.22222 9.60763 5.65904 8.49881 6.07083 8.12624C6.25039 7.94626 6.39186 7.73197 6.48681 7.49614C6.58175 7.26031 6.62822 7.00777 6.62346 6.75359C6.6216 6.71564 6.61193 6.67848 6.59506 6.64443C6.57819 6.61038 6.55448 6.58018 6.52541 6.55571C6.49488 6.53156 6.45942 6.5144 6.42153 6.50547C6.38364 6.49653 6.34425 6.49604 6.30614 6.50402C6.17957 6.52541 3.20788 7.01564 2.72657 7.16538C2.33412 7.3298 1.96301 7.54109 1.62132 7.79466L1.78889 6.63593L5.50751 4.76771C5.55799 4.74334 5.59926 4.70333 5.62517 4.65362C5.89078 4.14556 6.72685 2.77648 7.40783 2.54295L9.89107 1.61597L13.4706 1.29687L12.6881 2.35755ZM11.2031 9.98198C11.2191 9.93742 11.2316 9.89285 11.2459 9.84828C11.4799 10.1705 11.5975 10.5628 11.5792 10.9607C11.5317 11.4106 11.3404 11.8332 11.0338 12.1657C10.9617 11.9019 10.8371 11.6554 10.6674 11.4409C10.4977 11.2265 10.2864 11.0486 10.0462 10.9179C10.6737 10.6041 11.0801 10.3189 11.2031 9.98198ZM7.53261 15.0251C6.88907 14.1338 5.82126 13.7773 5.15455 13.6436C5.75343 13.1579 6.39685 12.73 7.07625 12.3654C7.4203 12.4848 8.57012 12.9555 8.71452 13.9484C8.28659 14.2682 7.89076 14.6288 7.53261 15.0251ZM9.19048 13.599C8.95339 12.7772 8.22072 12.2905 7.69305 12.0392C8.16367 11.8021 8.61825 11.5899 9.03361 11.3974L9.43471 11.2102C9.73419 11.3279 10.6291 11.7611 10.5275 12.6595C10.2808 12.867 10.0199 13.057 9.74667 13.2282C9.5488 13.3566 9.36518 13.4796 9.19048 13.6008V13.599ZM4.64471 14.0999C5.0672 14.1498 6.52006 14.3958 7.18499 15.4654C6.79637 16.0288 6.71259 16.4655 6.72329 16.7525H3.08666C3.34033 15.7375 3.88128 14.8171 4.64471 14.1017V14.0999Z" fill="currentColor"/>
<path d="M14.2711 0.845861C14.2458 0.801138 14.2081 0.764705 14.1625 0.740975C14.117 0.717245 14.0655 0.707236 14.0144 0.712161L9.80194 1.08652C9.77807 1.08825 9.75462 1.09366 9.73241 1.10256L7.21708 2.04737C6.30436 2.36469 5.40768 3.93164 5.18663 4.33631L1.42523 6.21166C1.38659 6.23097 1.35325 6.25941 1.32809 6.29451C1.30293 6.32961 1.28671 6.37032 1.28083 6.4131L1.00274 8.33481C0.995171 8.38728 1.00338 8.44082 1.02631 8.48862C1.04924 8.53642 1.08586 8.57633 1.13153 8.60327C1.17719 8.63021 1.22983 8.64296 1.28276 8.63992C1.33569 8.63687 1.38652 8.61816 1.42879 8.58616C1.7158 8.3669 2.5376 7.77505 2.88522 7.66631C3.23284 7.55757 5.04224 7.24917 6.04766 7.07982C6.00327 7.32561 5.88294 7.5513 5.70361 7.72514C5.22229 8.16189 3.1758 9.72706 3.1544 9.74311C3.09881 9.78526 3.06204 9.8476 3.05203 9.91665C3.04203 9.9857 3.05959 10.0559 3.10092 10.1121C3.27036 10.3238 3.39801 10.5658 3.47707 10.8252C3.47412 10.8738 3.48432 10.9223 3.50659 10.9656C3.52886 11.0088 3.56238 11.0453 3.60363 11.0712C3.64526 11.0965 3.69305 11.1099 3.74179 11.1099C3.79053 11.1099 3.83832 11.0965 3.87995 11.0712L5.79987 9.94277C6.70368 9.39192 7.67701 8.94448 7.8838 8.99974C8.26529 9.16018 9.26179 9.08352 9.95168 8.60042C10.0382 8.53838 10.1204 8.47048 10.1977 8.3972C10.4105 8.42683 10.6028 8.53967 10.7325 8.71095C10.9321 9.00865 10.8287 9.47036 10.7057 9.8055C10.6023 10.0889 9.69319 10.5186 8.81434 10.9197C6.52541 11.9803 3.06705 13.5847 2.50195 16.9807C2.49459 17.0191 2.49572 17.0586 2.50526 17.0965C2.51481 17.1343 2.53254 17.1697 2.55721 17.2C2.5825 17.2288 2.61381 17.2517 2.64892 17.2671C2.68404 17.2825 2.7221 17.29 2.76044 17.2891H7.03882H7.06199H7.08873H12.3957C12.4364 17.2892 12.4765 17.28 12.513 17.262C12.5495 17.2441 12.5813 17.218 12.6061 17.1857C12.6315 17.1538 12.6492 17.1164 12.6575 17.0765C12.6659 17.0365 12.6648 16.9952 12.6542 16.9557C12.4278 16.0537 12.6809 14.6615 12.9109 13.7167L13.0179 14.1962C13.0278 14.2355 13.0467 14.272 13.0729 14.3029C13.0992 14.3338 13.1322 14.3583 13.1694 14.3745C13.2063 14.3934 13.2473 14.4033 13.2888 14.4033C13.3303 14.4033 13.3713 14.3934 13.4083 14.3745C14.7042 13.6596 15.0608 11.9055 15.1642 10.8519L15.535 11.4045C15.5609 11.4439 15.5969 11.4755 15.6392 11.4962C15.6816 11.5169 15.7287 11.5259 15.7756 11.5222C15.8228 11.5188 15.8682 11.5029 15.9074 11.4763C15.9465 11.4497 15.9779 11.4133 15.9985 11.3707C16.6473 10.0141 16.2623 7.25808 16.0894 6.24375L16.6866 6.34714C16.7277 6.35402 16.7698 6.35132 16.8097 6.33926C16.8496 6.3272 16.8861 6.30611 16.9165 6.27762C16.9464 6.24852 16.9693 6.21303 16.9835 6.17382C16.9977 6.13461 17.0028 6.0927 16.9985 6.05122C16.6652 3.15262 14.4083 2.46273 13.3958 2.30051L14.2532 1.13643C14.2838 1.09481 14.3017 1.04528 14.3048 0.993765C14.308 0.942247 14.2963 0.890906 14.2711 0.845861ZM12.6881 2.35755C12.6592 2.39736 12.6417 2.44434 12.6376 2.49336C12.6335 2.54239 12.643 2.5916 12.6649 2.63565C12.6866 2.68004 12.7203 2.71744 12.7622 2.7436C12.8041 2.76976 12.8526 2.78362 12.902 2.78361C13.0268 2.78361 15.8594 2.846 16.412 5.75708L15.8024 5.65012C15.7593 5.64288 15.7151 5.64624 15.6736 5.65989C15.6321 5.67355 15.5945 5.6971 15.5642 5.72851C15.5338 5.75993 15.5116 5.79825 15.4993 5.84019C15.4871 5.88213 15.4853 5.92641 15.494 5.96922C15.494 6.00131 16.0965 8.99974 15.6722 10.6647L15.1374 9.87681C15.1046 9.82893 15.0572 9.79287 15.0024 9.77394C14.9475 9.755 14.888 9.75419 14.8326 9.77163C14.7788 9.7906 14.7325 9.82625 14.7005 9.8734C14.6684 9.92054 14.6522 9.9767 14.6543 10.0337C14.6543 10.0622 14.7132 12.6399 13.4457 13.697L13.2032 12.5651C13.1905 12.5078 13.1593 12.4564 13.1145 12.4186C13.0697 12.3809 13.0137 12.3589 12.9552 12.3561C12.8966 12.3532 12.8388 12.3697 12.7905 12.403C12.7423 12.4362 12.7063 12.4844 12.6881 12.5401C12.6506 12.6506 11.8449 15.1196 12.073 16.7632H7.25987C7.25987 16.5725 7.30978 16.1999 7.70375 15.6669V15.6562C8.08524 15.1428 8.77334 14.4832 10.0212 13.6953C10.3524 13.4889 10.6665 13.2564 10.9607 13C11.6844 12.3583 12.0748 11.6844 12.1176 10.9856C12.1278 10.6477 12.0672 10.3114 11.9398 9.9983C11.8124 9.68517 11.621 9.40213 11.3778 9.16731C11.3912 8.89858 11.3201 8.63241 11.1746 8.40611C11.0172 8.18202 10.7914 8.01501 10.531 7.93014C10.6549 7.66585 10.7107 7.37475 10.6933 7.08338C10.69 7.01246 10.6586 6.94576 10.6061 6.89796C10.5536 6.85015 10.4843 6.82515 10.4134 6.82846C10.3425 6.83177 10.2758 6.86312 10.228 6.9156C10.1802 6.96809 10.1552 7.03742 10.1585 7.10834C10.1836 7.40559 10.0907 7.7008 9.89998 7.93014L9.88394 7.94975C9.81257 8.02992 9.73177 8.10115 9.64328 8.16189C9.07105 8.56477 8.25459 8.57547 8.0888 8.50594C7.58609 8.29737 6.26336 9.04074 5.52356 9.49888L3.91916 10.4473C3.8529 10.299 3.77543 10.1559 3.68742 10.0194C4.22222 9.60763 5.65904 8.49881 6.07083 8.12624C6.25039 7.94626 6.39186 7.73197 6.48681 7.49614C6.58175 7.26031 6.62822 7.00777 6.62346 6.75359C6.6216 6.71564 6.61193 6.67848 6.59506 6.64443C6.57819 6.61038 6.55448 6.58018 6.52541 6.55571C6.49488 6.53156 6.45942 6.5144 6.42153 6.50547C6.38364 6.49653 6.34425 6.49604 6.30614 6.50402C6.17957 6.52541 3.20788 7.01564 2.72657 7.16538C2.33412 7.3298 1.96301 7.54109 1.62132 7.79466L1.78889 6.63593L5.50751 4.76771C5.55799 4.74334 5.59926 4.70333 5.62517 4.65362C5.89078 4.14556 6.72685 2.77648 7.40783 2.54295L9.89107 1.61597L13.4706 1.29687L12.6881 2.35755ZM11.2031 9.98198C11.2191 9.93742 11.2316 9.89285 11.2459 9.84828C11.4799 10.1705 11.5975 10.5628 11.5792 10.9607C11.5317 11.4106 11.3404 11.8332 11.0338 12.1657C10.9617 11.9019 10.8371 11.6554 10.6674 11.4409C10.4977 11.2265 10.2864 11.0486 10.0462 10.9179C10.6737 10.6041 11.0801 10.3189 11.2031 9.98198ZM7.53261 15.0251C6.88907 14.1338 5.82126 13.7773 5.15455 13.6436C5.75343 13.1579 6.39685 12.73 7.07625 12.3654C7.4203 12.4848 8.57012 12.9555 8.71452 13.9484C8.28659 14.2682 7.89076 14.6288 7.53261 15.0251ZM9.19048 13.599C8.95339 12.7772 8.22072 12.2905 7.69305 12.0392C8.16367 11.8021 8.61825 11.5899 9.03361 11.3974L9.43471 11.2102C9.73419 11.3279 10.6291 11.7611 10.5275 12.6595C10.2808 12.867 10.0199 13.057 9.74667 13.2282C9.5488 13.3566 9.36518 13.4796 9.19048 13.6008V13.599ZM4.64471 14.0999C5.0672 14.1498 6.52006 14.3958 7.18499 15.4654C6.79637 16.0288 6.71259 16.4655 6.72329 16.7525H3.08666C3.34033 15.7375 3.88128 14.8171 4.64471 14.1017V14.0999Z" stroke="currentColor" stroke-width="0.2" mask="url(#path-1-outside-1_203_2990)"/>
<path d="M9.42248 5.23844L9.4221 5.23844L6.68246 5.23844H6.68216V5.18844C6.6212 5.18921 6.5618 5.16913 6.51381 5.13152C6.46583 5.09391 6.43214 5.04103 6.41832 4.98165L9.42248 5.23844ZM9.42248 5.23844C9.48394 5.23798 9.54396 5.21978 9.59533 5.18603C9.6467 5.15229 9.68724 5.10443 9.71207 5.0482L9.71211 5.04811M9.42248 5.23844L9.71211 5.04811M9.71211 5.04811L10.484 3.29041L10.4842 3.28997M9.71211 5.04811L10.4842 3.28997M10.4842 3.28997C10.5098 3.23022 10.5166 3.1641 10.5038 3.10038M10.4842 3.28997L10.5038 3.10038M10.5038 3.10038C10.4909 3.03666 10.4591 2.97833 10.4124 2.93311M10.5038 3.10038L10.4124 2.93311M10.4124 2.93311C10.4124 2.93312 10.4124 2.93314 10.4124 2.93315L10.3776 2.96903C10.417 3.0072 10.4439 3.05645 10.4548 3.11024C10.4656 3.16404 10.4598 3.21985 10.4382 3.2703L10.4124 2.93311ZM10.4124 2.93311C10.3647 2.88683 10.3036 2.8568 10.2378 2.84729C10.1721 2.8378 10.1052 2.84924 10.0464 2.87995L10.4124 2.93311ZM8.02238 4.60364L9.54904 3.84031L9.21472 4.60364H8.02238Z" fill="currentColor" stroke="currentColor" stroke-width="0.1"/>
</svg>
