<svg width="88" height="34" viewBox="0 0 88 34" fill="none" xmlns="http://www.w3.org/2000/svg">
<g clip-path="url(#clip0_3974_4083)">
<path d="M29.7807 18.2767L30.5617 16.8946H31.187L31.5306 22.406H30.9256C30.4594 20.8224 29.9102 19.6749 29.2764 18.9652C28.9409 18.5496 28.5187 18.213 28.0396 17.979C27.5605 17.7451 27.0362 17.6195 26.5036 17.6111C25.7183 17.5938 24.9488 17.8343 24.312 18.2962C23.6324 18.8142 23.1245 19.5265 22.855 20.3396C22.464 21.4544 22.2916 22.6347 22.3473 23.8153C22.294 24.967 22.4657 26.1188 22.855 27.2051C23.1136 27.9948 23.602 28.6885 24.257 29.1966C24.8697 29.6276 25.6024 29.8511 26.3504 29.835C26.8106 29.8641 27.2717 29.7978 27.7053 29.6402C28.1388 29.4825 28.5353 29.2369 28.8703 28.9187C29.1669 28.6066 29.3985 28.2382 29.5515 27.8351C29.7045 27.4319 29.7758 27.0022 29.7613 26.571V25.2705C29.7653 25.1771 29.7455 25.0843 29.7037 25.0009C29.662 24.9174 29.5996 24.846 29.5227 24.7936C29.2844 24.6617 29.0128 24.6032 28.7417 24.6253H27.5697V23.9708H32.9877V24.6253H32.5663C32.304 24.6015 32.0417 24.6644 31.82 24.8055C31.7446 24.8701 31.6852 24.9514 31.6466 25.043C31.608 25.1347 31.5911 25.2341 31.5974 25.3334V30.5864H30.9797C30.7659 29.7979 30.5328 29.0148 30.2808 28.2378C29.8752 28.9404 29.3036 29.5319 28.6164 29.9599C27.9533 30.3487 27.1968 30.5477 26.4291 30.5354C25.2906 30.542 24.1724 30.2319 23.1985 29.6395C21.7117 28.6994 20.6398 27.223 20.2031 25.5136C19.767 23.805 20.0002 21.9935 20.8547 20.4527C21.405 19.3939 22.2226 18.4991 23.2256 17.8576C24.1263 17.2481 25.1834 16.9136 26.2692 16.8946C26.8392 16.8922 27.4051 16.9918 27.9404 17.1887C28.6054 17.4551 29.226 17.822 29.7807 18.2767ZM42.281 29.58L42.4248 29.8392C42.4248 30.3322 41.8317 30.2778 41.2774 30.2778C40.8544 30.2778 40.0082 30.254 39.7146 30.0347C39.4218 29.8154 39.3042 29.5613 39.085 28.9816C38.6432 29.4888 38.1141 29.9121 37.523 30.2311C37.0143 30.4521 36.4636 30.5589 35.9094 30.5439C35.1821 30.5955 34.4597 30.3904 33.8668 29.9642C33.644 29.7881 33.4649 29.5625 33.3435 29.3051C33.222 29.0478 33.1617 28.7657 33.167 28.4809C33.167 27.5723 33.7001 26.8175 34.7654 26.2148C36.0909 25.5374 37.5363 25.129 39.019 25.0129V23.6861C39.0196 23.4539 38.9687 23.2245 38.8701 23.0146C38.7715 22.8046 38.6275 22.6194 38.4487 22.4723C38.0473 22.1275 37.5313 21.9472 37.0035 21.9674C36.516 21.9546 36.0336 22.0706 35.6048 22.304C35.3256 22.474 35.1868 22.6397 35.1868 22.8012C35.2198 22.9653 35.2968 23.1166 35.4094 23.2398C35.5667 23.4277 35.6607 23.6606 35.6793 23.9054C35.6838 24.0321 35.6622 24.1584 35.6157 24.2763C35.5693 24.3942 35.499 24.5012 35.4094 24.5905C35.3154 24.6802 35.2044 24.7499 35.083 24.7956C34.9616 24.8413 34.8323 24.862 34.7028 24.8565C34.5578 24.8608 34.4134 24.8349 34.2788 24.7803C34.1443 24.7257 34.0224 24.6437 33.921 24.5395C33.8168 24.432 33.7354 24.3045 33.6817 24.1645C33.6281 24.0245 33.6032 23.8751 33.6087 23.7252C33.6087 23.1089 33.9557 22.5454 34.6478 22.0337C35.4513 21.483 36.4108 21.2086 37.3826 21.2517C38.2287 21.1939 39.0698 21.4319 39.7611 21.9249C40.0155 22.1179 40.2219 22.3674 40.3643 22.654C40.5067 22.9405 40.5812 23.2562 40.5819 23.5764V28.3594C40.5667 28.6484 40.6386 28.9348 40.7884 29.1813C40.8996 29.3566 41.0755 29.4803 41.2774 29.5256C41.61 29.5681 41.9459 29.5859 42.281 29.58ZM39.0343 25.6275C37.4562 25.8468 36.3376 26.2012 35.6793 26.6917C35.4373 26.8765 35.2438 27.1179 35.1158 27.3949C34.9878 27.6719 34.9291 27.9762 34.9448 28.2812C34.9228 28.6926 35.0633 29.0963 35.3357 29.4049C35.4648 29.537 35.6203 29.6402 35.792 29.7076C35.9637 29.775 36.1476 29.8051 36.3317 29.7959C36.6897 29.7982 37.0442 29.7254 37.3725 29.5819C37.7009 29.4384 37.9957 29.2276 38.238 28.9629C38.5054 28.6849 38.7146 28.3561 38.8534 27.9956C38.9921 27.6352 39.0577 27.2505 39.0461 26.8642L39.0343 25.6275Z" fill="white"/>
<path d="M41.9686 21.5244L44.469 21.3646C44.5993 21.9775 44.689 22.5988 44.7381 23.2236C45.1041 22.648 45.5875 22.157 46.1562 21.7828C46.6301 21.504 47.1699 21.3587 47.7191 21.3646C48.256 21.3436 48.7834 21.511 49.2109 21.8381C49.6613 22.2498 49.9772 22.7888 50.1171 23.3842C50.4638 22.7835 50.9375 22.2664 51.5048 21.8695C51.9984 21.5396 52.5788 21.365 53.1717 21.368C53.5032 21.3435 53.836 21.3946 54.1451 21.5173C54.4543 21.6401 54.7318 21.8314 54.9571 22.0769C55.4944 22.762 55.7711 23.6171 55.7389 24.4875V28.8285C55.7261 28.9265 55.7371 29.0262 55.771 29.119C55.8049 29.2118 55.8607 29.295 55.9336 29.3614C56.162 29.5212 56.4379 29.5977 56.7154 29.5765H57.1249V30.2769H52.7342V29.5765H53.1717C53.4459 29.602 53.7209 29.5357 53.9536 29.3886C54.031 29.318 54.0912 29.2304 54.1298 29.1328C54.1684 29.0351 54.1842 28.9298 54.1761 28.8251V24.4799C54.2112 23.9358 54.0424 23.3983 53.7031 22.9728C53.5472 22.7975 53.3548 22.659 53.1395 22.567C52.9242 22.475 52.6913 22.4319 52.4576 22.4407C52.0813 22.4366 51.7124 22.5455 51.3982 22.7535C51.0718 22.9746 50.8145 23.284 50.6561 23.646C50.4248 24.0829 50.2917 24.5654 50.266 25.0596V28.8285C50.2573 28.9325 50.2712 29.0372 50.3069 29.1353C50.3425 29.2333 50.3991 29.3224 50.4725 29.3963C50.6552 29.5314 50.8795 29.5952 51.1054 29.5765H51.7036V30.2769H47.2342V29.5765H47.7504C48 29.5943 48.2496 29.5289 48.4569 29.3886C48.5309 29.3334 48.5907 29.2612 48.6315 29.1782C48.6723 29.0951 48.6928 29.0035 48.6913 28.9109V24.8794C48.7447 24.2266 48.5858 23.574 48.2386 23.0196C48.0966 22.8321 47.9117 22.6816 47.6997 22.5809C47.4876 22.4802 47.2546 22.4321 47.0202 22.4407C46.7318 22.4243 46.4437 22.4768 46.1794 22.5938C45.9151 22.7108 45.6821 22.8891 45.4996 23.1139C44.9987 23.7445 44.7323 24.5309 44.7466 25.3375V28.8285C44.7342 28.9278 44.7434 29.0287 44.7737 29.1241C44.8039 29.2195 44.8544 29.3071 44.9217 29.381C45.1544 29.5289 45.4286 29.5977 45.7036 29.5765H46.152V30.2769H41.7461V29.5765H42.4061C42.6146 29.5907 42.8204 29.5234 42.9806 29.3886C43.0459 29.328 43.0975 29.2539 43.1318 29.1715C43.1661 29.0891 43.1824 29.0002 43.1795 28.9109V23.1768C43.1896 23.0483 43.1734 22.9191 43.1318 22.7971C43.0901 22.6752 43.024 22.5631 42.9375 22.4679C42.653 22.2705 42.3144 22.1665 41.9686 22.1704V21.5244Z" fill="white"/>
<path d="M57.3169 21.5254L60.4417 21.4234V28.951C60.4336 29.0305 60.4426 29.1108 60.4681 29.1865C60.4937 29.2622 60.5352 29.3315 60.5898 29.3896C60.7396 29.5171 60.9325 29.5851 61.1288 29.5766H62.1179V30.2778H56.7812V29.5774H58.0666C58.175 29.5878 58.2844 29.5754 58.3879 29.541C58.4913 29.5066 58.5865 29.451 58.6673 29.3777C58.8048 29.216 58.8738 29.0067 58.8594 28.7946V23.2832C58.8693 23.1389 58.8479 22.9943 58.7968 22.8591C58.7457 22.724 58.666 22.6016 58.5632 22.5003C58.3099 22.3051 57.994 22.2104 57.6756 22.2343H57.3202L57.3169 21.5254ZM59.3789 17.3884C59.5164 17.3883 59.6524 17.4164 59.7787 17.4709C59.905 17.5254 60.0189 17.6052 60.1134 17.7055C60.2142 17.8018 60.2944 17.9179 60.3488 18.0465C60.4032 18.1752 60.4308 18.3137 60.4299 18.4535C60.4306 18.5895 60.4035 18.7243 60.3504 18.8494C60.2973 18.9745 60.2192 19.0874 60.121 19.1811C59.9371 19.3597 59.6943 19.4641 59.4387 19.4746C59.1832 19.485 58.9327 19.4007 58.735 19.2377C58.5373 19.0747 58.4061 18.8443 58.3665 18.5905C58.3269 18.3366 58.3816 18.077 58.5201 17.861C58.6133 17.7182 58.7399 17.6004 58.8889 17.518C59.0379 17.4356 59.2047 17.3911 59.3747 17.3884H59.3789Z" fill="white"/>
<path d="M61.8589 21.5262L64.7578 21.3494C64.8881 21.9835 64.9752 22.6261 65.0201 23.2713C65.3586 22.6907 65.8324 22.2003 66.4027 21.8433C66.9495 21.5211 67.5738 21.3559 68.2075 21.3656C68.7135 21.3477 69.2145 21.465 69.6604 21.7056C70.0767 21.9614 70.405 22.338 70.6022 22.7859C70.8438 23.3025 70.9653 23.8676 70.9575 24.4383V28.6968C70.9453 28.8184 70.9581 28.9411 70.9951 29.0575C71.032 29.1739 71.0924 29.2814 71.1725 29.3734C71.3789 29.5273 71.6345 29.5987 71.8917 29.5732H72.1455V30.2744H68.2583V29.5732H68.3362C68.6365 29.6021 68.9369 29.5332 69.1959 29.3777C69.2788 29.3055 69.3439 29.215 69.3859 29.1131C69.4279 29.0113 69.4457 28.9011 69.4379 28.7912V25.0444C69.4745 24.4158 69.3393 23.7891 69.0469 23.2322C68.8835 22.9605 68.6496 22.7387 68.3703 22.5905C68.0909 22.4422 67.7767 22.3731 67.4612 22.3907C67.1228 22.3866 66.7879 22.4612 66.4829 22.6087C66.1779 22.7561 65.911 22.9724 65.7029 23.2407C65.2128 23.871 64.9636 24.6568 65.0006 25.4558V28.6968C64.9881 28.8186 65.0011 28.9417 65.0387 29.0583C65.0763 29.1748 65.1377 29.2821 65.2189 29.3734C65.4271 29.5264 65.6843 29.5978 65.9415 29.5732H66.1869V30.2744H61.9418V29.5732H62.5468C62.793 29.5902 63.0375 29.5239 63.2423 29.3862C63.3166 29.3328 63.377 29.2622 63.4184 29.1803C63.4598 29.0985 63.481 29.0079 63.4801 28.9161V23.2721C63.491 23.1169 63.4695 22.9612 63.4171 22.8148C63.3646 22.6684 63.2823 22.5347 63.1755 22.4221C62.9339 22.2148 62.6209 22.111 62.3039 22.1331H61.8555L61.8589 21.5262ZM78.7591 22.015C79.3802 21.3843 81.1029 20.4493 81.6732 20.4493C81.8298 20.4283 81.989 20.4394 82.1412 20.4817C82.2935 20.5241 82.4356 20.5969 82.5592 20.6958C82.7665 20.8955 82.3959 21.3452 82.3959 21.6308C82.4025 21.8429 82.3267 22.0493 82.1843 22.2062C82.124 22.2771 82.0492 22.3341 81.9649 22.3733C81.8806 22.4124 81.7889 22.4329 81.6961 22.4332C81.3424 22.4332 81.1029 22.2156 80.9769 21.7795C80.9261 21.5925 80.8449 21.5024 80.7272 21.5024C80.1652 21.7 79.6455 22.0029 79.1957 22.3949C79.4216 22.6882 79.6069 23.0103 79.7465 23.3537C79.8481 23.6334 79.898 23.9283 79.8955 24.2258C79.9051 24.7313 79.7693 25.2289 79.5045 25.6589C79.1738 26.1323 78.7254 26.5103 78.204 26.7554C77.6716 27.0533 77.0752 27.2169 76.466 27.2323H75.4506C74.9616 27.1897 74.4696 27.2664 74.0164 27.4558C73.904 27.529 73.8123 27.63 73.7501 27.7491C73.6879 27.8682 73.6572 28.0014 73.661 28.1358C73.6564 28.2464 73.6806 28.3564 73.7312 28.4548C73.7818 28.5532 73.857 28.6366 73.9495 28.6968C74.2897 28.8575 74.6654 28.9246 75.0394 28.8923L77.3409 28.8447C78.5019 28.8447 79.3396 29.0394 79.8523 29.4278C80.1032 29.6101 80.3056 29.8514 80.442 30.1306C80.5783 30.4098 80.6443 30.7184 80.6342 31.0292C80.6384 31.3896 80.5619 31.7463 80.4103 32.0729C80.2587 32.3996 80.0359 32.6878 79.7584 32.9162C78.9436 33.6387 77.7285 34 76.114 34C74.7779 34 73.7871 33.7535 73.1415 33.2605C72.9161 33.1235 72.7272 32.9335 72.591 32.707C72.4548 32.4805 72.3754 32.2241 72.3596 31.96C72.365 31.7665 72.4114 31.5764 72.4957 31.4024C72.5801 31.2284 72.7004 31.0745 72.8487 30.951C73.3258 30.5797 73.8938 30.3445 74.4928 30.2702C73.9816 30.172 73.5034 29.9457 73.1025 29.6123C72.9523 29.4763 72.8329 29.3095 72.7526 29.1231C72.6723 28.9366 72.6329 28.735 72.6372 28.5319C72.636 28.1484 72.7751 27.7779 73.0281 27.4907C73.3911 27.1264 73.8422 26.8633 74.3371 26.7274C73.8581 26.4788 73.4483 26.1142 73.1449 25.6666C72.8784 25.2405 72.7428 24.745 72.7548 24.242C72.7497 23.8345 72.8367 23.4312 73.0092 23.0624C73.1817 22.6936 73.4352 22.3689 73.7507 22.1127C74.4804 21.5185 75.4015 21.2134 76.3399 21.2551C76.7663 21.2541 77.1905 21.3174 77.5982 21.4429C78.0111 21.5764 78.402 21.7685 78.7591 22.015ZM76.8561 30.2812C75.7138 30.2812 74.8981 30.441 74.4107 30.7589C74.1994 30.8698 74.0207 31.0344 73.8926 31.2364C73.7644 31.4383 73.6913 31.6706 73.6805 31.9098C73.6766 32.1101 73.7254 32.3078 73.8219 32.483C73.9185 32.6583 74.0594 32.8048 74.2305 32.9077C74.8593 33.2684 75.5791 33.4371 76.3019 33.3931C77.1404 33.4484 77.9775 33.2639 78.7159 32.861C79.2575 32.5057 79.5282 32.1147 79.5282 31.6871C79.5257 31.4282 79.4379 31.1775 79.2786 30.974C79.0698 30.7266 78.7899 30.5502 78.4773 30.4691C77.9499 30.3296 77.4054 30.2666 76.8603 30.2821L76.8561 30.2812ZM76.3061 21.8543C76.0468 21.8481 75.7893 21.8995 75.5522 22.0051C75.3151 22.1106 75.1041 22.2675 74.9345 22.4646C74.5491 22.949 74.3569 23.5602 74.3955 24.1791C74.3532 24.8336 74.5452 25.4804 74.9345 26.0066C75.1897 26.3095 75.537 26.5198 75.9229 26.6052C76.3087 26.6906 76.7118 26.6463 77.0702 26.4792C77.3079 26.3687 77.5186 26.2072 77.6879 26.0074C78.0771 25.4881 78.2666 24.8463 78.2235 24.1986C78.2587 23.5747 78.0655 22.9595 77.6802 22.4689C77.5118 22.2703 77.3012 22.1121 77.0641 22.0058C76.8269 21.8994 76.5691 21.8477 76.3095 21.8543H76.3061Z" fill="white"/>
<path d="M82.0006 20.4995C82.1381 20.4995 82.2741 20.5276 82.4004 20.5821C82.5267 20.6366 82.6405 20.7164 82.7351 20.8166C82.836 20.9129 82.9161 21.029 82.9706 21.1576C83.025 21.2863 83.0526 21.4248 83.0516 21.5646C83.0526 21.7008 83.0257 21.8358 82.9726 21.9611C82.9194 22.0864 82.8412 22.1994 82.7427 22.293C82.5899 22.4418 82.3954 22.5401 82.1854 22.5747C81.9754 22.6094 81.7599 22.5787 81.5677 22.4869C81.3756 22.3951 81.2159 22.2465 81.1101 22.061C81.0044 21.8755 80.9575 21.662 80.9759 21.449C80.9914 21.2789 81.0483 21.1152 81.1416 20.9723C81.2348 20.8294 81.3616 20.7117 81.5107 20.6296C81.6596 20.5471 81.8263 20.5021 81.9972 20.4995H82.0006ZM14.8431 2.21265H25.3896L25.6519 5.7903H25.0266C24.7812 4.31895 24.749 4.0172 24.21 3.44175C23.671 2.8663 22.6125 2.92495 21.7494 2.92495H19.0502C18.9601 2.91899 18.8698 2.93194 18.7851 2.96296C18.7003 2.99399 18.6228 3.04241 18.5577 3.10515C18.4368 3.25778 18.3771 3.45029 18.3902 3.6449V8.1822H19.5613C19.8523 8.19078 20.1415 8.13404 20.4079 8.01611C20.6743 7.89818 20.9112 7.72203 21.1013 7.5005C21.5438 6.8953 21.7689 6.1575 21.7376 5.40695H22.3823V11.8066H21.7376C21.7063 10.7466 21.4922 9.98845 21.0928 9.532C20.8886 9.30281 20.636 9.12236 20.3534 9.00383C20.0709 8.8853 19.7655 8.83168 19.4597 8.8469H18.3817V13.9783C18.3761 14.0653 18.3913 14.1524 18.426 14.2322C18.4608 14.3121 18.5141 14.3824 18.5814 14.4373C18.7794 14.5606 19.0129 14.6175 19.2456 14.5971H21.3779C23.6947 14.5971 25.0266 13.8381 25.3819 10.8741H26.0538L25.8194 15.2975H14.8431V14.6005H15.4253C15.6994 14.6294 15.9753 14.5614 16.2063 14.4093C16.2826 14.3395 16.3423 14.2532 16.3809 14.1569C16.4194 14.0607 16.4358 13.9569 16.4288 13.8534V3.6296C16.4367 3.53088 16.4234 3.43161 16.3898 3.33849C16.3563 3.24537 16.3032 3.16058 16.2342 3.08985C16.0584 2.95594 15.8397 2.89179 15.6199 2.90965H14.8389L14.8431 2.21265Z" fill="white"/>
<path d="M25.1982 6.54999H29.968V7.18409C29.5971 7.16286 29.2257 7.21484 28.8748 7.33709C28.8018 7.37235 28.7405 7.42797 28.6982 7.49732C28.6559 7.56666 28.6343 7.64678 28.6362 7.72809C28.6404 7.86409 28.6717 7.99754 28.7292 8.11909L31.046 13.2871L33.1555 8.27634C33.1861 8.19217 33.2022 8.10332 33.2029 8.01369C33.2029 7.55979 32.7561 7.27674 31.8625 7.16454V6.53044H35.4799V7.16454C35.1668 7.18324 34.8647 7.28609 34.6049 7.46204C34.3815 7.63119 34.2072 7.85644 34.1015 8.11654L30.9022 15.5523H30.3979L26.9608 7.91934C26.8696 7.68689 26.7118 7.48689 26.5072 7.34474C26.083 7.22369 25.6434 7.16556 25.2025 7.17219L25.1982 6.54999ZM38.8433 6.29074C39.3989 6.28019 39.9503 6.38859 40.461 6.60872C40.9716 6.82885 41.4297 7.15567 41.8049 7.56744C42.6292 8.48426 43.0601 9.69081 43.0039 10.9249C43.0283 11.7736 42.8443 12.6152 42.4682 13.3755C42.1189 14.0427 41.5896 14.5977 40.9409 14.9769C40.2939 15.3647 39.5536 15.5675 38.8002 15.5634C38.257 15.5701 37.7188 15.4585 37.2226 15.2364C36.7264 15.0142 36.284 14.6868 35.9258 14.2765C35.1616 13.3292 34.7445 12.1468 34.7445 10.9275C34.7445 9.70815 35.1616 8.52583 35.9258 7.57849C36.2906 7.16491 36.7404 6.83564 37.244 6.61334C37.7477 6.39104 38.2933 6.28098 38.8433 6.29074ZM38.8433 6.95629C38.5012 6.95653 38.1646 7.04361 37.8649 7.20944C37.5652 7.37528 37.3121 7.6145 37.129 7.90489C36.6806 8.53644 36.4572 9.53434 36.4572 10.8986C36.4572 12.2637 36.6797 13.2786 37.1248 13.9441C37.3049 14.2393 37.5576 14.4829 37.8586 14.6515C38.1596 14.8202 38.4987 14.9082 38.8433 14.9072C39.1948 14.9105 39.5414 14.8238 39.8504 14.6553C40.1593 14.4868 40.4205 14.2421 40.6092 13.9441C41.0594 13.3024 41.2853 12.2586 41.2853 10.8127C41.2853 9.46124 41.0619 8.48374 40.6169 7.88109C40.4213 7.59057 40.1567 7.35362 39.847 7.19169C39.5374 7.02977 39.1924 6.94799 38.8433 6.95374V6.95714V6.95629Z" fill="white"/>
<path d="M45.9053 2.052V14.0141C45.9025 14.087 45.9154 14.1597 45.9432 14.2272C45.9709 14.2947 46.0129 14.3553 46.0661 14.4051C46.2285 14.5326 46.4299 14.5997 46.6364 14.5938H47.1991V15.2942H42.9683V14.6014H43.4845C43.7155 14.6184 43.9439 14.5445 44.1208 14.394C44.1931 14.3167 44.2491 14.2255 44.2853 14.1259C44.3215 14.0262 44.3372 13.9202 44.3315 13.8143V3.8761C44.3424 3.7512 44.3256 3.62542 44.2823 3.50784C44.239 3.39025 44.1702 3.28378 44.081 3.1961C43.8449 2.99525 43.5432 2.88927 43.234 2.8986H42.4521V2.19735L45.9053 2.052ZM50.3324 6.39295V12.1942C50.2958 12.7907 50.4874 13.3788 50.868 13.8381C51.0433 14.029 51.2577 14.1796 51.4963 14.2797C51.7349 14.3797 51.9922 14.4268 52.2506 14.4178C52.5904 14.4194 52.9263 14.3442 53.2333 14.1978C53.5402 14.0514 53.8105 13.8376 54.0241 13.5721C54.5196 12.9812 54.7798 12.2269 54.7544 11.4547V8.1822C54.7615 8.04866 54.736 7.91539 54.6803 7.79394C54.6246 7.6725 54.5402 7.56652 54.4345 7.4852C54.0565 7.27928 53.6284 7.18443 53.1991 7.2115V6.557L56.2665 6.40145V13.584C56.2571 13.7239 56.2773 13.8642 56.3257 13.9958C56.3741 14.1273 56.4497 14.2471 56.5474 14.3473C56.7632 14.5343 57.0432 14.6303 57.3284 14.6133H57.8792V15.2279L54.9422 15.2942L54.7544 13.5763C54.3136 14.1242 53.7855 14.5949 53.1915 14.9695C52.7096 15.2672 52.1563 15.4282 51.5906 15.4353C51.2242 15.4462 50.8595 15.3825 50.5183 15.248C50.1771 15.1134 49.8666 14.9108 49.6055 14.6524C49.0665 14.1305 48.7975 13.2431 48.7975 11.9911V8.1822C48.8086 8.02843 48.7782 7.87449 48.7093 7.73668C48.6405 7.59887 48.5359 7.48232 48.4065 7.39935C48.046 7.23865 47.6519 7.16863 47.2583 7.19535V6.5417L50.3324 6.39295ZM59.6451 2.9836H60.2696V6.5536H65.5868V7.39935H60.2696V13.0119C60.2425 13.414 60.3644 13.8109 60.614 14.128C60.722 14.254 60.8565 14.3545 61.0078 14.4221C61.1591 14.4897 61.3234 14.5228 61.4889 14.519C61.703 14.5162 61.9133 14.4614 62.1018 14.3593C62.2902 14.2571 62.4513 14.1107 62.5711 13.9325C62.9296 13.3442 63.1112 12.6644 63.0941 11.9749H63.7194C63.683 13.1386 63.4224 14.0022 62.9375 14.5657C62.7022 14.8408 62.4085 15.0596 62.078 15.2059C61.7476 15.3523 61.3887 15.4225 61.0278 15.4115C60.4081 15.447 59.7997 15.2346 59.3355 14.8207C59.1304 14.6172 58.9701 14.3726 58.8652 14.1029C58.7602 13.8332 58.7129 13.5443 58.7262 13.255V7.3985H57.2082V6.7457C57.8198 6.66447 58.3781 6.35383 58.7711 5.87615C59.3574 5.02803 59.6632 4.01605 59.6451 2.9836Z" fill="white"/>
<path d="M63.707 6.55016L67.1847 6.44816V13.9749C67.1767 14.0544 67.1858 14.1347 67.2114 14.2104C67.2369 14.286 67.2783 14.3553 67.3328 14.4135C67.4826 14.5419 67.6746 14.609 67.8718 14.6014H68.5005V15.3026H64.2545V14.6014H64.8172C64.9258 14.6121 65.0354 14.5999 65.139 14.5654C65.2427 14.531 65.338 14.4752 65.4188 14.4016C65.5559 14.2398 65.6246 14.0305 65.61 13.8185V8.47541C65.6199 8.3313 65.5985 8.18676 65.5474 8.05176C65.4963 7.91675 65.4166 7.79449 65.3139 7.69341C65.0607 7.49785 64.7447 7.40284 64.4263 7.42651H63.707V6.55016ZM66.1296 2.41236C66.2677 2.41186 66.4045 2.43972 66.5315 2.49424C66.6585 2.54877 66.7731 2.62879 66.8683 2.72941C66.9706 2.82658 67.0518 2.94393 67.1068 3.07411C67.1619 3.20429 67.1895 3.34448 67.1881 3.48591C67.1889 3.62188 67.162 3.75659 67.109 3.88172C67.0561 4.00685 66.9782 4.11977 66.8801 4.21351C66.7273 4.36257 66.5328 4.46113 66.3226 4.49597C66.1125 4.5308 65.8968 4.50023 65.7044 4.40838C65.512 4.31652 65.3522 4.16776 65.2464 3.98206C65.1406 3.79636 65.0939 3.5826 65.1125 3.36946C65.1359 3.1125 65.2532 2.87335 65.4418 2.69817C65.6304 2.52299 65.8769 2.4242 66.1338 2.42086L66.1296 2.41236ZM72.892 6.29091C73.4476 6.28042 73.999 6.38884 74.5096 6.60896C75.0203 6.82909 75.4784 7.15588 75.8536 7.56761C76.6776 8.48456 77.1081 9.6911 77.0517 10.9251C77.0766 11.7737 76.8929 12.6154 76.517 13.3757C76.1676 14.0429 75.6383 14.5978 74.9896 14.9771C74.3427 15.3651 73.6024 15.5679 72.8489 15.5636C72.3055 15.5704 71.7672 15.4589 71.2708 15.2367C70.7745 15.0146 70.3319 14.687 69.9736 14.2767C69.2087 13.3297 68.7912 12.1472 68.7912 10.9277C68.7912 9.70811 69.2087 8.52566 69.9736 7.57866C70.3386 7.16493 70.7884 6.83556 71.2922 6.61325C71.7961 6.39095 72.3418 6.28097 72.892 6.29091ZM72.892 6.95646C72.5497 6.95624 72.2128 7.04311 71.9129 7.20899C71.613 7.37486 71.3598 7.61433 71.1769 7.90506C70.7284 8.53661 70.505 9.53451 70.505 10.8988C70.505 12.2639 70.7276 13.2788 71.1735 13.9443C71.3539 14.239 71.6066 14.4822 71.9073 14.6508C72.208 14.8195 72.5468 14.9078 72.8912 14.9074C73.2426 14.9102 73.5891 14.8234 73.8979 14.6549C74.2068 14.4865 74.4681 14.2419 74.6571 13.9443C75.1081 13.3026 75.334 12.2588 75.334 10.8129C75.334 9.46141 75.1106 8.48391 74.6656 7.88126C74.4702 7.59052 74.2057 7.3534 73.896 7.19145C73.5863 7.0295 73.2411 6.94785 72.892 6.95391V6.95731V6.95646Z" fill="white"/>
<path d="M76.8678 6.5501L79.7667 6.375C79.897 7.0108 79.985 7.6534 80.029 8.3011C80.3675 7.7197 80.8413 7.22925 81.4116 6.87225C81.9579 6.54972 82.582 6.38445 83.2156 6.39455C83.7216 6.37755 84.2225 6.49485 84.6693 6.73455C85.0856 6.9904 85.4139 7.3678 85.6102 7.81575C85.8522 8.3317 85.9741 8.89695 85.9665 9.4673V13.7258C85.9549 13.8474 85.9678 13.9701 86.0046 14.0865C86.0414 14.2029 86.1012 14.3107 86.1805 14.4032C86.3878 14.5562 86.6434 14.6277 86.8998 14.603H87.1536V15.3034H83.2706V14.603H83.3485C83.6485 14.6322 83.9499 14.5636 84.2082 14.4075C84.2909 14.335 84.3558 14.2443 84.3978 14.1424C84.4398 14.0405 84.4577 13.9302 84.4502 13.8202V10.0725C84.4875 9.44397 84.3526 8.81719 84.0601 8.2603C83.897 7.98822 83.663 7.76605 83.3834 7.61775C83.1038 7.46946 82.7892 7.40066 82.4735 7.4188C82.1352 7.41446 81.8005 7.48886 81.4956 7.63618C81.1907 7.7835 80.9239 7.99974 80.7161 8.26795C80.2256 8.8981 79.9761 9.68397 80.0129 10.4831V13.7241C80.0005 13.8461 80.0134 13.9693 80.051 14.0859C80.0886 14.2026 80.15 14.3101 80.2312 14.4016C80.4402 14.5546 80.6966 14.6251 80.9538 14.6013H81.2001V15.3017H77.2942V14.6013H77.5396C77.7859 14.6183 78.0304 14.552 78.2352 14.4135C78.3089 14.3605 78.3691 14.2906 78.4106 14.2096C78.4521 14.1285 78.4737 14.0388 78.4738 13.9477V8.30025C78.4847 8.14507 78.4633 7.9893 78.4108 7.84293C78.3584 7.69656 78.2761 7.56281 78.1692 7.45025C77.9273 7.24333 77.6145 7.13961 77.2976 7.16125H76.8525L76.8678 6.5501Z" fill="white"/>
<path d="M11.1401 15.3918H10.937V15.079H11.0225C11.0897 15.0709 11.1578 15.0775 11.2222 15.0986C11.2465 15.1107 11.2669 15.1297 11.2807 15.1533C11.2945 15.1768 11.3012 15.2039 11.3 15.2312C11.3004 15.2536 11.2959 15.2759 11.2868 15.2965C11.2778 15.317 11.2644 15.3353 11.2475 15.3502C11.2308 15.3648 11.2111 15.3758 11.1898 15.3822C11.1685 15.3887 11.1461 15.3905 11.124 15.3876L11.1401 15.3918ZM11.487 15.2354C11.4888 15.1883 11.4795 15.1415 11.4599 15.0987C11.4404 15.0559 11.4111 15.0183 11.3745 14.9889C11.2839 14.9275 11.1737 14.9024 11.0656 14.9184H10.7466V15.9205H10.9379V15.5482H11.1054L11.3051 15.9205H11.52L11.2975 15.5295C11.3565 15.5128 11.4081 15.4766 11.4442 15.4268C11.4803 15.377 11.4986 15.3165 11.4963 15.255L11.4879 15.2354H11.487ZM11.1045 16.2257C10.9502 16.2255 10.7993 16.1795 10.6708 16.0935C10.5424 16.0074 10.4422 15.8851 10.3828 15.742C10.3385 15.635 10.3184 15.5195 10.3241 15.4037C10.3297 15.288 10.361 15.175 10.4155 15.0729C10.47 14.9707 10.5464 14.8821 10.6393 14.8133C10.7321 14.7445 10.839 14.6974 10.9522 14.6753C11.0654 14.6528 11.182 14.6558 11.2939 14.6839C11.4057 14.7121 11.51 14.7647 11.5992 14.838C11.6885 14.9114 11.7605 15.0036 11.8102 15.1082C11.8598 15.2127 11.8858 15.327 11.8864 15.4428C11.8864 15.5458 11.8661 15.6478 11.8268 15.7428C11.7875 15.8379 11.7298 15.9243 11.6572 15.997C11.5845 16.0696 11.4983 16.1272 11.4035 16.1663C11.3086 16.2054 11.2071 16.2253 11.1045 16.2248V16.2257ZM11.1045 14.4832C10.9132 14.4835 10.7262 14.5406 10.567 14.6474C10.4079 14.7541 10.2837 14.9058 10.2102 15.0833C10.155 15.2159 10.13 15.3593 10.1369 15.5029C10.1437 15.6464 10.1824 15.7867 10.2499 15.9134C10.3175 16.0402 10.4123 16.1502 10.5275 16.2355C10.6427 16.3208 10.7754 16.3793 10.9159 16.4067C11.1037 16.4438 11.2982 16.4244 11.475 16.3509C11.6519 16.2774 11.8032 16.1531 11.9101 15.9936C12.0079 15.8474 12.0642 15.6772 12.073 15.5013C12.0817 15.3254 12.0426 15.1504 11.9597 14.9952C11.8769 14.84 11.7535 14.7103 11.6028 14.6203C11.4521 14.5302 11.2799 14.4831 11.1045 14.484V14.4832Z" fill="white"/>
<path d="M0.862305 1.77822C5.50769 -0.707181 11.5035 1.91507 11.9562 8.24077C3.34238 8.91822 2.30246 5.03117 0.862305 1.77822Z" fill="white"/>
<path d="M0.862305 15.3416C5.50684 17.827 11.5027 15.2039 11.9562 8.87908C3.34238 8.18208 2.30246 12.0955 0.862305 15.3416Z" fill="white"/>
<path d="M10.3421 3.75362C9.25342 2.34095 7.69694 1.36685 5.95477 1.00788C4.21261 0.648912 2.40007 0.928839 0.845703 1.79692C2.13863 4.70817 3.10747 8.12517 9.47901 8.32492C10.2543 6.94016 10.5574 5.33863 10.3421 3.76467V3.75362ZM2.41193 12.1338C2.59555 12.1338 2.77916 12.161 2.96701 12.161C4.19343 12.1626 5.40121 11.8595 6.48278 11.2787C7.56339 10.6987 8.48408 9.85884 9.16255 8.83407C5.33793 9.01767 3.53732 10.4117 2.41193 12.1338Z" fill="white"/>
</g>
<defs>
<clipPath id="clip0_3974_4083">
<rect width="88" height="34" fill="white"/>
</clipPath>
</defs>
</svg>
