<svg width="356" height="58" viewBox="0 0 356 58" fill="none" xmlns="http://www.w3.org/2000/svg">
<path d="M0.0507812 57.4979H35.6373L40.7622 45.2871H0.0507812V57.4979Z" fill="white"/>
<path d="M0 42.8468L43.9276 36.7894L49.2965 23.6982L0 30.575V42.8468Z" fill="white"/>
<path d="M0 28.1694L53.3406 14.5902L59.346 0L0 15.5054V28.1694Z" fill="white"/>
<path d="M85.3372 34.5927H97.0422L100.904 25.4498H85.3372V19.1134H103.579L107.719 9.34296L107.754 9.25586H73.8672V51.0829H107.806V41.2254H85.3372V34.5927Z" fill="white"/>
<path d="M231.436 13.1692C228.307 10.5632 224.071 9.25586 218.737 9.25586H200.809V51.0917H212.401V39.1423H218.144C223.522 39.1423 227.862 37.8262 231.174 35.2028C234.478 32.5706 236.134 28.8664 236.134 24.0901C236.125 19.4098 234.556 15.7753 231.436 13.1692ZM222.764 28.5526C221.587 29.5462 219.966 30.0517 217.892 30.0517H212.392V18.9914H217.831C219.94 18.9914 221.587 19.462 222.764 20.3946C223.94 21.3272 224.524 22.6956 224.524 24.4911C224.533 26.2081 223.94 27.559 222.764 28.5526Z" fill="white"/>
<path d="M251.748 9.25586H240.156V51.0829H265.807L270.104 40.929H251.748V9.25586Z" fill="white"/>
<path d="M289.854 8.95068L274.889 44.3542L272.039 51.0828H275.935H284.232L287.222 43.6134H303.355L306.405 51.0828H318.843L301.028 8.95068H289.854ZM290.621 34.5925L295.345 22.6955L300.008 34.5925H290.621Z" fill="white"/>
<path d="M342.26 9.25586L333.588 24.4911L324.986 9.25586H311.781L327.679 35.4294V51.0829H339.323V35.2463L355.229 9.25586H342.26Z" fill="white"/>
<path d="M142.041 9.25586L132.532 35.7257L123.032 9.25586H110.062L127.041 51.388H137.796L154.766 9.25586H142.041Z" fill="white"/>
<path d="M174.37 8.51514C162.368 8.51514 152.633 18.2507 152.633 30.2523C152.633 42.254 162.368 51.9895 174.37 51.9895C186.372 51.9895 196.107 42.254 196.107 30.2523C196.107 18.2507 186.372 8.51514 174.37 8.51514ZM174.37 41.6613C168.068 41.6613 162.97 36.5538 162.97 30.261C162.97 23.9595 168.077 18.8608 174.37 18.8608C180.672 18.8608 185.77 23.9682 185.77 30.261C185.77 36.5538 180.663 41.6613 174.37 41.6613Z" fill="white"/>
</svg>
