<svg width="28" height="16" viewBox="0 0 28 16" fill="none" xmlns="http://www.w3.org/2000/svg">
<path d="M0.937113 12.0505C0.950183 12.2737 1.1299 12.4502 1.35209 12.46C3.4814 12.4295 5.45502 11.3414 6.61716 9.55741C6.88292 9.8101 7.28155 10.1673 7.7804 10.5725C8.14418 11.9928 8.82165 13.6756 10.0219 13.9937C10.1559 14.0296 10.2931 14.0482 10.4314 14.0482C11.0719 14.0013 11.6687 13.7105 12.1011 13.2356C12.2231 13.289 12.3462 13.3402 12.4715 13.3903C12.4039 14.7158 12.6926 15.5534 13.3395 15.8692C13.5171 15.9564 13.7131 16.0021 13.9113 15.9999C14.6411 15.9999 15.5799 15.4543 16.7955 14.3411C16.8881 14.3433 16.9796 14.3531 17.0733 14.3531C17.3325 14.3531 17.5939 14.3433 17.8575 14.3237C17.901 14.3204 17.9402 14.3139 17.9816 14.3106C17.9903 14.3106 17.998 14.3139 18.0056 14.3139C18.0459 14.3128 18.0873 14.3063 18.1254 14.2943C21.4799 13.9458 24.46 11.9188 26.9912 8.25492L26.9923 8.25601C27.0838 8.12314 27.0947 7.95103 27.0206 7.80727C25.5121 5.18566 23.0103 3.28192 20.0815 2.52686C18.7843 2.21753 17.4435 2.13478 16.1191 2.28398C14.9842 1.37997 12.9279 0.00108916 10.9346 0.00108916V0C10.8017 0 10.6765 0.0609932 10.5937 0.165553L7.98294 3.44929C7.87184 3.59088 7.85877 3.78692 7.95135 3.94158C8.04502 4.09733 8.22364 4.17902 8.40227 4.14961C8.81616 4.11585 9.22893 4.21823 9.57858 4.44152C8.60378 4.96323 7.65839 5.53939 6.74682 6.16458C5.54765 4.35873 3.56207 3.22938 1.39671 3.1237C1.26601 3.11608 1.13857 3.16727 1.05035 3.2642C0.962125 3.36005 0.921826 3.49184 0.940343 3.62144C0.959948 3.75649 1.39778 6.65367 2.82459 8.01295C2.1101 8.65012 0.820563 10.0825 0.937113 12.0505ZM10.2452 13.1516C9.79316 13.0318 9.34768 12.424 8.98175 11.4732H8.98066C9.70059 11.9775 10.4554 12.4317 11.2374 12.8303C10.9749 13.0873 10.6079 13.2061 10.2441 13.1527L10.2452 13.1516ZM10.6373 4.8738C10.9858 4.70171 11.3321 4.54161 11.6763 4.39455H11.6752C11.4127 7.10221 11.6839 9.83613 12.4747 12.4392C12.039 12.2497 11.623 12.0439 11.2265 11.8293C10.5153 9.58454 10.3149 7.21028 10.6383 4.87706L10.6373 4.8738ZM13.7208 15.0847C13.467 14.9605 13.3287 14.4562 13.332 13.708H13.3309C14.0628 13.9531 14.8154 14.1295 15.5789 14.2362C14.3384 15.2404 13.8537 15.1522 13.7219 15.088L13.7208 15.0847ZM13.5433 12.853L13.5422 12.8519C12.5587 10.0232 12.2319 7.00743 12.5891 4.03403C13.6598 3.62778 14.7729 3.34458 15.9066 3.18885C15.2542 6.68282 15.753 10.2925 17.328 13.4781C16.0395 13.4988 14.7575 13.2875 13.5443 12.8562L13.5433 12.853ZM26.1166 7.98218C24.227 10.6441 22.0932 12.3453 19.7561 13.0719C17.8184 8.53649 18.6233 4.88136 19.2049 3.23238C19.426 3.2705 19.6449 3.31407 19.8617 3.36635L19.8606 3.36526C22.4583 4.05251 24.6966 5.70478 26.1178 7.98541L26.1166 7.98218ZM18.3226 3.12336C17.7116 4.94881 16.9786 8.69542 18.9042 13.2972C18.6907 13.3407 18.4762 13.3756 18.2594 13.4039L18.2605 13.4028C16.6093 10.2376 16.0985 6.60001 16.8141 3.10158C17.3173 3.07435 17.8216 3.08197 18.3226 3.12336ZM11.1395 0.877497C12.4879 0.952649 13.894 1.74448 14.9134 2.46658C13.369 2.78244 11.8725 3.29545 10.4597 3.99469C10.0894 3.67992 9.65157 3.45664 9.17996 3.34118L11.1395 0.877497ZM3.75172 7.63569C2.73989 7.02032 2.14955 5.16654 1.90558 4.04914C3.72121 4.30619 5.31367 5.38991 6.22097 6.9824C6.27761 7.09567 6.38108 7.17844 6.50415 7.21003C6.62723 7.24053 6.75684 7.21657 6.86138 7.14468C7.77409 6.4999 8.72168 5.9063 9.69983 5.36716C9.50487 7.31895 9.65517 9.29025 10.1442 11.1899C8.95595 10.4395 7.85261 9.56049 6.85491 8.56937C6.77214 8.48333 6.65887 8.43431 6.53906 8.43431C6.52272 8.43431 6.50638 8.4354 6.49005 8.43649C6.3539 8.45283 6.233 8.53125 6.16329 8.64888C5.27562 10.2739 3.65059 11.3642 1.80998 11.571C1.95048 9.6497 3.75306 8.37758 3.77046 8.36448C3.89245 8.28061 3.96324 8.1412 3.95889 7.99308C3.95453 7.84604 3.87611 7.71099 3.74977 7.63364L3.75172 7.63569Z" fill="currentColor"/>
<path d="M22.8034 7.84207C23.2184 7.84316 23.5942 7.59265 23.7532 7.20819C23.9122 6.8248 23.824 6.38261 23.531 6.08853C23.2369 5.79445 22.7947 5.70623 22.4103 5.86525C22.0269 6.02427 21.7764 6.39895 21.7764 6.81499C21.7764 7.38246 22.236 7.84207 22.8034 7.84207ZM22.8034 6.65815C22.8666 6.65815 22.9233 6.69627 22.9483 6.75508C22.9723 6.81281 22.9592 6.88034 22.9145 6.92499C22.8699 6.96965 22.8024 6.98381 22.7435 6.95985C22.6858 6.9348 22.6477 6.87816 22.6477 6.81499C22.6477 6.72895 22.7174 6.65815 22.8034 6.65815Z" fill="currentColor"/>
</svg>
