<svg width="24" height="24" viewBox="0 0 19 18" fill="none" className="ip-event-icon">
	<path d="M0 8.99876C0 9.264 0.0128475 9.52924 0.03426 9.79021C0.111236 10.6715 0.316582 11.5186 0.628879 12.3058C0.941175 13.0972 1.36476 13.8331 1.87389 14.4962C3.28137 16.323 5.38196 17.5936 7.77772 17.9187C7.82049 17.923 7.86331 17.9273 7.90603 17.9358C8.26544 17.9786 8.62907 18 9.00127 18C10.9778 18 12.8046 17.3626 14.2891 16.2845C15.1233 15.677 15.8463 14.9326 16.4324 14.0812C16.8517 13.4694 17.2025 12.802 17.4592 12.0876C17.81 11.125 18.0025 10.0854 18.0025 8.99876C18.0025 7.73241 17.7372 6.52169 17.2667 5.42648C17.2581 5.40938 17.2496 5.38799 17.241 5.37086C16.3169 3.27886 14.6185 1.60608 12.5136 0.71196C11.4355 0.254194 10.2462 0.00177002 9.00126 0.00177002C8.51354 0.00177002 8.03867 0.0402863 7.57231 0.113006C6.41295 0.296963 5.32628 0.703395 4.36369 1.28522C4.32097 1.31089 4.27815 1.33656 4.23538 1.3665C3.31985 1.93551 2.51983 2.66706 1.86531 3.51843C1.83534 3.55264 1.80964 3.58687 1.784 3.62538C0.663135 5.12275 0 6.98373 0 8.99876Z" fill="#D4D6D6" />
	<path d="M18.0045 8.9971C18.0045 10.0846 17.8095 11.1233 17.4607 12.0871C17.412 12.2183 17.3632 12.3458 17.3107 12.4733C17.0707 13.0433 16.7782 13.5833 16.4333 14.0821C15.0495 14.9408 13.4182 15.4434 11.667 15.4434C11.2995 15.4434 10.932 15.4209 10.572 15.3759C10.527 15.3721 10.4857 15.3646 10.4445 15.3608C8.04824 15.0346 5.952 13.7633 4.53824 11.9371C4.02449 11.2734 3.60825 10.5384 3.29324 9.7471C2.98198 8.95959 2.77574 8.11211 2.70073 7.23085C2.67823 6.9721 2.66699 6.70959 2.66699 6.44335C2.66699 4.56085 3.24448 2.81336 4.23449 1.36584C4.27949 1.33585 4.32073 1.3096 4.36573 1.2871C4.95824 0.927097 5.59574 0.634608 6.27074 0.420854C6.69074 0.285836 7.12575 0.184604 7.572 0.113351C8.04075 0.0421007 8.51323 0.000854492 9.00075 0.000854492C10.2458 0.000854492 11.4345 0.255851 12.5145 0.713339C14.6182 1.60584 16.317 3.27835 17.2395 5.37085C17.2508 5.3896 17.2582 5.40835 17.2657 5.42709C17.7382 6.52209 18.0045 7.73336 18.0045 8.9971Z" fill="#E0E2E2" />
	<path d="M18.0043 8.99699C18.0043 10.0845 17.8093 11.1232 17.4606 12.087C17.4118 12.2182 17.3631 12.3457 17.3106 12.4732C16.4481 12.7507 15.5256 12.9007 14.5731 12.9007C14.2056 12.9007 13.8381 12.8782 13.4781 12.837C13.4331 12.8332 13.3918 12.822 13.3468 12.8182C10.9543 12.492 8.8581 11.2245 7.44434 9.39448C6.93059 8.73448 6.51059 7.99574 6.19934 7.20447C5.88808 6.41698 5.68184 5.57323 5.60683 4.69197C5.58433 4.42949 5.56934 4.16698 5.56934 3.90448C5.56934 2.67073 5.81683 1.49323 6.27059 0.420732C6.69059 0.285714 7.1256 0.184482 7.57185 0.113229C8.0406 0.0419787 8.51308 0.000732422 9.0006 0.000732422C10.2456 0.000732422 11.4343 0.255729 12.5143 0.713217C14.6181 1.60572 16.3168 3.27823 17.2393 5.37073C17.2506 5.38948 17.2581 5.40823 17.2656 5.42697C17.7381 6.52198 18.0043 7.73324 18.0043 8.99699Z" fill="#ECF0F1" />
	<path d="M4.22289 8.2029C4.69771 9.51202 5.28815 10.8982 5.98116 12.3356C5.80579 12.5452 5.64322 12.7634 5.49777 12.9944C5.15122 12.6693 4.83036 12.3142 4.53947 11.9377C4.02606 11.2746 3.60681 10.5388 3.29446 9.74733C3.06776 9.18261 2.9009 8.58366 2.79395 7.96332C3.24746 8.08312 3.72656 8.16441 4.22289 8.2029Z" fill="#ECF0F1" />
	<path d="M17.28 5.49059L16.6725 5.64888L16.6554 5.5847L16.6426 5.52482L17.2415 5.37079C17.2501 5.38364 17.2544 5.40074 17.2629 5.41359L17.2672 5.42641L17.28 5.49059Z" fill="#ECF0F1" />
	<path opacity="0.5" d="M9.35742 5.78712C9.35742 5.87381 9.36162 5.9605 9.36862 6.04579C9.39378 6.33383 9.46089 6.61067 9.56296 6.86796C9.66503 7.12663 9.80347 7.36713 9.96987 7.58386C10.4299 8.18091 11.1164 8.59619 11.8994 8.70245C11.9134 8.70385 11.9274 8.70525 11.9414 8.70804C12.0588 8.72203 12.1777 8.72902 12.2993 8.72902C12.9453 8.72902 13.5424 8.52069 14.0276 8.16833C14.3002 7.96978 14.5365 7.72649 14.7281 7.44824C14.8651 7.24828 14.9798 7.03016 15.0637 6.79665C15.1783 6.48204 15.2412 6.14228 15.2412 5.78712C15.2412 5.37324 15.1545 4.97754 15.0007 4.61959C14.9979 4.614 14.9951 4.60701 14.9923 4.60141C14.6903 3.91768 14.1352 3.37096 13.4473 3.07873C13.0949 2.92912 12.7062 2.84662 12.2993 2.84662C12.1399 2.84662 11.9847 2.85921 11.8323 2.88297C11.4534 2.9431 11.0982 3.07593 10.7836 3.26609C10.7697 3.27448 10.7557 3.28287 10.7417 3.29266C10.4425 3.47863 10.181 3.71772 9.96707 3.99598C9.95728 4.00716 9.94888 4.01835 9.9405 4.03094C9.57416 4.52031 9.35742 5.12854 9.35742 5.78712Z" fill="white" />
	<path opacity="0.5" d="M9.35742 5.78708C9.35742 7.39582 10.6589 8.72898 12.2993 8.72898C13.8956 8.72898 15.2412 7.44195 15.2412 5.78708C15.2412 4.59325 14.5246 3.5363 13.4473 3.07869C11.5233 2.26175 9.35742 3.67294 9.35742 5.78708Z" fill="white" />
	<path d="M1.84615 14.1247C2.49398 14.5633 3.38509 14.8864 4.63517 15.1369C5.3221 16.0343 6.41596 16.7137 7.74905 17.2649V17.2649C7.74808 17.4707 7.76188 17.7165 7.77665 17.9178C7.81965 17.9239 7.86299 17.9293 7.90633 17.9345C7.89156 17.7361 7.8768 17.4886 7.87711 17.281C7.87711 17.2807 7.87711 17.2805 7.87711 17.2802C9.15319 17.1153 10.2803 16.6982 11.2753 16.0574L11.2745 16.0679C11.4614 16.0816 11.6532 16.0884 11.8483 16.0884C12.6842 16.0884 13.5839 15.9641 14.4469 15.7275L14.2895 16.2833C15.7236 15.2404 16.8378 13.7841 17.4573 12.0894C17.4573 12.089 17.4573 12.0887 17.4573 12.0887L17.0148 12.3508C16.8296 10.8783 16.6133 9.86598 16.3546 9.26003C16.7587 8.0707 16.8714 6.84772 16.6561 5.58689L16.6722 5.6489L17.2809 5.49067L17.2486 5.36641L16.6399 5.52465L16.656 5.58676C15.8657 4.53009 14.9191 3.71906 13.8201 3.14798L13.833 3.14068C13.3067 2.20973 12.7053 1.41616 12.044 0.779025L12.5122 0.71064C11.4331 0.252934 10.2465 0 9.00074 0C8.51413 0 8.03619 0.0385163 7.57046 0.112984L7.90313 0.265511C7.06793 0.738626 6.19103 1.38901 5.41187 2.11395C4.24219 2.42213 3.19301 2.94826 2.28989 3.73864C2.28962 3.73848 2.28945 3.73836 2.28919 3.73819C2.22275 3.69518 2.04428 3.58476 1.86292 3.51736C1.83532 3.55298 1.80803 3.58861 1.78171 3.62488C1.95118 3.68105 2.13319 3.79115 2.20797 3.83898C2.20805 3.83903 2.20811 3.83906 2.20819 3.83911C1.66171 4.94701 1.35905 6.11506 1.42003 7.37282C0.91921 8.19639 0.496011 9.2488 0.291167 10.1786C0.194091 10.0735 0.108985 9.94245 0.0341797 9.78891C0.187288 11.5527 0.849152 13.1708 1.87243 14.4958C1.84408 14.3508 1.83368 14.2253 1.84615 14.1247ZM4.345 8.16255L6.99482 4.76045C8.56516 4.87462 10.0606 5.05891 11.4401 5.30826L13.0707 9.18266C12.3632 10.3091 11.4995 11.487 10.3645 12.8734L6.09878 12.2885C5.40811 10.8541 4.81875 9.46757 4.345 8.16255ZM13.6737 3.12132C12.7935 3.66319 12.0331 4.32852 11.4535 5.18026C10.0747 4.93143 8.58097 4.74735 7.01289 4.63303C6.63883 3.68263 6.15665 2.85396 5.57047 2.14239C6.36549 1.41287 7.25667 0.764332 8.09674 0.30498C9.27948 0.244223 10.5332 0.412781 11.8396 0.751721L11.8343 0.757485C12.5143 1.38583 13.1327 2.18105 13.6737 3.12132ZM11.3497 15.9438C11.1908 14.8477 10.8983 13.8521 10.4459 12.9766C11.588 11.5829 12.4572 10.3989 13.1695 9.26661C14.0943 9.53218 15.1369 9.53158 16.2562 9.35748C16.5077 9.97248 16.7189 10.9941 16.9009 12.4753C16.3002 13.5655 15.5438 14.6037 14.5606 15.5658L14.5596 15.5625C13.489 15.8737 12.3522 16.0081 11.3497 15.9438ZM4.61563 15.002C3.35611 14.7461 2.4727 14.4158 1.84147 13.9653C1.07606 12.7236 0.577885 11.5153 0.374012 10.3438L0.386725 10.3463C0.572541 9.41085 0.997618 8.3257 1.50666 7.47738C2.31826 7.88439 3.22564 8.12376 4.22364 8.20451C4.69807 9.5116 5.28801 10.9 5.97915 12.336C5.34319 13.106 4.8747 13.9855 4.61563 15.002Z" fill="#5B5E71" />
	<path d="M15.4356 14.616C15.1703 14.9411 14.8794 15.2577 14.5628 15.5657L14.5585 15.5615C13.489 15.8738 12.351 16.0064 11.3499 15.9422C11.3242 15.7668 11.2943 15.5957 11.2643 15.4288C11.0333 15.4245 10.798 15.4032 10.5712 15.3775C10.5285 15.3732 10.4857 15.3647 10.4429 15.3604C8.53911 15.1037 6.82784 14.2481 5.4974 12.9946C5.10379 13.5978 4.80428 14.2652 4.61607 15.001C3.35832 14.7443 2.47271 14.4149 1.83955 13.9657C1.07803 12.725 0.577513 11.5143 0.372171 10.3421L0.384966 10.3464C0.573231 9.40945 0.996767 8.32709 1.50584 7.47575C1.91225 7.68109 2.34006 7.84366 2.79357 7.96344C2.7508 7.72386 2.72088 7.48 2.69947 7.23189C2.67805 6.9709 2.66521 6.70994 2.66521 6.44469C2.66521 5.2083 2.91337 4.02755 3.36688 2.95801C2.98607 3.18474 2.62672 3.44142 2.28878 3.73661C2.22454 3.69384 2.04489 3.58688 1.86524 3.51845C1.83527 3.55265 1.80958 3.58688 1.78393 3.6254C1.95079 3.68099 2.13472 3.79223 2.20747 3.83931C1.7069 4.85323 1.41173 5.91849 1.41173 7.05647C1.41173 7.16342 1.41602 7.26609 1.4203 7.37304C0.919735 8.19447 0.496202 9.24688 0.29086 10.1795C0.192418 10.0726 0.11116 9.94422 0.0341797 9.79022C0.188188 11.5528 0.851271 13.17 1.87381 14.4962C1.84383 14.3507 1.83527 14.2267 1.84811 14.124C2.49412 14.5646 3.38396 14.8855 4.63748 15.1379C5.32198 16.0363 6.41716 16.7123 7.74772 17.2642C7.74772 17.4695 7.76051 17.7177 7.77764 17.9187C7.82041 17.923 7.86324 17.9273 7.90596 17.9358C7.89311 17.7348 7.87603 17.4866 7.87603 17.2813C9.1552 17.1144 10.2804 16.6995 11.2772 16.0577L11.2729 16.0663C11.4611 16.0834 11.6536 16.0877 11.8504 16.0877C12.6847 16.0877 13.5831 15.9636 14.4473 15.7283L14.289 16.2845C15.1233 15.677 15.8462 14.9326 16.4324 14.0812C16.1115 14.2823 15.7778 14.462 15.4356 14.616ZM17.2666 5.42649L17.2623 5.41367L17.2495 5.36659L17.2409 5.37087L16.642 5.52491L16.6548 5.58478L16.6719 5.64896L17.2794 5.49067L17.2666 5.42649Z" fill="#525566" />
</svg>
