<svg width="444" height="98" viewBox="0 0 444 98" fill="none" xmlns="http://www.w3.org/2000/svg">
<g clip-path="url(#clip0_4412_68)">
<mask id="mask0_4412_68" style="mask-type:luminance" maskUnits="userSpaceOnUse" x="0" y="0" width="444" height="98">
<path d="M444 0H0V97.7586H444V0Z" fill="white"/>
</mask>
<g mask="url(#mask0_4412_68)">
<path d="M96.9554 48.2151H50.1313V64.8576H77.0881C74.5093 70.3521 71.1208 74.3807 66.9226 76.9434C62.7245 79.5061 57.5576 80.792 51.4219 80.8013C42.0061 80.8013 34.0885 77.6804 27.669 71.4385C21.2496 65.1967 18.041 57.5847 18.0433 48.6026C18.0433 39.9111 21.1354 32.5298 27.3196 26.4586C33.5037 20.3875 41.1769 17.3508 50.3389 17.3485C60.855 17.3485 70.0597 21.5247 77.9531 29.8771L90.4298 17.5388C84.7347 11.38 78.9127 7.0342 72.9638 4.50149C65.7757 1.4767 58.0473 -0.0536796 50.2489 0.00349816C36.9211 0.00349816 25.7522 4.0217 16.7424 12.0582C16.7904 12.3326 16.7415 12.6151 16.604 12.8574C16.5785 13.154 16.4443 13.4308 16.2271 13.6345C16.01 13.8382 15.7253 13.9546 15.4276 13.9611C15.3988 13.9629 15.3699 13.9629 15.3411 13.9611C14.0449 15.0839 12.8921 16.3622 11.9088 17.7671C11.6839 19.9193 9.55949 21.4693 8.19279 23.099C7.93329 23.6076 7.67033 24.1128 7.39353 24.6041C6.69049 25.9408 6.13923 27.3521 5.75004 28.8114C5.34176 30.1574 4.80892 31.441 4.3176 32.7593C3.30036 35.4892 2.89554 38.3506 2.03054 41.1221C1.56691 42.5995 0.975248 44.07 0.878368 45.6201C0.781488 47.1701 0.833388 48.6649 0.570429 50.1873C0.552366 50.2785 0.522107 50.367 0.480469 50.4502C1.95096 60.332 5.148 70.0338 11.0957 78.1613C16.3998 85.4273 24.3198 90.4097 32.5476 93.7659C41.1111 97.2674 50.9375 97.8383 60.0165 96.3574C68.8222 94.918 77.3165 91.2643 83.2919 84.4689C89.3676 77.5489 93.4366 69.283 95.6856 60.3942C95.7242 60.1984 95.8186 60.0178 95.9573 59.8742C96.096 59.7306 96.2731 59.6301 96.4675 59.5846C96.8803 57.124 97.0898 54.6336 97.0938 52.1387L96.9554 48.2151Z" fill="white"/>
<path d="M96.686 58.1658C95.8619 64.212 93.8461 70.0346 90.7555 75.2962C86.539 82.5968 81.0756 88.1651 74.3656 92.0011C67.6555 95.8371 59.7886 97.7562 50.765 97.7585C41.1047 97.7585 32.4893 95.6606 24.9188 91.4648C20.6246 89.0968 16.7419 86.0495 13.4213 82.4411C12.7293 81.6765 19.8534 84.1261 30.9565 85.0119C39.8245 85.7212 51.5781 85.2818 61.3145 82.5484C71.2135 79.7804 80.4897 74.0852 86.7662 68.7084C93.399 63.0063 96.7483 57.6745 96.686 58.1658Z" fill="white"/>
<path d="M37.164 96.1706C32.2656 95.1981 27.5749 93.3773 23.3032 90.7903C17.6254 87.3303 14.1792 83.3894 11.8403 80.6733C6.11205 74.2858 2.29676 66.4154 0.830539 57.9619C-0.767524 49.3945 -0.0508821 40.5559 2.90653 32.3579C4.86865 26.6762 7.90253 21.4236 11.8437 16.8849C13.4266 15.0926 15.1381 13.4181 16.9645 11.8748C16.9645 11.8748 15.0685 20.3206 13.5945 31.0086C11.5185 46.1529 15.0719 59.8164 15.0719 59.8164C16.789 66.7732 19.5354 73.4345 23.2202 79.5799C26.9806 85.7991 31.6846 91.3961 37.164 96.1706Z" fill="white"/>
<path d="M124.307 13.5044H140.265L172.058 96.1705H155.707L149.236 79.1439H115.505L108.782 96.1705H92.4268L124.307 13.5044ZM132.386 35.4234L121.297 63.7953H143.413L132.386 35.4234Z" fill="white"/>
<path d="M192.244 13.5044H207.575L226.74 71.1651L246.078 13.5044H261.399L275.284 96.1705H260.06L251.185 43.9627L233.626 96.1705H219.758L202.351 43.9627L193.282 96.1705H177.934L192.244 13.5044Z" fill="white"/>
<path d="M283.415 13.5044H333.432L304.002 81.0572H331.526V96.1739H281.01L310.299 29.0709H283.415V13.5044Z" fill="white"/>
<path d="M344.221 13.5044H359.846V96.1705H344.221V13.5044Z" fill="white"/>
<path d="M372.181 13.5044H389.882L407.258 40.046L424.669 13.5044H442.35L416.123 53.5849L444 96.1705H426.299L407.269 67.1066L388.239 96.1705H370.434L398.394 53.5503L372.181 13.5044Z" fill="white"/>
<path d="M365.732 11.9923C365.579 10.1966 363.393 0 351.816 0C340.719 0 338.287 11.9923 338.287 11.9923C339.36 10.6948 344.325 7.43898 352.009 7.43898C359.694 7.43898 364.656 10.6948 365.732 11.9923Z" fill="white"/>
</g>
</g>
<defs>
<clipPath id="clip0_4412_68">
<rect width="444" height="98" fill="white"/>
</clipPath>
</defs>
</svg>
