<svg width="14" height="18" viewBox="0 0 14 18" fill="none" xmlns="http://www.w3.org/2000/svg">
<path d="M3.58355 0.5C2.86844 0.5 2.27756 1.09088 2.27756 1.80599V2.38889H1.69466C0.979256 2.38889 0.388672 2.97947 0.388672 3.69488V16.194C0.388672 16.9094 0.979249 17.5 1.69466 17.5H10.416C11.1314 17.5 11.722 16.9094 11.722 16.194V15.6111H12.3049C13.02 15.6111 13.6109 15.0202 13.6109 14.3051V1.80599C13.6109 1.09088 13.02 0.5 12.3049 0.5H3.58355ZM3.58355 1.44444H12.3049C12.5131 1.44444 12.6665 1.59777 12.6665 1.80599V14.3051C12.6665 14.5133 12.5131 14.6667 12.3049 14.6667H3.58355C3.37533 14.6667 3.22201 14.5133 3.22201 14.3051V1.80599C3.22201 1.59777 3.37533 1.44444 3.58355 1.44444ZM1.69466 3.33333H2.27756V14.3051C2.27756 15.0202 2.86844 15.6111 3.58355 15.6111H10.7776V16.194C10.7776 16.4019 10.6239 16.5556 10.416 16.5556H1.69466C1.48674 16.5556 1.33312 16.4019 1.33312 16.194V3.69488C1.33312 3.48695 1.48674 3.33333 1.69466 3.33333ZM6.52756 4.98611C5.96277 4.98611 5.45346 5.23555 5.12565 5.63542C4.79785 6.03528 4.63867 6.56604 4.63867 7.13325C4.63867 8.01705 5.27067 8.64433 5.89301 9.21398C6.51536 9.78364 7.19339 10.3294 7.54579 10.8963C7.58844 10.9633 7.64732 11.0185 7.71697 11.0567C7.78661 11.0949 7.86478 11.115 7.94423 11.115C8.02368 11.115 8.10184 11.0949 8.17149 11.0567C8.24114 11.0185 8.30001 10.9633 8.34267 10.8963C8.69507 10.3294 9.3731 9.78364 9.99544 9.21398C10.6178 8.64433 11.2498 8.01705 11.2498 7.13325C11.2498 6.56604 11.0906 6.03528 10.7628 5.63542C10.435 5.23555 9.92568 4.98611 9.36089 4.98611C8.76054 4.98611 8.28546 5.23737 7.94423 5.58377C7.60299 5.23737 7.12791 4.98611 6.52756 4.98611ZM6.52756 5.93056C7.0815 5.93056 7.396 6.25941 7.50152 6.55773C7.53508 6.64808 7.59549 6.726 7.67463 6.78102C7.75376 6.83604 7.84784 6.86553 7.94423 6.86553C8.04061 6.86553 8.13469 6.83604 8.21383 6.78102C8.29296 6.726 8.35337 6.64808 8.38694 6.55773C8.49245 6.25943 8.80697 5.93056 9.36089 5.93056C9.66333 5.93056 9.86861 6.03336 10.0323 6.23307C10.1961 6.43279 10.3053 6.74756 10.3053 7.13325C10.3053 7.52246 9.93951 7.984 9.35352 8.5204C8.90323 8.93255 8.39018 9.39231 7.94423 9.92231C7.49827 9.39231 6.98523 8.93255 6.53494 8.5204C5.94895 7.984 5.58312 7.52246 5.58312 7.13325C5.58312 6.74756 5.6924 6.43279 5.85612 6.23307C6.01984 6.03336 6.22512 5.93056 6.52756 5.93056Z" fill="currentColor"/>
</svg>
