<svg width="14" height="14" viewBox="0 0 14 14" fill="none" xmlns="http://www.w3.org/2000/svg">
<g clip-path="url(#clip0_5574_116)">
<path d="M2.29863 10.6269L3.56762 11.8959C3.62949 11.9578 3.6827 12.0221 3.73529 12.0896L11.3864 4.43848C11.8801 3.94474 11.9061 3.17135 11.4451 2.7104C10.9836 2.24884 10.2096 2.2742 9.71582 2.76794L2.05918 10.4246C2.14395 10.4858 2.22376 10.552 2.29863 10.6269Z" fill="currentColor"/>
<path d="M9.88162 5.94339L9.67497 12.43L8.91518 13.1898L7.39685 8.42816L9.88162 5.94339ZM5.29382 10.5312L5.25855 12.2506L4.36079 13.1484L3.76992 12.0551L5.29382 10.5312ZM3.67958 8.80558L1.96079 8.84146L1.06426 9.73798L2.1563 10.3289L3.67958 8.80558ZM8.22407 4.26109L1.73867 4.4665L0.977642 5.22753L5.73992 6.74524L8.22407 4.26109ZM2.75893 11.1146L3.05035 11.4061C3.06396 11.4197 3.07757 11.4357 3.08809 11.4512L4.91888 9.62043C5.03643 9.50287 5.04633 9.32097 4.94053 9.21517C4.83473 9.10937 4.65283 9.11803 4.53465 9.2362L2.70263 11.0682C2.72279 11.0819 2.74164 11.0975 2.75893 11.1146Z" fill="currentColor"/>
</g>
<defs>
<clipPath id="clip0_5574_116">
<rect width="14" height="14" fill="currentColor"/>
</clipPath>
</defs>
</svg>
