<svg width="18" height="16" viewBox="0 0 18 16" fill="white" xmlns="http://www.w3.org/2000/svg">
<path d="M11.4311 15.9993C10.3468 15.9993 8.74008 15.9938 6.34907 15.9818C4.1018 15.9719 1.77828 15.961 1.59383 15.9769C1.46456 15.9813 1.33573 15.9597 1.21491 15.9136C1.09409 15.8674 0.983734 15.7975 0.89035 15.708C0.796965 15.6185 0.722439 15.5112 0.671164 15.3925C0.61989 15.2738 0.592904 15.146 0.591797 15.0166V0.963508C0.592046 0.708094 0.6936 0.463208 0.87418 0.282577C1.05476 0.101946 1.29962 0.000321489 1.55503 0H13.497C13.7524 0.000321486 13.9972 0.101946 14.1778 0.282576C14.3584 0.463207 14.4599 0.708093 14.4602 0.963508V8.87323C18.7692 9.68058 18.1726 15.8812 13.856 15.9763C13.246 15.9717 13.1932 16.0054 11.4311 15.9993ZM2.5915 15.4085C4.58291 15.4074 9.64633 15.4472 11.9151 15.4391C11.5795 15.2391 11.2826 14.9803 11.0387 14.675C9.93673 14.6748 3.4224 14.6802 2.17397 14.6778C2.13722 14.6778 2.10082 14.6706 2.06687 14.6565C2.03291 14.6425 2.00205 14.6219 1.97606 14.5959C1.95007 14.5699 1.92946 14.539 1.91541 14.5051C1.90136 14.4711 1.89413 14.4347 1.89416 14.398V3.6939C1.89414 3.65715 1.90136 3.62075 1.91541 3.58679C1.92947 3.55284 1.95008 3.52198 1.97607 3.49599C2.00205 3.47001 2.03291 3.4494 2.06687 3.43534C2.10083 3.42129 2.13722 3.41406 2.17397 3.41408H12.8781C12.9148 3.41406 12.9512 3.42129 12.9852 3.43534C13.0191 3.4494 13.05 3.47001 13.076 3.49599C13.102 3.52198 13.1226 3.55284 13.1366 3.58679C13.1507 3.62075 13.1579 3.65715 13.1579 3.6939C13.1597 4.79855 13.1553 7.80117 13.1551 8.85848C13.4015 8.81792 13.651 8.79982 13.9006 8.80437V0.963508C13.9004 0.856486 13.8579 0.753886 13.7822 0.678185C13.7066 0.602484 13.604 0.559853 13.497 0.559633H1.55503C1.44801 0.559855 1.34544 0.602486 1.26979 0.678187C1.19414 0.753888 1.15158 0.856487 1.15143 0.963508V15.0166C1.15152 15.1236 1.19402 15.2262 1.26962 15.3019C1.34523 15.3776 1.44776 15.4203 1.55476 15.4205C1.66652 15.4128 1.92693 15.4085 2.5915 15.4085ZM14.1186 14.9724V15.4058C14.7268 15.3509 15.3037 15.1116 15.7721 14.7199L15.4882 14.4357C15.0909 14.7393 14.6164 14.9252 14.1186 14.9724ZM12.2465 14.9762C12.6502 15.2061 13.097 15.3501 13.559 15.3992V14.9729C13.0593 14.9259 12.5827 14.74 12.1831 14.4362L11.9011 14.7188C12.0098 14.8129 12.1253 14.8989 12.2465 14.9762ZM12.411 13.8853C12.706 14.1585 13.0739 14.3401 13.4702 14.408C13.8664 14.476 14.2738 14.4274 14.6429 14.2681C15.012 14.1089 15.327 13.8458 15.5494 13.511C15.7718 13.1761 15.8922 12.7839 15.8959 12.3819C15.8887 11.9813 15.7658 11.5914 15.5421 11.2591C15.3185 10.9268 15.0035 10.6662 14.6351 10.5087C14.2668 10.3512 13.8608 10.3036 13.466 10.3715C13.0712 10.4394 12.7044 10.62 12.4099 10.8916C12.0172 11.2909 11.7972 11.8286 11.7974 12.3887C11.7976 12.9488 12.018 13.4863 12.411 13.8853ZM15.8871 14.0433L16.1672 14.3237C16.5578 13.8545 16.7977 13.2782 16.8553 12.6704H16.4348C16.3869 13.1709 16.1969 13.6473 15.8871 14.0433ZM10.9516 13.2705C11.0747 13.6495 11.265 14.0032 11.5134 14.3149L11.7834 14.0449C11.4722 13.6491 11.2821 13.1718 11.2357 12.6704H10.8458C10.862 12.8734 10.8974 13.0743 10.9516 13.2705ZM6.02171 14.1182H9.03029V11.1096H6.02171V14.1182ZM2.45377 14.1182H5.46207V11.1096H2.45377V14.1182ZM9.591 14.1154H10.6775C10.434 13.657 10.2904 13.1523 10.2561 12.6344C10.2218 12.1165 10.2976 11.5972 10.4785 11.1107H9.591V14.1154ZM16.4367 12.1108H16.8564C16.815 11.4966 16.5756 10.9123 16.1741 10.4456L15.8885 10.7314C16.2005 11.1287 16.3908 11.6078 16.4367 12.1108ZM10.8494 12.1108H11.2357C11.2814 11.6077 11.4718 11.1286 11.7839 10.7314L11.5068 10.4543C11.1285 10.9292 10.8997 11.5058 10.8494 12.1108ZM9.591 10.5511H10.7556C11.1532 9.82297 11.8099 9.27091 12.5955 9.00442V7.54137H9.591V10.5511ZM6.02171 10.5499H9.03029V7.54135H6.02171V10.5499ZM2.45377 10.5499H5.46207V7.54135H2.45377V10.5499ZM11.9011 10.057L12.1834 10.3395C12.5827 10.0354 13.0593 9.84924 13.559 9.80229V9.38145C12.9486 9.42461 12.3679 9.66125 11.9011 10.057ZM14.1186 9.80286C14.6164 9.8505 15.091 10.0362 15.489 10.339L15.7688 10.0592C15.2938 9.68352 14.7212 9.4516 14.1186 9.39078V9.80286ZM6.02171 6.98175H9.0303V3.97373H6.02171V6.98175ZM2.45378 6.98175H5.46207V3.97373H2.45377L2.45378 6.98175ZM9.58992 6.98063H12.5982V3.97373H9.58991L9.58992 6.98063ZM13.8375 14.0493C13.7965 14.0486 13.7562 14.0392 13.7191 14.0217C13.6821 14.0041 13.6492 13.9789 13.6228 13.9476C13.5963 13.9164 13.5767 13.8799 13.5655 13.8405C13.5543 13.8011 13.5516 13.7597 13.5576 13.7192H13.3123C13.239 13.7178 13.1691 13.6877 13.1178 13.6354C13.0665 13.5831 13.0377 13.5127 13.0377 13.4394C13.0377 13.3661 13.0665 13.2957 13.1178 13.2434C13.1691 13.191 13.239 13.161 13.3123 13.1596H13.8374C13.9018 13.1578 13.9628 13.1308 14.0075 13.0845C14.0521 13.0381 14.0767 12.9761 14.0761 12.9117C14.0755 12.8474 14.0496 12.7859 14.004 12.7404C13.9585 12.695 13.8969 12.6692 13.8325 12.6688C13.6451 12.6651 13.4648 12.5964 13.3225 12.4744C13.1801 12.3525 13.0845 12.1849 13.0521 12.0003C13.0196 11.8157 13.0523 11.6256 13.1445 11.4624C13.2367 11.2992 13.3827 11.1731 13.5576 11.1057C13.5447 11.0646 13.5412 11.021 13.5474 10.9783C13.5535 10.9356 13.5692 10.8949 13.5933 10.859C13.6173 10.8232 13.6491 10.7933 13.6863 10.7714C13.7235 10.7495 13.7651 10.7363 13.8081 10.7327C13.8511 10.7291 13.8943 10.7352 13.9346 10.7505C13.9749 10.7659 14.0113 10.7901 14.041 10.8214C14.0707 10.8527 14.0929 10.8903 14.1061 10.9314C14.1193 10.9724 14.1231 11.016 14.1173 11.0587H14.3626C14.4359 11.0601 14.5058 11.0902 14.5571 11.1425C14.6084 11.1948 14.6372 11.2652 14.6372 11.3385C14.6372 11.4118 14.6084 11.4822 14.5571 11.5345C14.5058 11.5868 14.4359 11.6169 14.3626 11.6183H13.8375C13.7732 11.6202 13.7122 11.6471 13.6676 11.6935C13.6231 11.7398 13.5984 11.8017 13.599 11.866C13.5996 11.9303 13.6254 11.9918 13.6709 12.0372C13.7164 12.0827 13.7778 12.1085 13.8421 12.1091C14.0295 12.1127 14.2099 12.1814 14.3524 12.3033C14.4948 12.4252 14.5904 12.5928 14.6229 12.7774C14.6555 12.9621 14.6228 13.1522 14.5305 13.3155C14.4383 13.4787 14.2922 13.6048 14.1173 13.6722C14.128 13.7157 14.1291 13.7611 14.1202 13.8051C14.1114 13.8491 14.093 13.8906 14.0662 13.9267C14.0395 13.9627 14.0051 13.9924 13.9656 14.0136C13.926 14.0348 13.8823 14.047 13.8375 14.0493ZM3.95806 13.5465C3.83374 13.55 3.71001 13.5281 3.5944 13.4823C3.47879 13.4365 3.3737 13.3676 3.28555 13.2799C3.19739 13.1921 3.12799 13.0874 3.08159 12.972C3.03518 12.8566 3.01273 12.733 3.01559 12.6087C3.02333 12.3639 3.12601 12.1317 3.30191 11.9612C3.47782 11.7908 3.71313 11.6955 3.95806 11.6955C4.20299 11.6955 4.4383 11.7908 4.61421 11.9612C4.79011 12.1317 4.89279 12.3639 4.90053 12.6087C4.90319 12.733 4.88059 12.8565 4.83411 12.9718C4.78763 13.0871 4.71823 13.1917 4.63011 13.2794C4.542 13.3671 4.437 13.436 4.32148 13.4819C4.20596 13.5278 4.08232 13.5498 3.95806 13.5465ZM3.57523 12.6136C3.57606 12.715 3.61709 12.8119 3.68932 12.8831C3.76156 12.9543 3.85908 12.9939 3.9605 12.9933C4.06191 12.9926 4.15892 12.9518 4.23024 12.8797C4.30156 12.8076 4.34136 12.7101 4.3409 12.6087C4.34007 12.5073 4.29904 12.4104 4.2268 12.3392C4.15457 12.268 4.05704 12.2284 3.95563 12.229C3.85421 12.2297 3.7572 12.2705 3.68588 12.3426C3.61456 12.4147 3.57476 12.5122 3.57523 12.6136ZM7.52599 9.97884C7.40168 9.98228 7.27797 9.9604 7.16238 9.91455C7.04679 9.8687 6.94172 9.79982 6.85357 9.71211C6.76542 9.62439 6.69602 9.51967 6.6496 9.4043C6.60317 9.28894 6.58068 9.16534 6.5835 9.04102C6.59101 8.79605 6.69359 8.56364 6.86952 8.39302C7.04545 8.2224 7.28089 8.12698 7.52597 8.12698C7.77105 8.12698 8.00649 8.2224 8.18242 8.39302C8.35835 8.56364 8.46093 8.79605 8.46844 9.04102C8.47105 9.16528 8.44842 9.28878 8.40192 9.40405C8.35542 9.51932 8.28602 9.62395 8.19792 9.71162C8.10982 9.79929 8.00484 9.86818 7.88935 9.91411C7.77385 9.96004 7.65024 9.98206 7.52599 9.97884ZM7.14316 9.04593C7.14398 9.14735 7.18501 9.2443 7.25725 9.31549C7.32948 9.38669 7.42702 9.42631 7.52844 9.42566C7.62986 9.42501 7.72688 9.38414 7.7982 9.31203C7.86952 9.23992 7.90931 9.14245 7.90883 9.04103C7.90818 8.9395 7.86722 8.84237 7.79496 8.77104C7.72271 8.6997 7.62507 8.65999 7.52353 8.66064C7.42199 8.66129 7.32487 8.70224 7.25354 8.7745C7.1822 8.84676 7.14251 8.94439 7.14316 9.04593ZM11.0939 6.41118C10.9696 6.4146 10.8458 6.39269 10.7302 6.3468C10.6146 6.30091 10.5095 6.23198 10.4214 6.14422C10.3332 6.05645 10.2638 5.95168 10.2174 5.83626C10.171 5.72084 10.1486 5.5972 10.1515 5.47284C10.159 5.22791 10.2616 4.99554 10.4375 4.82496C10.6135 4.65437 10.8489 4.55898 11.0939 4.55898C11.339 4.55898 11.5744 4.65437 11.7503 4.82496C11.9262 4.99554 12.0288 5.22791 12.0364 5.47284C12.0391 5.59714 12.0165 5.72069 11.97 5.83601C11.9235 5.95134 11.8541 6.05603 11.766 6.14375C11.6779 6.23147 11.5729 6.30041 11.4574 6.34637C11.3419 6.39234 11.2182 6.41439 11.0939 6.41118ZM10.7111 5.47771C10.7117 5.57925 10.7527 5.67636 10.825 5.7477C10.8972 5.81903 10.9948 5.85875 11.0964 5.8581C11.1979 5.85745 11.295 5.81649 11.3664 5.74424C11.4377 5.67198 11.4774 5.57435 11.4768 5.47282C11.4761 5.37128 11.4351 5.27417 11.3629 5.20283C11.2906 5.1315 11.193 5.09179 11.0915 5.09244C10.9899 5.09309 10.8928 5.13405 10.8215 5.20631C10.7501 5.27856 10.7104 5.37618 10.7111 5.47771ZM12.878 2.86976H2.17396C2.1372 2.86978 2.10081 2.86255 2.06685 2.8485C2.03289 2.83444 2.00204 2.81383 1.97605 2.78785C1.95006 2.76186 1.92945 2.731 1.9154 2.69705C1.90134 2.66309 1.89412 2.62669 1.89414 2.58994V1.38268C1.89412 1.34593 1.90134 1.30954 1.9154 1.27558C1.92945 1.24162 1.95006 1.21077 1.97605 1.18478C2.00204 1.15879 2.03289 1.13818 2.06685 1.12413C2.10081 1.11007 2.1372 1.10285 2.17396 1.10287H12.878C12.9148 1.10285 12.9512 1.11007 12.9852 1.12413C13.0191 1.13818 13.05 1.15879 13.076 1.18478C13.1019 1.21077 13.1226 1.24162 13.1366 1.27558C13.1507 1.30954 13.1579 1.34593 13.1579 1.38268V2.58994C13.1579 2.62669 13.1507 2.66309 13.1366 2.69705C13.1226 2.73101 13.1019 2.76187 13.0759 2.78785C13.05 2.81384 13.0191 2.83445 12.9851 2.84851C12.9512 2.86256 12.9148 2.86978 12.878 2.86976ZM2.45375 2.31012H12.5982V1.6625H2.45377L2.45375 2.31012Z" fill="currentColor"/>
</svg>
