<svg width="16" height="16" viewBox="0 0 16 16" fill="none" xmlns="http://www.w3.org/2000/svg">
<path d="M14.7313 4.63495C14.0053 3.19157 12.8345 2.02084 11.3911 1.29479H11.3297C10.3006 0.785703 9.16817 0.521755 8.0206 0.523199C6.0335 0.525369 4.12729 1.31286 2.71851 2.71505C1.30984 4.11648 0.512224 6.01837 0.500006 8.00547C0.49856 9.15308 0.762509 10.2854 1.2716 11.3145C1.2687 11.3348 1.2687 11.3558 1.2716 11.376C2.00703 12.8252 3.19224 13.9973 4.65008 14.7162H4.71154C6.59461 15.636 8.77628 15.7257 10.7288 14.9635C12.6805 14.202 14.2244 12.6574 14.9866 10.7057C15.7488 8.75317 15.6591 6.5715 14.7393 4.68844C14.7385 4.67036 14.7356 4.65231 14.7313 4.63495ZM8.02061 1.64189C8.79581 1.64334 9.56449 1.78724 10.2884 2.06638C10.2862 2.22185 10.3477 2.37226 10.4583 2.4829C10.5646 2.59427 10.7128 2.65573 10.8669 2.65212C11.0006 2.65067 11.1286 2.6015 11.2291 2.51328C11.5314 2.69334 11.8199 2.89437 12.0933 3.11492L3.13004 12.0782C2.90948 11.8048 2.70846 11.5163 2.52839 11.214C2.73232 10.9978 2.73232 10.6594 2.52839 10.4432C2.41847 10.3325 2.26807 10.2711 2.11187 10.2732C1.36053 8.3237 1.61652 6.12815 2.79739 4.40429C3.97755 2.67961 5.93076 1.64689 8.02061 1.64189ZM8.02061 14.3691C7.24541 14.3676 6.47672 14.2237 5.75286 13.9446C5.75503 13.7891 5.69356 13.6387 5.58292 13.528C5.3667 13.3248 5.02828 13.3248 4.81205 13.528C4.50979 13.348 4.22125 13.147 3.9479 12.9264L12.9112 3.93278C13.1317 4.20613 13.3327 4.49467 13.5128 4.79693C13.3089 5.01316 13.3089 5.35158 13.5128 5.5678C13.6191 5.67989 13.7673 5.74135 13.9214 5.73774C14.6727 7.68652 14.4174 9.87985 13.2387 11.6039C12.06 13.3279 10.1091 14.3618 8.0205 14.3693L8.02061 14.3691ZM13.3277 5.78401C13.5533 6.00963 13.5533 6.37553 13.3277 6.60188L12.8106 7.11892V7.1182C12.585 7.34383 12.2191 7.34383 11.9928 7.1182C11.7671 6.89257 11.7671 6.52668 11.9928 6.30105L12.5098 5.784C12.7354 5.55838 13.1013 5.55838 13.3277 5.78401ZM8.69963 10.4121C8.92526 10.6377 8.92526 11.0036 8.69963 11.2299L8.18259 11.747V11.7463C7.95696 11.9719 7.59107 11.9719 7.36472 11.7463C7.13909 11.5206 7.13909 11.1547 7.36472 10.9291L7.88176 10.4121C8.10956 10.2009 8.46388 10.2074 8.68371 10.4272L8.69963 10.4121ZM10.2421 8.86963C10.4677 9.09525 10.4677 9.46115 10.2421 9.68677L9.72503 10.1959C9.61728 10.3051 9.46976 10.3665 9.31646 10.3658C9.16244 10.3694 9.01419 10.3079 8.9079 10.1959C8.79726 10.0888 8.73507 9.94132 8.73507 9.7873C8.73507 9.63327 8.79726 9.48575 8.9079 9.37873L9.41698 8.86964C9.64694 8.64837 10.0129 8.65486 10.2341 8.88483L10.2421 8.86963ZM11.7845 7.32719V7.32646C11.8952 7.43421 11.9573 7.58173 11.9573 7.73575C11.9573 7.88977 11.8952 8.03657 11.7845 8.14431L11.2675 8.66136H11.2682C11.1597 8.76983 11.0122 8.83057 10.8589 8.83057C10.7063 8.82768 10.5602 8.76694 10.4503 8.66136C10.2247 8.43501 10.2247 8.06912 10.4503 7.84349L10.9674 7.32644C11.0751 7.22014 11.2219 7.16085 11.3738 7.16229C11.5256 7.16374 11.671 7.2252 11.7773 7.3344L11.7845 7.32719ZM7.15646 11.9552V11.9545C7.38208 12.1809 7.38208 12.5468 7.15646 12.7724L6.63941 13.2894H6.64013C6.53022 13.3965 6.38414 13.4572 6.23084 13.4587C6.07826 13.4558 5.93219 13.395 5.82228 13.2894C5.59665 13.0631 5.59665 12.6972 5.82228 12.4716L6.33933 11.9545C6.56784 11.7506 6.91711 11.7607 7.13334 11.9777L7.15646 11.9552ZM4.26392 8.67654C4.03829 8.45092 4.03829 8.08502 4.26392 7.85867L4.78097 7.34163V7.34235C4.88799 7.22737 5.03695 7.16084 5.19388 7.15795C5.3508 7.15506 5.50194 7.21653 5.61329 7.32716C5.72393 7.43853 5.7854 7.58967 5.78251 7.74658C5.77961 7.9035 5.71309 8.05245 5.59883 8.15949L5.08178 8.67654C4.85616 8.90217 4.49027 8.90217 4.26392 8.67654ZM5.80636 7.1341H5.80708C5.69644 7.02636 5.63425 6.87884 5.63425 6.72482C5.63425 6.57079 5.69644 6.42399 5.80708 6.31625L6.31617 5.80716C6.5418 5.57937 6.90913 5.57721 7.13765 5.80355C7.36544 6.02918 7.36689 6.39651 7.14126 6.62503L6.62422 7.13412C6.51647 7.24331 6.36895 7.30405 6.21565 7.30333C6.06307 7.30261 5.91772 7.23825 5.81431 7.12616L5.80636 7.1341ZM7.3488 5.59166L7.34952 5.59094C7.12389 5.36531 7.12389 4.99942 7.34952 4.77379L7.86657 4.25675C8.09436 4.04415 8.44941 4.05065 8.66996 4.27121C8.88979 4.49104 8.89631 4.84611 8.6837 5.0746L8.16665 5.59165L8.16738 5.59093C8.05891 5.6994 7.91139 5.76086 7.75809 5.76086C7.60695 5.75363 7.4645 5.69 7.35747 5.58369L7.3488 5.59166ZM8.89196 4.0485C8.66633 3.82287 8.66633 3.45698 8.89196 3.23063L9.40901 2.71358V2.71431C9.51603 2.59933 9.66499 2.5328 9.82192 2.52991C9.97884 2.52702 10.13 2.58848 10.2413 2.69912C10.352 2.81048 10.4134 2.96163 10.4105 3.11853C10.4077 3.27546 10.3411 3.42441 10.2269 3.53145L9.70982 4.0485C9.4842 4.27412 9.11831 4.27413 8.89196 4.0485ZM2.72074 10.2197L2.72146 10.219C2.49583 9.99337 2.49583 9.62748 2.72146 9.40185L3.23851 8.8848C3.34553 8.76983 3.4945 8.7033 3.65142 8.70113C3.80834 8.69824 3.95949 8.75898 4.07084 8.87034C4.18148 8.98098 4.24294 9.13212 4.24005 9.28903C4.23716 9.44667 4.17063 9.59563 4.05565 9.70267L3.5386 10.2197L3.53933 10.219C3.42941 10.326 3.28334 10.3875 3.13004 10.3889C2.97601 10.3897 2.82705 10.3318 2.71352 10.2269L2.72074 10.2197Z" fill="currentColor"/>
</svg>
