<svg width="16" height="14" viewBox="0 0 16 14" fill="none" xmlns="http://www.w3.org/2000/svg">
<path d="M4.39177 12.0986C4.80508 12.0986 5.13862 11.765 5.13862 11.3517V2.95745L7.50654 5.32537C7.65338 5.47221 7.84301 5.54417 8.03458 5.54417C8.22615 5.54417 8.41774 5.47221 8.56262 5.32537C8.85436 5.03363 8.85436 4.56102 8.56262 4.27025L4.91977 0.626399C4.62802 0.334657 4.15542 0.334657 3.86465 0.626399L0.218807 4.26926C-0.0729356 4.561 -0.0729356 5.0336 0.218807 5.32437C0.510549 5.61611 0.983152 5.61611 1.27392 5.32437L3.64184 2.95645V11.3507C3.64476 11.765 3.97849 12.0986 4.39177 12.0986Z" fill="currentColor"/>
<path d="M11.0833 13.3738C11.2301 13.5206 11.4198 13.5926 11.6113 13.5926C11.8029 13.5926 11.9945 13.5206 12.1394 13.3738L15.7812 9.73192C16.073 9.44018 16.073 8.96758 15.7812 8.67681C15.4895 8.38506 15.0169 8.38506 14.7261 8.67681L12.3582 11.0447V2.64846C12.3582 2.23515 12.0246 1.90161 11.6113 1.90161C11.198 1.90161 10.8645 2.23515 10.8645 2.64846V11.0427L8.49658 8.67481C8.20484 8.38307 7.73223 8.38307 7.44146 8.67481C7.14972 8.96656 7.14972 9.43916 7.44146 9.72993L11.0833 13.3738Z" fill="currentColor"/>
</svg>
