<svg width="16" height="16" viewBox="0 0 16 16" fill="none" xmlns="http://www.w3.org/2000/svg">
<g clip-path="url(#clip0_777_416)">
<path d="M8.86878 6.428L7.6969 5.25612C7.65295 5.21218 7.59335 5.1875 7.5312 5.1875C7.46905 5.1875 7.40945 5.21218 7.3655 5.25612L5.25612 7.3655C5.21218 7.40945 5.1875 7.46905 5.1875 7.5312C5.1875 7.59335 5.21218 7.65295 5.25612 7.6969L6.428 8.86878C6.47195 8.91272 6.53155 8.9374 6.5937 8.9374C6.65585 8.9374 6.71545 8.91272 6.7594 8.86878L8.86878 6.7594C8.91272 6.71545 8.9374 6.65585 8.9374 6.5937C8.9374 6.53155 8.91272 6.47195 8.86878 6.428ZM6.5937 8.37167L5.75323 7.5312L7.5312 5.75323L8.37167 6.5937L6.5937 8.37167ZM9.80628 8.303L9.10315 7.59987C9.0592 7.55593 8.9996 7.53125 8.93745 7.53125C8.8753 7.53125 8.8157 7.55593 8.77175 7.59987L7.59987 8.77175C7.55593 8.8157 7.53125 8.8753 7.53125 8.93745C7.53125 8.9996 7.55593 9.0592 7.59987 9.10315L8.303 9.80628C8.34695 9.85022 8.40655 9.8749 8.4687 9.8749C8.53085 9.8749 8.59045 9.85022 8.6344 9.80628L9.80628 8.6344C9.85022 8.59045 9.8749 8.53085 9.8749 8.4687C9.8749 8.40655 9.85022 8.34695 9.80628 8.303ZM8.4687 9.30917L8.09698 8.93745L8.93745 8.09698L9.30917 8.4687L8.4687 9.30917ZM5.35315 6.52503L6.52503 5.35315C6.56897 5.3092 6.59365 5.2496 6.59365 5.18745C6.59365 5.1253 6.56897 5.0657 6.52503 5.02175L5.8219 4.31862C5.77795 4.27468 5.71835 4.25 5.6562 4.25C5.59405 4.25 5.53445 4.27468 5.4905 4.31862L4.31862 5.4905C4.27468 5.53445 4.25 5.59405 4.25 5.6562C4.25 5.71835 4.27468 5.77795 4.31862 5.8219L5.02175 6.52503C5.0657 6.56897 5.1253 6.59365 5.18745 6.59365C5.2496 6.59365 5.3092 6.56897 5.35315 6.52503ZM4.81573 5.6562L5.6562 4.81573L6.02792 5.18745L5.18745 6.02792L4.81573 5.6562ZM11.5156 14.5625C11.6546 14.5625 11.7906 14.5212 11.9062 14.444C12.0218 14.3667 12.112 14.2569 12.1652 14.1284C12.2184 13.9999 12.2323 13.8585 12.2052 13.7222C12.1781 13.5858 12.1111 13.4605 12.0128 13.3621C11.9144 13.2638 11.7891 13.1968 11.6527 13.1697C11.5164 13.1426 11.375 13.1565 11.2465 13.2097C11.118 13.2629 11.0082 13.3531 10.9309 13.4687C10.8537 13.5843 10.8125 13.7203 10.8125 13.8593C10.8125 14.0458 10.8865 14.2246 11.0184 14.3565C11.1503 14.4884 11.3291 14.5625 11.5156 14.5625ZM11.5156 13.625C11.5619 13.625 11.6072 13.6387 11.6458 13.6644C11.6843 13.6902 11.7144 13.7268 11.7321 13.7696C11.7498 13.8125 11.7545 13.8596 11.7454 13.9051C11.7364 13.9505 11.7141 13.9923 11.6813 14.0251C11.6485 14.0578 11.6068 14.0802 11.5613 14.0892C11.5158 14.0982 11.4687 14.0936 11.4259 14.0759C11.3831 14.0581 11.3465 14.0281 11.3207 13.9895C11.2949 13.951 11.2812 13.9057 11.2812 13.8593C11.2812 13.7972 11.3059 13.7376 11.3498 13.6936C11.3938 13.6496 11.4534 13.625 11.5156 13.625ZM12.9218 13.1562C13.0609 13.1562 13.1968 13.115 13.3125 13.0377C13.4281 12.9604 13.5182 12.8506 13.5714 12.7221C13.6246 12.5937 13.6386 12.4523 13.6114 12.3159C13.5843 12.1795 13.5173 12.0542 13.419 11.9559C13.3207 11.8576 13.1954 11.7906 13.059 11.7635C12.9226 11.7363 12.7812 11.7503 12.6528 11.8035C12.5243 11.8567 12.4145 11.9468 12.3372 12.0624C12.2599 12.1781 12.2187 12.314 12.2187 12.4531C12.2187 12.6396 12.2928 12.8184 12.4246 12.9503C12.5565 13.0821 12.7353 13.1562 12.9218 13.1562ZM12.9218 12.2187C12.9682 12.2187 13.0135 12.2324 13.052 12.2582C13.0906 12.284 13.1206 12.3206 13.1384 12.3634C13.1561 12.4062 13.1607 12.4533 13.1517 12.4988C13.1427 12.5443 13.1203 12.586 13.0876 12.6188C13.0548 12.6516 13.013 12.6739 12.9676 12.6829C12.9221 12.692 12.875 12.6873 12.8321 12.6696C12.7893 12.6519 12.7527 12.6218 12.7269 12.5833C12.7012 12.5447 12.6875 12.4994 12.6875 12.4531C12.6875 12.3909 12.7121 12.3313 12.7561 12.2873C12.8001 12.2434 12.8597 12.2187 12.9218 12.2187Z" fill="currentColor"/>
<path d="M15.2635 6.59375C15.2644 6.56292 15.259 6.53223 15.2476 6.50354C15.2363 6.47486 15.2193 6.44877 15.1975 6.42686C15.1758 6.40495 15.1499 6.38767 15.1213 6.37607C15.0927 6.36447 15.0621 6.35879 15.0312 6.35938H13.3906V0.96875C13.3906 0.90659 13.3659 0.846976 13.322 0.803022C13.278 0.759068 13.2184 0.734375 13.1562 0.734375H0.96875C0.90659 0.734375 0.846976 0.759068 0.803022 0.803022C0.759068 0.846976 0.734375 0.90659 0.734375 0.96875V13.1562C0.734375 13.2184 0.759068 13.278 0.803022 13.322C0.846976 13.3659 0.90659 13.3906 0.96875 13.3906H10.1094V15.0312C10.1094 15.0934 10.1341 15.153 10.178 15.197C10.222 15.2409 10.2816 15.2656 10.3438 15.2656H14.0938C14.1559 15.2656 14.2155 15.2409 14.2595 15.197L15.197 14.2595C15.2409 14.2155 15.2656 14.1559 15.2656 14.0938V6.59375H15.2635ZM12.9219 4.71875H10.8125V3.78125H12.9219V4.71875ZM10.3438 3.3125H9.40625V1.20312H10.3438V3.3125ZM8.9375 3.3125H8V1.20312H8.9375V3.3125ZM7.53125 3.3125H6.59375V1.20312H7.53125V3.3125ZM6.125 3.3125H5.1875V1.20312H6.125V3.3125ZM4.71875 3.3125H3.78125V1.20312H4.71875V3.3125ZM3.3125 4.71875H1.20312V3.78125H3.3125V4.71875ZM3.3125 5.1875V6.125H1.20312V5.1875H3.3125ZM3.3125 6.59375V7.53125H1.20312V6.59375H3.3125ZM3.3125 8V8.9375H1.20312V8H3.3125ZM3.3125 9.40625V10.3438H1.20312V9.40625H3.3125ZM3.78125 10.8125H4.71875V12.9219H3.78125V10.8125ZM5.1875 10.8125H6.125V12.9219H5.1875V10.8125ZM6.59375 10.8125H7.53125V12.9219H6.59375V10.8125ZM8 10.8125H8.9375V12.9219H8V10.8125ZM3.78125 10.3438V3.78125H10.3438V7.19984L10.178 7.36555C10.1341 7.40949 10.1094 7.46909 10.1094 7.53125V10.3438H3.78125ZM10.5781 7.76562H13.8594V11.0469H10.5781V7.76562ZM14.3281 7.62828L14.7969 7.15953V10.2467L14.3281 10.7155V7.62828ZM13.9967 7.29688H10.9095L11.3783 6.82812H14.4655L13.9967 7.29688ZM11.2812 6.35938C11.2191 6.35939 11.1595 6.38409 11.1155 6.42805L10.8125 6.73109V5.1875H12.9219V6.35938H11.2812ZM12.9219 3.3125H10.8125V1.20312H12.9219V3.3125ZM3.3125 1.20312V3.3125H1.20312V1.20312H3.3125ZM1.20312 10.8125H3.3125V12.9219H1.20312V10.8125ZM9.40625 12.9219V10.8125H10.1094V12.9219H9.40625ZM13.8594 14.7969H10.5781V11.5156H13.8594V14.7969ZM14.3281 14.4655V11.3783L14.7969 10.9095V13.9967L14.3281 14.4655Z" fill="currentColor"/>
<path d="M12.2188 8.70312C12.0797 8.70312 11.9437 8.74436 11.8281 8.82162C11.7125 8.89888 11.6224 9.0087 11.5691 9.13718C11.5159 9.26566 11.502 9.40703 11.5291 9.54342C11.5563 9.67982 11.6232 9.8051 11.7216 9.90343C11.8199 10.0018 11.9452 10.0687 12.0816 10.0959C12.218 10.123 12.3593 10.1091 12.4878 10.0559C12.6163 10.0026 12.7261 9.91251 12.8034 9.79689C12.8806 9.68126 12.9219 9.54531 12.9219 9.40625C12.9219 9.21977 12.8478 9.04093 12.7159 8.90907C12.5841 8.7772 12.4052 8.70312 12.2188 8.70312ZM12.2188 9.64062C12.1724 9.64062 12.1271 9.62688 12.0885 9.60113C12.05 9.57537 12.02 9.53877 12.0022 9.49594C11.9845 9.45311 11.9798 9.40599 11.9889 9.36053C11.9979 9.31506 12.0202 9.2733 12.053 9.24052C12.0858 9.20774 12.1276 9.18542 12.173 9.17638C12.2185 9.16734 12.2656 9.17198 12.3084 9.18972C12.3513 9.20746 12.3879 9.2375 12.4136 9.27604C12.4394 9.31458 12.4531 9.35989 12.4531 9.40625C12.4531 9.46841 12.4284 9.52802 12.3845 9.57198C12.3405 9.61593 12.2809 9.64062 12.2188 9.64062Z" fill="currentColor"/>
</g>
<defs>
<clipPath id="clip0_777_416">
<rect width="15" height="15" fill="white" transform="translate(0.5 0.5)"/>
</clipPath>
</defs>
</svg>
