<svg width="16" height="16" viewBox="0 0 16 16" fill="none" xmlns="http://www.w3.org/2000/svg">
<path d="M14.3199 7.80635V4.51195C14.7807 4.37435 15.1199 3.94555 15.1199 3.43995C15.1199 2.82235 14.6175 2.31995 13.9999 2.31995C13.3823 2.31995 12.8799 2.82235 12.8799 3.43995C12.8799 3.94555 13.2175 4.37435 13.6799 4.51195V7.75995H12.7199V5.99995C12.7199 5.47035 12.2879 5.03995 11.7599 5.03995H10.9663C10.1087 3.88955 8.56148 3.11995 6.79988 3.11995C5.03668 3.11995 3.49108 3.88955 2.63188 5.03995H1.83988C1.31028 5.03995 0.879883 5.47035 0.879883 5.99995V11.1199C0.879883 11.6495 1.31028 12.0799 1.83988 12.0799H2.63988V12.3999C2.63988 13.1055 3.21428 13.6799 3.91988 13.6799H9.67988C10.3855 13.6799 10.9599 13.1055 10.9599 12.3999V12.0799H11.7599C12.2879 12.0799 12.7199 11.6495 12.7199 11.1199V9.99995H13.9999C14.6175 9.99995 15.1199 9.49755 15.1199 8.87995C15.1199 8.37275 14.7807 7.94555 14.3199 7.80635ZM6.79988 3.75995C8.14708 3.75995 9.34868 4.26075 10.1263 5.03995H3.47348C4.25108 4.26075 5.45268 3.75995 6.79988 3.75995ZM10.3199 12.3999C10.3199 12.7519 10.0319 13.0399 9.67988 13.0399H3.91988C3.56628 13.0399 3.27988 12.7519 3.27988 12.3999V12.0799H10.3199V12.3999ZM12.0799 11.1199C12.0799 11.2959 11.9359 11.4399 11.7599 11.4399H1.83988C1.75501 11.4399 1.67362 11.4062 1.61361 11.3462C1.5536 11.2862 1.51988 11.2048 1.51988 11.1199V5.99995C1.51988 5.91508 1.5536 5.83368 1.61361 5.77367C1.67362 5.71366 1.75501 5.67995 1.83988 5.67995H11.7599C11.9359 5.67995 12.0799 5.82395 12.0799 5.99995V11.1199ZM13.5199 3.43995C13.5199 3.17435 13.7343 2.95995 13.9999 2.95995C14.2639 2.95995 14.4799 3.17435 14.4799 3.43995C14.4799 3.70395 14.2639 3.91995 13.9999 3.91995C13.7343 3.91995 13.5199 3.70395 13.5199 3.43995ZM13.9999 9.35995H12.7199V8.39995H13.9999C14.2639 8.39995 14.4799 8.61435 14.4799 8.87995C14.4799 9.14395 14.2639 9.35995 13.9999 9.35995Z" fill="currentColor"/>
<path d="M10.6396 6.80005H2.95965C2.78205 6.80005 2.63965 6.94245 2.63965 7.12005V10C2.63965 10.0849 2.67336 10.1663 2.73337 10.2263C2.79339 10.2863 2.87478 10.32 2.95965 10.32H10.6396C10.8156 10.32 10.9596 10.176 10.9596 10V7.12005C10.9596 7.03518 10.9259 6.95379 10.8659 6.89377C10.8059 6.83376 10.7245 6.80005 10.6396 6.80005ZM5.19965 9.68005H3.27965V7.44005H5.19965V9.68005ZM7.75965 9.68005H5.83965V7.44005H7.75965V9.68005ZM10.3196 9.68005H8.39965V7.44005H10.3196V9.68005Z" fill="currentColor"/>
</svg>
