<svg width="16" height="16" viewBox="0 0 16 16" fill="none" xmlns="http://www.w3.org/2000/svg">
<g clip-path="url(#clip0_233_3380)">
<path d="M7.99967 14.6666C11.6815 14.6666 14.6663 11.6818 14.6663 7.99992C14.6663 4.31802 11.6815 1.33325 7.99967 1.33325C4.31777 1.33325 1.33301 4.31802 1.33301 7.99992C1.33301 11.6818 4.31777 14.6666 7.99967 14.6666Z" stroke="currentColor" stroke-width="1.25" stroke-linecap="round" stroke-linejoin="round"/>
<path d="M5.33309 4.66675H7.33302M7.33302 4.66675H10.6664M7.33302 4.66675C7.99969 4.66675 9.33302 5.06675 9.33302 6.66675M10.6664 6.66675H9.33302M9.33302 6.66675H8.96742H5.33105M9.33302 6.66675C9.33302 8.26675 7.99969 8.66675 7.33302 8.66675H5.33105L8.66635 11.3334" stroke="currentColor" stroke-width="1.25" stroke-linecap="round" stroke-linejoin="round"/>
</g>
<defs>
<clipPath id="clip0_233_3380">
<rect width="16" height="16" fill="currentColor"/>
</clipPath>
</defs>
</svg>
