<svg xmlns="http://www.w3.org/2000/svg" width="20" height="21"
                                            viewBox="0 0 20 21" fill="none">
                                            <g clip-path="url(#clip0_545_6959)">
                                                <mask id="mask0_545_6959" style="mask-type:luminance"
                                                    maskUnits="userSpaceOnUse" x="0" y="0" width="20" height="21">
                                                    <path d="M0 0.5H20V20.5H0V0.5Z" fill="white" />
                                                </mask>
                                                <g mask="url(#mask0_545_6959)">
                                                    <path
                                                        d="M3.33317 10.0833V13.4166C3.33317 14.1083 3.8915 14.6666 4.58317 14.6666C5.27484 14.6666 5.83317 14.1083 5.83317 13.4166V10.0833C5.83317 9.39159 5.27484 8.83326 4.58317 8.83326C3.8915 8.83326 3.33317 9.39159 3.33317 10.0833ZM8.33317 10.0833V13.4166C8.33317 14.1083 8.8915 14.6666 9.58317 14.6666C10.2748 14.6666 10.8332 14.1083 10.8332 13.4166V10.0833C10.8332 9.39159 10.2748 8.83326 9.58317 8.83326C8.8915 8.83326 8.33317 9.39159 8.33317 10.0833ZM2.9165 18.8333H16.2498C16.9415 18.8333 17.4998 18.2749 17.4998 17.5833C17.4998 16.8916 16.9415 16.3333 16.2498 16.3333H2.9165C2.22484 16.3333 1.6665 16.8916 1.6665 17.5833C1.6665 18.2749 2.22484 18.8333 2.9165 18.8333ZM13.3332 10.0833V13.4166C13.3332 14.1083 13.8915 14.6666 14.5832 14.6666C15.2748 14.6666 15.8332 14.1083 15.8332 13.4166V10.0833C15.8332 9.39159 15.2748 8.83326 14.5832 8.83326C13.8915 8.83326 13.3332 9.39159 13.3332 10.0833ZM8.80817 1.7416L2.22484 5.20827C1.88317 5.38327 1.6665 5.7416 1.6665 6.12493C1.6665 6.69993 2.13317 7.1666 2.70817 7.1666H16.4665C17.0332 7.1666 17.4998 6.69993 17.4998 6.12493C17.4998 5.7416 17.2832 5.38327 16.9415 5.20827L10.3582 1.7416C9.87484 1.48327 9.2915 1.48327 8.80817 1.7416Z"
                                                        fill="url(#paint0_linear_545_6959)" />
                                                </g>
                                            </g>
                                            <defs>
                                                <linearGradient id="paint0_linear_545_6959" x1="1.6665" y1="2.96211"
                                                    x2="19.203" y2="5.14393" gradientUnits="userSpaceOnUse">
                                                    <stop stop-color="#36E2FA" />
                                                    <stop offset="1" stop-color="#EBFFBF" />
                                                </linearGradient>
                                                <clipPath id="clip0_545_6959">
                                                    <rect width="20" height="20" fill="white"
                                                        transform="translate(0 0.5)" />
                                                </clipPath>
                                            </defs>
                                        </svg>