<svg width="91" height="11" viewBox="0 0 91 11" fill="none" xmlns="http://www.w3.org/2000/svg">
<path d="M4.382 10.14C1.344 10.14 0.21 8.67 0.21 6.192V5.786H2.436V6.192C2.436 7.578 2.716 8.096 4.382 8.096C6.034 8.096 6.356 7.606 6.356 6.29V0.62H8.582V6.29C8.582 8.698 7.434 10.14 4.382 10.14ZM12.2981 10H10.1981V0.62H12.2981V10ZM21.6433 10H13.9573V0.62H16.0573V8.11H21.6433V10ZM25.1486 10H23.0486V0.62H25.1486V10ZM33.952 10.14C31.082 10.14 29.318 8.236 29.318 5.31C29.318 2.384 31.306 0.48 34.526 0.48C37.466 0.48 39.328 1.852 39.328 4.106V4.218H36.99V4.106C36.99 3.014 36.276 2.496 34.47 2.496C32.342 2.496 31.544 3.224 31.544 5.31C31.544 7.396 32.314 8.124 34.372 8.124C36.528 8.124 37.186 7.788 37.242 6.598H34.064V5.044H39.342V10H37.396V7.984H37.284C36.962 9.216 35.982 10.14 33.952 10.14ZM42.6518 10H40.2998L44.4018 0.62H47.3978L51.5278 10H49.1198L48.2378 7.928H43.5478L42.6518 10ZM45.2418 3.994L44.3598 6.038H47.4258L46.5438 3.994L45.9698 2.538H45.8158L45.2418 3.994ZM54.6777 10H52.5777V0.62H55.4197L57.6177 5.24L58.4997 7.438H58.6537L59.5077 5.24L61.6357 0.62H64.4917V10H62.3917V5.24L62.4617 3.77H62.3077L61.7617 5.24L59.8017 9.44H57.2537L55.2937 5.24L54.7477 3.77H54.5937L54.6777 5.24V10ZM68.2533 10H66.1533V0.62H68.2533V10ZM72.0125 10H69.9125V0.62H72.1525L75.5125 5.058L76.8005 7.032H76.9545L76.8565 5.142V0.62H78.9565V10H76.7165L73.2585 5.52L72.0685 3.756H71.9285L72.0125 5.478V10ZM85.0547 10.14C82.1847 10.14 80.4207 8.236 80.4207 5.31C80.4207 2.384 82.4087 0.48 85.6287 0.48C88.5687 0.48 90.4307 1.852 90.4307 4.106V4.218H88.0927V4.106C88.0927 3.014 87.3787 2.496 85.5727 2.496C83.4447 2.496 82.6467 3.224 82.6467 5.31C82.6467 7.396 83.4167 8.124 85.4747 8.124C87.6307 8.124 88.2887 7.788 88.3447 6.598H85.1667V5.044H90.4447V10H88.4987V7.984H88.3867C88.0647 9.216 87.0847 10.14 85.0547 10.14Z" fill="white"/>
</svg>
