<svg width="16" height="18" viewBox="0 0 16 18" fill="none" xmlns="http://www.w3.org/2000/svg">
<path d="M8.01876 11.5294C9.57993 11.5294 10.8453 10.2642 10.8453 8.70284C10.8453 7.14148 9.57993 5.87627 8.01876 5.87627C6.45758 5.87627 5.19219 7.14148 5.19219 8.70284C5.19219 10.2642 6.45776 11.5294 8.01876 11.5294ZM8.01876 6.51367C9.22591 6.51367 10.2079 7.49568 10.2079 8.70284C10.2079 9.90999 9.22591 10.892 8.01876 10.892C6.8116 10.892 5.82959 9.90999 5.82959 8.70284C5.82959 7.49569 6.81178 6.51367 8.01876 6.51367Z" fill="currentColor" stroke="currentColor" stroke-width="0.1"/>
<path d="M3.48236 5.67187C3.41733 5.55347 3.32705 5.4587 3.22906 5.38651C3.05656 5.26022 2.86471 5.19502 2.67966 5.14235L3.18374 6.92491C3.30555 6.84914 3.41357 6.74166 3.4863 6.60623M3.48236 5.67187C3.55706 5.80712 3.59539 5.96888 3.59485 6.14443M3.48236 5.67187L3.52613 5.6477C3.52614 5.64772 3.52615 5.64774 3.52616 5.64775C3.60551 5.79144 3.64541 5.96178 3.64485 6.14458L3.59485 6.14443M3.48236 5.67187L2.72178 7.13923M3.59485 6.14443C3.59503 6.31317 3.55939 6.47117 3.4863 6.60623M3.59485 6.14443L3.64485 6.14437C3.64504 6.3201 3.60792 6.48654 3.53027 6.63003L3.4863 6.60623M3.4863 6.60623L3.53035 6.62989C3.45307 6.7738 3.33859 6.88747 3.21015 6.96737L3.20998 6.96748C3.05929 7.06035 2.89316 7.11095 2.72178 7.13923M2.72178 7.13923V7.18197C2.72178 7.35788 2.57922 7.50067 2.40308 7.50067C2.22694 7.50067 2.08438 7.35788 2.08438 7.18197V7.14883C1.8622 7.11192 1.66337 7.02723 1.50497 6.89332C1.28482 6.70924 1.15923 6.43306 1.16131 6.14407L1.2113 6.14443C1.2113 5.9961 1.33168 5.87573 1.48001 5.87573C1.62833 5.87573 1.74871 5.9961 1.74871 6.14443L1.7987 6.14367C1.7987 6.14379 1.7987 6.14391 1.7987 6.14403C1.80054 6.25975 1.83838 6.33817 1.91715 6.40715C1.95639 6.44045 2.0122 6.47073 2.08384 6.49353V5.59613M2.72178 7.13923L2.08384 5.59613M3.55279 4.20895C3.61533 4.34014 3.64504 4.48352 3.64485 4.62759L3.55279 4.20895ZM3.55279 4.20895C3.45889 4.01109 3.29184 3.85104 3.08405 3.75061L3.06229 3.79563C2.94585 3.73902 2.81419 3.70141 2.6716 3.67794M3.55279 4.20895L3.08415 3.75066C2.97403 3.69712 2.85189 3.66029 2.7216 3.63595M2.6716 3.67794H2.7216V3.63595M2.6716 3.67794L2.67972 3.6286C2.69377 3.63092 2.70773 3.63336 2.7216 3.63595M2.6716 3.67794L2.7216 3.63595M1.21095 4.6277L1.16095 4.62759C1.16132 4.45787 1.20563 4.2725 1.31309 4.10092C1.4201 3.92878 1.5943 3.77694 1.82462 3.69014C1.90509 3.65927 1.9923 3.63736 2.0842 3.62283L2.1342 3.66612C2.02923 3.67991 1.93106 3.70284 1.84239 3.73687C1.62224 3.81981 1.45672 3.96455 1.35551 4.12738C1.2534 4.2904 1.2113 4.46648 1.21095 4.6277ZM1.21095 4.6277C1.21023 4.7943 1.25125 4.95068 1.32989 5.07805M1.21095 4.6277L1.16095 4.62749C1.1602 4.80221 1.20319 4.96796 1.28729 5.10422M1.32989 5.07805L1.28724 5.10413C1.28725 5.10416 1.28727 5.10419 1.28729 5.10422M1.32989 5.07805C1.39814 5.18965 1.49075 5.27545 1.58856 5.3394L1.32989 5.07805ZM1.28729 5.10422C1.36011 5.22327 1.45847 5.31408 1.5612 5.38125L1.56129 5.38131C1.72989 5.49103 1.91157 5.54889 2.08384 5.59613M1.28729 5.10422L2.08384 5.59613M1.89169 4.83478L1.89204 4.83506C1.93262 4.86656 1.99871 4.89853 2.08456 4.92949V4.275C2.07286 4.27847 2.06193 4.28213 2.05182 4.28602L1.89169 4.83478ZM1.89169 4.83478C1.85604 4.80761 1.83773 4.78506 1.82414 4.75867M1.89169 4.83478L1.82414 4.75867M2.80809 5.81436L2.80762 5.81411C2.78246 5.80039 2.75361 5.78743 2.72178 5.77489V6.49072C2.80463 6.46754 2.86494 6.43641 2.90439 6.40452L2.93582 6.4434M2.80809 5.81436L2.96958 6.32756C2.96957 6.32756 2.96957 6.32757 2.96956 6.32758C2.95386 6.35664 2.93378 6.38054 2.90422 6.40466L2.93582 6.4434M2.80809 5.81436C2.88451 5.85501 2.92907 5.89508 2.95722 5.93751M2.80809 5.81436L2.95722 5.93751M2.93582 6.4434C2.88752 6.48246 2.81612 6.51774 2.72178 6.54253L2.93582 6.4434ZM1.82414 4.75867C1.81082 4.7318 1.79903 4.69491 1.7987 4.62782L1.74871 4.62806M1.82414 4.75867L1.74871 4.62806M1.74871 4.62806L1.79871 4.62796C1.79855 4.54978 1.82817 4.454 1.89804 4.3832M1.74871 4.62806L1.89804 4.3832M1.89804 4.3832C1.93362 4.34715 1.98096 4.31325 2.05182 4.28602L1.89804 4.3832ZM2.95722 5.93751C2.98473 5.9801 3.00695 6.03529 3.00781 6.14474L2.95722 5.93751ZM2.1219 5.60628C2.12233 5.60637 2.12222 5.60636 2.12177 5.60625L2.1219 5.60628ZM2.67178 6.50132V5.75633V6.50132Z" fill="currentColor" stroke="currentColor" stroke-width="0.1"/>
<path d="M14.5888 5.6709C14.5238 5.55249 14.4335 5.45773 14.3355 5.38554C14.163 5.25925 13.9712 5.19404 13.7861 5.14138L14.2902 6.92393C14.412 6.84798 14.52 6.74068 14.5927 6.60526M14.5888 5.6709C14.6635 5.80614 14.7018 5.9679 14.7013 6.14345M14.5888 5.6709L14.6326 5.64672C14.6326 5.64674 14.6326 5.64676 14.6326 5.64678C14.712 5.79047 14.7519 5.9608 14.7513 6.1436L14.7013 6.14345M14.5888 5.6709L13.8282 7.13825M14.7013 6.14345C14.7015 6.31219 14.6658 6.47019 14.5927 6.60526M14.7013 6.14345L14.7513 6.1434C14.7515 6.31912 14.7144 6.48556 14.6367 6.62905L14.5927 6.60526M14.5927 6.60526L14.6368 6.62891C14.5595 6.77285 14.445 6.88632 14.3166 6.96636L14.3164 6.9665C14.1657 7.05937 13.9996 7.10998 13.8282 7.13825M13.8282 7.13825V7.18099C13.8282 7.35691 13.6857 7.49969 13.5095 7.49969C13.3334 7.49969 13.1908 7.35691 13.1908 7.18099V7.14789C12.9686 7.11109 12.7698 7.02623 12.6114 6.89234C12.3913 6.70826 12.2657 6.43209 12.2678 6.14309L12.3178 6.14345C12.3178 5.99513 12.4381 5.87475 12.5865 5.87475C12.7348 5.87475 12.8552 5.99513 12.8552 6.14345L12.9051 6.14269C12.9051 6.14281 12.9051 6.14293 12.9052 6.14305C12.907 6.25878 12.9448 6.3372 13.0236 6.40617C13.0628 6.43947 13.1186 6.46975 13.1903 6.49255V5.59515M13.8282 7.13825L13.1903 5.59515M14.6592 4.20797C14.7218 4.33916 14.7515 4.48255 14.7513 4.62661L14.6592 4.20797ZM14.6592 4.20797C14.5653 4.01011 14.3983 3.85006 14.1905 3.74964L14.1687 3.79465C14.0523 3.73805 13.9206 3.70043 13.778 3.67696M14.6592 4.20797L14.1906 3.74969C14.0805 3.69615 13.9583 3.65931 13.828 3.63498M13.778 3.67696H13.828V3.63498M13.778 3.67696L13.7862 3.62763C13.8002 3.62994 13.8142 3.63239 13.828 3.63498M13.778 3.67696L13.828 3.63498M12.3174 4.62673L12.2674 4.62662C12.2678 4.4569 12.3121 4.27153 12.4195 4.09994C12.5265 3.9278 12.7007 3.77597 12.9311 3.68916C13.0115 3.65829 13.0987 3.63638 13.1906 3.62185L13.2406 3.66514C13.1357 3.67893 13.0375 3.70186 12.9488 3.7359C12.7287 3.81884 12.5632 3.96358 12.462 4.12641C12.3598 4.28942 12.3178 4.46551 12.3174 4.62673ZM12.3174 4.62673C12.3167 4.79332 12.3577 4.94971 12.4363 5.07707M12.3174 4.62673L12.2674 4.62651C12.2666 4.80123 12.3096 4.96699 12.3937 5.10325M12.4363 5.07707L12.3937 5.10316C12.3937 5.10319 12.3937 5.10322 12.3937 5.10325M12.4363 5.07707C12.5046 5.18867 12.5972 5.27447 12.695 5.33842L12.4363 5.07707ZM12.3937 5.10325C12.4666 5.22229 12.5649 5.31311 12.6676 5.38027L12.6677 5.38033C12.8363 5.49005 13.018 5.54792 13.1903 5.59515M12.3937 5.10325L13.1903 5.59515M12.9981 4.83381L12.9985 4.83408C13.0391 4.86559 13.1052 4.89755 13.191 4.92851V4.27403C13.1793 4.2775 13.1684 4.28116 13.1583 4.28504L12.9981 4.83381ZM12.9981 4.83381C12.9625 4.80664 12.9442 4.78408 12.9306 4.7577M12.9981 4.83381L12.9306 4.7577M13.9145 5.81339L13.9141 5.81314C13.8889 5.79941 13.8601 5.78645 13.8282 5.77392V6.48975C13.9111 6.46656 13.9714 6.43543 14.0108 6.40354L14.0423 6.44242M13.9145 5.81339L14.076 6.32658C14.076 6.32659 14.076 6.3266 14.076 6.3266C14.0603 6.35566 14.0402 6.37956 14.0107 6.40368L14.0423 6.44242M13.9145 5.81339C13.991 5.85403 14.0355 5.89411 14.0637 5.93654M13.9145 5.81339L14.0637 5.93654M14.0423 6.44242C13.994 6.48148 13.9226 6.51677 13.8282 6.54155L14.0423 6.44242ZM14.0637 5.93654C14.0912 5.97913 14.1134 6.03432 14.1143 6.14377L14.0637 5.93654ZM12.9306 4.7577C12.9173 4.73082 12.9055 4.69393 12.9052 4.62684L12.8552 4.62709M12.9306 4.7577L12.8552 4.62709M12.8552 4.62709L12.9052 4.62699C12.905 4.5488 12.9346 4.45303 13.0045 4.38222M12.8552 4.62709L13.0045 4.38222M13.0045 4.38222C13.0401 4.34617 13.0874 4.31227 13.1583 4.28504L13.0045 4.38222ZM13.2283 5.6053C13.2288 5.60539 13.2287 5.60538 13.2282 5.60527L13.2283 5.6053ZM13.7782 6.50034V5.75535V6.50034Z" fill="currentColor" stroke="currentColor" stroke-width="0.1"/>
<path d="M9.03607 3.34217C8.97104 3.22376 8.88076 3.129 8.78277 3.05681C8.61027 2.93052 8.41842 2.86532 8.23337 2.81265L8.73745 4.59521C8.85926 4.51925 8.96728 4.41195 9.04001 4.27653M9.03607 3.34217C9.11077 3.47742 9.1491 3.63917 9.14856 3.81472M9.03607 3.34217L9.07984 3.318C9.07985 3.31801 9.07986 3.31803 9.07987 3.31805C9.15922 3.46174 9.19912 3.63207 9.19856 3.81488L9.14856 3.81472M9.03607 3.34217L8.27549 4.80952M9.14856 3.81472C9.14874 3.98347 9.1131 4.14146 9.04001 4.27653M9.14856 3.81472L9.19856 3.81467C9.19875 3.99039 9.16163 4.15684 9.08398 4.30032L9.04001 4.27653M9.04001 4.27653L9.08406 4.30019C9.00676 4.44412 8.89228 4.55759 8.76391 4.63764L8.76369 4.63777C8.61301 4.73065 8.44687 4.78125 8.27549 4.80952M8.27549 4.80952V4.85226C8.27549 5.02818 8.13293 5.17096 7.95679 5.17096C7.78065 5.17096 7.63809 5.02818 7.63809 4.85226V4.81916C7.41588 4.78236 7.21705 4.6975 7.05868 4.56362C6.83853 4.37953 6.71294 4.10336 6.71502 3.81436L6.76502 3.81472C6.76502 3.6664 6.88539 3.54602 7.03372 3.54602C7.18204 3.54602 7.30242 3.6664 7.30242 3.81472L7.35241 3.81396C7.35241 3.81408 7.35241 3.8142 7.35242 3.81432C7.35425 3.93005 7.3921 4.00847 7.47086 4.07745C7.5101 4.11074 7.56589 4.14102 7.63755 4.164V3.26678M8.27549 4.80952L7.63755 3.26678M7.63755 3.26678C7.46528 3.21955 7.2836 3.16168 7.115 3.05196L7.11491 3.0519C7.01218 2.98474 6.91383 2.89392 6.841 2.77488C6.7569 2.63862 6.71391 2.47286 6.71466 2.29814L7.63755 3.26678ZM7.4454 2.50508L7.44575 2.50535C7.48633 2.53686 7.55242 2.56883 7.63827 2.59978V1.9453C7.62657 1.94877 7.61564 1.95243 7.60553 1.95631L7.4454 2.50508ZM7.4454 2.50508C7.40975 2.47791 7.39144 2.45536 7.37786 2.42897M7.4454 2.50508L7.37786 2.42897M8.3618 3.48466L8.36133 3.48441C8.33617 3.47068 8.30732 3.45772 8.27549 3.44519V4.16102C8.35834 4.13784 8.41865 4.10671 8.4581 4.07482L8.48953 4.1137M8.3618 3.48466L8.52329 3.99785C8.52328 3.99786 8.52328 3.99787 8.52327 3.99788C8.50757 4.02693 8.48749 4.05084 8.45793 4.07495L8.48953 4.1137M8.3618 3.48466C8.43822 3.5253 8.48278 3.56537 8.51093 3.60779M8.3618 3.48466L8.51093 3.60779M8.48953 4.1137C8.44123 4.15275 8.36983 4.18804 8.27549 4.21282L8.48953 4.1137ZM7.37786 2.42897C7.36453 2.4021 7.35274 2.3652 7.35242 2.29812L7.30242 2.29836M7.37786 2.42897L7.30242 2.29836M7.30242 2.29836L7.35242 2.29826C7.35226 2.22007 7.38188 2.1243 7.45175 2.0535M7.30242 2.29836L7.45175 2.0535M7.45175 2.0535C7.48733 2.01744 7.53467 1.98354 7.60553 1.95631L7.45175 2.0535ZM8.51093 3.60779C8.53844 3.65039 8.56066 3.70558 8.56152 3.81504L8.51093 3.60779ZM9.19856 2.29789C9.19875 2.15382 9.16904 2.01043 9.1065 1.87925L9.19856 2.29789ZM7.63791 1.29348C7.54601 1.30801 7.4588 1.32992 7.37833 1.36079C7.14801 1.4476 6.97381 1.59944 6.8668 1.77157C6.75934 1.94316 6.71503 2.12853 6.71466 2.29825L6.76466 2.29836C6.76394 2.46495 6.80496 2.62134 6.8836 2.7487C6.95185 2.8603 7.04446 2.94611 7.14227 3.01006C7.3146 3.12219 7.50215 3.17862 7.68379 3.22752L7.63791 1.29348ZM8.22549 4.17161V3.42662V4.17161Z" fill="currentColor" stroke="currentColor" stroke-width="0.1"/>
<path d="M15.1616 8.59478L15.1617 8.59482L15.1616 8.59478ZM15.1616 8.59478L14.961 8.39397L14.961 8.39395M15.1616 8.59478L14.961 8.39395M9.14375 12.2523C9.17332 12.2371 9.22095 12.2081 9.2765 12.1697L9.27659 12.1696C9.38886 12.0923 9.53109 11.9788 9.66616 11.8551L9.66618 11.8551L13.4851 8.36148L9.14375 12.2523ZM9.14375 12.2523L9.13745 12.2552C8.93468 12.255 7.06242 12.255 6.85625 12.2552C6.84538 12.2495 6.83107 12.2415 6.8146 12.2313L6.81416 12.2311C6.702 12.1633 6.51104 12.018 6.33363 11.855L6.33355 11.8549L2.51461 8.36089L2.51459 8.36088C2.31097 8.17475 2.05061 8.08411 1.79463 8.08428C1.79461 8.08428 1.79458 8.08428 1.79456 8.08428L1.7946 8.13428M9.14375 12.2523L1.0743 8.42913M1.7946 8.13428C1.53485 8.1341 1.27189 8.23137 1.0743 8.42913M1.7946 8.13428C2.03893 8.1341 2.28703 8.22062 2.48086 8.39778L1.7946 8.13428ZM1.0743 8.42913L1.03893 8.39379L1.03893 8.39379M1.0743 8.42913L1.03893 8.39379M1.03893 8.39379L0.837763 8.59514L0.83769 8.59521C0.615906 8.81812 0.511106 9.11667 0.510547 9.41051L0.510547 9.41064C0.510734 9.64693 0.579422 9.88859 0.730393 10.0913L0.730442 10.0913L3.74221 14.1208L3.74223 14.1208C3.84748 14.2614 3.94619 14.4247 4.01453 14.5633L4.01455 14.5633C4.04877 14.6326 4.07487 14.6952 4.09064 14.742L4.13802 14.726M1.03893 8.39379L4.10772 16.4125M4.10772 16.4125V16.411V16.4079V16.4047V16.4016V16.3984V16.3952V16.392V16.3888V16.3856V16.3824V16.3792V16.3759V16.3727V16.3694V16.3661V16.3629V16.3596V16.3563V16.3529V16.3496V16.3463V16.3429V16.3396V16.3362V16.3328V16.3295V16.3261V16.3227V16.3193V16.3158V16.3124V16.309V16.3055V16.3021V16.2986V16.2951V16.2916V16.2881V16.2846V16.2811V16.2776V16.2741V16.2705V16.267V16.2634V16.2599V16.2563V16.2527V16.2491V16.2456V16.2419V16.2383V16.2347V16.2311V16.2275V16.2238V16.2202V16.2165V16.2129V16.2092V16.2055V16.2018V16.1981V16.1944V16.1907V16.187V16.1833V16.1796V16.1758V16.1721V16.1683V16.1646V16.1608V16.157V16.1533V16.1495V16.1457V16.1419V16.1381V16.1343V16.1305V16.1267V16.1228V16.119V16.1152V16.1113V16.1075V16.1036V16.0998V16.0959V16.0921V16.0882V16.0843V16.0804V16.0765V16.0726V16.0687V16.0648V16.0609V16.057V16.0531V16.0492V16.0452V16.0413V16.0374V16.0334V16.0295V16.0255V16.0216V16.0176V16.0137V16.0097V16.0057V16.0017V15.9978V15.9938V15.9898V15.9858V15.9818V15.9778V15.9738V15.9698V15.9658V15.9618V15.9578V15.9538V15.9497V15.9457V15.9417V15.9377V15.9336V15.9296V15.9256V15.9215V15.9175V15.9134V15.9094V15.9053V15.9013V15.8972V15.8932V15.8891V15.8851V15.881V15.8769V15.8729V15.8688V15.8647V15.8607V15.8566V15.8525V15.8484V15.8444V15.8403V15.8362V15.8321V15.828V15.824V15.8199V15.8158V15.8117V15.8076V15.8035V15.7994V15.7954V15.7913V15.7872V15.7831V15.779V15.7749V15.7708V15.7667V15.7626V15.7585V15.7545V15.7504V15.7463V15.7422V15.7381V15.734V15.7299V15.7258V15.7217V15.7176V15.7136V15.7095V15.7054V15.7013V15.6972V15.6931V15.6891V15.685V15.6809V15.6768V15.6727V15.6687V15.6646V15.6605V15.6564V15.6524V15.6483V15.6442V15.6402V15.6361V15.6321V15.628V15.6239V15.6199V15.6158V15.6118V15.6077V15.6037V15.5997V15.5956V15.5916V15.5876V15.5835V15.5795V15.5755V15.5714V15.5674V15.5634V15.5594V15.5554V15.5514V15.5474V15.5434V15.5394V15.5354V15.5314V15.5274V15.5234V15.5194V15.5155V15.5115V15.5075V15.5036V15.4996V15.4957V15.4917V15.4878V15.4838V15.4799V15.476V15.472V15.4681V15.4642V15.4603V15.4564V15.4525V15.4486V15.4447V15.4408V15.4369V15.433V15.4291V15.4253V15.4214V15.4176V15.4137V15.4099V15.406V15.4022V15.3984V15.3945V15.3907V15.3869V15.3831V15.3793V15.3755V15.3717V15.3679V15.3642V15.3604V15.3566V15.3529V15.3491V15.3454V15.3417V15.3379V15.3342V15.3305V15.3268V15.3231V15.3194V15.3157V15.312V15.3084V15.3047V15.301V15.2974V15.2938V15.2901V15.2865V15.2829V15.2793V15.2757V15.2721V15.2685V15.2649V15.2613V15.2578V15.2542V15.2507V15.2472V15.2436V15.2401V15.2366V15.2331V15.2296V15.2261V15.2226V15.2192V15.2157V15.2123V15.2088V15.2054V15.202V15.1986V15.1952V15.1918V15.1884V15.185V15.1817V15.1783V15.175V15.1716V15.1683V15.165V15.1617V15.1584V15.1551V15.1518V15.1486V15.1453V15.1421V15.1388V15.1356V15.1324V15.1292V15.126V15.1229V15.1197V15.1165V15.1134V15.1102V15.1071V15.104V15.1009V15.0978V15.0947V15.0917V15.0886V15.0856V15.0826V15.0795V15.0765V15.0735V15.0705V15.0676V15.0646V15.0617V15.0587V15.0558V15.0529V15.05V15.0471V15.0442V15.0414V15.0385V15.0357V15.0329V15.0301V15.0273V15.0245V15.0217V15.0189V15.0162V15.0135V15.0108V15.008V15.0054V15.0027V15V14.9974V14.9947V14.9921V14.9895V14.9869V14.9843V14.9817V14.9792V14.9767V14.9741V14.9716V14.9691V14.9666V14.9642V14.9617V14.9593V14.9569V14.9544V14.952V14.9497V14.9473V14.945V14.9426V14.9403V14.938V14.9357V14.9334V14.9312V14.9289V14.9267V14.9245V14.9223V14.9201V14.9179V14.9158V14.9137V14.9115V14.9094V14.9074V14.9053V14.9032V14.9012V14.8992V14.8972V14.8952V14.8932V14.8913V14.8893V14.8874V14.8855V14.8836V14.8817V14.8799V14.878V14.8762V14.8744V14.8726V14.8709V14.8691V14.8674V14.8657V14.864V14.8623V14.8606V14.859V14.8574V14.8557V14.8542V14.8526V14.851V14.8495V14.848V14.8465V14.845V14.8435V14.8421V14.8406V14.8392V14.8378V14.8365V14.8351V14.8338V14.8325V14.8312V14.8299V14.8286V14.8274V14.8262V14.825V14.8238V14.8226V14.8215V14.8204V14.8193V14.8182V14.8171V14.8161V14.8151V14.8141V14.8131V14.8121V14.8112V14.8103V14.8094V14.8085V14.8076V14.8068V14.806V14.8052L4.10586 14.7953C4.10322 14.7834 4.09823 14.7648 4.09059 14.7418L4.13802 14.726M4.10772 16.4125H1.75196C1.57605 16.4125 1.43326 16.5551 1.43326 16.7312C1.43326 16.9072 1.57603 17.0499 1.75196 17.0499H14.2913C14.4672 17.0499 14.61 16.9072 14.61 16.7312C14.61 16.5551 14.4672 16.4125 14.2913 16.4125H11.9105V16.412V16.4089V16.4058V16.4027V16.3996V16.3965V16.3934V16.3903V16.3871V16.3839V16.3808V16.3776V16.3744V16.3712V16.368V16.3648V16.3616V16.3583V16.3551V16.3518V16.3486V16.3453V16.342V16.3387V16.3354V16.3321V16.3288V16.3254V16.3221V16.3188V16.3154V16.312V16.3087V16.3053V16.3019V16.2985V16.2951V16.2916V16.2882V16.2848V16.2813V16.2779V16.2744V16.271V16.2675V16.264V16.2605V16.257V16.2535V16.25V16.2465V16.2429V16.2394V16.2358V16.2323V16.2287V16.2252V16.2216V16.218V16.2144V16.2108V16.2072V16.2036V16.2V16.1964V16.1927V16.1891V16.1854V16.1818V16.1781V16.1745V16.1708V16.1671V16.1634V16.1597V16.156V16.1523V16.1486V16.1449V16.1412V16.1375V16.1337V16.13V16.1263V16.1225V16.1188V16.115V16.1112V16.1075V16.1037V16.0999V16.0961V16.0923V16.0885V16.0847V16.0809V16.0771V16.0733V16.0695V16.0657V16.0618V16.058V16.0542V16.0503V16.0465V16.0426V16.0388V16.0349V16.031V16.0272V16.0233V16.0194V16.0155V16.0116V16.0078V16.0039V16V15.9961V15.9922V15.9883V15.9843V15.9804V15.9765V15.9726V15.9687V15.9648V15.9608V15.9569V15.953V15.949V15.9451V15.9411V15.9372V15.9332V15.9293V15.9253V15.9214V15.9174V15.9135V15.9095V15.9055V15.9016V15.8976V15.8936V15.8897V15.8857V15.8817V15.8777V15.8738V15.8698V15.8658V15.8618V15.8578V15.8538V15.8498V15.8459V15.8419V15.8379V15.8339V15.8299V15.8259V15.8219V15.8179V15.8139V15.8099V15.8059V15.8019V15.7979V15.7939V15.7899V15.7859V15.7819V15.7779V15.7739V15.7699V15.7659V15.7619V15.7579V15.7539V15.7499V15.7459V15.7419V15.7379V15.7339V15.7299V15.7259V15.7219V15.7179V15.7139V15.7099V15.7059V15.7019V15.698V15.694V15.69V15.686V15.682V15.678V15.674V15.67V15.6661V15.6621V15.6581V15.6541V15.6502V15.6462V15.6422V15.6382V15.6343V15.6303V15.6264V15.6224V15.6184V15.6145V15.6105V15.6066V15.6026V15.5987V15.5947V15.5908V15.5869V15.5829V15.579V15.5751V15.5711V15.5672V15.5633V15.5594V15.5555V15.5516V15.5477V15.5438V15.5399V15.536V15.5321V15.5282V15.5243V15.5204V15.5165V15.5127V15.5088V15.5049V15.5011V15.4972V15.4934V15.4895V15.4857V15.4818V15.478V15.4742V15.4703V15.4665V15.4627V15.4589V15.4551V15.4513V15.4475V15.4437V15.4399V15.4361V15.4324V15.4286V15.4248V15.4211V15.4173V15.4136V15.4098V15.4061V15.4024V15.3986V15.3949V15.3912V15.3875V15.3838V15.3801V15.3764V15.3727V15.369V15.3654V15.3617V15.358V15.3544V15.3508V15.3471V15.3435V15.3399V15.3362V15.3326V15.329V15.3254V15.3218V15.3183V15.3147V15.3111V15.3076V15.304V15.3005V15.2969V15.2934V15.2899V15.2863V15.2828V15.2793V15.2758V15.2724V15.2689V15.2654V15.262V15.2585V15.2551V15.2516V15.2482V15.2448V15.2414V15.238V15.2346V15.2312V15.2278V15.2245V15.2211V15.2178V15.2144V15.2111V15.2078V15.2044V15.2011V15.1979V15.1946V15.1913V15.188V15.1848V15.1815V15.1783V15.1751V15.1718V15.1686V15.1654V15.1623V15.1591V15.1559V15.1528V15.1496V15.1465V15.1433V15.1402V15.1371V15.134V15.1309V15.1279V15.1248V15.1218V15.1187V15.1157V15.1127V15.1097V15.1067V15.1037V15.1007V15.0977V15.0948V15.0919V15.0889V15.086V15.0831V15.0802V15.0773V15.0745V15.0716V15.0688V15.0659V15.0631V15.0603V15.0575V15.0547V15.0519V15.0492V15.0464V15.0437V15.0409V15.0382V15.0355V15.0329V15.0302V15.0275V15.0249V15.0222V15.0196V15.017V15.0144V15.0118V15.0093V15.0067V15.0042V15.0016V14.9991V14.9966V14.9941V14.9916V14.9892V14.9867V14.9843V14.9819V14.9795V14.9771V14.9747V14.9723V14.97V14.9677V14.9653V14.963V14.9607V14.9585V14.9562V14.954V14.9517V14.9495V14.9473V14.9451V14.9429V14.9408V14.9386V14.9365V14.9344V14.9323V14.9302V14.9282V14.9261V14.9241V14.922V14.92V14.9181V14.9161V14.9141V14.9122V14.9103V14.9083V14.9065V14.9046V14.9027V14.9009V14.899V14.8972V14.8954V14.8937V14.8919V14.8901V14.8884V14.8867V14.885V14.8833V14.8817V14.88V14.8784V14.8768V14.8752V14.8736V14.8721V14.8705V14.869V14.8675V14.866V14.8645V14.8631V14.8616V14.8602V14.8588V14.8574V14.8561V14.8547V14.8534V14.8521V14.8508V14.8495V14.8483V14.847V14.8458V14.8446V14.8434V14.8423V14.8411V14.84V14.8389V14.8378V14.8368V14.8357V14.8347V14.8337V14.8327V14.8317V14.8308V14.8298V14.8289V14.828V14.8271V14.8263V14.8254V14.8253L11.9107 14.8232C11.9112 14.8193 11.9121 14.8133 11.9136 14.8054C11.9165 14.7897 11.9216 14.7678 11.9297 14.7431L11.93 14.7421C11.9784 14.5823 12.1199 14.3081 12.2758 14.1014L12.276 14.1012L15.2698 10.0917L15.2699 10.0916C15.4209 9.88893 15.4894 9.64726 15.4895 9.411V9.41083C15.4888 9.11717 15.3841 8.81822 15.162 8.59514L4.10772 16.4125ZM4.13802 14.726C4.14626 14.7507 4.15181 14.7713 4.15486 14.7853M4.13802 14.726L4.15486 14.7853M4.15486 14.7853L4.15772 14.8005L4.15486 14.7853ZM14.961 8.39395C14.7532 8.18614 14.4772 8.08446 14.2053 8.08446M14.961 8.39395L14.2053 8.08446M11.765 13.7199L11.765 13.7198L14.7589 9.71029L14.759 9.7101L14.799 9.74021L11.765 13.7199ZM11.765 13.7199C11.6327 13.8974 11.5167 14.0948 11.4292 14.2807L11.4291 14.2808M11.765 13.7199L11.4291 14.2808M11.4291 14.2808C11.3854 14.3743 11.3489 14.4652 11.3214 14.5527L11.3213 14.5531M11.4291 14.2808L11.3213 14.5531M11.3213 14.5531C11.2946 14.6409 11.274 14.7257 11.2729 14.8247V14.8253M11.3213 14.5531L11.2729 14.8253M11.2729 14.8253V14.8261V14.827V14.8278V14.8287V14.8296V14.8306V14.8315V14.8325V14.8335V14.8345V14.8355V14.8366V14.8376V14.8387V14.8398V14.841V14.8421V14.8433V14.8444V14.8456V14.8469V14.8481V14.8493V14.8506V14.8519V14.8532V14.8546V14.8559V14.8573V14.8586V14.86V14.8615V14.8629V14.8643V14.8658V14.8673V14.8688V14.8703V14.8719V14.8734V14.875V14.8766V14.8782V14.8798V14.8815V14.8831V14.8848V14.8865V14.8882V14.89V14.8917V14.8935V14.8952V14.897V14.8989V14.9007V14.9025V14.9044V14.9063V14.9082V14.9101V14.912V14.9139V14.9159V14.9179V14.9199V14.9219V14.9239V14.9259V14.928V14.93V14.9321V14.9342V14.9363V14.9384V14.9406V14.9427V14.9449V14.9471V14.9493V14.9515V14.9538V14.956V14.9583V14.9606V14.9628V14.9651V14.9675V14.9698V14.9722V14.9745V14.9769V14.9793V14.9817V14.9841V14.9865V14.989V14.9914V14.9939V14.9964V14.9989V15.0014V15.004V15.0065V15.0091V15.0116V15.0142V15.0168V15.0194V15.022V15.0247V15.0273V15.03V15.0327V15.0353V15.038V15.0407V15.0435V15.0462V15.049V15.0517V15.0545V15.0573V15.0601V15.0629V15.0657V15.0685V15.0714V15.0742V15.0771V15.08V15.0829V15.0858V15.0887V15.0916V15.0946V15.0975V15.1005V15.1035V15.1065V15.1095V15.1125V15.1155V15.1185V15.1216V15.1246V15.1277V15.1307V15.1338V15.1369V15.14V15.1431V15.1463V15.1494V15.1525V15.1557V15.1589V15.162V15.1652V15.1684V15.1716V15.1748V15.1781V15.1813V15.1846V15.1878V15.1911V15.1943V15.1976V15.2009V15.2042V15.2075V15.2109V15.2142V15.2175V15.2209V15.2242V15.2276V15.231V15.2344V15.2378V15.2412V15.2446V15.248V15.2514V15.2548V15.2583V15.2617V15.2652V15.2687V15.2721V15.2756V15.2791V15.2826V15.2861V15.2896V15.2932V15.2967V15.3002V15.3038V15.3073V15.3109V15.3145V15.318V15.3216V15.3252V15.3288V15.3324V15.336V15.3396V15.3432V15.3469V15.3505V15.3542V15.3578V15.3615V15.3651V15.3688V15.3725V15.3762V15.3799V15.3835V15.3873V15.391V15.3947V15.3984V15.4021V15.4058V15.4096V15.4133V15.4171V15.4208V15.4246V15.4284V15.4321V15.4359V15.4397V15.4435V15.4473V15.4511V15.4549V15.4587V15.4625V15.4663V15.4701V15.4739V15.4778V15.4816V15.4854V15.4893V15.4931V15.497V15.5008V15.5047V15.5086V15.5124V15.5163V15.5202V15.5241V15.5279V15.5318V15.5357V15.5396V15.5435V15.5474V15.5513V15.5552V15.5591V15.5631V15.567V15.5709V15.5748V15.5787V15.5827V15.5866V15.5906V15.5945V15.5984V15.6024V15.6063V15.6103V15.6142V15.6182V15.6221V15.6261V15.6301V15.634V15.638V15.642V15.6459V15.6499V15.6539V15.6579V15.6618V15.6658V15.6698V15.6738V15.6778V15.6817V15.6857V15.6897V15.6937V15.6977V15.7017V15.7057V15.7097V15.7137V15.7177V15.7217V15.7257V15.7297V15.7337V15.7377V15.7416V15.7456V15.7496V15.7536V15.7576V15.7617V15.7657V15.7697V15.7737V15.7777V15.7817V15.7857V15.7897V15.7937V15.7977V15.8017V15.8057V15.8097V15.8136V15.8176V15.8216V15.8256V15.8296V15.8336V15.8376V15.8416V15.8456V15.8496V15.8536V15.8576V15.8615V15.8655V15.8695V15.8735V15.8775V15.8815V15.8854V15.8894V15.8934V15.8973V15.9013V15.9053V15.9092V15.9132V15.9172V15.9211V15.9251V15.929V15.933V15.9369V15.9409V15.9448V15.9488V15.9527V15.9566V15.9606V15.9645V15.9684V15.9723V15.9763V15.9802V15.9841V15.988V15.9919V15.9958V15.9997V16.0036V16.0075V16.0114V16.0153V16.0192V16.023V16.0269V16.0308V16.0346V16.0385V16.0424V16.0462V16.0501V16.0539V16.0577V16.0616V16.0654V16.0692V16.0731V16.0769V16.0807V16.0845V16.0883V16.0921V16.0959V16.0997V16.1034V16.1072V16.111V16.1148V16.1185V16.1223V16.126V16.1298V16.1335V16.1372V16.141V16.1447V16.1484V16.1521V16.1558V16.1595V16.1632V16.1669V16.1706V16.1742V16.1779V16.1815V16.1852V16.1888V16.1925V16.1961V16.1997V16.2034V16.207V16.2106V16.2142V16.2178V16.2213V16.2249V16.2285V16.2321V16.2356V16.2392V16.2427V16.2462V16.2498V16.2533V16.2568V16.2603V16.2638V16.2673V16.2707V16.2742V16.2777V16.2811V16.2846V16.288V16.2914V16.2948V16.2983V16.3017V16.305V16.3084V16.3118V16.3152V16.3185V16.3219V16.3252V16.3286V16.3319V16.3352V16.3385V16.3418V16.3451V16.3483V16.3516V16.3549V16.3581V16.3614V16.3646V16.3678V16.371V16.3742V16.3774V16.3806V16.3837V16.3869V16.39V16.3932V16.3963V16.3994V16.4025V16.4056V16.4087V16.4118V16.4124H4.74495V16.4108V16.4076V16.4045V16.4013V16.3981V16.3949V16.3918V16.3885V16.3853V16.3821V16.3789V16.3756V16.3724V16.3691V16.3658V16.3625V16.3592V16.3559V16.3526V16.3493V16.3459V16.3426V16.3392V16.3358V16.3325V16.3291V16.3257V16.3223V16.3189V16.3154V16.312V16.3086V16.3051V16.3016V16.2982V16.2947V16.2912V16.2877V16.2842V16.2807V16.2771V16.2736V16.2701V16.2665V16.263V16.2594V16.2558V16.2522V16.2486V16.245V16.2414V16.2378V16.2342V16.2306V16.2269V16.2233V16.2196V16.216V16.2123V16.2086V16.2049V16.2012V16.1975V16.1938V16.1901V16.1864V16.1827V16.1789V16.1752V16.1714V16.1677V16.1639V16.1602V16.1564V16.1526V16.1488V16.145V16.1412V16.1374V16.1336V16.1298V16.126V16.1221V16.1183V16.1145V16.1106V16.1068V16.1029V16.099V16.0952V16.0913V16.0874V16.0835V16.0796V16.0757V16.0718V16.0679V16.064V16.0601V16.0562V16.0523V16.0483V16.0444V16.0405V16.0365V16.0326V16.0286V16.0247V16.0207V16.0167V16.0128V16.0088V16.0048V16.0008V15.9969V15.9929V15.9889V15.9849V15.9809V15.9769V15.9729V15.9689V15.9648V15.9608V15.9568V15.9528V15.9488V15.9447V15.9407V15.9367V15.9326V15.9286V15.9245V15.9205V15.9164V15.9124V15.9083V15.9043V15.9002V15.8962V15.8921V15.888V15.884V15.8799V15.8758V15.8718V15.8677V15.8636V15.8595V15.8555V15.8514V15.8473V15.8432V15.8391V15.835V15.831V15.8269V15.8228V15.8187V15.8146V15.8105V15.8064V15.8023V15.7982V15.7941V15.79V15.7859V15.7818V15.7777V15.7736V15.7696V15.7655V15.7614V15.7573V15.7532V15.7491V15.745V15.7409V15.7368V15.7327V15.7286V15.7245V15.7204V15.7163V15.7122V15.7081V15.704V15.6999V15.6958V15.6918V15.6877V15.6836V15.6795V15.6754V15.6713V15.6672V15.6632V15.6591V15.655V15.6509V15.6469V15.6428V15.6387V15.6346V15.6306V15.6265V15.6225V15.6184V15.6143V15.6103V15.6062V15.6022V15.5981V15.5941V15.59V15.586V15.582V15.5779V15.5739V15.5699V15.5659V15.5618V15.5578V15.5538V15.5498V15.5458V15.5418V15.5378V15.5338V15.5298V15.5258V15.5218V15.5178V15.5138V15.5099V15.5059V15.5019V15.4979V15.494V15.49V15.4861V15.4821V15.4782V15.4743V15.4703V15.4664V15.4625V15.4585V15.4546V15.4507V15.4468V15.4429V15.439V15.4351V15.4313V15.4274V15.4235V15.4196V15.4158V15.4119V15.4081V15.4042V15.4004V15.3965V15.3927V15.3889V15.3851V15.3813V15.3775V15.3737V15.3699V15.3661V15.3623V15.3585V15.3548V15.351V15.3473V15.3435V15.3398V15.336V15.3323V15.3286V15.3249V15.3212V15.3175V15.3138V15.3101V15.3064V15.3028V15.2991V15.2955V15.2918V15.2882V15.2846V15.2809V15.2773V15.2737V15.2701V15.2665V15.2629V15.2594V15.2558V15.2522V15.2487V15.2452V15.2416V15.2381V15.2346V15.2311V15.2276V15.2241V15.2206V15.2172V15.2137V15.2102V15.2068V15.2034V15.1999V15.1965V15.1931V15.1897V15.1863V15.183V15.1796V15.1762V15.1729V15.1696V15.1662V15.1629V15.1596V15.1563V15.153V15.1498V15.1465V15.1432V15.14V15.1368V15.1335V15.1303V15.1271V15.1239V15.1207V15.1176V15.1144V15.1113V15.1081V15.105V15.1019V15.0988V15.0957V15.0926V15.0895V15.0865V15.0834V15.0804V15.0774V15.0744V15.0714V15.0684V15.0654V15.0625V15.0595V15.0566V15.0536V15.0507V15.0478V15.0449V15.0421V15.0392V15.0364V15.0335V15.0307V15.0279V15.0251V15.0223V15.0195V15.0168V15.014V15.0113V15.0086V15.0059V15.0032V15.0005V14.9978V14.9952V14.9925V14.9899V14.9873V14.9847V14.9821V14.9796V14.977V14.9745V14.9719V14.9694V14.9669V14.9644V14.962V14.9595V14.9571V14.9547V14.9522V14.9499V14.9475V14.9451V14.9428V14.9404V14.9381V14.9358V14.9335V14.9312V14.929V14.9267V14.9245V14.9223V14.9201V14.9179V14.9158V14.9136V14.9115V14.9094V14.9073V14.9052V14.9031V14.901V14.899V14.897V14.895V14.893V14.891V14.8891V14.8871V14.8852V14.8833V14.8814V14.8796V14.8777V14.8759V14.8741V14.8723V14.8705V14.8687V14.867V14.8652V14.8635V14.8618V14.8601V14.8585V14.8568V14.8552V14.8536V14.852V14.8504V14.8489V14.8474V14.8458V14.8443V14.8429V14.8414V14.84V14.8385V14.8371V14.8357V14.8344V14.833V14.8317V14.8304V14.8291V14.8278V14.8266V14.8253V14.8241V14.8229V14.8217V14.8206V14.8194V14.8183V14.8172V14.8162V14.8151V14.8141V14.813V14.812V14.8111V14.8101V14.8092V14.8082V14.8073V14.8065V14.8056V14.8048V14.804V14.8032V14.8024V14.8016L4.74495 14.8009L4.74494 14.8003M11.2729 14.8253L4.74494 14.8003M4.74494 14.8003L4.69495 14.8009L4.74494 14.8003ZM14.2053 8.08446C13.9496 8.08446 13.6888 8.17449 13.4851 8.36143L14.2053 8.08446ZM11.4744 14.302C11.4314 14.3939 11.3958 14.4828 11.3691 14.5677L11.8051 13.7498C11.6749 13.9244 11.5606 14.1189 11.4744 14.302Z" fill="currentColor" stroke="currentColor" stroke-width="0.1"/>
</svg>
