<svg width="20" height="16" viewBox="0 0 20 16" fill="none" xmlns="http://www.w3.org/2000/svg">
<path d="M19.1701 11.9255V2.0035C19.1701 0.898854 18.2712 0 17.1666 0H2.83265C1.728 0 0.829151 0.898854 0.829151 2.0035V11.9255C0.362445 12.2005 0.0488281 12.7083 0.0488281 13.2878C0.0488281 14.7834 1.26541 16 2.76102 16H17.2382C18.7339 16 19.9504 14.7834 19.9504 13.2878C19.9504 12.7075 19.6368 12.2004 19.1701 11.9255ZM1.60937 2.0035C1.60937 1.32936 2.1584 0.781145 2.83254 0.781145H17.1665C17.8406 0.781145 18.3896 1.32936 18.3896 2.0035V11.7074C18.3081 11.7066 18.0447 11.7074 17.6093 11.7066L17.6085 1.56142H2.39039V11.7072C2.07102 11.7072 1.68662 11.7072 1.61006 11.7081L1.60937 2.0035ZM16.8283 11.7074H3.17103V2.34192H16.8292L16.8283 11.7074ZM17.2382 15.2189H2.76102C1.69589 15.2189 0.82913 14.353 0.82913 13.2878C0.82913 12.8466 1.18801 12.4877 1.62922 12.4877H18.37C18.8112 12.4877 19.1701 12.8466 19.1701 13.2878C19.1701 14.353 18.3034 15.2189 17.2382 15.2189Z" fill="currentColor"/>
<path d="M10.8691 9.54015L13.6702 10.2283L15.0654 4.54365L9.38076 3.14844L8.90828 5.07291H5.01562V10.9261H10.8688L10.8691 9.54015ZM9.95291 4.09194L14.1212 5.1151L13.098 9.28338L10.869 8.73599V5.07302H9.71252L9.95291 4.09194ZM10.0887 10.146H5.79612V5.85421H10.0887V10.146Z" fill="currentColor"/>
<path d="M6.57617 6.63452H7.35649V7.41484H6.57617V6.63452Z" fill="currentColor"/>
<path d="M8.52734 6.63452H9.30767V7.41484H8.52734V6.63452Z" fill="currentColor"/>
<path d="M6.57617 8.58521H7.35649V9.36553H6.57617V8.58521Z" fill="currentColor"/>
<path d="M8.52734 8.58521H9.30767V9.36553H8.52734V8.58521Z" fill="currentColor"/>
<path d="M12.2344 6.25909L12.4204 5.50098L13.1785 5.687L12.9925 6.44512L12.2344 6.25909Z" fill="currentColor"/>
<path d="M11.7695 8.15386L11.9556 7.39575L12.7137 7.58178L12.5276 8.33989L11.7695 8.15386Z" fill="currentColor"/>
</svg>
