<svg width="16" height="16" viewBox="0 0 16 16" fill="none" xmlns="http://www.w3.org/2000/svg">
<path d="M14.7101 0H6.96821C6.54138 0 6.19402 0.347355 6.19402 0.774194V7.42013C5.78576 7.29419 5.35273 7.22581 4.9037 7.22581C2.4846 7.22581 0.516602 9.19381 0.516602 11.6129C0.516602 14.032 2.4846 16 4.9037 16C6.87376 16 8.54421 14.6945 9.09647 12.9032H14.7101C15.137 12.9032 15.4843 12.5559 15.4843 12.129V0.774194C15.4843 0.347355 15.137 0 14.7101 0ZM4.64563 7.7551V8.27122C3.60589 8.35097 2.69725 8.90426 2.13802 9.71819L1.68925 9.4591C2.33957 8.49161 3.41518 7.83665 4.64563 7.7551ZM1.43376 9.90761L1.8815 10.1662C1.67067 10.6049 1.54886 11.0945 1.54886 11.6129C1.54886 12.1221 1.66421 12.6152 1.87815 13.0617L1.43402 13.3182C1.17957 12.8028 1.03273 12.2253 1.03273 11.6129C1.03273 11.0005 1.17957 10.423 1.43376 9.90761ZM1.68925 13.7667L2.13983 13.5066C2.31531 13.7621 2.52305 13.9974 2.76796 14.2L3.09647 13.8023C2.44099 13.2604 2.06499 12.4622 2.06499 11.6129C2.06499 10.0477 3.33854 8.77419 4.9037 8.77419C5.40641 8.77419 5.90344 8.91019 6.3406 9.16774L6.60279 8.7231C6.16099 8.46271 5.66731 8.30865 5.16176 8.2689V7.75484C6.39221 7.83664 7.46783 8.49161 8.11815 9.45884L7.66757 9.71897C7.49208 9.46348 7.28434 9.22813 7.03944 9.02555L6.71092 9.42323C7.36641 9.96542 7.74241 10.7636 7.74241 11.6129C7.74241 13.1781 6.46886 14.4516 4.9037 14.4516C4.40073 14.4516 3.90396 14.3154 3.46679 14.0578L3.2046 14.5025C3.64641 14.7628 4.13983 14.9172 4.64563 14.9569V15.471C3.41518 15.3892 2.33957 14.7342 1.68925 13.7667ZM5.16176 15.4707V14.9546C6.2015 14.8748 7.11015 14.3215 7.66938 13.5076L8.11815 13.7667C7.46783 14.7342 6.39221 15.3892 5.16176 15.4707ZM8.37363 13.3182L7.92589 13.0596C8.13673 12.6209 8.25854 12.1314 8.25854 11.6129C8.25854 11.1037 8.14318 10.6106 7.92925 10.1641L8.37338 9.90761C8.62783 10.423 8.77467 11.0005 8.77467 11.6129C8.77467 12.2253 8.62783 12.8028 8.37363 13.3182ZM14.9682 12.129C14.9682 12.2715 14.8526 12.3871 14.7101 12.3871H9.21828C9.26318 12.1352 9.29079 11.8774 9.29079 11.6129C9.29079 9.83819 8.22963 8.30968 6.71015 7.61961V0.774194C6.71015 0.631742 6.82576 0.516129 6.96821 0.516129H14.7101C14.8526 0.516129 14.9682 0.631742 14.9682 0.774194V12.129Z" fill="currentColor"/>
<path d="M12.979 5.84223L13.5441 3.01591L11.7802 4.29798L10.8373 3.22107L9.89611 4.29772L8.13379 3.01514L8.69921 5.84223C8.42747 6.10933 8.25843 6.48043 8.25843 6.89049C8.25843 7.34752 8.4654 7.77075 8.82618 8.05152L10.8391 9.61694L12.852 8.05152C13.2128 7.77075 13.4197 7.34752 13.4197 6.89049C13.4197 6.48043 13.2507 6.10933 12.979 5.84223ZM8.89921 4.21049L9.97353 4.99243L10.8378 4.00456L11.7028 4.99217L12.7792 4.20972L12.5147 5.53281C12.3402 5.45978 12.149 5.41927 11.9485 5.41927H11.8577C11.475 5.41927 11.1142 5.5643 10.8391 5.82907C10.564 5.5643 10.2032 5.41927 9.8205 5.41927H9.72966C9.52914 5.41927 9.33792 5.45978 9.16372 5.53281L8.89921 4.21049ZM12.5348 7.6443L10.8391 8.96327L9.14334 7.6443C8.90902 7.46185 8.77456 7.18727 8.77456 6.89049C8.77456 6.36378 9.20295 5.93539 9.72966 5.93539H9.8205C10.0755 5.93539 10.3155 6.03475 10.4959 6.21514L10.8391 6.55836L11.1823 6.21514C11.3627 6.03475 11.6027 5.93539 11.8577 5.93539H11.9485C12.4752 5.93539 12.9036 6.36378 12.9036 6.89049C12.9036 7.18727 12.7691 7.46185 12.5348 7.6443Z" fill="currentColor"/>
<path d="M10.8391 5.16139C10.9816 5.16139 11.0972 5.04585 11.0972 4.90333C11.0972 4.7608 10.9816 4.64526 10.8391 4.64526C10.6966 4.64526 10.5811 4.7608 10.5811 4.90333C10.5811 5.04585 10.6966 5.16139 10.8391 5.16139Z" fill="currentColor"/>
<path d="M8.25882 1.03223H7.22656V1.54836H8.25882V1.03223Z" fill="currentColor"/>
<path d="M14.4522 11.3547H13.4199V11.8709H14.4522V11.3547Z" fill="currentColor"/>
<path d="M4.90411 13.2681L6.42127 11.7509C6.60785 11.5643 6.71056 11.3163 6.71056 11.0523C6.71056 10.5078 6.2672 10.0645 5.72269 10.0645C5.45895 10.0645 5.21069 10.1672 5.02411 10.3537L4.90411 10.4737L4.78411 10.3537C4.59753 10.1672 4.34953 10.0645 4.08553 10.0645C3.54101 10.0645 3.09766 10.5078 3.09766 11.0523C3.09766 11.3161 3.20037 11.5643 3.38695 11.7509L4.90411 13.2681ZM4.08553 10.5806C4.20966 10.5806 4.33146 10.6309 4.4192 10.7186L4.90411 11.2036L5.38901 10.7186C5.47675 10.6309 5.5983 10.5806 5.72269 10.5806C5.98282 10.5806 6.19443 10.7922 6.19443 11.0523C6.19443 11.1765 6.14411 11.2983 6.05637 11.386L4.90411 12.5383L3.75185 11.386C3.66411 11.2983 3.61379 11.1767 3.61379 11.0523C3.61379 10.7922 3.8254 10.5806 4.08553 10.5806Z" fill="currentColor"/>
</svg>
