<svg width="18" height="16" viewBox="0 0 18 16" fill="none" xmlns="http://www.w3.org/2000/svg">
<path d="M6.1697 3.4241H6.79842V2.63753H7.58499V2.00881H6.79842V1.2229H6.1697V2.00881H5.38379V2.63753H6.1697V3.4241Z" fill="currentColor"/>
<path d="M11.5329 3.42419C12.1397 3.42419 12.6332 2.93076 12.6332 2.32391C12.6332 1.71707 12.1397 1.22363 11.5329 1.22363C10.926 1.22363 10.4326 1.71706 10.4326 2.32391C10.4326 2.93008 10.926 3.42419 11.5329 3.42419ZM11.5329 1.85171C11.7929 1.85171 12.0044 2.06328 12.0044 2.32325C12.0044 2.58322 11.7929 2.79478 11.5329 2.79478C11.2729 2.79478 11.0614 2.58322 11.0614 2.32325C11.0614 2.06328 11.2729 1.85171 11.5329 1.85171Z" fill="currentColor"/>
<path d="M17.0177 5.939V3.4235L13.6068 3.42416C14.4172 1.87821 13.2937 0.000663173 11.5329 0.000663173L6.46725 0C4.70847 0 3.58163 1.87559 4.39336 3.4235L0.982422 3.42416V5.93966H1.61114V15.3719L0.982422 15.3713V16H17.0175V15.3713H16.3888V5.939L17.0177 5.939ZM6.46725 0.629385H11.5329C12.4766 0.629385 13.2446 1.39672 13.2446 2.34113C13.2446 3.28489 12.4766 4.05288 11.5329 4.05288C10.5891 4.05288 9.82114 3.28489 9.82114 2.34113V2.02676H8.17902V2.34113C8.17902 3.28489 7.41102 4.05288 6.46727 4.05288C5.52352 4.05288 4.75552 3.28489 4.75552 2.34113C4.75552 1.39672 5.5235 0.629385 6.46725 0.629385ZM9.45899 3.42418H8.54178C8.66513 3.18874 8.75003 2.92941 8.78716 2.65552H9.21361C9.25008 2.92943 9.33497 3.18808 9.45899 3.42418ZM1.61113 4.0529H4.87282C5.77148 4.89054 7.15963 4.89253 8.06083 4.0529H9.93846C10.8371 4.89054 12.2253 4.89253 13.1265 4.0529H16.3888V5.31034H1.61113V4.0529ZM15.7601 13.7994H11.3584V8.45469H6.64162V13.7994H2.23983V7.51154H15.7595L15.7601 13.7994ZM2.23983 15.3713V14.4282H6.64162V15.3713H2.23983ZM7.271 15.3713V9.08336H10.7296V15.3713H7.271ZM11.3584 15.3713V14.4282H15.7601V15.3713H11.3584ZM15.7601 6.88212H2.23983V5.93903H15.7595L15.7601 6.88212Z" fill="currentColor"/>
<path d="M15.1309 10.0264C15.1309 9.15958 14.4259 8.45459 13.5591 8.45459C12.6923 8.45459 11.9873 9.15958 11.9873 10.0264V12.5419H15.1317L15.1309 10.0264ZM13.5591 9.08331C14.0791 9.08331 14.5022 9.50644 14.5022 10.0264H12.6161C12.6161 9.50644 13.0392 9.08331 13.5591 9.08331ZM12.616 11.9133V10.6558H14.5021V11.9133H12.616Z" fill="currentColor"/>
<path d="M6.01277 12.5419V10.0264C6.01277 9.15958 5.30778 8.45459 4.44095 8.45459C3.57413 8.45459 2.86914 9.15958 2.86914 10.0264V12.5419H6.01277ZM3.49795 11.9132V10.6557H5.38406V11.9132H3.49795ZM4.44104 9.08324C4.961 9.08324 5.38413 9.50638 5.38413 10.0263H3.49802C3.49802 9.50638 3.92108 9.08324 4.44104 9.08324Z" fill="currentColor"/>
</svg>
