<svg width="16" height="16" viewBox="0 0 16 16" fill="none" xmlns="http://www.w3.org/2000/svg">
<mask id="path-1-inside-1_233_3357" fill="white">
<path d="M14.0004 0H13.9544H2.0466H1.9996C0.8968 0 0 0.8968 0 1.9996V2.5835V3.9462V5.6169V11.4618V12.6006V14.0003C0 15.1032 0.8968 16 1.9996 16H14.0003C15.1031 16 15.9999 15.1032 15.9999 14.0004V12.6077V11.4709V5.6209V4.0322V2.5895V1.9996C16 0.8968 15.1032 0 14.0004 0ZM15.0002 11.9878C14.9942 11.9908 14.9872 11.9948 14.9802 11.9968C14.2543 12.3407 13.5075 12.6287 12.7426 12.8596L11.5438 8.2135C12.7836 7.8196 13.9424 7.2247 14.9802 6.4608C14.9872 6.4568 14.9942 6.4518 15.0002 6.4458V11.9878ZM3.0404 5.383C3.6333 5.7339 4.2592 6.0189 4.908 6.2358L4.645 7.2216C3.3134 6.7817 2.0836 6.0869 1.0198 5.185C1.0128 5.179 1.0068 5.174 0.9998 5.168V4.3552L1.0198 4.3352L1.2887 4.0623C1.8217 4.5641 2.4085 5.0091 3.0404 5.383ZM1.9906 3.3494L2.7855 2.5426C3.0664 2.7976 3.3644 3.0325 3.6793 3.2445L3.1164 4.2483C2.7175 3.9793 2.3416 3.6783 1.9906 3.3494ZM3.9763 4.7591L4.5432 3.7473C4.8421 3.8963 5.1501 4.0272 5.468 4.1372L5.166 5.269C4.7581 5.129 4.3612 4.9581 3.9763 4.7591ZM0.9998 6.4428C1.0068 6.4498 1.0128 6.4548 1.0198 6.4578C2.0386 7.2087 3.1734 7.7955 4.3862 8.1895L3.1504 12.8206C2.4225 12.5946 1.7107 12.3177 1.0198 11.9898C1.0128 11.9868 1.0058 11.9838 0.9998 11.9798V6.4428ZM5.35 8.4574C6.2068 8.6564 7.0947 8.7633 8.0015 8.7633C8.8823 8.7633 9.7452 8.6633 10.579 8.4744L11.7768 13.1185C10.553 13.4074 9.2903 13.5554 8.0065 13.5554H8.0035C6.6797 13.5554 5.376 13.3964 4.1132 13.0875L5.35 8.4574ZM8.0005 6.7427C8.0135 6.7427 8.0265 6.7427 8.0395 6.7417C8.7264 6.7397 9.4082 6.6627 10.0741 6.5177L10.3291 7.5065C9.5762 7.6745 8.7974 7.7635 8.0015 7.7635C7.1837 7.7635 6.3818 7.6685 5.6079 7.4906L5.8709 6.5048C6.5678 6.6608 7.2816 6.7427 8.0005 6.7427ZM6.1289 5.538L6.4318 4.4032C6.7887 4.4762 7.1537 4.5242 7.5246 4.5462L7.5296 5.729C7.0567 5.7029 6.5888 5.6389 6.1289 5.538ZM8.5244 4.5431C8.8653 4.5201 9.2013 4.4761 9.5302 4.4091L9.8251 5.5489C9.3992 5.6399 8.9653 5.6989 8.5293 5.7249L8.5244 4.5431ZM13.0606 2.6705C13.1016 2.6355 13.1406 2.5995 13.1796 2.5635L13.9765 3.3843C13.6506 3.6862 13.3036 3.9632 12.9367 4.2141L12.3618 3.2083C12.4098 3.1753 12.4578 3.1403 12.5048 3.1063C12.5108 3.1023 12.5158 3.0983 12.5218 3.0953C12.5898 3.0463 12.6558 2.9963 12.7218 2.9453C12.7548 2.9203 12.7878 2.8953 12.8198 2.8693C12.8368 2.8563 12.8538 2.8423 12.8708 2.8283C12.9348 2.7763 12.9998 2.7253 13.0618 2.6713L13.0606 2.6705ZM13.0216 5.348C13.6155 4.9911 14.1674 4.5721 14.6733 4.1012L14.9802 4.4171L15.0002 4.4381V5.172C14.9942 5.179 14.9872 5.184 14.9802 5.189C13.8994 6.1038 12.6486 6.8047 11.2939 7.2426L11.0389 6.2548C11.7288 6.0289 12.3947 5.7259 13.0216 5.348ZM10.789 5.285L10.4951 4.1462C10.842 4.0272 11.178 3.8842 11.5019 3.7183L12.0798 4.7311C11.6638 4.9501 11.2329 5.135 10.789 5.285ZM14.9802 1.7987C14.9932 1.8637 15.0002 1.9307 15.0002 1.9997V2.2587C14.9942 2.2677 14.9872 2.2767 14.9802 2.2847C14.8802 2.4137 14.7772 2.5407 14.6703 2.6636L13.8794 1.8498C14.0824 1.6138 14.2723 1.3659 14.4463 1.1059C14.7172 1.2398 14.9172 1.4937 14.9802 1.7987ZM13.2875 0.9998C12.9546 1.4157 12.5756 1.7907 12.1607 2.1166C10.9709 3.0434 9.5082 3.5503 8.0065 3.5503C8.0055 3.5503 8.0055 3.5503 8.0055 3.5503C6.4988 3.5503 5.0691 3.0594 3.8703 2.1326L3.8623 2.1426C3.4354 1.8107 3.0475 1.4267 2.7085 0.9998H13.2875ZM2.0896 1.8237L1.2997 2.6265C1.2037 2.5135 1.1107 2.3985 1.0198 2.2816C1.0128 2.2726 1.0068 2.2636 0.9998 2.2556V1.9996C0.9998 1.9306 1.0068 1.8636 1.0198 1.7986C1.0818 1.4957 1.2818 1.2427 1.5497 1.1077C1.7157 1.3577 1.8966 1.5967 2.0896 1.8237ZM15.0002 14.0004C15.0002 14.0694 14.9932 14.1364 14.9802 14.2014C14.9512 14.3404 14.8942 14.4693 14.8142 14.5803C14.6332 14.8343 14.3363 15.0002 14.0004 15.0002H1.9996C1.6647 15.0002 1.3677 14.8342 1.1858 14.5803C1.1058 14.4693 1.0488 14.3403 1.0198 14.2014C1.0068 14.1364 0.9998 14.0694 0.9998 14.0004V13.0816C1.0068 13.0846 1.0128 13.0876 1.0198 13.0896C3.2084 14.0544 5.5729 14.5543 8.0035 14.5553H8.0065C10.439 14.5553 12.7976 14.0574 14.9802 13.0966C14.9872 13.0946 14.9942 13.0916 15.0002 13.0876V14.0004Z"/>
</mask>
<path d="M14.0004 0H13.9544H2.0466H1.9996C0.8968 0 0 0.8968 0 1.9996V2.5835V3.9462V5.6169V11.4618V12.6006V14.0003C0 15.1032 0.8968 16 1.9996 16H14.0003C15.1031 16 15.9999 15.1032 15.9999 14.0004V12.6077V11.4709V5.6209V4.0322V2.5895V1.9996C16 0.8968 15.1032 0 14.0004 0ZM15.0002 11.9878C14.9942 11.9908 14.9872 11.9948 14.9802 11.9968C14.2543 12.3407 13.5075 12.6287 12.7426 12.8596L11.5438 8.2135C12.7836 7.8196 13.9424 7.2247 14.9802 6.4608C14.9872 6.4568 14.9942 6.4518 15.0002 6.4458V11.9878ZM3.0404 5.383C3.6333 5.7339 4.2592 6.0189 4.908 6.2358L4.645 7.2216C3.3134 6.7817 2.0836 6.0869 1.0198 5.185C1.0128 5.179 1.0068 5.174 0.9998 5.168V4.3552L1.0198 4.3352L1.2887 4.0623C1.8217 4.5641 2.4085 5.0091 3.0404 5.383ZM1.9906 3.3494L2.7855 2.5426C3.0664 2.7976 3.3644 3.0325 3.6793 3.2445L3.1164 4.2483C2.7175 3.9793 2.3416 3.6783 1.9906 3.3494ZM3.9763 4.7591L4.5432 3.7473C4.8421 3.8963 5.1501 4.0272 5.468 4.1372L5.166 5.269C4.7581 5.129 4.3612 4.9581 3.9763 4.7591ZM0.9998 6.4428C1.0068 6.4498 1.0128 6.4548 1.0198 6.4578C2.0386 7.2087 3.1734 7.7955 4.3862 8.1895L3.1504 12.8206C2.4225 12.5946 1.7107 12.3177 1.0198 11.9898C1.0128 11.9868 1.0058 11.9838 0.9998 11.9798V6.4428ZM5.35 8.4574C6.2068 8.6564 7.0947 8.7633 8.0015 8.7633C8.8823 8.7633 9.7452 8.6633 10.579 8.4744L11.7768 13.1185C10.553 13.4074 9.2903 13.5554 8.0065 13.5554H8.0035C6.6797 13.5554 5.376 13.3964 4.1132 13.0875L5.35 8.4574ZM8.0005 6.7427C8.0135 6.7427 8.0265 6.7427 8.0395 6.7417C8.7264 6.7397 9.4082 6.6627 10.0741 6.5177L10.3291 7.5065C9.5762 7.6745 8.7974 7.7635 8.0015 7.7635C7.1837 7.7635 6.3818 7.6685 5.6079 7.4906L5.8709 6.5048C6.5678 6.6608 7.2816 6.7427 8.0005 6.7427ZM6.1289 5.538L6.4318 4.4032C6.7887 4.4762 7.1537 4.5242 7.5246 4.5462L7.5296 5.729C7.0567 5.7029 6.5888 5.6389 6.1289 5.538ZM8.5244 4.5431C8.8653 4.5201 9.2013 4.4761 9.5302 4.4091L9.8251 5.5489C9.3992 5.6399 8.9653 5.6989 8.5293 5.7249L8.5244 4.5431ZM13.0606 2.6705C13.1016 2.6355 13.1406 2.5995 13.1796 2.5635L13.9765 3.3843C13.6506 3.6862 13.3036 3.9632 12.9367 4.2141L12.3618 3.2083C12.4098 3.1753 12.4578 3.1403 12.5048 3.1063C12.5108 3.1023 12.5158 3.0983 12.5218 3.0953C12.5898 3.0463 12.6558 2.9963 12.7218 2.9453C12.7548 2.9203 12.7878 2.8953 12.8198 2.8693C12.8368 2.8563 12.8538 2.8423 12.8708 2.8283C12.9348 2.7763 12.9998 2.7253 13.0618 2.6713L13.0606 2.6705ZM13.0216 5.348C13.6155 4.9911 14.1674 4.5721 14.6733 4.1012L14.9802 4.4171L15.0002 4.4381V5.172C14.9942 5.179 14.9872 5.184 14.9802 5.189C13.8994 6.1038 12.6486 6.8047 11.2939 7.2426L11.0389 6.2548C11.7288 6.0289 12.3947 5.7259 13.0216 5.348ZM10.789 5.285L10.4951 4.1462C10.842 4.0272 11.178 3.8842 11.5019 3.7183L12.0798 4.7311C11.6638 4.9501 11.2329 5.135 10.789 5.285ZM14.9802 1.7987C14.9932 1.8637 15.0002 1.9307 15.0002 1.9997V2.2587C14.9942 2.2677 14.9872 2.2767 14.9802 2.2847C14.8802 2.4137 14.7772 2.5407 14.6703 2.6636L13.8794 1.8498C14.0824 1.6138 14.2723 1.3659 14.4463 1.1059C14.7172 1.2398 14.9172 1.4937 14.9802 1.7987ZM13.2875 0.9998C12.9546 1.4157 12.5756 1.7907 12.1607 2.1166C10.9709 3.0434 9.5082 3.5503 8.0065 3.5503C8.0055 3.5503 8.0055 3.5503 8.0055 3.5503C6.4988 3.5503 5.0691 3.0594 3.8703 2.1326L3.8623 2.1426C3.4354 1.8107 3.0475 1.4267 2.7085 0.9998H13.2875ZM2.0896 1.8237L1.2997 2.6265C1.2037 2.5135 1.1107 2.3985 1.0198 2.2816C1.0128 2.2726 1.0068 2.2636 0.9998 2.2556V1.9996C0.9998 1.9306 1.0068 1.8636 1.0198 1.7986C1.0818 1.4957 1.2818 1.2427 1.5497 1.1077C1.7157 1.3577 1.8966 1.5967 2.0896 1.8237ZM15.0002 14.0004C15.0002 14.0694 14.9932 14.1364 14.9802 14.2014C14.9512 14.3404 14.8942 14.4693 14.8142 14.5803C14.6332 14.8343 14.3363 15.0002 14.0004 15.0002H1.9996C1.6647 15.0002 1.3677 14.8342 1.1858 14.5803C1.1058 14.4693 1.0488 14.3403 1.0198 14.2014C1.0068 14.1364 0.9998 14.0694 0.9998 14.0004V13.0816C1.0068 13.0846 1.0128 13.0876 1.0198 13.0896C3.2084 14.0544 5.5729 14.5543 8.0035 14.5553H8.0065C10.439 14.5553 12.7976 14.0574 14.9802 13.0966C14.9872 13.0946 14.9942 13.0916 15.0002 13.0876V14.0004Z" fill="currentColor" stroke="currentColor" stroke-width="0.2" mask="url(#path-1-inside-1_233_3357)"/>
</svg>
