<svg width="16" height="16" viewBox="0 0 16 16" fill="none" xmlns="http://www.w3.org/2000/svg">
<path fill-rule="evenodd" clip-rule="evenodd" d="M14.3692 4.79601L8.36887 8.21743L8.33136 15.1236L14.0698 11.8515C14.1532 11.8036 14.2192 11.7397 14.2636 11.6633C14.3087 11.5862 14.3331 11.4973 14.3338 11.4014L14.3692 4.79601ZM2.0399 4.08616L7.7764 0.815344C7.86184 0.766724 7.95144 0.742414 8.03896 0.742414C8.12439 0.743108 8.2133 0.768113 8.29872 0.818122L13.9997 4.15064L8.00213 7.57063L2.0399 4.08616ZM1.09112 3.96391L1.09251 3.96114C1.20156 3.77499 1.36061 3.61802 1.56204 3.50342L4.48612 1.83576L7.41021 0.168787C7.60955 0.0548786 7.82555 -0.000687049 8.04296 6.41028e-06C8.26245 0.00139564 8.47776 0.0597399 8.67572 0.175039L14.4873 3.5721C14.6852 3.6874 14.8415 3.84646 14.9498 4.03608L14.9512 4.03885C15.0582 4.22639 15.1145 4.4417 15.1131 4.67161L15.077 11.4033C15.0756 11.636 15.0172 11.8513 14.9082 12.0375C14.7991 12.2243 14.6401 12.3813 14.438 12.4966L8.58961 15.8312C8.39027 15.9451 8.17426 16.0007 7.95685 16H7.95547C7.73667 15.9986 7.52136 15.9403 7.3241 15.825L1.51256 12.4279C1.3146 12.3119 1.15763 12.1528 1.04927 11.9625C0.942309 11.7743 0.885355 11.559 0.886744 11.3284L0.92286 4.59669C0.92425 4.3647 0.982594 4.14939 1.09095 3.96324L1.09112 3.96391ZM7.62706 8.21464L1.66421 4.72868L1.62878 11.332C1.62809 11.4299 1.6517 11.5195 1.69546 11.5966C1.73783 11.671 1.80312 11.7356 1.88854 11.7856L7.5902 15.1188L7.62771 8.21478L7.62706 8.21464ZM7.28048 3.41021C7.47148 3.22129 7.73542 3.10459 8.02505 3.106C8.31608 3.10739 8.57724 3.22616 8.76617 3.41647C8.94675 3.59914 9.06066 3.84711 9.06969 4.12076C9.07108 4.13326 9.07177 4.14646 9.07177 4.15966H9.07038V4.16105C9.06899 4.45207 8.95022 4.71323 8.75991 4.90216C8.57724 5.08274 8.32927 5.19665 8.05562 5.20568C8.04312 5.20707 8.02992 5.20776 8.01673 5.20776V5.20637H8.01534C7.72431 5.20498 7.46315 5.08621 7.27422 4.8959C7.0853 4.7049 6.9686 4.44165 6.97001 4.15132C6.9714 3.8603 7.09016 3.59914 7.28048 3.41021ZM8.02228 3.84848C7.93754 3.84779 7.86045 3.88182 7.80418 3.93669C7.74792 3.99295 7.7125 4.06935 7.7118 4.1541C7.71111 4.23884 7.74514 4.31593 7.80001 4.3722C7.85558 4.42846 7.93198 4.46388 8.01601 4.46458V4.46319C8.02435 4.46319 8.03199 4.46388 8.03963 4.46388C8.11603 4.45902 8.1841 4.42638 8.23481 4.37637C8.29107 4.3208 8.32649 4.2444 8.32719 4.16036H8.3258C8.3258 4.15203 8.32649 4.14439 8.32649 4.13675C8.32163 4.06035 8.28899 3.99228 8.23898 3.94157C8.18272 3.88531 8.10632 3.84988 8.02157 3.84919L8.02228 3.84848ZM10.6644 3.11917V3.12056H10.6657C10.9568 3.12195 11.2179 3.24072 11.4069 3.43104C11.5958 3.62204 11.7125 3.88598 11.7111 4.17562C11.7097 4.46664 11.5909 4.72781 11.4006 4.91673C11.2096 5.10565 10.9463 5.22235 10.656 5.22094C10.365 5.21956 10.1038 5.10078 9.91491 4.91047C9.73433 4.72781 9.62042 4.47983 9.61139 4.20618C9.61 4.19368 9.6093 4.18048 9.6093 4.16729H9.61069V4.1659C9.61208 3.87488 9.73085 3.61371 9.92117 3.42479C10.1038 3.2442 10.3518 3.1303 10.6255 3.12126C10.638 3.11987 10.6512 3.11917 10.6644 3.11917ZM10.6644 3.86375C10.656 3.86375 10.6484 3.86306 10.6407 3.86306C10.5643 3.86792 10.4963 3.90057 10.4456 3.95058C10.3893 4.00614 10.3539 4.08254 10.3532 4.16589H10.3546C10.3546 4.17422 10.3539 4.18186 10.3539 4.1895C10.3587 4.2659 10.3914 4.33397 10.4414 4.38468C10.4977 4.44094 10.5741 4.47637 10.6588 4.47706C10.7435 4.47776 10.8206 4.44372 10.8769 4.38885C10.9332 4.33259 10.9686 4.25619 10.9693 4.17144C10.97 4.08671 10.9359 4.00961 10.8811 3.95334C10.8255 3.89708 10.7491 3.86166 10.6651 3.86096V3.86235L10.6644 3.86375ZM4.63962 3.39562C4.44931 3.58385 4.33054 3.84569 4.32915 4.13673C4.32776 4.42706 4.44375 4.68961 4.63336 4.88131C4.82159 5.07162 5.08344 5.19039 5.37448 5.19178C5.6648 5.19317 5.92736 5.07718 6.11906 4.88757C6.30937 4.69934 6.42814 4.43749 6.42953 4.14645C6.43092 3.85613 6.31493 3.59357 6.12532 3.40187C5.93709 3.21156 5.67524 3.09279 5.3842 3.0914C5.09387 3.09001 4.83132 3.206 4.63962 3.39562ZM5.38143 3.83388C5.29669 3.83319 5.21959 3.86722 5.16333 3.92209C5.10707 3.97835 5.07165 4.05475 5.07095 4.1395C5.07026 4.22424 5.10429 4.30134 5.15916 4.3576C5.21542 4.41386 5.29182 4.44928 5.37657 4.44998C5.46131 4.45067 5.5384 4.41664 5.59467 4.36177C5.65093 4.30551 5.68635 4.22911 5.68705 4.14436C5.68774 4.05962 5.65371 3.98253 5.59884 3.92626C5.54258 3.87 5.46618 3.83458 5.38143 3.83388ZM9.44474 9.38831C9.55171 9.14452 9.74688 8.9299 10.0039 8.80348C10.0303 8.79028 10.0622 8.77639 10.1004 8.7618C10.3421 8.66873 10.5935 8.66734 10.813 8.74305C11.0436 8.82292 11.2374 8.98545 11.3506 9.21535C11.3652 9.24521 11.3777 9.2723 11.3867 9.29731L11.3854 9.298C11.4861 9.56055 11.468 9.84811 11.3576 10.1002C11.2506 10.344 11.0554 10.5586 10.7985 10.6851C10.7721 10.6983 10.7394 10.7121 10.7019 10.7267C10.4602 10.8198 10.2088 10.8212 9.98928 10.7455C9.75868 10.6656 9.5649 10.5031 9.45169 10.2732L9.45238 10.2725L9.45169 10.2711C9.43502 10.2378 9.42321 10.2107 9.41557 10.1905L9.41696 10.1898C9.31625 9.92729 9.33431 9.63973 9.44474 9.38762V9.38831ZM10.3324 9.47027C10.3491 9.46193 10.3595 9.45707 10.365 9.45499C10.4394 9.42651 10.5116 9.42443 10.5713 9.44526C10.6193 9.46193 10.6602 9.49597 10.6846 9.54528C10.6859 9.54737 10.688 9.55362 10.6915 9.56334L10.6929 9.56265V9.56334C10.7207 9.63558 10.713 9.7224 10.6769 9.80436C10.6373 9.89396 10.5658 9.97245 10.4699 10.0197C10.4533 10.028 10.4428 10.0329 10.4373 10.035C10.363 10.0634 10.2907 10.0655 10.231 10.0447C10.1831 10.028 10.1421 9.99397 10.1178 9.94466H10.1171C10.1164 9.94258 10.1143 9.93841 10.1101 9.9266L10.1087 9.9273V9.9266C10.081 9.85437 10.0886 9.76754 10.1247 9.68558C10.1643 9.59598 10.2359 9.51749 10.3317 9.47027H10.3324ZM11.6959 10.1905C11.8028 9.94675 11.998 9.73213 12.255 9.60571C12.2814 9.59251 12.314 9.57862 12.3515 9.56403C12.5932 9.47096 12.8447 9.46957 13.0641 9.54528C13.2948 9.62515 13.4885 9.78769 13.6017 10.0176C13.6163 10.0474 13.6288 10.0745 13.6379 10.0995L13.6365 10.1002C13.7372 10.3628 13.7191 10.6503 13.6087 10.9025C13.5017 11.1463 13.3066 11.3609 13.0496 11.4873C13.0232 11.5005 12.9905 11.5144 12.953 11.529C12.7113 11.622 12.4599 11.6234 12.2404 11.5477C12.0098 11.4678 11.816 11.3053 11.7028 11.0754C11.6882 11.0456 11.6757 11.0185 11.6667 10.9935L11.6681 10.9928C11.5674 10.7302 11.5854 10.4427 11.6959 10.1905ZM12.5835 10.2725C12.6002 10.2642 12.6106 10.2593 12.6162 10.2572C12.6905 10.2287 12.7627 10.2267 12.8225 10.2475C12.8704 10.2642 12.9114 10.2982 12.9357 10.3475C12.9371 10.3496 12.9391 10.3559 12.9426 10.3656L12.944 10.3649V10.3656C12.9718 10.4378 12.9641 10.5246 12.928 10.6066C12.8884 10.6962 12.8169 10.7747 12.721 10.8219C12.7044 10.8302 12.694 10.8351 12.6884 10.8372C12.6141 10.8657 12.5418 10.8677 12.4821 10.8469C12.4342 10.8302 12.3932 10.7962 12.3689 10.7469C12.3675 10.7448 12.3654 10.7386 12.3619 10.7288L12.3606 10.7295V10.7288C12.3328 10.6566 12.3404 10.5698 12.3765 10.4878C12.4161 10.3982 12.4877 10.3197 12.5835 10.2725ZM3.8077 8.1971C3.49238 8.30407 3.24858 8.5173 3.09785 8.79513C2.95199 9.06323 2.89504 9.3869 2.94713 9.72725C2.96241 9.82588 2.98741 9.92798 3.02214 10.0315C3.16383 10.4489 3.44791 10.8024 3.7938 11.0372C4.15081 11.2789 4.57519 11.3977 4.9836 11.3352C5.06347 11.3227 5.14127 11.3039 5.21697 11.2782C5.5323 11.1712 5.7761 10.958 5.92683 10.6802C6.07269 10.4121 6.12964 10.0884 6.07755 9.74807C6.06227 9.64944 6.03727 9.54734 6.00254 9.44385C5.86084 9.02641 5.57677 8.67289 5.23088 8.43812C4.87387 8.19641 4.44949 8.07765 4.04108 8.14015C3.9612 8.15265 3.88341 8.1714 3.8077 8.1971ZM4.15221 8.87639C4.11332 8.88195 4.07859 8.89098 4.04664 8.90139C3.91467 8.94654 3.81257 9.03475 3.75005 9.15004C3.68198 9.27576 3.65628 9.4376 3.68407 9.6168C3.6931 9.67514 3.70768 9.73418 3.72713 9.79322C3.81534 10.0551 3.99384 10.2766 4.21056 10.4239C4.41614 10.5635 4.6537 10.633 4.87388 10.5989C4.91278 10.5934 4.9475 10.5843 4.97945 10.5739C5.11142 10.5288 5.21352 10.4406 5.27604 10.3253C5.34411 10.1996 5.36981 10.0377 5.34202 9.85852C5.333 9.80018 5.31841 9.74114 5.29896 9.6821C5.21075 9.42024 5.03225 9.19867 4.81553 9.05142C4.60995 8.91181 4.37239 8.84235 4.15221 8.87639Z" fill="currentColor"/>
</svg>
