<svg width="16" height="16" viewBox="0 0 16 16" fill="none" xmlns="http://www.w3.org/2000/svg">
<path d="M11.0422 0.602954C9.06602 -0.209211 6.89255 -0.20388 4.92167 0.618948C2.94902 1.44178 1.4171 2.98436 0.604934 4.96057C-0.207231 6.93677 -0.2019 9.11025 0.622705 11.0811C1.44553 13.052 2.98634 14.5857 4.96255 15.3979C5.94354 15.8013 6.97252 16.0021 8.00328 16.0021C9.04825 16.0021 10.0914 15.7942 11.0831 15.3801C13.054 14.5573 14.5877 13.0165 15.3998 11.0403C17.0757 6.96165 15.1208 2.27882 11.0422 0.602954ZM15.2772 7.64409H13.1428C13.0646 6.49071 12.6044 5.4404 11.8864 4.61757L13.3988 3.1052C14.5273 4.35277 15.1937 5.96289 15.2772 7.64409ZM8.0015 12.4424C5.55079 12.4424 3.55858 10.4502 3.55858 7.99952C3.55858 5.54881 5.55079 3.5566 8.0015 3.5566C10.4522 3.5566 12.4444 5.54881 12.4444 7.99952C12.4444 10.4502 10.4522 12.4424 8.0015 12.4424ZM12.8958 2.60227L11.3834 4.11463C10.5606 3.39844 9.51031 2.93815 8.35693 2.85818V0.71847C9.17621 0.759344 9.99015 0.938838 10.7703 1.26051C11.5754 1.59106 12.288 2.04957 12.8958 2.60227ZM5.19535 1.2765C5.98797 0.945947 6.81435 0.759344 7.64784 0.71847V2.85996C6.49446 2.93815 5.44416 3.39844 4.62133 4.11641L3.10541 2.60049C3.7132 2.04957 4.41518 1.59994 5.19535 1.2765ZM2.60247 3.10165L4.11839 4.61757C3.40042 5.4404 2.94013 6.49071 2.86193 7.64409H0.720449C0.761324 6.82481 0.940818 6.01087 1.26249 5.23069C1.58948 4.4363 2.04266 3.7201 2.60247 3.10165ZM0.720449 8.35495H2.86193C2.94013 9.50833 3.40042 10.5586 4.11839 11.3815L2.60247 12.8974C2.05155 12.2896 1.6037 11.5858 1.27848 10.8074C0.947927 10.0148 0.761324 9.18667 0.720449 8.35495ZM3.10541 13.4003L4.62133 11.8844C5.44416 12.6006 6.49446 13.0609 7.64784 13.1409V15.2823C6.82857 15.2415 6.01463 15.062 5.23445 14.7403C4.43828 14.4133 3.72208 13.9584 3.10541 13.4003ZM10.8094 14.7243C10.0168 15.0549 9.19042 15.2397 8.35871 15.2806V13.1391C9.51209 13.0609 10.5624 12.6006 11.3852 11.8826L12.9011 13.3986C12.2916 13.9495 11.5878 14.3991 10.8094 14.7243ZM13.4023 12.8974L11.8864 11.3815C12.6026 10.5586 13.0629 9.50833 13.1428 8.35495H15.279C15.2399 9.16356 15.0657 9.97928 14.7423 10.7701C14.4153 11.5627 13.9603 12.2789 13.4023 12.8974Z" fill="currentColor"/>
<path d="M10.2617 2.58813C10.4429 2.66455 10.6509 2.57747 10.7273 2.3962C10.8037 2.21492 10.7166 2.007 10.5354 1.93058C10.3541 1.85416 10.1462 1.94124 10.0697 2.12251C9.99332 2.30378 10.0804 2.51171 10.2617 2.58813Z" fill="currentColor"/>
<path d="M13.4271 5.77085C13.5018 5.95212 13.7097 6.0392 13.891 5.96456C14.0722 5.88992 14.1593 5.68199 14.0847 5.50072C14.01 5.31945 13.8021 5.23237 13.6208 5.30701C13.4396 5.38165 13.3525 5.58958 13.4271 5.77085Z" fill="currentColor"/>
<path d="M13.891 10.0343C13.7097 9.95966 13.5018 10.0467 13.4271 10.228C13.3525 10.4093 13.4396 10.6172 13.6208 10.6919C13.8021 10.7665 14.01 10.6794 14.0847 10.4981C14.1575 10.3169 14.0722 10.1089 13.891 10.0343Z" fill="currentColor"/>
<path d="M2.114 5.96456C2.29527 6.0392 2.5032 5.95212 2.57784 5.77085C2.65248 5.58958 2.5654 5.38165 2.38413 5.30701C2.20286 5.23237 1.99493 5.31945 1.92029 5.50072C1.84565 5.68199 1.93273 5.88992 2.114 5.96456Z" fill="currentColor"/>
<path d="M2.57784 10.228C2.5032 10.0467 2.29527 9.95966 2.114 10.0343C1.93273 10.1089 1.84565 10.3169 1.92029 10.4981C1.99493 10.6794 2.20286 10.7665 2.38413 10.6919C2.5654 10.6172 2.65248 10.4111 2.57784 10.228Z" fill="currentColor"/>
<path d="M5.74262 2.58812C5.92389 2.5117 6.00919 2.30377 5.93455 2.1225C5.85813 1.94123 5.6502 1.85592 5.46893 1.93056C5.28766 2.00698 5.20236 2.21491 5.277 2.39618C5.35164 2.57745 5.56135 2.66276 5.74262 2.58812Z" fill="currentColor"/>
<path d="M5.74239 13.411C5.56112 13.3346 5.35319 13.4217 5.27677 13.603C5.20035 13.7843 5.28743 13.9922 5.4687 14.0686C5.64997 14.145 5.8579 14.0579 5.93432 13.8767C6.00896 13.6954 5.92366 13.4875 5.74239 13.411Z" fill="currentColor"/>
<path d="M10.3984 14.0951C10.5947 14.0951 10.7538 13.936 10.7538 13.7397C10.7538 13.5434 10.5947 13.3843 10.3984 13.3843C10.2021 13.3843 10.043 13.5434 10.043 13.7397C10.043 13.936 10.2021 14.0951 10.3984 14.0951Z" fill="currentColor"/>
<path d="M10.9714 6.86736C10.6693 6.50127 10.2374 6.27557 9.77182 6.23114C9.68474 5.33011 8.92411 4.6228 8.00176 4.6228C7.07941 4.6228 6.31879 5.33011 6.23348 6.23114C5.76609 6.27557 5.33601 6.50127 5.0339 6.86736C4.69446 7.27789 4.55939 7.81637 4.65891 8.34597C4.7922 9.04795 5.35556 9.60953 6.05754 9.7446C6.30635 9.79258 6.55337 9.78725 6.78974 9.73571L6.65467 10.5497C6.62091 10.7558 6.67777 10.9655 6.81284 11.1255C6.9479 11.2854 7.14517 11.3778 7.35487 11.3778H8.64865C8.85836 11.3778 9.05562 11.2854 9.19069 11.1272C9.32575 10.9673 9.3844 10.7576 9.34886 10.5514L9.21379 9.73749C9.45015 9.7908 9.69718 9.79436 9.94598 9.74637C10.6497 9.61131 11.2113 9.04972 11.3464 8.34774C11.4477 7.81637 11.3108 7.27611 10.9714 6.86736ZM10.648 8.21268C10.568 8.63031 10.2321 8.96442 9.8127 9.04617C9.51058 9.10304 9.21024 9.03551 8.96676 8.85424C8.85125 8.76715 8.69308 8.76005 8.56868 8.83646C8.44428 8.9111 8.37852 9.05506 8.4034 9.19901L8.64865 10.6652H7.35487L7.60012 9.19723C7.62323 9.05328 7.55925 8.91111 7.43485 8.83469C7.37798 8.79914 7.314 8.78315 7.25002 8.78315C7.17538 8.78315 7.10074 8.80625 7.03854 8.85424C6.79507 9.03551 6.49473 9.10304 6.19261 9.04617C5.7732 8.9662 5.43731 8.63031 5.35734 8.21268C5.29514 7.88746 5.37511 7.56934 5.58126 7.32054C5.78564 7.07529 6.0842 6.93312 6.40409 6.93312C6.44674 6.93312 6.49117 6.93667 6.54804 6.94378C6.65823 6.958 6.76841 6.92068 6.8466 6.84248C6.9248 6.76429 6.96212 6.6541 6.9479 6.54392C6.9408 6.48705 6.93724 6.44262 6.93724 6.39997C6.93724 5.81173 7.4153 5.33367 8.00354 5.33367C8.59178 5.33367 9.06984 5.81173 9.06984 6.39997C9.06984 6.44084 9.06629 6.48705 9.05918 6.54392C9.04496 6.6541 9.08228 6.76429 9.16048 6.84248C9.23867 6.92068 9.34886 6.958 9.45904 6.94378C9.51591 6.93667 9.56034 6.93312 9.60299 6.93312C9.9211 6.93312 10.2214 7.07352 10.4258 7.32054C10.6302 7.56934 10.7102 7.88746 10.648 8.21268Z" fill="currentColor"/>
</svg>
