<svg width="16" height="16" viewBox="0 0 16 16" fill="none" xmlns="http://www.w3.org/2000/svg">
<path d="M13.3078 14.9554H12.7526L11.4235 12.2973C13.2068 11.2205 14.4013 9.26895 14.4013 7.0482C14.4013 3.66659 11.6422 0.907471 8.27744 0.907471C4.91266 0.907471 2.13672 3.66659 2.13672 7.0482C2.13672 9.26895 3.33122 11.2205 5.11455 12.2973L3.78546 14.9554H3.23027C2.96109 14.9554 2.74238 15.1741 2.74238 15.4433C2.74238 15.7125 2.96109 15.9312 3.23027 15.9312H5.29961C5.5688 15.9312 5.78751 15.7125 5.78751 15.4433C5.78751 15.1741 5.5688 14.9554 5.29961 14.9554H4.84537L5.95574 12.7178C6.66235 13.0039 7.43625 13.1721 8.26062 13.1721C9.06817 13.1721 9.84207 13.0039 10.5487 12.7178L11.659 14.9386H11.2216C10.9524 14.9386 10.7337 15.1573 10.7337 15.4265C10.7337 15.6957 10.9524 15.9144 11.2216 15.9144H13.291C13.5601 15.9144 13.7789 15.6957 13.7789 15.4265C13.7957 15.1573 13.577 14.9554 13.3078 14.9554ZM8.27744 12.2131C5.4342 12.2131 3.1125 9.89143 3.1125 7.0482C3.1125 4.20496 5.4342 1.88326 8.27744 1.88326C11.1207 1.88326 13.4424 4.20496 13.4424 7.0482C13.4424 9.89143 11.1207 12.2131 8.27744 12.2131Z" fill="currentColor"/>
<path d="M15.9659 4.05365C15.3434 2.45538 14.2499 1.10947 12.8198 0.150508C12.6011 -0.000906698 12.2983 0.0663889 12.1637 0.2851C12.0123 0.50381 12.0796 0.806641 12.2983 0.958056C13.5769 1.79925 14.5359 2.99375 15.0911 4.40696C15.1583 4.59202 15.3434 4.70979 15.5453 4.70979C15.5958 4.70979 15.6631 4.69296 15.7135 4.67614C15.9322 4.57519 16.0668 4.30601 15.9659 4.05365Z" fill="currentColor"/>
<path d="M1.59827 3.01061C1.36274 2.89285 1.07673 2.97697 0.942139 3.2125C0.319654 4.39017 0 5.70244 0 7.04835C0 7.31753 0.218711 7.53624 0.487893 7.53624C0.757076 7.53624 0.975786 7.31753 0.975786 7.04835C0.975786 5.87068 1.26179 4.693 1.80016 3.66675C1.93475 3.41439 1.83381 3.12838 1.59827 3.01061Z" fill="currentColor"/>
<path d="M10.044 8.74752C10.4142 8.74752 10.717 8.44469 10.717 8.07457C10.717 7.70444 10.4142 7.40161 10.044 7.40161C9.67392 7.40161 9.37109 7.70444 9.37109 8.07457C9.37109 8.44469 9.67392 8.74752 10.044 8.74752Z" fill="currentColor"/>
<path d="M6.54503 7.31738C6.1749 7.31738 5.87207 7.62021 5.87207 7.99034C5.87207 8.36046 6.1749 8.6633 6.54503 8.6633C6.91515 8.6633 7.21798 8.36046 7.21798 7.99034C7.21798 7.62021 6.91515 7.31738 6.54503 7.31738Z" fill="currentColor"/>
<path d="M8.12608 10.1943C7.75596 10.1943 7.45312 10.4972 7.45312 10.8673C7.45312 11.2374 7.75596 11.5402 8.12608 11.5402C8.49621 11.5402 8.79904 11.2374 8.79904 10.8673C8.79904 10.4972 8.49621 10.1943 8.12608 10.1943Z" fill="currentColor"/>
<path d="M10.1446 10.7663C10.5163 10.7663 10.8176 10.465 10.8176 10.0934C10.8176 9.7217 10.5163 9.42041 10.1446 9.42041C9.77297 9.42041 9.47168 9.7217 9.47168 10.0934C9.47168 10.465 9.77297 10.7663 10.1446 10.7663Z" fill="currentColor"/>
<path d="M11.7765 8.29321C11.4063 8.29321 11.1035 8.59604 11.1035 8.96617C11.1035 9.33629 11.4063 9.63913 11.7765 9.63913C12.1466 9.63913 12.4494 9.33629 12.4494 8.96617C12.4494 8.59604 12.1466 8.29321 11.7765 8.29321Z" fill="currentColor"/>
<path d="M8.29405 8.3606C7.92392 8.3606 7.62109 8.66343 7.62109 9.03355C7.62109 9.40368 7.92392 9.70651 8.29405 9.70651C8.66418 9.70651 8.96701 9.40368 8.96701 9.03355C8.96701 8.66343 8.66418 8.3606 8.29405 8.3606Z" fill="currentColor"/>
<path d="M8.36143 6.52686C7.99131 6.52686 7.68848 6.82969 7.68848 7.19981C7.68848 7.56994 7.99131 7.87277 8.36143 7.87277C8.73156 7.87277 9.03439 7.56994 9.03439 7.19981C9.03439 6.82969 8.73156 6.52686 8.36143 6.52686Z" fill="currentColor"/>
<path d="M4.87901 8.17554C4.50888 8.17554 4.20605 8.47837 4.20605 8.84849C4.20605 9.21862 4.50888 9.52145 4.87901 9.52145C5.24914 9.52145 5.55197 9.21862 5.55197 8.84849C5.55197 8.47837 5.24914 8.17554 4.87901 8.17554Z" fill="currentColor"/>
<path d="M6.22471 9.47095C5.85459 9.47095 5.55176 9.77378 5.55176 10.1439C5.55176 10.514 5.85459 10.8169 6.22471 10.8169C6.59484 10.8169 6.89767 10.514 6.89767 10.1439C6.89767 9.77378 6.59484 9.47095 6.22471 9.47095Z" fill="currentColor"/>
</svg>
