<svg width="30" height="30" viewBox="0 0 30 30" fill="none" xmlns="http://www.w3.org/2000/svg">
<path d="M22.0711 22.0706C22.9997 21.142 23.7362 20.0396 24.2388 18.8264C24.7413 17.6131 25 16.3128 25 14.9996C25 13.6863 24.7413 12.386 24.2388 11.1727C23.7362 9.95947 22.9997 8.85707 22.0711 7.92849C21.1425 6.9999 20.0401 6.26331 18.8268 5.76076C17.6136 5.25821 16.3132 4.99956 15 4.99956C13.6868 4.99956 12.3864 5.25822 11.1732 5.76076C9.95991 6.26331 8.85752 6.9999 7.92893 7.92849L15 14.9996L22.0711 22.0706Z" fill="#071123"/>
<path d="M22.0711 22.0711C21.1425 22.9997 20.0401 23.7362 18.8268 24.2388C17.6136 24.7413 16.3132 25 15 25C13.6868 25 12.3864 24.7413 11.1731 24.2388C9.95989 23.7362 8.8575 22.9997 7.92892 22.0711C7.00033 21.1425 6.26374 20.0401 5.76119 18.8268C5.25864 17.6136 4.99998 16.3132 4.99998 15C4.99998 13.6868 5.25864 12.3864 5.76119 11.1732C6.26374 9.95991 7.00033 8.85752 7.92892 7.92893L15 15L22.0711 22.0711Z" fill="#01FAFE"/>
</svg>
