<svg width="20" height="20" viewBox="0 0 20 20" fill="none" xmlns="http://www.w3.org/2000/svg">
<rect width="20" height="20" rx="10" fill="#7F7F80"/>
<g clip-path="url(#clip0_778_12957)">
<path fill-rule="evenodd" clip-rule="evenodd" d="M12.5608 4.93553C11.8785 4.25326 10.7388 4.38329 10.2278 5.20172L8.80517 7.48C8.80517 7.48 8.80443 7.48125 8.80176 7.48316C8.7985 7.4855 8.79154 7.48953 8.77987 7.49282C8.75436 7.5 8.72103 7.49944 8.69127 7.48841C8.20573 7.30841 7.37228 7.11068 6.50681 7.43667C6.04052 7.61231 5.80784 8.01653 5.78249 8.42663C5.7583 8.81793 5.91633 9.22017 6.20699 9.51082L7.97474 11.2786L4.63473 14.6186C4.43947 14.8139 4.43947 15.1304 4.63473 15.3257C4.82999 15.521 5.14657 15.521 5.34183 15.3257L8.68185 11.9857L10.4496 13.7535C10.7403 14.0441 11.1425 14.2022 11.5338 14.178C11.9439 14.1526 12.3482 13.9199 12.5238 13.4537C12.8498 12.5882 12.652 11.7547 12.4721 11.2692C12.461 11.2394 12.4605 11.2061 12.4676 11.1806C12.4709 11.1689 12.475 11.162 12.4773 11.1587C12.4792 11.156 12.4804 11.1553 12.4804 11.1553L14.7587 9.73267C15.5772 9.22162 15.7072 8.08195 15.0249 7.39968L12.5608 4.93553ZM11.076 5.73137C11.2464 5.45856 11.6263 5.41522 11.8537 5.64264L14.3178 8.10679C14.5452 8.33421 14.5019 8.7141 14.2291 8.88445L11.9508 10.3071C11.4785 10.602 11.3733 11.1823 11.5344 11.6168C11.6773 12.0023 11.7913 12.5613 11.588 13.1012C11.5741 13.138 11.5586 13.1513 11.5491 13.1579C11.537 13.1662 11.5132 13.1773 11.4721 13.1799C11.3834 13.1854 11.2566 13.1462 11.1567 13.0464L6.91409 8.80372C6.81422 8.70385 6.77509 8.57708 6.78058 8.48833C6.78312 8.44727 6.79425 8.42344 6.8026 8.41132C6.80914 8.40184 6.82244 8.38637 6.85929 8.37249C7.39921 8.16912 7.95817 8.28314 8.34367 8.42606C8.7782 8.58714 9.35841 8.48201 9.65341 8.00964L11.076 5.73137Z" fill="white"/>
</g>
<defs>
<clipPath id="clip0_778_12957">
<rect width="12" height="12" fill="white" transform="translate(4 4)"/>
</clipPath>
</defs>
</svg>
