<svg width="24" height="24" viewBox="0 0 24 24" fill="none" xmlns="http://www.w3.org/2000/svg">
<path fill-rule="evenodd" clip-rule="evenodd" d="M2.66666 12C2.66666 9.908 3.36666 7.97866 4.53466 6.42L17.58 19.4653C16.0213 20.6333 14.092 21.3333 12 21.3333C6.85466 21.3333 2.66666 17.1453 2.66666 12ZM21.3333 12C21.3333 14.092 20.6333 16.0213 19.4653 17.58L6.42 4.53466C7.97866 3.36666 9.908 2.66666 12 2.66666C17.1453 2.66666 21.3333 6.85466 21.3333 12ZM12 0C5.372 0 0 5.372 0 12C0 18.628 5.372 24 12 24C18.628 24 24 18.628 24 12C24 5.372 18.628 0 12 0Z" fill="white"/>
</svg>
