<svg width="36" height="13" viewBox="0 0 36 13" fill="none" xmlns="http://www.w3.org/2000/svg">
<path d="M0.124667 6.73142C0.324667 7.45142 1.29468 7.75142 1.82468 7.18142C6.11468 2.64142 9.60469 8.91142 14.3047 8.73142C17.0047 8.63142 19.0247 7.17142 19.9347 4.66142C20.0847 4.24142 19.4547 4.00142 19.2247 4.36142C15.1447 10.9714 10.1947 2.33142 5.34467 2.37142C2.87467 2.39142 -0.715333 3.74142 0.124667 6.72142V6.73142Z" fill="#FCD225"/>
<path d="M15.1247 4.64141C15.1247 4.64141 15.1547 4.65141 15.1647 4.66141C15.9147 4.95141 16.7747 4.41141 17.0647 3.70141C17.3547 3.11141 17.2347 2.28141 16.7547 1.84141C16.1147 1.26141 15.1147 1.20141 14.4847 1.84141C14.2547 2.08141 14.0647 2.35141 14.0047 2.69141C13.8347 3.61141 14.2547 4.32141 15.1147 4.65141L15.1247 4.64141ZM16.3547 1.72141C16.3547 1.72141 16.3647 1.75141 16.3747 1.77141C16.2747 1.71141 16.1647 1.65141 16.0447 1.60141C16.1447 1.64141 16.2547 1.68141 16.3547 1.72141Z" fill="#FCD225"/>
<path d="M7.53467 9.0714C7.20467 8.0914 5.93467 7.70141 5.03467 8.08141C4.04467 8.50141 3.56467 9.7314 4.12467 10.6914C4.57467 11.4714 5.45469 11.8614 6.33469 11.6414C7.25469 11.4114 7.98468 10.4014 7.70468 9.45141C7.66468 9.31141 7.60467 9.1914 7.53467 9.0714Z" fill="#FCD225"/>
<path d="M23.3249 6.4114C23.3249 6.8414 23.6849 7.2114 24.2249 7.3914C23.8049 7.7614 23.6149 8.2514 23.7849 8.6414C23.9449 9.0214 24.4049 9.2214 24.9449 9.2014C24.7249 9.6914 24.7349 10.1914 25.0249 10.4814C25.3249 10.7814 25.8449 10.7914 26.3549 10.5414C26.3249 11.1014 26.5249 11.5814 26.9249 11.7414C27.3049 11.9014 27.7749 11.7214 28.1349 11.3214C28.3249 11.8314 28.6849 12.1714 29.1049 12.1714C29.5249 12.1714 29.9049 11.8114 30.0849 11.2714C30.4549 11.6914 30.9449 11.8814 31.3349 11.7114C31.7149 11.5514 31.9149 11.0914 31.8949 10.5514C32.3849 10.7714 32.8849 10.7614 33.1749 10.4714C33.4749 10.1714 33.4849 9.6514 33.2349 9.1414C33.7949 9.1714 34.2749 8.9714 34.4349 8.5714C34.5949 8.1914 34.4149 7.7214 34.0149 7.3514C34.5249 7.1614 34.8649 6.8014 34.8649 6.3814C34.8649 5.9614 34.5049 5.5814 33.9649 5.4014C34.3849 5.0314 34.5749 4.5414 34.4049 4.1514C34.2449 3.7714 33.7849 3.5714 33.2449 3.5914C33.4649 3.1014 33.4549 2.6014 33.1649 2.3114C32.8649 2.0114 32.3449 2.0014 31.8349 2.2514C31.8649 1.6914 31.6649 1.2114 31.2649 1.0514C30.8849 0.891399 30.4149 1.0714 30.0549 1.4714C29.8649 0.961399 29.5049 0.621399 29.0849 0.621399C28.6649 0.621399 28.2849 0.981399 28.1049 1.5214C27.7349 1.1014 27.2449 0.911399 26.8549 1.0814C26.4749 1.2414 26.2749 1.7014 26.2949 2.2414C25.8049 2.0214 25.3049 2.0314 25.0149 2.3214C24.7149 2.6214 24.7049 3.1414 24.9549 3.6514C24.3949 3.6214 23.9149 3.8214 23.7549 4.2214C23.5949 4.6014 23.7749 5.0714 24.1749 5.4314C23.6649 5.6214 23.3249 5.9814 23.3249 6.4014V6.4114Z" fill="#FC3B77"/>
<path d="M29.0949 0.3414C29.5149 0.3414 29.8949 0.5914 30.1549 1.0014C30.5549 0.7114 31.0049 0.6314 31.3849 0.7914C31.7849 0.9514 32.0449 1.3414 32.1249 1.8514C32.6249 1.7314 33.0849 1.8214 33.3849 2.1214C33.6749 2.4114 33.7749 2.8614 33.6649 3.3414C34.1549 3.4214 34.5249 3.6814 34.6849 4.0614C34.8549 4.4614 34.7649 4.9214 34.4649 5.3314C34.9049 5.5914 35.1649 5.9814 35.1649 6.4114C35.1649 6.8414 34.9149 7.2114 34.5049 7.4714C34.7949 7.8714 34.8749 8.3214 34.7149 8.7014C34.5549 9.1014 34.1649 9.3614 33.6549 9.4414C33.7849 9.9414 33.6849 10.4014 33.3849 10.7014C33.0949 10.9914 32.6449 11.0914 32.1649 10.9814C32.0849 11.4714 31.8249 11.8414 31.4449 12.0014C31.0449 12.1714 30.5849 12.0814 30.1749 11.7814C29.9149 12.2214 29.5249 12.4814 29.0949 12.4814C28.6649 12.4814 28.2949 12.2314 28.0349 11.8214C27.6349 12.1114 27.1849 12.1914 26.8049 12.0314C26.4049 11.8714 26.1449 11.4814 26.0649 10.9714C25.5649 11.1014 25.1049 11.0014 24.8049 10.7014C24.5149 10.4114 24.4149 9.9614 24.5249 9.4814C24.0349 9.4014 23.6649 9.1414 23.5049 8.7614C23.3349 8.3614 23.4249 7.9014 23.7249 7.4914C23.2849 7.2314 23.0249 6.8414 23.0249 6.4114C23.0249 5.9814 23.2749 5.6114 23.6849 5.3514C23.3949 4.9514 23.3149 4.5014 23.4749 4.1214C23.6349 3.7214 24.0249 3.4614 24.5349 3.3814C24.4049 2.8814 24.5049 2.4214 24.8049 2.1214C25.0949 1.8314 25.5449 1.7314 26.0249 1.8414C26.1049 1.3514 26.3649 0.9814 26.7449 0.8214C27.1449 0.6514 27.6049 0.7414 28.0149 1.0414C28.2749 0.6014 28.6649 0.3414 29.0949 0.3414ZM30.0549 1.7914C30.0549 1.7914 30.0149 1.7914 29.9949 1.7914C29.8949 1.7714 29.8049 1.7014 29.7749 1.6014C29.6249 1.2014 29.3649 0.9514 29.0949 0.9514C28.8249 0.9514 28.5449 1.2214 28.3949 1.6414C28.3649 1.7414 28.2749 1.8214 28.1649 1.8414C28.0649 1.8614 27.9549 1.8314 27.8849 1.7514C27.5849 1.4214 27.2349 1.2714 26.9749 1.3814C26.7249 1.4914 26.5849 1.8214 26.5949 2.2514C26.5949 2.3514 26.5449 2.4514 26.4649 2.5114C26.3749 2.5714 26.2649 2.5814 26.1749 2.5314C25.7849 2.3514 25.4249 2.3614 25.2349 2.5514C25.0349 2.7514 25.0349 3.1314 25.2349 3.5314C25.2849 3.6314 25.2749 3.7414 25.2149 3.8314C25.1549 3.9214 25.0549 3.9714 24.9449 3.9614C24.5049 3.9414 24.1449 4.0914 24.0449 4.3414C23.9449 4.5914 24.0749 4.9314 24.3949 5.2214C24.4749 5.2914 24.5049 5.4014 24.4849 5.5014C24.4649 5.6014 24.3949 5.6914 24.2949 5.7214C23.8949 5.8714 23.6449 6.1314 23.6449 6.4014C23.6449 6.6714 23.9149 6.9514 24.3349 7.1014C24.4349 7.1414 24.5149 7.2214 24.5349 7.3314C24.5549 7.4314 24.5249 7.5414 24.4449 7.6114C24.1149 7.9114 23.9649 8.2614 24.0749 8.5214C24.1749 8.7714 24.5149 8.9114 24.9449 8.9014C25.0449 8.9014 25.1449 8.9514 25.2049 9.0314C25.2649 9.1214 25.2749 9.2314 25.2249 9.3214C25.0449 9.7114 25.0549 10.0714 25.2449 10.2614C25.4449 10.4614 25.8249 10.4614 26.2249 10.2614C26.3249 10.2114 26.4349 10.2214 26.5249 10.2814C26.6149 10.3414 26.6649 10.4414 26.6549 10.5514C26.6349 10.9914 26.7849 11.3514 27.0349 11.4514C27.2849 11.5514 27.6249 11.4214 27.9149 11.1014C27.9849 11.0214 28.0949 10.9914 28.1949 11.0114C28.2949 11.0314 28.3849 11.1014 28.4149 11.2014C28.5649 11.6014 28.8249 11.8514 29.0949 11.8514C29.3649 11.8514 29.6449 11.5814 29.7949 11.1614C29.8249 11.0614 29.9149 10.9814 30.0249 10.9614C30.1349 10.9414 30.2349 10.9714 30.3049 11.0514C30.6049 11.3814 30.9549 11.5314 31.2149 11.4214C31.4649 11.3114 31.6049 10.9814 31.5949 10.5514C31.5949 10.4514 31.6449 10.3514 31.7249 10.2914C31.8149 10.2314 31.9249 10.2214 32.0149 10.2714C32.4049 10.4514 32.7649 10.4414 32.9549 10.2514C33.1549 10.0514 33.1549 9.6714 32.9549 9.2714C32.9049 9.1714 32.9149 9.0614 32.9749 8.9714C33.0349 8.8814 33.1349 8.8314 33.2449 8.8414C33.6849 8.8614 34.0449 8.7114 34.1449 8.4614C34.2449 8.2114 34.1149 7.8714 33.7949 7.5814C33.7149 7.5114 33.6849 7.4014 33.7049 7.3014C33.7249 7.2014 33.7949 7.1114 33.8949 7.0814C34.2949 6.9314 34.5449 6.6714 34.5449 6.4014C34.5449 6.1314 34.2749 5.8514 33.8549 5.7014C33.7549 5.6714 33.6749 5.5814 33.6549 5.4714C33.6349 5.3714 33.6649 5.2614 33.7449 5.1914C34.0749 4.8914 34.2249 4.5414 34.1149 4.2814C34.0049 4.0314 33.6749 3.8914 33.2449 3.9014C33.1449 3.9014 33.0449 3.8514 32.9849 3.7714C32.9249 3.6814 32.9149 3.5714 32.9649 3.4814C33.1449 3.0914 33.1349 2.7314 32.9449 2.5414C32.7449 2.3414 32.3649 2.3414 31.9649 2.5414C31.8649 2.5914 31.7549 2.5814 31.6649 2.5214C31.5749 2.4614 31.5249 2.3614 31.5349 2.2514C31.5549 1.8114 31.4049 1.4514 31.1549 1.3514C30.9049 1.2514 30.5649 1.3814 30.2749 1.7014C30.2149 1.7614 30.1349 1.8014 30.0549 1.8014V1.7914Z" fill="#FCD225"/>
<path d="M28.1245 8.6014C29.3445 9.1214 30.9245 8.4714 31.2445 7.1014C31.2445 7.0814 31.2545 7.0514 31.2645 7.0314C31.4345 6.3014 31.3145 5.2914 30.6745 4.7914C30.1545 4.3814 29.6645 4.0814 28.9745 4.0914C28.3745 4.0914 27.7545 4.3514 27.3445 4.7914C27.0945 5.0614 26.9245 5.3914 26.8345 5.7314C26.4445 6.8514 26.9845 8.1314 28.1145 8.6114L28.1245 8.6014ZM30.2545 5.7814C30.2545 5.7814 30.2545 5.7714 30.2445 5.7614C30.2445 5.7614 30.2445 5.7614 30.2445 5.7714L30.2545 5.7814ZM29.5145 5.1914C29.4545 5.1714 29.3845 5.1614 29.3245 5.1514H29.4645C29.4645 5.1514 29.4945 5.1814 29.5145 5.1914ZM27.2345 5.0214C27.2345 5.0214 27.1545 5.1214 27.1245 5.1814C27.1245 5.1814 27.1245 5.1714 27.1245 5.1614C27.4745 4.7114 27.5045 4.6714 27.2345 5.0214Z" fill="#FCD225"/>
</svg>
