<svg width="20" height="16" viewBox="0 0 20 16" fill="none" xmlns="http://www.w3.org/2000/svg">
<path d="M8.40575 7.51764L9.54191 9.78971C9.62407 9.95403 9.79178 10.0575 9.97548 10.0575C10.1592 10.0575 10.3269 9.95378 10.4091 9.78971L11.5452 7.51764C11.6133 7.38119 11.6133 7.22051 11.5452 7.08406L10.4091 4.81199C10.3269 4.64767 10.1592 4.54419 9.97548 4.54419C9.79178 4.54419 9.62407 4.64792 9.54191 4.81199L8.40575 7.08406C8.33741 7.22075 8.33741 7.38119 8.40575 7.51764ZM9.97524 6.11247L10.5692 7.30073L9.97524 8.48899L9.38123 7.30073L9.97524 6.11247Z" fill="currentColor"/>
<path d="M7.70346 3.24139H8.83962C9.10718 3.24139 9.32433 3.02424 9.32433 2.75668C9.32433 2.48912 9.10718 2.27197 8.83962 2.27197H7.70346C7.4359 2.27197 7.21875 2.48912 7.21875 2.75668C7.21875 3.02424 7.4359 3.24139 7.70346 3.24139Z" fill="currentColor"/>
<path d="M10.457 11.8453C10.457 12.1129 10.6742 12.33 10.9417 12.33H12.0779C12.3455 12.33 12.5626 12.1129 12.5626 11.8453C12.5626 11.5777 12.3455 11.3606 12.0779 11.3606H10.9417C10.6739 11.3606 10.457 11.5775 10.457 11.8453Z" fill="currentColor"/>
<path d="M18.5554 2.42209L14.7502 0.807283C14.4509 0.323786 13.9172 0 13.3082 0H6.64343C6.03269 0 5.49782 0.325482 5.199 0.81116L1.44953 2.3821C0.588687 2.74151 0.18032 3.73662 0.539731 4.60158L4.86818 14.9407C5.14059 15.5904 5.77216 15.9821 6.43622 15.9821C6.65433 15.9821 6.87633 15.9397 7.08984 15.85L9.97314 14.6423L12.8542 15.8636C13.068 15.9544 13.2929 16 13.5181 16C13.734 16 13.9499 15.9581 14.1562 15.8742C14.5757 15.7038 14.9031 15.3801 15.0774 14.9644L19.4574 4.64594C19.8193 3.78364 19.4145 2.78611 18.5554 2.42209ZM5.91612 1.69648C5.91612 1.29563 6.24233 0.969418 6.64319 0.969418H13.3079C13.7088 0.969418 14.035 1.29563 14.035 1.69648V12.9054C14.035 13.3062 13.7088 13.6324 13.3079 13.6324H6.64319C6.24233 13.6324 5.91612 13.3062 5.91612 12.9054V1.69648ZM1.43426 4.22836C1.28012 3.85756 1.45438 3.43053 1.82324 3.27639L4.9467 1.96768V3.8132C4.82141 3.61932 4.57251 3.53644 4.35342 3.62877L3.30548 4.06768C3.05852 4.17116 2.94219 4.4552 3.04568 4.70192C3.12347 4.8878 3.3033 4.99977 3.49306 4.99977C3.55559 4.99977 3.61909 4.98741 3.67992 4.96197L4.72786 4.52306C4.82116 4.48404 4.89557 4.41909 4.9467 4.34008V12.6179L1.43426 4.22836ZM6.71517 14.9559C6.53582 15.0313 6.33782 15.0323 6.15799 14.9586C5.97816 14.8849 5.8376 14.7456 5.76223 14.5662L5.63766 14.2686C5.91952 14.477 6.26657 14.6019 6.64319 14.6019H7.5605L6.71517 14.9559ZM13.7912 14.9761C13.6114 15.0497 13.4131 15.0483 13.2328 14.971L12.189 14.6019H13.3079C13.6884 14.6019 14.0391 14.4744 14.3224 14.2618L14.184 14.5878C14.1096 14.7657 13.9703 14.9036 13.7912 14.9761ZM18.5646 4.26883L15.0044 12.6553V1.96816L18.1768 3.31444C18.5459 3.47076 18.7192 3.89973 18.5646 4.26883Z" fill="currentColor"/>
</svg>
