<svg width="100" height="21" viewBox="0 0 100 21" fill="none" xmlns="http://www.w3.org/2000/svg">
<g clip-path="url(#clip0_3997_7375)">
<path opacity="0.94" fill-rule="evenodd" clip-rule="evenodd" d="M42.917 -0.083252C43.2503 -0.083252 43.5837 -0.083252 43.917 -0.083252C42.8048 4.30961 41.666 8.69851 40.5003 13.0834C40.3637 13.4547 40.4192 13.7881 40.667 14.0834C41.0075 13.7987 41.2853 13.4654 41.5003 13.0834C41.9308 9.96965 43.403 7.49743 45.917 5.66675C47.0387 5.05016 48.2053 4.93905 49.417 5.33341C49.7698 5.6219 50.0198 5.98301 50.167 6.41675C50.2247 6.13038 50.308 5.8526 50.417 5.58341C51.6405 5.37243 52.8627 5.37243 54.0837 5.58341C55.1323 5.29495 56.188 5.2394 57.2503 5.41675C57.9922 7.76405 58.5755 10.1529 59.0003 12.5834C59.7143 11.3784 60.242 10.1006 60.5837 8.75008C60.3972 8.1435 60.036 7.6435 59.5003 7.25008C59.2605 6.35721 59.5105 5.66276 60.2503 5.16675C62.1398 5.45983 63.7232 4.8765 65.0003 3.41675C65.417 2.77786 65.8337 2.13896 66.2503 1.50008C66.5227 1.41783 66.8005 1.39005 67.0837 1.41675C66.8327 2.58783 66.5548 3.7545 66.2503 4.91675C66.8515 5.08161 67.4627 5.13718 68.0837 5.08341C68.0968 5.32183 68.0413 5.54405 67.917 5.75008C67.2595 5.91523 66.5928 5.97078 65.917 5.91675C65.3302 8.37218 64.6913 10.8166 64.0003 13.2501C63.7888 14.4861 64.2055 14.7917 65.2503 14.1667C65.6115 13.8056 65.9725 13.4445 66.3337 13.0834C66.5588 9.54448 68.2533 7.0167 71.417 5.50008C72.7565 4.96555 74.0898 4.96555 75.417 5.50008C76.2015 6.26551 76.4515 7.18218 76.167 8.25008C78.0167 5.61561 80.4888 4.69895 83.5837 5.50008C84.466 6.0726 84.7715 6.87816 84.5003 7.91675C83.5073 9.07468 82.7018 8.99135 82.0837 7.66675C82.1522 7.18298 82.3188 6.73853 82.5837 6.33341C81.651 5.95575 80.762 6.06685 79.917 6.66675C77.619 8.55975 76.869 10.9208 77.667 13.7501C78.3365 14.5989 79.1977 14.9044 80.2503 14.6667C81.8485 14.0217 83.043 12.9384 83.8337 11.4167C84.8788 8.18015 85.74 4.90236 86.417 1.58341C85.7535 1.4966 85.0868 1.44105 84.417 1.41675C84.417 1.19453 84.417 0.972303 84.417 0.750081C85.9818 0.58091 87.5373 0.358688 89.0837 0.0834147C88.256 3.03635 87.4503 5.9808 86.667 8.91675C88.1715 7.45586 89.866 6.26143 91.7503 5.33341C92.57 4.9197 93.32 5.00303 94.0003 5.58341C94.1115 5.9723 94.1115 6.3612 94.0003 6.75008C93.2503 9.2223 92.5003 11.6945 91.7503 14.1667C91.7782 14.4167 91.917 14.5556 92.167 14.5834C92.7887 14.2961 93.3165 13.8794 93.7503 13.3334C94.0535 13.2029 94.2757 13.2863 94.417 13.5834C93.7123 14.4829 92.879 15.2329 91.917 15.8334C91.133 16.1825 90.383 16.1547 89.667 15.7501C89.5368 15.5453 89.4535 15.3231 89.417 15.0834C90.161 12.5178 90.9388 9.96226 91.7503 7.41675C91.7323 7.25976 91.6768 7.12086 91.5837 7.00008C91.3058 6.88896 91.0282 6.88896 90.7503 7.00008C89.1892 7.94918 87.7725 9.08806 86.5003 10.4167C85.7793 12.2188 85.1403 14.0521 84.5837 15.9167C83.9262 16.0819 83.2595 16.1374 82.5837 16.0834C82.6895 15.5213 82.7728 14.9657 82.8337 14.4167C81.0178 16.1267 78.9345 16.5434 76.5837 15.6667C75.99 15.157 75.49 14.5737 75.0837 13.9167C73.8325 14.8757 72.4437 15.5701 70.917 16.0001C69.9028 16.1435 68.9028 16.088 67.917 15.8334C67.2023 15.4515 66.73 14.8681 66.5003 14.0834C65.9035 14.7921 65.209 15.3755 64.417 15.8334C63.766 16.0724 63.0993 16.128 62.417 16.0001C61.8977 15.6001 61.6755 15.0723 61.7503 14.4167C62.354 11.5783 63.0763 8.7728 63.917 6.00008C63.4725 5.88896 63.0282 5.88896 62.5837 6.00008C62.7973 6.87666 62.714 7.73778 62.3337 8.58341C61.0115 11.735 59.3448 14.6794 57.3337 17.4167C56.4337 18.7622 55.2392 19.7344 53.7503 20.3334C53.0282 20.4446 52.3058 20.4446 51.5837 20.3334C50.2503 19.3889 50.2503 18.4446 51.5837 17.5001C52.0837 17.3889 52.5837 17.3889 53.0837 17.5001C53.5495 17.7167 53.9938 17.9667 54.417 18.2501C55.0222 17.9854 55.4388 17.5411 55.667 16.9167C55.4877 13.5074 54.8765 10.174 53.8337 6.91675C53.7647 6.84051 53.6813 6.78496 53.5837 6.75008C52.709 9.13726 52.0423 11.5817 51.5837 14.0834C52.2503 13.8908 52.7503 13.4741 53.0837 12.8334C53.4438 12.7131 53.7217 12.8243 53.917 13.1667C53.3058 14.4445 52.3615 15.389 51.0837 16.0001C50.2188 16.1642 49.3855 16.0809 48.5837 15.7501C48.4683 15.6625 48.385 15.5514 48.3337 15.4167C48.2782 14.8612 48.2225 14.3056 48.167 13.7501C46.8508 15.9776 44.9898 16.6165 42.5837 15.6667C42.217 15.2945 41.9115 14.8778 41.667 14.4167C41.1252 15.0704 40.4863 15.5981 39.7503 16.0001C39.0282 16.1112 38.3058 16.1112 37.5837 16.0001C36.9558 15.6351 36.6225 15.0796 36.5837 14.3334C36.7502 13.7526 36.8335 13.1692 36.8337 12.5834C35.2768 15.4877 32.9157 16.5988 29.7503 15.9167C29.4467 16.8536 29.1688 17.7981 28.917 18.7501C29.1515 19.4859 29.6515 19.7637 30.417 19.5834C30.417 19.8612 30.417 20.1389 30.417 20.4167C28.2503 20.4167 26.0837 20.4167 23.917 20.4167C23.917 20.1389 23.917 19.8612 23.917 19.5834C24.4178 19.6246 24.8345 19.4579 25.167 19.0834C26.3532 15.0609 27.3532 11.0054 28.167 6.91675C27.8325 6.72196 27.4715 6.61085 27.0837 6.58341C27.0837 6.3612 27.0837 6.13896 27.0837 5.91675C28.77 5.82818 30.4367 5.60596 32.0837 5.25008C32.1392 5.3612 32.1948 5.4723 32.2503 5.58341C32.0748 6.02198 31.9915 6.46641 32.0003 6.91675C33.3333 5.12028 35.0277 4.64806 37.0837 5.50008C37.8327 6.18945 38.1937 7.05056 38.167 8.08341C38.721 6.03395 39.2488 3.9784 39.7503 1.91675C39.5958 1.33562 39.207 1.11339 38.5837 1.25008C38.5837 1.02786 38.5837 0.805636 38.5837 0.583415C40.066 0.46712 41.5105 0.244896 42.917 -0.083252ZM73.0837 6.08341C74.1458 6.06136 74.5625 6.56136 74.3337 7.58341C73.2517 9.57518 71.5572 10.5752 69.2503 10.5834C69.76 8.4086 71.0378 6.9086 73.0837 6.08341ZM48.5837 6.41675C49.3067 6.47458 49.5845 6.86346 49.417 7.58341C49.1757 9.78043 48.4257 11.7804 47.167 13.5834C46.0122 14.449 45.4288 14.1712 45.417 12.7501C45.68 10.8903 46.3188 9.16811 47.3337 7.58341C47.624 7.04246 48.0407 6.65358 48.5837 6.41675ZM33.0837 7.08341C33.9563 7.03956 34.3452 7.45623 34.2503 8.33341C33.9777 10.3181 33.3388 12.1792 32.3337 13.9167C32.0282 14.2223 31.7225 14.5279 31.417 14.8334C30.721 15.272 30.2767 15.1053 30.0837 14.3334C30.5375 12.0275 31.2875 9.83303 32.3337 7.75008C32.6115 7.54455 32.8615 7.32233 33.0837 7.08341ZM75.5837 9.08341C75.1498 10.2078 74.8998 11.3744 74.8337 12.5834C73.6268 13.7288 72.2102 14.5066 70.5837 14.9167C68.9015 14.4926 68.3458 13.437 68.917 11.7501C70.853 11.4843 72.6863 10.901 74.417 10.0001C74.833 9.72233 75.2218 9.41678 75.5837 9.08341Z" fill="white"/>
<path opacity="0.933" fill-rule="evenodd" clip-rule="evenodd" d="M-0.0830078 16.7501C-0.0830078 15.9167 -0.0830078 15.0834 -0.0830078 14.2501C0.744439 12.0561 2.07778 10.195 3.91699 8.66675C4.98581 7.8962 6.06914 7.1462 7.16699 6.41675C7.22254 5.41675 7.27811 4.41675 7.33366 3.41675C7.55843 2.8031 8.00286 2.46976 8.66699 2.41675C9.83036 3.02223 10.997 3.63333 12.167 4.25008C15.5873 3.01168 19.0595 2.81725 22.5837 3.66675C25.2573 4.70835 26.2295 6.62501 25.5003 9.41675C24.6635 11.5031 23.3578 13.2531 21.5837 14.6667C16.6702 18.6192 11.059 20.3971 4.75033 20.0001C2.48251 19.8161 0.871401 18.7327 -0.0830078 16.7501ZM17.0837 4.08341C18.6658 3.90256 20.1658 4.15256 21.5837 4.83341C22.3357 5.4123 22.6967 6.1623 22.667 7.08342C21.8885 5.95698 20.8052 5.31808 19.417 5.16675C17.5172 5.06128 15.6283 5.11683 13.7503 5.33341C13.6948 5.27786 13.6392 5.2223 13.5837 5.16675C14.753 4.74875 15.9197 4.38763 17.0837 4.08341ZM9.41699 4.75008C11.9871 6.01186 14.4593 7.4563 16.8337 9.08342C16.9575 9.40685 16.9297 9.7124 16.7503 10.0001C14.3756 11.3401 12.0145 12.7012 9.66699 14.0834C9.41496 13.9573 9.19274 13.7906 9.00033 13.5834C8.88921 10.7501 8.88921 7.91675 9.00033 5.08341C9.16611 4.9891 9.30499 4.87798 9.41699 4.75008ZM15.917 6.08341C16.9185 6.05571 17.9185 6.0835 18.917 6.16675C20.3838 6.68283 20.9672 7.71061 20.667 9.25008C20.3125 10.2713 19.8125 11.2158 19.167 12.0834C16.1087 15.6268 12.2476 17.3767 7.58366 17.3334C5.99278 16.9022 5.35389 15.8745 5.66699 14.2501C5.94898 13.1859 6.44898 12.2415 7.16699 11.4167C7.22254 12.7501 7.27811 14.0834 7.33366 15.4167C7.47519 16.0854 7.89186 16.4188 8.58366 16.4167C9.41228 16.1731 10.1901 15.812 10.917 15.3334C13.5837 13.7779 16.2503 12.2223 18.917 10.6667C19.5357 10.2331 19.73 9.64977 19.5003 8.91675C18.1253 7.99285 16.7087 7.13173 15.2503 6.33341C15.51 6.29841 15.7322 6.21508 15.917 6.08341ZM13.5837 17.4167C11.3141 18.6784 8.86969 19.2617 6.25033 19.1667C3.95981 18.8817 2.93204 17.6317 3.16699 15.4167C3.41783 16.2259 3.89004 16.8647 4.58366 17.3334C6.22474 18.0976 7.94696 18.3754 9.75033 18.1667C11.0526 18.0239 12.3304 17.7739 13.5837 17.4167Z" fill="white"/>
<path opacity="0.756" fill-rule="evenodd" clip-rule="evenodd" d="M60.7503 20.9168C60.1948 20.9168 59.6391 20.9168 59.0836 20.9168C58.8056 20.5869 58.6946 20.1981 58.7503 19.7501C58.9724 19.7501 59.1948 19.7501 59.4169 19.7501C59.4601 20.3448 59.7934 20.5669 60.4169 20.4168C60.4606 20.1704 60.4051 19.9483 60.2503 19.7501C59.7369 19.5353 59.2646 19.2576 58.8336 18.9168C58.6218 18.3058 58.8163 17.8891 59.4169 17.6668C59.9863 17.5179 60.5141 17.6013 61.0003 17.9168C61.0826 18.1891 61.1103 18.4669 61.0836 18.7501C60.8614 18.7501 60.6391 18.7501 60.4169 18.7501C60.4861 18.3421 60.3194 18.1199 59.9169 18.0834C59.6819 18.1448 59.5153 18.2836 59.4169 18.5001C59.9311 18.8268 60.4589 19.1323 61.0003 19.4168C61.3239 19.9766 61.2406 20.4766 60.7503 20.9168Z" fill="white"/>
<path opacity="0.775" fill-rule="evenodd" clip-rule="evenodd" d="M63.5838 20.9168C62.9726 20.9168 62.3616 20.9168 61.7505 20.9168C61.4155 20.0078 61.3321 19.0634 61.5005 18.0834C62.133 17.5329 62.8275 17.4496 63.5838 17.8334C64.024 18.8611 64.024 19.8889 63.5838 20.9168ZM62.4171 18.0834C63.0781 18.2038 63.3558 18.6204 63.2505 19.3334C63.3685 20.2541 63.0073 20.5596 62.1671 20.2501C61.9968 19.4786 62.0801 18.7564 62.4171 18.0834Z" fill="white"/>
<path opacity="0.768" fill-rule="evenodd" clip-rule="evenodd" d="M71.7497 20.9166C71.2497 20.9166 70.7497 20.9166 70.2497 20.9166C69.6744 19.976 69.591 18.976 69.9997 17.9166C70.6664 17.4721 71.333 17.4721 71.9997 17.9166C72.082 18.189 72.1097 18.4668 72.083 18.75C71.6474 18.7871 71.3695 18.5926 71.2497 18.1666C71.0357 18.0526 70.8412 18.0805 70.6664 18.25C70.5832 18.9701 70.5554 19.6923 70.583 20.4166C71.0914 20.5128 71.4247 20.3183 71.583 19.8333C71.741 19.7528 71.9077 19.7251 72.083 19.75C72.1355 20.2018 72.0244 20.5906 71.7497 20.9166Z" fill="white"/>
<path opacity="0.793" fill-rule="evenodd" clip-rule="evenodd" d="M77.917 20.9166C77.3615 20.9166 76.8059 20.9166 76.2504 20.9166C76.2032 20.7851 76.1199 20.674 76.0004 20.5833C75.8892 19.6945 75.8892 18.8055 76.0004 17.9166C76.7225 17.4721 77.4449 17.4721 78.167 17.9166C78.2782 18.8055 78.2782 19.6945 78.167 20.5833C78.0475 20.674 77.9642 20.7851 77.917 20.9166ZM76.7504 18.0833C77.0244 18.0476 77.2744 18.1033 77.5004 18.25C77.5835 18.9701 77.6114 19.6923 77.5837 20.4166C77.2559 20.4565 76.9502 20.401 76.667 20.25C76.539 19.5133 76.5667 18.7911 76.7504 18.0833Z" fill="white"/>
<path opacity="0.762" fill-rule="evenodd" clip-rule="evenodd" d="M83.9167 20.9166C83.3612 20.9166 82.8055 20.9166 82.25 20.9166C81.9242 20.609 81.7575 20.2201 81.75 19.75C82.325 19.626 82.6027 19.8483 82.5833 20.4166C82.9962 20.4915 83.3295 20.3805 83.5833 20.0833C83.0913 19.65 82.5637 19.2611 82 18.9166C81.7078 17.9578 82.069 17.5135 83.0833 17.5833C83.9068 17.5563 84.2957 17.9451 84.25 18.75C84.0037 18.7936 83.7815 18.7381 83.5833 18.5833C83.3172 18.0026 82.9838 17.9471 82.5833 18.4166C83.0753 18.85 83.603 19.2388 84.1667 19.5833C84.3152 20.083 84.2318 20.5273 83.9167 20.9166Z" fill="white"/>
<path opacity="0.757" fill-rule="evenodd" clip-rule="evenodd" d="M89.4166 20.9168C88.8611 20.9168 88.3054 20.9168 87.7499 20.9168C87.3711 19.9541 87.3156 18.9541 87.5833 17.9168C88.3451 17.4194 89.0396 17.4751 89.6666 18.0834C89.7483 18.2989 89.7761 18.5213 89.7499 18.7501C89.5036 18.7938 89.2814 18.7383 89.0833 18.5834C88.9359 18.1764 88.6581 18.0376 88.2499 18.1668C88.0278 18.8889 88.0278 19.6113 88.2499 20.3334C88.6581 20.4626 88.9359 20.3238 89.0833 19.9168C89.2814 19.7619 89.5036 19.7064 89.7499 19.7501C89.7676 20.1799 89.6564 20.5688 89.4166 20.9168Z" fill="white"/>
<path opacity="0.779" fill-rule="evenodd" clip-rule="evenodd" d="M92.0838 20.9166C91.5283 20.9166 90.9726 20.9166 90.4171 20.9166C90.0106 19.9335 89.9828 18.9335 90.3338 17.9166C91.0004 17.4721 91.6671 17.4721 92.3338 17.9166C92.4161 18.189 92.4438 18.4668 92.4171 18.75C92.1949 18.75 91.9726 18.75 91.7504 18.75C91.8044 18.22 91.5821 18.0255 91.0838 18.1666C90.7048 18.8196 90.6493 19.5141 90.9171 20.25C91.4726 20.542 91.7503 20.3753 91.7504 19.75C91.9726 19.75 92.1949 19.75 92.4171 19.75C92.4728 20.198 92.3618 20.5868 92.0838 20.9166Z" fill="white"/>
<path opacity="0.769" fill-rule="evenodd" clip-rule="evenodd" d="M96.9169 20.9167C96.3614 20.9167 95.8057 20.9167 95.2502 20.9167C95.0104 20.5687 94.8992 20.1798 94.9169 19.75C95.4204 19.8172 95.837 20.0393 96.1669 20.4167C96.5762 20.4522 96.7429 20.2855 96.6669 19.9167C96.1899 19.655 95.7177 19.3772 95.2502 19.0833C94.7849 18.4837 94.896 18.0115 95.5835 17.6667C96.1449 17.5762 96.7004 17.604 97.2502 17.75C97.3057 18.0833 97.3614 18.4167 97.4169 18.75C97.188 18.7762 96.9657 18.7483 96.7502 18.6667C96.514 18.04 96.1807 17.9567 95.7502 18.4167C96.2272 18.8647 96.7549 19.2535 97.3335 19.5833C97.5274 20.1618 97.3885 20.6063 96.9169 20.9167Z" fill="white"/>
<path opacity="0.756" fill-rule="evenodd" clip-rule="evenodd" d="M99.9166 17.9166C99.9166 18.1945 99.9166 18.4721 99.9166 18.75C99.6944 18.75 99.4721 18.75 99.2499 18.75C99.3191 18.342 99.1524 18.1198 98.7499 18.0833C98.5149 18.1446 98.3483 18.2835 98.2499 18.5C98.7833 18.8498 99.3388 19.1555 99.9166 19.4166C99.9166 19.8611 99.9166 20.3055 99.9166 20.75C99.7513 20.7213 99.6403 20.777 99.5833 20.9166C99.0278 20.9166 98.4721 20.9166 97.9166 20.9166C97.6386 20.5868 97.5276 20.198 97.5833 19.75C97.8054 19.75 98.0278 19.75 98.2499 19.75C98.2931 20.3446 98.6264 20.5668 99.2499 20.4166C99.2936 20.1703 99.2381 19.9481 99.0833 19.75C98.6534 19.549 98.2368 19.3268 97.8333 19.0833C97.4068 18.1163 97.7401 17.6163 98.8333 17.5833C99.2349 17.5803 99.5961 17.6915 99.9166 17.9166Z" fill="white"/>
<path opacity="0.768" fill-rule="evenodd" clip-rule="evenodd" d="M66.2496 20.9167C65.6941 20.9167 65.1384 20.9167 64.5829 20.9167C64.5358 20.7852 64.4524 20.674 64.3329 20.5833C64.2498 19.6405 64.2219 18.696 64.2496 17.75C64.4718 17.75 64.6941 17.75 64.9163 17.75C64.8886 18.5298 64.9164 19.3075 64.9996 20.0833C65.2331 20.3653 65.5386 20.4765 65.9163 20.4167C65.9163 19.5278 65.9163 18.6388 65.9163 17.75C66.1941 17.75 66.4718 17.75 66.7496 17.75C66.7773 18.6407 66.7494 19.5295 66.6663 20.4167C66.5499 20.6152 66.4111 20.7818 66.2496 20.9167Z" fill="white"/>
<path opacity="0.813" fill-rule="evenodd" clip-rule="evenodd" d="M69.4163 20.9166C69.1942 20.9166 68.9718 20.9166 68.7497 20.9166C68.9107 20.1881 68.6607 19.6881 67.9997 19.4166C67.7677 19.8796 67.6843 20.3796 67.7497 20.9166C67.5275 20.9166 67.3052 20.9166 67.083 20.9166C67.083 19.8611 67.083 18.8054 67.083 17.7499C67.8495 17.6999 68.5995 17.7554 69.333 17.9166C69.2917 18.9036 69.3195 19.9036 69.4163 20.9166ZM67.7497 18.0833C68.4263 17.9746 68.7597 18.2524 68.7497 18.9166C68.4163 18.9721 68.083 19.0278 67.7497 19.0833C67.7497 18.7499 67.7497 18.4166 67.7497 18.0833Z" fill="white"/>
<path opacity="0.843" fill-rule="evenodd" clip-rule="evenodd" d="M74.583 20.9166C73.9163 20.9166 73.2497 20.9166 72.583 20.9166C72.583 19.8611 72.583 18.8055 72.583 17.75C73.2588 17.696 73.9255 17.7515 74.583 17.9166C74.152 18.08 73.7075 18.1355 73.2497 18.0833C73.2497 18.3611 73.2497 18.6388 73.2497 18.9166C73.634 18.9988 74.0228 19.0543 74.4163 19.0833C74.4163 19.25 74.4163 19.4166 74.4163 19.5833C74.0275 19.5833 73.6385 19.5833 73.2497 19.5833C73.2497 19.8611 73.2497 20.1388 73.2497 20.4166C73.6942 20.4166 74.1385 20.4166 74.583 20.4166C74.583 20.5833 74.583 20.75 74.583 20.9166Z" fill="white"/>
<path opacity="0.827" fill-rule="evenodd" clip-rule="evenodd" d="M79.4167 20.9167C79.1945 20.9167 78.9722 20.9167 78.75 20.9167C78.75 19.8612 78.75 18.8056 78.75 17.7501C79.371 17.6962 79.9822 17.7519 80.5833 17.9167C80.2095 18.0791 79.8207 18.1347 79.4167 18.0834C79.4167 18.3612 79.4167 18.6389 79.4167 18.9167C80.9722 19.1389 80.9722 19.3612 79.4167 19.5834C79.4167 20.0279 79.4167 20.4722 79.4167 20.9167Z" fill="white"/>
<path opacity="0.798" fill-rule="evenodd" clip-rule="evenodd" d="M86.5836 20.9167C86.0281 20.9167 85.4724 20.9167 84.9169 20.9167C84.8698 20.7852 84.7864 20.674 84.6669 20.5833C84.5838 19.6405 84.5559 18.696 84.5836 17.75C84.8058 17.75 85.0281 17.75 85.2503 17.75C85.2226 18.5852 85.2504 19.4185 85.3336 20.25C85.6114 20.4722 85.8891 20.4722 86.1669 20.25C86.2501 19.4185 86.2779 18.5852 86.2503 17.75C86.4724 17.75 86.6948 17.75 86.9169 17.75C86.9446 18.696 86.9168 19.6405 86.8336 20.5833C86.7141 20.674 86.6308 20.7852 86.5836 20.9167Z" fill="white"/>
<path opacity="0.795" fill-rule="evenodd" clip-rule="evenodd" d="M94.75 20.9166C94.0833 20.9166 93.4167 20.9166 92.75 20.9166C92.75 19.8611 92.75 18.8055 92.75 17.75C93.4258 17.696 94.0925 17.7515 94.75 17.9166C94.319 18.08 93.8745 18.1355 93.4167 18.0833C93.4167 18.3611 93.4167 18.6388 93.4167 18.9166C93.8677 18.9291 94.3122 18.9846 94.75 19.0833C94.75 19.25 94.75 19.4166 94.75 19.5833C94.3055 19.5833 93.8612 19.5833 93.4167 19.5833C93.4167 19.8611 93.4167 20.1388 93.4167 20.4166C93.8612 20.4166 94.3055 20.4166 94.75 20.4166C94.75 20.5833 94.75 20.75 94.75 20.9166Z" fill="white"/>
</g>
<defs>
<clipPath id="clip0_3997_7375">
<rect width="100" height="21" fill="white"/>
</clipPath>
</defs>
</svg>
