<svg width="16" height="16" viewBox="0 0 16 16" fill="none" xmlns="http://www.w3.org/2000/svg">
<path d="M13.6877 13.6196C15.169 12.1244 16 10.1047 16 8C16 5.89526 15.169 3.87564 13.6877 2.38038C13.6698 2.35336 13.6466 2.33021 13.6196 2.31226C12.1244 0.830999 10.1047 0 8 0C5.89526 0 3.87564 0.830999 2.38038 2.31226C2.35336 2.33021 2.33021 2.35336 2.31226 2.38038C0.830999 3.87564 0 5.89526 0 8C0 10.1047 0.830999 12.1244 2.31226 13.6196C2.33021 13.6466 2.35336 13.6698 2.38038 13.6877C3.87564 15.169 5.89526 16 8 16C10.1047 16 12.1244 15.169 13.6196 13.6877C13.6466 13.6698 13.6698 13.6466 13.6877 13.6196ZM0.684276 8.34058H1.70602C1.74262 9.02864 1.8928 9.70589 2.15049 10.3449C2.15049 10.3449 2.15049 10.3551 2.15049 10.3602C2.4278 11.0382 2.82077 11.6628 3.31187 12.2062L2.58814 12.9282C1.43644 11.6688 0.762748 10.0454 0.684276 8.34058ZM2.58814 3.07176L3.31187 3.7938C2.82678 4.33437 2.43798 4.95413 2.16241 5.62614C2.16241 5.62614 2.16241 5.62614 2.16241 5.63976C2.16241 5.65338 2.16241 5.64998 2.16241 5.65509C1.90122 6.29351 1.74758 6.97078 1.70773 7.65942H0.685978C0.763981 5.9548 1.43706 4.33146 2.58814 3.07176ZM15.3208 7.65942H14.2991C14.2625 6.97137 14.1123 6.29411 13.8546 5.65509C13.8546 5.65509 13.8546 5.64487 13.8546 5.63976V5.62614C13.5729 4.95267 13.1771 4.33281 12.6847 3.7938L13.4085 3.07176C14.5633 4.33 15.24 5.9535 15.3208 7.65942ZM10.4147 13.073L9.71143 11.3309C10.4054 10.9724 10.9707 10.4071 11.3292 9.71313L13.0713 10.4164C12.5138 11.5784 11.5767 12.5155 10.4147 13.073ZM2.92191 10.4164L4.66399 9.71313C5.02248 10.4071 5.58782 10.9724 6.28176 11.3309L5.58186 13.073C4.41989 12.5155 3.4828 11.5784 2.92531 10.4164H2.92191ZM5.57845 2.92361L6.28176 4.66569C5.58782 5.02418 5.02248 5.58952 4.66399 6.28346L2.92531 5.58356C3.4828 4.4216 4.41989 3.4845 5.58186 2.92701L5.57845 2.92361ZM13.0713 5.58016L11.3292 6.28687C10.9707 5.59293 10.4054 5.02759 9.71143 4.6691L10.4147 2.92701C11.5767 3.4845 12.5138 4.4216 13.0713 5.58356V5.58016ZM11.7294 7.65942C11.7058 7.40831 11.6573 7.16016 11.5846 6.91865L13.325 6.21534C13.4831 6.6819 13.5776 7.16762 13.606 7.65942H11.7294ZM7.9983 11.0652C7.39205 11.0652 6.79941 10.8855 6.29534 10.5487C5.79126 10.2118 5.39838 9.73312 5.16638 9.17302C4.93438 8.61292 4.87367 7.9966 4.99195 7.402C5.11022 6.8074 5.40216 6.26123 5.83084 5.83254C6.25952 5.40386 6.8057 5.11192 7.4003 4.99365C7.9949 4.87538 8.61122 4.93608 9.17132 5.16808C9.73142 5.40008 10.2101 5.79296 10.547 6.29704C10.8838 6.80112 11.0635 7.39375 11.0635 8C11.0635 8.81295 10.7406 9.59261 10.1658 10.1675C9.59091 10.7423 8.81125 11.0652 7.9983 11.0652ZM9.07965 4.41366C8.83814 4.34096 8.58999 4.29248 8.33888 4.26891V2.39571C8.83067 2.42408 9.3164 2.51859 9.78295 2.67669L9.07965 4.41366ZM7.65771 4.26891C7.4066 4.29248 7.15846 4.34096 6.91695 4.41366L6.21364 2.67328C6.68019 2.51518 7.16592 2.42067 7.65771 2.3923V4.26891ZM2.67158 6.21534L4.41196 6.91865C4.33926 7.16016 4.29077 7.40831 4.26721 7.65942H2.394C2.42127 7.16778 2.51464 6.68206 2.67158 6.21534ZM4.26721 8.34058C4.29077 8.5917 4.33926 8.83984 4.41196 9.08135L2.67158 9.78466C2.51348 9.3181 2.41897 8.83238 2.3906 8.34058H4.26721ZM6.91695 11.5863C7.15846 11.659 7.4066 11.7075 7.65771 11.7311V13.6043C7.16592 13.5759 6.68019 13.4814 6.21364 13.3233L6.91695 11.5863ZM8.33888 11.7311C8.58999 11.7075 8.83814 11.659 9.07965 11.5863L9.78295 13.3267C9.3164 13.4848 8.83067 13.5793 8.33888 13.6077V11.7311ZM13.325 9.78466L11.5846 9.08135C11.6573 8.83984 11.7058 8.5917 11.7294 8.34058H13.6026C13.5753 8.83222 13.482 9.31794 13.325 9.78466ZM12.2045 3.31358C11.6639 2.82848 11.0442 2.43969 10.3722 2.16411H10.3585H10.3432C9.70479 1.90292 9.02751 1.74928 8.33888 1.70943V0.687681C10.0435 0.765684 11.6668 1.43876 12.9265 2.58984L12.2045 3.31358ZM7.65771 1.70943C6.96964 1.74584 6.29235 1.89602 5.65338 2.15389H5.63806H5.62443C4.9517 2.43257 4.33189 2.82484 3.7921 3.31358L3.07006 2.58984C4.32951 1.43814 5.95288 0.764451 7.65771 0.685978V1.70943ZM3.7921 12.6864C4.33266 13.1715 4.95243 13.5603 5.62443 13.8359H5.63806C5.64371 13.8351 5.64943 13.8351 5.65509 13.8359C6.2931 14.0965 6.96972 14.2501 7.65771 14.2906V15.3123C5.9531 15.2343 4.32976 14.5612 3.07006 13.4102L3.7921 12.6864ZM8.33888 14.2906C9.0262 14.2539 9.70279 14.1043 10.3415 13.8478C10.3472 13.8471 10.3529 13.8471 10.3585 13.8478H10.3722C11.045 13.5686 11.6648 13.1758 12.2045 12.6864L12.9265 13.4102C11.6683 14.565 10.0448 15.2417 8.33888 15.3225V14.2906ZM12.6847 12.2062C13.1714 11.6646 13.5608 11.0429 13.8359 10.3688C13.8359 10.3688 13.8359 10.3585 13.8359 10.3534C14.0974 9.71223 14.2505 9.032 14.2889 8.34058H15.3106C15.2326 10.0452 14.5595 11.6685 13.4085 12.9282L12.6847 12.2062Z" fill="currentColor"/>
<path d="M7.99868 6.80786C7.76292 6.80786 7.53245 6.87777 7.33642 7.00876C7.14039 7.13974 6.9876 7.32591 6.89738 7.54373C6.80716 7.76154 6.78355 8.00122 6.82955 8.23246C6.87554 8.46369 6.98907 8.67609 7.15578 8.8428C7.32249 9.00951 7.53489 9.12304 7.76613 9.16904C7.99736 9.21503 8.23704 9.19143 8.45486 9.1012C8.67267 9.01098 8.85884 8.85819 8.98983 8.66216C9.12081 8.46613 9.19072 8.23567 9.19072 7.9999C9.19072 7.68375 9.06513 7.38055 8.84158 7.157C8.61803 6.93345 8.31483 6.80786 7.99868 6.80786ZM7.99868 8.51078C7.89764 8.51078 7.79887 8.48081 7.71486 8.42468C7.63084 8.36854 7.56536 8.28876 7.5267 8.19541C7.48803 8.10205 7.47791 7.99934 7.49762 7.90024C7.51734 7.80114 7.56599 7.71011 7.63744 7.63866C7.70889 7.56721 7.79992 7.51856 7.89902 7.49884C7.99812 7.47913 8.10083 7.48925 8.19419 7.52792C8.28754 7.56658 8.36732 7.63206 8.42346 7.71608C8.47959 7.80009 8.50956 7.89886 8.50956 7.9999C8.50956 8.13539 8.45573 8.26534 8.35992 8.36114C8.26412 8.45695 8.13417 8.51078 7.99868 8.51078Z" fill="currentColor"/>
</svg>
