<svg width="30" height="29" viewBox="0 0 30 29" fill="none" xmlns="http://www.w3.org/2000/svg">
<path d="M22.0711 21.2132C22.9997 20.2846 23.7362 19.1822 24.2388 17.969C24.7413 16.7557 25 15.4554 25 14.1421C25 12.8289 24.7413 11.5286 24.2388 10.3153C23.7362 9.10204 22.9997 7.99965 22.0711 7.07107C21.1425 6.14248 20.0401 5.40589 18.8268 4.90334C17.6136 4.40079 16.3132 4.14214 15 4.14214C13.6868 4.14214 12.3864 4.40079 11.1732 4.90334C9.95991 5.40589 8.85752 6.14248 7.92893 7.07107L15 14.1421L22.0711 21.2132Z" fill="#6800A8"/>
<path d="M22.0711 21.2136C21.1425 22.1422 20.0401 22.8788 18.8268 23.3814C17.6136 23.8839 16.3132 24.1426 15 24.1426C13.6868 24.1426 12.3864 23.8839 11.1731 23.3814C9.95989 22.8788 8.8575 22.1422 7.92892 21.2136C7.00033 20.2851 6.26374 19.1827 5.76119 17.9694C5.25864 16.7562 4.99998 15.4558 4.99998 14.1426C4.99998 12.8294 5.25864 11.529 5.76119 10.3157C6.26374 9.10249 7.00033 8.0001 7.92892 7.07151L15 14.1426L22.0711 21.2136Z" fill="#FDC667"/>
</svg>
