<svg width="24" height="16" viewBox="0 0 24 16" fill="none" xmlns="http://www.w3.org/2000/svg">
<path d="M2.93773 6.56461C2.93341 6.55559 2.92861 6.5468 2.92336 6.53829C2.89282 6.4941 2.85057 6.45929 2.80136 6.43777C2.81242 6.43272 2.82314 6.42697 2.83347 6.42055C2.84794 6.41061 2.86149 6.39938 2.87393 6.38699C2.87573 6.44109 2.89287 6.49356 2.92336 6.53829C2.96727 6.60193 3.03451 6.6457 3.11048 6.6601C3.18646 6.6745 3.26505 6.65836 3.3292 6.61519C3.36089 6.59403 3.38806 6.56678 3.40914 6.53504C3.43022 6.5033 3.44479 6.46769 3.45201 6.43028C3.45923 6.39287 3.45895 6.35439 3.45119 6.31709C3.44343 6.27978 3.42835 6.24439 3.40681 6.21295C3.38283 6.17745 3.35132 6.14769 3.3145 6.12578C3.27769 6.10388 3.2365 6.09037 3.19386 6.08623C3.15123 6.08209 3.1082 6.08742 3.06786 6.10183C3.02753 6.11624 2.99087 6.13939 2.96051 6.16961C2.95871 6.11551 2.94156 6.06304 2.91108 6.0183C2.86716 5.95466 2.79992 5.91089 2.72394 5.8965C2.64797 5.8821 2.56938 5.89823 2.50522 5.9414C2.4622 5.96999 2.42769 6.00966 2.40531 6.05622C2.38293 6.10278 2.37352 6.15451 2.37807 6.20596C2.38261 6.25742 2.40094 6.3067 2.43114 6.34862C2.46133 6.39053 2.50226 6.42353 2.54962 6.44415C2.51183 6.46135 2.47834 6.48675 2.45159 6.51852C2.42485 6.55029 2.40552 6.58761 2.39501 6.62779C2.3845 6.66796 2.38308 6.70998 2.39084 6.75077C2.39861 6.79156 2.41537 6.83011 2.43991 6.86362C2.48382 6.92726 2.55106 6.97103 2.62703 6.98543C2.70301 6.99982 2.78159 6.98369 2.84575 6.94052C2.89559 6.90704 2.93369 6.85878 2.9547 6.80254C2.97571 6.74629 2.97857 6.68488 2.9629 6.62692C3.02336 6.77988 3.06712 7.04851 2.93387 7.19801L3.53429 6.78569C3.38406 6.88886 3.06775 6.71077 2.93773 6.56461Z" fill="currentColor"/>
<path d="M7.1203 3.68796C7.1773 3.70362 7.23785 3.70023 7.29273 3.6783C7.35816 3.65196 7.41133 3.60204 7.44173 3.5384C7.47213 3.47476 7.47757 3.40203 7.45695 3.33459C7.44247 3.29396 7.41795 3.25766 7.38567 3.22906L7.37494 3.22089L7.33145 3.19202L7.33013 3.19131L6.68671 2.8186L6.45155 3.52566L6.43862 3.57594L6.43613 3.58911C6.43136 3.63187 6.43755 3.67514 6.45411 3.71485C6.48439 3.77883 6.53732 3.82931 6.60267 3.85652C6.66802 3.88373 6.74114 3.88573 6.80788 3.86214C6.87129 3.83882 6.924 3.79314 6.9561 3.73369C6.96534 3.83117 6.95331 3.9295 6.92083 4.02188C6.88835 4.11426 6.83621 4.19848 6.768 4.26874L7.60948 3.94965C7.47275 4.0015 7.27628 3.86157 7.1203 3.68796Z" fill="currentColor"/>
<path d="M11.1755 3.38708L11.2104 3.44104L11.2115 3.44248L11.7299 4.09354C11.7318 4.09577 11.7342 4.09758 11.7369 4.09884C11.7395 4.10011 11.7424 4.1008 11.7454 4.10088C11.7483 4.10095 11.7513 4.10041 11.754 4.09929C11.7567 4.09817 11.7592 4.09649 11.7612 4.09436L12.3437 3.47083L12.3815 3.41877L12.3903 3.40472C12.4156 3.35732 12.4288 3.30445 12.4288 3.25075C12.4265 3.16413 12.3919 3.0815 12.3318 3.01905C12.2717 2.95661 12.1905 2.91884 12.104 2.91315C12.0412 2.91322 11.9794 2.92884 11.9241 2.95861C11.8687 2.98839 11.8217 3.0314 11.787 3.0838C11.7552 3.02965 11.7105 2.98422 11.6568 2.95157C11.6032 2.91893 11.5423 2.90009 11.4796 2.89673C11.3929 2.89788 11.3098 2.93132 11.2464 2.99051C11.1831 3.04971 11.1442 3.13039 11.1372 3.21678C11.1343 3.27039 11.1447 3.32388 11.1673 3.37255L11.1755 3.38708Z" fill="currentColor"/>
<path d="M22.6803 5.27866L18.4341 3.67717L18.4503 2.55051C18.4527 2.36611 18.3819 2.18829 18.2533 2.05606C18.1248 1.92383 17.949 1.84798 17.7646 1.84516L13.5444 1.78565L13.1328 0.485074C13.0764 0.309751 12.9532 0.163744 12.7898 0.0787947C12.6265 -0.00615413 12.4361 -0.0231759 12.2603 0.0314298L7.45083 1.52672C7.27722 1.49756 7.09904 1.53597 6.95286 1.63405L6.82168 1.72233L5.59787 2.10281C5.51014 2.12969 5.42864 2.17376 5.35812 2.23246C5.2876 2.29116 5.22946 2.36331 5.18711 2.4447C5.11931 2.57493 5.09519 2.72352 5.11833 2.86852L1.17573 5.52152C1.09978 5.57244 1.03467 5.63792 0.984176 5.71416C0.933682 5.7904 0.898803 5.87589 0.881557 5.9657C0.86431 6.0555 0.865038 6.14783 0.883697 6.23735C0.902357 6.32687 0.938579 6.41181 0.990269 6.48724L6.6778 14.7894C6.7823 14.9409 6.94227 15.0452 7.1231 15.0797C7.30392 15.1141 7.49103 15.076 7.64394 14.9735L10.4392 13.1402C10.4966 13.1571 10.5559 13.1665 10.6157 13.1683L11.7016 13.1836C11.7804 13.3259 11.907 13.4358 12.059 13.4937L18.5853 15.955C18.6638 15.9848 18.7472 16 18.8311 16C18.9721 16.0001 19.1099 15.9576 19.2263 15.878C19.3427 15.7984 19.4322 15.6855 19.4833 15.554L23.0844 6.17524C23.1171 6.08987 23.1326 5.99888 23.1299 5.9075C23.1273 5.81612 23.1066 5.72617 23.069 5.64282C23.0315 5.55948 22.9778 5.48439 22.9111 5.42189C22.8444 5.35939 22.7659 5.31071 22.6803 5.27866ZM17.7421 3.41615L16.1539 2.81716C15.9816 2.75224 15.7906 2.75795 15.6225 2.83304C15.4544 2.90812 15.3227 3.04652 15.2561 3.21815L14.1465 6.10797C13.9898 6.00504 13.8062 5.95063 13.6187 5.95156C13.3611 5.95525 13.1143 6.0556 12.9273 6.23271C12.7402 6.40983 12.6265 6.65076 12.6088 6.90775C12.6004 7.06954 12.6316 7.23092 12.6998 7.37787C12.7032 7.38518 12.707 7.39248 12.7109 7.39961L12.7267 7.42814C12.7306 7.4351 12.7346 7.44207 12.7391 7.44886L12.8075 7.55451C12.8136 7.56385 12.8225 7.57607 12.8296 7.58491L13.3355 8.22011L12.4343 10.5672C12.2828 10.6657 11.9705 10.4898 11.8414 10.3447C11.8371 10.3357 11.8323 10.3269 11.827 10.3184C11.7965 10.2742 11.7542 10.2394 11.705 10.2179C11.7324 10.206 11.757 10.1887 11.7776 10.1671C11.7794 10.2212 11.7965 10.2737 11.827 10.3184C11.8709 10.3821 11.9382 10.4258 12.0141 10.4402C12.0901 10.4546 12.1687 10.4385 12.2329 10.3953C12.2645 10.3742 12.2917 10.3469 12.3128 10.3152C12.3339 10.2834 12.3484 10.2478 12.3557 10.2104C12.3629 10.173 12.3626 10.1345 12.3548 10.0972C12.3471 10.0599 12.332 10.0245 12.3105 9.99308C12.2865 9.95758 12.255 9.92782 12.2181 9.90592C12.1813 9.88401 12.1401 9.87051 12.0975 9.86637C12.0549 9.86223 12.0118 9.86755 11.9715 9.88196C11.9312 9.89637 11.8945 9.91952 11.8642 9.94973C11.8624 9.89563 11.8452 9.84316 11.8147 9.79843C11.7708 9.73478 11.7036 9.69101 11.6276 9.67662C11.5516 9.66222 11.473 9.67836 11.4089 9.72152C11.3659 9.75011 11.3313 9.78978 11.309 9.83634C11.2866 9.8829 11.2772 9.93463 11.2817 9.98609C11.2863 10.0375 11.3046 10.0868 11.3348 10.1287C11.365 10.1707 11.4059 10.2037 11.4533 10.2243C11.4155 10.2415 11.382 10.2669 11.3552 10.2986C11.3285 10.3304 11.3092 10.3677 11.2987 10.4079C11.2882 10.4481 11.2867 10.4901 11.2945 10.5309C11.3023 10.5717 11.319 10.6102 11.3436 10.6437C11.3875 10.7074 11.4547 10.7512 11.5307 10.7655C11.6067 10.7799 11.6852 10.7638 11.7494 10.7206C11.7992 10.6872 11.8373 10.6389 11.8583 10.5827C11.8794 10.5264 11.8822 10.465 11.8665 10.407C11.927 10.56 11.9708 10.8286 11.8375 10.9781L12.4337 10.5687L11.6969 12.4877L10.6259 12.4726L10.7696 2.44232L17.7546 2.54066L17.7421 3.41615ZM13.6248 7.46675L13.3826 7.16253L13.3265 7.07539C13.3089 7.03404 13.301 6.98918 13.3034 6.94428C13.3123 6.86265 13.351 6.78717 13.4121 6.7323C13.4732 6.67742 13.5523 6.64701 13.6345 6.64688H13.6384C13.6868 6.65291 13.7336 6.66849 13.776 6.69272C13.8184 6.71695 13.8556 6.74934 13.8854 6.78803L13.6248 7.46675ZM10.0142 6.61195C9.94457 6.62155 9.87363 6.60939 9.81113 6.57712C9.74864 6.54486 9.69764 6.49407 9.66511 6.43171C9.64848 6.39315 9.6414 6.35114 9.64448 6.30926L9.64592 6.30144L10.0358 5.11016L10.0142 6.61195ZM12.4668 0.695861L12.3635 0.363645L12.8106 1.77529L10.7794 1.74666H10.7694C10.5868 1.7469 10.4116 1.8189 10.2816 1.94712C10.1515 2.07535 10.0771 2.24953 10.0743 2.43213L10.0509 4.05682C10.0069 4.03709 9.95919 4.02684 9.91093 4.02674C9.86267 4.02664 9.81492 4.03668 9.77079 4.05622C9.72666 4.07576 9.68713 4.10436 9.65477 4.14016C9.62241 4.17596 9.59793 4.21816 9.58293 4.26403L9.00776 5.99335C9.0053 6.00083 9.00301 6.00863 9.00097 6.01628L8.96929 6.13924C8.96751 6.14637 8.9659 6.15367 8.96445 6.16098L8.95825 6.19427C8.95664 6.20293 8.95537 6.21176 8.95435 6.22042C8.9365 6.38336 8.96013 6.54817 9.02304 6.69954C9.10415 6.88399 9.23789 7.04039 9.40751 7.14916C9.57712 7.25792 9.77506 7.31421 9.97653 7.31097C9.98571 7.31097 9.99504 7.30903 10.0043 7.3088L9.93695 11.996L8.83427 12.3387L5.80414 2.76723L12.4668 0.695861ZM6.60263 7.59314C6.55557 7.56758 6.51512 7.53139 6.48452 7.48743C6.44975 7.43807 6.42918 7.38012 6.42505 7.31989C6.42091 7.25965 6.43336 7.19944 6.46105 7.14579L6.60263 7.59314ZM6.56409 8.65814C6.57261 8.6135 6.58996 8.571 6.61511 8.53315C6.64026 8.49529 6.67272 8.46284 6.71058 8.43769C6.75369 8.40985 6.80245 8.39195 6.85334 8.38527L7.05792 9.03165C6.98246 9.06711 6.89688 9.07474 6.81634 9.05319C6.73579 9.03165 6.66545 8.98232 6.61776 8.91392C6.59227 8.87699 6.5744 8.83535 6.56518 8.79143C6.55597 8.74752 6.5556 8.7022 6.56409 8.65814ZM7.25551 14.3964H7.25178L1.56416 6.09865L5.32844 3.56715L6.2289 6.41228C6.21577 6.42028 6.20163 6.42525 6.18874 6.43391C6.07494 6.51015 5.97738 6.6082 5.90171 6.72239C5.82603 6.83658 5.77376 6.96463 5.74789 7.09915C5.72203 7.23367 5.72309 7.37199 5.75103 7.50609C5.77896 7.6402 5.83321 7.76744 5.91063 7.88044C5.96161 7.95466 6.02205 8.0221 6.09041 8.08071C5.95076 8.25242 5.87071 8.46487 5.86232 8.68605C5.85392 8.90722 5.91764 9.12513 6.04386 9.30693C6.17512 9.49919 6.36702 9.64193 6.58891 9.71234C6.8108 9.78275 7.04988 9.77677 7.26798 9.69537L8.17104 12.5487C8.22715 12.7241 8.35035 12.8703 8.51378 12.9553C8.67721 13.0403 8.86762 13.0573 9.04351 13.0025L9.69771 12.7991L7.25551 14.3964ZM18.8345 15.3037C18.834 15.304 18.8334 15.3042 18.8327 15.3043C18.8321 15.3044 18.8315 15.3044 18.8309 15.3042L12.3043 12.8464L15.9085 3.46799L22.4349 5.92575L18.8345 15.3037Z" fill="currentColor"/>
<path d="M16.371 9.11772L16.5609 10.9206C16.5674 10.9822 16.5903 11.0409 16.6271 11.0907C16.6639 11.1405 16.7133 11.1796 16.7703 11.2039C16.8272 11.2283 16.8896 11.2369 16.9511 11.2291C17.0125 11.2212 17.0707 11.1971 17.1197 11.1592L18.5769 10.0315C18.6238 9.99516 18.6607 9.94748 18.684 9.89293C18.7073 9.83839 18.7163 9.77879 18.7101 9.7198L18.5202 7.91695C18.5137 7.85537 18.4908 7.79666 18.454 7.74686C18.4172 7.69707 18.3678 7.65799 18.3108 7.63367C18.2539 7.60935 18.1915 7.60067 18.1301 7.60852C18.0686 7.61637 18.0104 7.64047 17.9614 7.67832L16.5042 8.80606C16.4573 8.84236 16.4204 8.89005 16.3971 8.94459C16.3738 8.99914 16.3648 9.05873 16.371 9.11772ZM17.8937 8.6104L17.9979 9.59989L17.1875 10.2271L17.0832 9.23763L17.8937 8.6104Z" fill="currentColor"/>
<path d="M15.9504 5.64822L16.7163 5.05534L16.6167 4.10767L15.8506 4.70037L15.9504 5.64822Z" fill="currentColor"/>
<path d="M18.1106 14.7163L18.8767 14.1236L18.7768 13.1758L18.0107 13.7687L18.1106 14.7163Z" fill="currentColor"/>
</svg>
