<svg width="24" height="14" viewBox="0 0 24 14" fill="none" xmlns="http://www.w3.org/2000/svg">
<path d="M10.0984 3.80608H3.46569C3.26362 3.80608 3.09959 3.97011 3.09959 4.17219C3.09959 4.37426 3.26362 4.53829 3.46569 4.53829H10.096C10.2981 4.53829 10.4621 4.37426 10.4621 4.17219C10.4621 3.97011 10.2981 3.80608 10.096 3.80608H10.0984ZM21.5119 0.00237737H2.48862C1.50679 0.00237737 0.708008 0.801155 0.708008 1.78299V12.2194C0.708008 13.2012 1.50679 14 2.48862 14H21.5119C22.4937 14 23.2925 13.2012 23.2925 12.2194V1.78061C23.2925 0.798777 22.4937 0 21.5119 0V0.00237737ZM22.5579 12.2194C22.5579 12.7971 22.0896 13.2654 21.5119 13.2654H2.48862C1.91093 13.2654 1.4426 12.7971 1.4426 12.2194V1.78061C1.4426 1.20292 1.91093 0.73459 2.48862 0.73459H21.5119C22.0896 0.73459 22.5579 1.20292 22.5579 1.78061V12.217V12.2194ZM10.096 7.07013H3.46569C3.26362 7.07013 3.09959 7.23417 3.09959 7.43624C3.09959 7.63831 3.26362 7.80234 3.46569 7.80234H10.096C10.2981 7.80234 10.4621 7.63831 10.4621 7.43624C10.4621 7.23417 10.2981 7.07013 10.096 7.07013ZM10.096 10.1131H3.46569C3.26362 10.1131 3.09959 10.2771 3.09959 10.4792C3.09959 10.6813 3.26362 10.8453 3.46569 10.8453H10.096C10.2981 10.8453 10.4621 10.6813 10.4621 10.4792C10.4621 10.2771 10.2981 10.1131 10.096 10.1131ZM17.7367 4.93055C17.8175 4.93055 17.8984 4.93055 17.9792 4.92817C18.0006 4.92817 18.0291 4.90678 18.0458 4.88538C18.0529 4.87587 18.0576 4.86636 18.0576 4.85923C18.0576 4.84972 18.0576 4.84021 18.0529 4.82832C18.0481 4.81406 18.0386 4.7998 18.0291 4.78791C17.8508 4.82119 17.6749 4.87112 17.4942 4.93055H17.7367ZM16.3365 5.0304C16.3317 4.98285 16.3602 4.95432 16.403 4.93055C16.4197 4.92342 16.4363 4.91628 16.4553 4.90915C16.4672 4.9044 16.4815 4.90202 16.4958 4.89727C16.5552 4.88063 16.6122 4.86398 16.6717 4.84972C16.705 4.84734 16.7406 4.8521 16.7739 4.85685C16.831 4.86398 16.8904 4.87587 16.9474 4.883V4.86874C16.9498 4.85448 16.9498 4.84259 16.9522 4.82832C16.9356 4.82832 16.9189 4.82357 16.9023 4.82119C16.8809 4.81881 16.8595 4.81406 16.8405 4.81406L16.8357 4.81644H16.8096C16.7644 4.82832 16.7192 4.83783 16.674 4.84734H16.6717C16.6717 4.84734 16.6455 4.84972 16.6336 4.8521C16.346 4.89964 16.0583 4.95194 15.7707 5.00187C15.2952 5.08507 14.8174 5.16828 14.3419 5.25149C14.3158 5.25624 14.2872 5.25386 14.2587 5.25149C14.2492 5.25149 14.2397 5.24911 14.2302 5.24911C14.2088 5.24673 14.1874 5.24198 14.166 5.24198V5.23009C14.166 5.21107 14.166 5.19443 14.166 5.17779C14.2112 5.15877 14.2587 5.13975 14.3039 5.11836C14.3443 5.10172 14.3847 5.08507 14.4251 5.06843C14.4893 5.04228 14.5511 5.01375 14.6129 4.98998C14.6129 4.98998 14.6129 4.98919 14.6129 4.9876C14.5654 4.99474 14.5154 5.00187 14.4655 5.009C14.4085 5.01613 14.349 5.02326 14.2896 5.0304C14.2896 5.02564 14.2872 5.02326 14.2872 5.01851C14.2825 4.99949 14.2777 4.9781 14.273 4.9567C14.3015 4.9353 14.33 4.91153 14.3585 4.89013C14.3752 4.87825 14.3895 4.86636 14.4085 4.85923C14.9481 4.64052 15.5187 4.55731 16.0892 4.49312C16.9498 4.39803 17.8104 4.44558 18.6686 4.50026C18.6853 4.50263 18.6995 4.50263 18.7138 4.50263C18.7447 4.50263 18.7756 4.50263 18.8041 4.51214C18.8208 4.5169 18.835 4.52641 18.8469 4.54067C18.8612 4.55256 18.8731 4.56682 18.8873 4.57871C18.8612 4.60961 18.8374 4.65953 18.8065 4.66667C18.6948 4.69282 18.5807 4.71184 18.4665 4.71659C18.2526 4.72372 18.041 4.71659 17.7795 4.71659C17.8889 4.74036 17.9507 4.74512 18.0053 4.76889C18.0149 4.77127 18.022 4.7784 18.0291 4.78791C18.1337 4.76651 18.2407 4.74987 18.3453 4.74036C18.5497 4.72372 18.7542 4.72848 18.9634 4.73323C18.9634 4.74036 18.9705 4.74987 18.9729 4.757C18.9967 4.8307 19.0109 4.9044 19.0205 4.97334V4.98285C19.0276 5.05417 19.0276 5.12073 19.0205 5.1873C19.0466 5.20156 19.0728 5.2182 19.0965 5.23247C19.1631 5.2705 19.2083 5.25624 19.2487 5.18968C19.2582 5.17779 19.2606 5.1659 19.2677 5.15402C19.3152 5.05892 19.3129 4.97572 19.2701 4.90915C19.2415 4.86636 19.1964 4.8307 19.1441 4.80217C19.1179 4.78791 19.0918 4.77602 19.0609 4.76651C19.049 4.76176 19.0347 4.757 19.0205 4.75225C19.0038 4.7475 18.9943 4.74036 18.9824 4.73323C19.0561 4.73323 19.1298 4.73323 19.2059 4.73323C19.1322 4.63814 19.0561 4.54542 18.98 4.45984C18.98 4.45033 18.9753 4.44082 18.9705 4.43369C18.9658 4.4218 18.98 4.40041 18.9848 4.38139C18.9943 4.38377 18.9991 4.38377 19.0062 4.38614C19.0109 4.38614 19.0157 4.38852 19.0205 4.3909C19.0514 4.39328 19.0823 4.39803 19.1155 4.40279C19.1132 4.37188 19.1156 4.3386 19.1108 4.30531C19.1108 4.29343 19.106 4.28154 19.1013 4.26966C19.0965 4.25301 19.0965 4.23637 19.0942 4.21973C19.0942 4.21022 19.0894 4.19834 19.0942 4.18883C19.0965 4.18169 19.0965 4.17456 19.0989 4.16743C19.1013 4.16268 19.1013 4.15792 19.1037 4.15317C19.1037 4.14128 19.1037 4.13177 19.0989 4.12464C19.0942 4.11988 19.0846 4.11513 19.0751 4.11037C19.0704 4.11037 19.0704 4.10562 19.0656 4.10562C19.0561 4.10324 19.0466 4.10324 19.0395 4.10324C19.03 4.10324 19.0228 4.108 19.0133 4.11037C19.0086 4.11275 19.0014 4.11275 18.9967 4.11513C18.9824 4.12464 18.9682 4.1389 18.9563 4.15792C18.942 4.18169 18.923 4.20547 18.9063 4.22686C18.8945 4.24113 18.8826 4.25777 18.8707 4.27441C18.8636 4.28867 18.854 4.30532 18.8493 4.32196C18.3881 3.84412 17.8508 3.50416 17.2161 3.32586C17.1638 3.3116 17.1139 3.29496 17.0616 3.28307C16.976 3.26405 16.8928 3.24741 16.8072 3.23315C16.617 3.19986 16.4244 3.18322 16.2342 3.17847C16.2033 3.17609 16.1701 3.17371 16.1392 3.17371H16.1106C15.8681 3.17609 15.628 3.20224 15.3903 3.24741C15.0884 3.30684 14.7888 3.39718 14.4964 3.52556C13.8783 3.80132 13.3149 4.27916 12.9013 4.89251C12.8394 4.98523 12.7824 5.07794 12.7277 5.17541C12.4472 5.67703 12.2618 6.24996 12.2166 6.87044V6.87757C14.2563 5.81729 14.67 5.63186 16.3626 5.10172C16.346 5.07319 16.3388 5.04941 16.3365 5.02802V5.0304ZM18.6853 6.25709C18.69 6.27611 18.6948 6.29513 18.7019 6.31177C18.7257 6.2975 18.7471 6.28086 18.7732 6.26184H18.7447C18.7257 6.25947 18.7043 6.25947 18.6853 6.25709ZM18.6971 5.95993C18.6971 5.95993 18.6995 5.95993 18.6995 5.9623V5.95755C18.6995 5.95755 18.7019 5.95517 18.7043 5.95517C18.7019 5.95279 18.6995 5.95279 18.6948 5.95279C18.6948 5.95517 18.6948 5.95755 18.6948 5.95993H18.6971ZM13.5003 9.13602C13.6525 9.00764 13.8236 8.89828 13.9806 8.76991C14.0923 8.67957 14.1969 8.57973 14.2825 8.45848C14.2516 8.43709 14.2207 8.41807 14.1898 8.39667C14.1802 8.38954 14.1684 8.38241 14.1565 8.37528C14.1327 8.35864 14.1066 8.34199 14.078 8.32298C14.1161 8.29207 14.1422 8.2683 14.1612 8.25166C14.097 8.23739 14.0305 8.22075 13.9568 8.20173C13.9069 8.18985 13.8522 8.17558 13.7927 8.16132C13.8973 8.07574 13.9663 8.00204 14.0495 7.95687C14.0519 7.95449 14.0542 7.95211 14.0566 7.95211C14.2112 7.86653 14.3728 7.76668 14.5416 7.74053C14.6819 7.71914 14.8126 7.69536 14.8649 7.57888C14.8673 7.5765 14.8673 7.57412 14.8697 7.57174C14.3538 7.76431 13.826 7.96162 13.2626 8.17083C13.2721 8.17321 13.2792 8.1732 13.2888 8.1732C13.3482 8.1732 13.4052 8.14468 13.4623 8.1209C13.5812 8.06623 13.6881 8.01392 13.7809 8.1946C13.7809 8.1946 13.7809 8.19618 13.7809 8.19935C13.6667 8.29445 13.5788 8.40143 13.4671 8.46086C13.448 8.47037 13.429 8.4775 13.41 8.48701C13.2151 8.58448 13.013 8.66531 12.8109 8.74614H12.8085C12.7895 8.75327 12.7681 8.75327 12.7443 8.75089C12.7206 8.74614 12.6968 8.74138 12.6754 8.73901H12.673C12.6707 8.75327 12.6683 8.76278 12.6659 8.77467C12.654 8.82934 12.635 8.88878 12.6564 8.92444C12.7063 9.02191 12.7562 9.10511 12.8038 9.18356C12.8846 9.32145 12.9654 9.44744 13.07 9.60197C13.0914 9.6091 13.1152 9.61386 13.1366 9.61861C13.2198 9.41416 13.3529 9.26439 13.5027 9.13602H13.5003ZM13.9615 6.49958C13.9473 6.49244 13.9306 6.48769 13.9164 6.48531C13.9116 6.48531 13.9045 6.48293 13.8997 6.48293C13.8997 6.48293 13.8926 6.48531 13.8902 6.48531C13.8831 6.48531 13.8759 6.48531 13.8688 6.48531C13.719 6.54237 13.5621 6.58991 13.4243 6.67074C13.3315 6.72304 13.2626 6.73255 13.2103 6.68738L13.1889 6.66599C13.1746 6.64697 13.1604 6.62557 13.1485 6.59705C13.0819 6.64459 13.0177 6.69214 12.9536 6.73731H12.9464C12.9464 6.73731 12.9345 6.74206 12.9274 6.74682C12.925 6.74919 12.9226 6.75157 12.9203 6.75395C12.9155 6.7587 12.9108 6.76346 12.906 6.77059C12.9036 6.77297 12.9013 6.77297 12.9013 6.77534H12.8989C12.8513 6.811 12.8109 6.84191 12.7657 6.87281C12.7705 6.87995 12.7919 6.9061 12.799 6.92274C12.8014 6.92987 12.8014 6.93462 12.8014 6.937C12.7182 7.06538 12.597 7.04873 12.471 7.02258C12.4638 7.02021 12.4567 7.01783 12.4496 7.01783C12.4401 7.01545 12.4282 7.01308 12.4187 7.01308C12.3497 6.99881 12.2831 6.98692 12.219 7.00119C12.219 7.063 12.2142 7.11292 12.2142 7.16047C12.2142 7.21515 12.2166 7.26983 12.2213 7.33164C12.2261 7.38869 12.2332 7.45288 12.2427 7.53371C12.2499 7.59552 12.257 7.66446 12.2665 7.75004C12.2713 7.75242 12.276 7.75242 12.2784 7.75242C12.2808 7.75242 12.2808 7.75242 12.2831 7.75004C12.2855 7.75004 12.2879 7.75004 12.2903 7.75004C12.2927 7.75004 12.295 7.75004 12.2998 7.75004H12.3022C12.8466 7.31262 13.3529 6.82051 13.9948 6.51146C13.9829 6.50671 13.9734 6.50195 13.9615 6.4972V6.49958ZM12.9013 6.8847C12.9013 6.8847 12.9013 6.88232 12.8989 6.88232L12.9013 6.8847ZM14.5487 9.18832C14.4536 9.23111 14.3847 9.26202 14.3205 9.29292C14.2944 9.30481 14.2682 9.31669 14.2421 9.32858C14.2088 9.34284 14.1755 9.35711 14.1446 9.37137C13.9996 9.43556 13.8569 9.49975 13.7119 9.55918C13.6881 9.56869 13.6572 9.55918 13.6263 9.55205C13.6192 9.55205 13.6097 9.54729 13.6026 9.54729C13.6786 9.47122 13.75 9.3999 13.8118 9.34047C13.8284 9.3262 13.8474 9.30718 13.8617 9.29292C13.8355 9.30956 13.8094 9.32858 13.7809 9.3476C13.7048 9.39752 13.6192 9.45933 13.5289 9.51876C13.517 9.52827 13.5051 9.53541 13.4932 9.54492H13.4884C13.4005 9.6091 13.3149 9.67091 13.2008 9.75412C13.2008 9.75412 13.2151 9.77076 13.2222 9.78027C13.3292 9.92053 13.391 9.97283 13.5241 10.0703C13.5312 10.0774 13.5384 10.0822 13.5479 10.0893C13.7404 9.92529 13.9259 9.75174 14.1184 9.57582C14.2587 9.44744 14.399 9.31669 14.5511 9.18832H14.5487ZM14.8411 7.83563C14.7294 7.89506 14.6153 7.95211 14.5036 8.01155C14.5036 8.01155 14.5107 8.02343 14.5131 8.03057C14.6248 7.96876 14.7365 7.90932 14.8483 7.84989C14.8483 7.84989 14.8435 7.84276 14.8411 7.84038V7.83563ZM18.9919 10.8952C18.9777 10.8881 18.9634 10.8762 18.9491 10.8691C18.923 10.8524 18.8968 10.8406 18.8754 10.8215C18.8683 10.8144 18.8659 10.8049 18.8636 10.7954C18.6924 10.9261 18.4856 11.0165 18.2692 11.0616C18.293 11.0854 18.3191 11.1092 18.3429 11.1306C18.3572 11.1425 18.3691 11.1544 18.3738 11.1686C18.3786 11.1829 18.3762 11.1971 18.3667 11.2185C18.3643 11.2209 18.3667 11.2233 18.3667 11.2257C18.3619 11.2376 18.3643 11.2518 18.3691 11.2637C18.3691 11.2708 18.3738 11.2804 18.3786 11.2827C18.3881 11.2899 18.4024 11.2899 18.4166 11.2899C18.419 11.2899 18.4238 11.2899 18.4285 11.2899C18.438 11.2899 18.4499 11.2875 18.457 11.2851C18.4808 11.2804 18.4998 11.2613 18.5212 11.2518C18.526 11.2494 18.5307 11.2447 18.5355 11.2447C18.6639 11.2328 18.7661 11.1734 18.8659 11.1068C18.8826 11.0973 18.9016 11.0854 18.9182 11.0735C18.9848 11.0284 19.0228 10.9808 18.9991 10.919C18.9967 10.9119 18.9967 10.9047 18.9919 10.8976V10.8952ZM18.7067 12.0031C18.7067 12.0031 18.69 11.9864 18.6853 11.9793L18.6686 11.9531L18.6639 11.9436C18.6639 11.9436 18.6496 11.927 18.6448 11.9175C18.6377 11.908 18.6306 11.8961 18.6234 11.8866C18.6139 11.8747 18.6068 11.8652 18.5997 11.8557C18.5735 11.8224 18.545 11.7915 18.4856 11.7986C18.4689 11.7986 18.4404 11.7701 18.4404 11.7606C18.4737 11.7011 18.4261 11.6702 18.3976 11.6298C18.3786 11.6013 18.3548 11.5728 18.3429 11.5395C18.3382 11.5252 18.3334 11.5133 18.3287 11.5014C18.312 11.4729 18.293 11.4563 18.2645 11.4539C18.2407 11.4539 18.2098 11.4563 18.167 11.4729C18.167 11.4729 18.1694 11.4753 18.1694 11.4777C18.1718 11.48 18.1741 11.4824 18.1765 11.4848C18.1551 11.5062 18.129 11.5419 18.1052 11.5442C18.0814 11.5442 18.0648 11.5371 18.0553 11.5252C18.0458 11.511 18.0458 11.4896 18.0505 11.4658C18.0529 11.4587 18.0481 11.4515 18.0458 11.442C18.0434 11.4373 18.041 11.4349 18.0362 11.4301C18.0315 11.4254 18.0291 11.4206 18.0244 11.4182H18.022C18.022 11.4182 18.0053 11.4135 17.9958 11.4135C17.9935 11.4135 17.9935 11.4159 17.9911 11.4159C17.9768 11.4159 17.9626 11.4182 17.9507 11.423C17.9103 11.4491 17.8722 11.48 17.8366 11.511C17.8152 11.53 17.7961 11.5537 17.789 11.5775C17.77 11.6417 17.7557 11.7059 17.7415 11.7701C17.7367 11.7891 17.732 11.8081 17.7272 11.8248C17.7153 11.8699 17.7058 11.9151 17.6844 11.9555C17.6844 11.9555 17.6749 11.9745 17.6701 11.984C17.8175 12.0078 17.9649 12.0316 18.1099 12.053C18.1551 12.0601 18.2027 12.0672 18.2478 12.0744C18.4119 12.0981 18.5783 12.1195 18.7423 12.1386H18.7447C18.7233 12.1005 18.7067 12.0601 18.709 12.0102C18.709 12.0078 18.7067 12.0054 18.7067 12.0031ZM18.3382 11.6465C18.3358 11.6465 18.3334 11.6417 18.331 11.6393C18.331 11.6393 18.3358 11.6441 18.3382 11.6441V11.6465ZM18.2954 11.6655C18.2906 11.6893 18.293 11.7154 18.293 11.7392C18.293 11.7416 18.293 11.7463 18.293 11.7487V11.7392C18.293 11.7154 18.293 11.6893 18.2954 11.6655C18.2954 11.656 18.3144 11.6441 18.3239 11.6346C18.3144 11.6441 18.2978 11.656 18.2954 11.6655ZM18.3215 11.7558C18.3215 11.7558 18.3168 11.7558 18.3144 11.7558C18.3144 11.7558 18.3191 11.7558 18.3215 11.7558C18.331 11.7273 18.3429 11.7011 18.3477 11.675C18.3429 11.7035 18.331 11.7297 18.3215 11.7582V11.7558ZM17.4158 2.43912C17.3991 2.48905 17.4158 2.51758 17.4467 2.54373C17.4538 2.55086 17.4609 2.55561 17.4704 2.56274C17.4823 2.56988 17.4942 2.57939 17.5037 2.59127C17.5085 2.59365 17.5132 2.5984 17.5132 2.60316C17.5228 2.62455 17.5346 2.63882 17.5489 2.6507C17.5655 2.66259 17.5822 2.66972 17.6036 2.67686C17.6155 2.67923 17.6202 2.68399 17.6274 2.68874C17.6321 2.6935 17.6369 2.6935 17.6416 2.69825C17.663 2.68874 17.6844 2.68161 17.7058 2.6721C17.7343 2.66021 17.7652 2.64833 17.7938 2.63644C17.7747 2.47478 17.8128 2.31075 17.8889 2.15385C17.8912 2.14909 17.8936 2.14434 17.896 2.13958C17.8389 2.14909 17.7843 2.1586 17.7272 2.16811C17.7106 2.17049 17.6915 2.17524 17.6725 2.17762C17.6559 2.18 17.6416 2.18 17.6321 2.17049C17.5489 2.2323 17.4657 2.29649 17.3849 2.36305C17.392 2.37256 17.4015 2.38445 17.4086 2.39871C17.4158 2.41297 17.4205 2.42724 17.4158 2.43912ZM15.9561 11.5086C15.9561 11.5086 15.9442 11.5062 15.9371 11.5062C15.9252 11.5014 15.9133 11.4967 15.899 11.4967C15.8872 11.4967 15.8753 11.4967 15.8634 11.5014C15.7968 11.5133 15.7326 11.5276 15.6661 11.5395C15.7089 11.5514 15.7517 11.5633 15.7944 11.5728C15.8705 11.5942 15.9466 11.6132 16.025 11.6346V11.6227C16.0274 11.5942 16.0227 11.5704 16.0108 11.5514C15.9989 11.5323 15.9799 11.5181 15.9561 11.5086ZM21.2147 9.67091C21.2147 9.67091 21.1909 9.64952 21.1672 9.64238H21.1648C21.141 9.63525 21.1077 9.64238 21.0863 9.6305C21.0459 9.60672 21.0055 9.60197 20.9627 9.60435C20.9128 9.6091 20.8629 9.62812 20.813 9.65189C20.7535 9.6828 20.7226 9.68993 20.6774 9.63763C20.6632 9.62099 20.6489 9.61148 20.6323 9.60435C20.6275 9.60197 20.6228 9.60197 20.6156 9.60197C20.6085 9.59959 20.6014 9.59722 20.5942 9.59722C20.5919 9.59722 20.5895 9.59721 20.5871 9.59959C20.5752 9.59959 20.5633 9.60435 20.5538 9.6091C20.5467 9.6091 20.5419 9.61386 20.5372 9.61623C20.5205 9.62812 20.5087 9.64476 20.5015 9.66378C20.4968 9.67567 20.492 9.68518 20.4896 9.69706C20.4659 9.7565 20.4421 9.81831 20.4136 9.87774C20.4041 9.90151 20.3874 9.92528 20.366 9.94193C20.3256 9.97283 20.3256 10.0037 20.3541 10.0346C20.3708 10.056 20.3922 10.0608 20.4159 10.056C20.4302 10.056 20.4468 10.0513 20.4635 10.0394C20.4849 10.0228 20.5087 10.0085 20.5301 9.99185C20.5514 9.97758 20.5728 9.9657 20.5895 9.95144C20.6133 9.93242 20.6347 9.91102 20.656 9.88725L20.7012 9.84208C20.6965 9.87298 20.6917 9.90627 20.687 9.93955C20.6822 9.97521 20.6917 9.9966 20.7345 9.9966C20.832 9.9966 20.9271 9.99185 21.0103 9.94668C21.034 9.93242 21.0554 9.9134 21.0768 9.89438C21.0816 9.88963 21.084 9.88963 21.0887 9.88487C21.1291 9.8397 21.1648 9.79215 21.2028 9.74461C21.2123 9.73272 21.2147 9.72084 21.2195 9.71133C21.2195 9.70895 21.2218 9.70657 21.2218 9.70419C21.2218 9.69706 21.2195 9.69231 21.2171 9.68517C21.2171 9.68042 21.2171 9.67567 21.2147 9.67091ZM20.656 9.01715C20.656 9.01715 20.6846 9.00764 20.6988 9.00289C20.7155 8.99576 20.7297 8.98862 20.7369 8.97911C20.763 8.94583 20.7916 8.9173 20.8225 8.89353C20.8748 8.85549 20.9366 8.8341 21.0174 8.85549C21.0293 8.85787 21.0436 8.85549 21.0578 8.85312C21.0626 8.85312 21.0697 8.85549 21.0768 8.85312C21.0959 8.84598 21.1244 8.83885 21.141 8.82934H21.1458C21.1458 8.82934 21.1529 8.81983 21.1553 8.81746C21.1553 8.8127 21.1577 8.80795 21.1577 8.80319C21.1577 8.79606 21.1553 8.78893 21.1529 8.77942C21.1505 8.76991 21.1458 8.75802 21.141 8.75089C21.1363 8.74614 21.1339 8.74138 21.1291 8.73663C21.0792 8.68195 21.0245 8.6344 20.9675 8.58448C20.9603 8.57735 20.9437 8.57497 20.9294 8.57497C20.9009 8.57259 20.8724 8.57022 20.8462 8.56784C20.832 8.56784 20.8177 8.56546 20.8034 8.56546C20.7987 8.56546 20.7939 8.56546 20.7892 8.56308C20.7773 8.56308 20.763 8.56071 20.7488 8.56071C20.7393 8.55833 20.7274 8.55833 20.7179 8.55595H20.706C20.6917 8.55595 20.6798 8.55833 20.6727 8.56546C20.656 8.5821 20.6394 8.61063 20.6323 8.63916C20.6228 8.66055 20.6204 8.68433 20.6251 8.70097C20.6513 8.75802 20.6347 8.80795 20.6133 8.85549C20.6085 8.865 20.6037 8.87451 20.599 8.88402C20.5728 8.9387 20.6037 8.96723 20.6465 9.01002C20.6513 9.0124 20.6537 9.01477 20.656 9.01715ZM18.7162 6.09781L18.7114 6.16913C18.7613 6.16675 18.8136 6.162 18.8659 6.15962C18.885 6.15962 18.9063 6.15724 18.9277 6.15724C18.9301 6.15486 18.9325 6.15249 18.9349 6.15011C18.8303 6.12396 18.7732 6.1097 18.7162 6.09781ZM19.8073 9.18594C19.8287 9.16454 19.8501 9.13126 19.8692 9.10987C19.9048 9.0647 19.9357 9.01477 19.9761 8.96961C20.007 8.93395 20.0142 8.91017 19.9904 8.8864C19.9833 8.87689 19.9738 8.86976 19.9619 8.86025C19.9143 8.82934 19.8715 8.79131 19.8359 8.7604C19.8644 8.71999 19.9001 8.68908 19.9167 8.65818H19.9191C19.9238 8.64629 19.9286 8.63678 19.931 8.62727C19.9357 8.58448 19.8977 8.54169 19.8763 8.49177C19.8763 8.49177 19.8779 8.49097 19.881 8.48939C19.8977 8.48463 19.9191 8.48225 19.9357 8.47275C19.9595 8.4561 19.9809 8.43233 20.0023 8.41331C19.9928 8.40618 19.9833 8.39905 19.9738 8.39192C19.9643 8.38479 19.9524 8.37765 19.9405 8.37528C19.8882 8.36339 19.8668 8.33724 19.8644 8.30633C19.9143 8.27543 19.9547 8.24928 19.9952 8.2255C19.9714 8.1946 19.9524 8.15656 19.9215 8.13755C19.9048 8.12566 19.8906 8.12328 19.8787 8.12566C19.8573 8.12804 19.843 8.14705 19.8287 8.1637C19.8549 8.0686 19.8763 7.97113 19.8929 7.87604C19.9072 7.87842 19.9215 7.88317 19.9381 7.8903C19.95 7.89506 19.9643 7.90219 19.9785 7.90457C20.0475 7.91645 20.1425 7.85702 20.1901 7.78332C20.2115 7.75004 20.2258 7.71201 20.2162 7.67872C20.1948 7.59076 20.1473 7.50518 20.0855 7.43861C20.0522 7.40295 20.0308 7.37443 20.0237 7.32926C20.0237 7.31737 20.0142 7.30786 20.007 7.29122C20.007 7.29122 20.0063 7.29043 20.0047 7.28884C20.0047 7.28884 19.9928 7.27458 19.988 7.26269C19.9785 7.28884 19.9714 7.31024 19.9643 7.32926C19.9571 7.35065 19.95 7.36967 19.9476 7.37918C19.8858 7.38394 19.8406 7.39107 19.7955 7.39107C19.7432 7.39107 19.6932 7.39107 19.6457 7.38156C19.6433 7.38156 19.6409 7.38156 19.6386 7.37443C19.6314 7.36016 19.629 7.33401 19.6338 7.32213C19.6409 7.30311 19.6433 7.28647 19.6409 7.26982C19.6409 7.26745 19.6433 7.26269 19.6433 7.26032C19.7503 7.25556 19.7598 7.13194 19.9429 7.09866C19.9524 7.10341 19.9619 7.10817 19.9738 7.11055C19.9975 7.11055 20.0308 7.1153 20.0427 7.12956C20.0617 7.15334 20.076 7.17949 20.0926 7.20564C20.1093 7.23179 20.1259 7.26032 20.1449 7.28409C20.1639 7.31024 20.202 7.33164 20.2353 7.33401C20.2519 7.33639 20.2876 7.29598 20.2971 7.26982C20.3137 7.22228 20.3137 7.17711 20.2923 7.13432C20.2852 7.12243 20.2733 7.10817 20.2614 7.0939C20.2281 7.05824 20.2139 7.00832 20.259 6.9584C20.2733 6.94413 20.2828 6.92987 20.2876 6.91798H20.2899C20.2947 6.9061 20.2947 6.89659 20.2876 6.88708C20.2804 6.87519 20.2662 6.86568 20.24 6.85617C20.2258 6.84904 20.2091 6.84666 20.1925 6.84666H20.1853C20.1687 6.84666 20.1497 6.85142 20.1307 6.85855C20.1259 6.86093 20.1212 6.8633 20.1164 6.86568C20.0974 6.87519 20.0784 6.88708 20.0641 6.90134C20.0641 6.90134 20.0625 6.90293 20.0593 6.9061C20.0475 6.91798 20.0379 6.92987 20.0284 6.94176C20.0094 6.96315 19.9904 6.98455 19.9714 7.00832C19.969 7.00594 19.969 7.00357 19.969 7.00119C19.9643 6.80625 19.9452 6.62082 19.9119 6.43301C19.8929 6.31177 19.8668 6.18577 19.8383 6.0574C19.8715 6.06691 19.9072 6.07404 19.9405 6.06928C19.9738 6.06453 20.007 6.05502 20.0403 6.04789C20.0736 6.03838 20.1045 6.03362 20.1354 6.02649C20.1449 6.02411 20.1521 6.02174 20.1616 6.01936C20.1901 6.0146 20.2186 6.01698 20.2376 6.03362C20.2448 6.04075 20.2495 6.04789 20.2543 6.0574C20.2614 6.07641 20.2709 6.08592 20.2781 6.09305C20.3042 6.11683 20.3351 6.09543 20.3708 6.06691C20.4041 6.03362 20.4421 6.00509 20.4801 5.97657C20.4825 5.97419 20.4873 5.96943 20.4896 5.96706C20.4991 5.97181 20.5039 5.97419 20.511 5.97894C20.5134 5.97894 20.5182 5.98132 20.5205 5.9837C20.5134 6.03124 20.5063 6.08117 20.4991 6.13109C20.4968 6.14773 20.4944 6.16437 20.4944 6.18339C20.5063 6.18102 20.5182 6.17626 20.5324 6.17388C20.5396 6.17388 20.5467 6.17151 20.5538 6.16913C20.5633 6.16675 20.5705 6.162 20.5776 6.15724C20.6014 6.14536 20.6228 6.13347 20.6489 6.12634C20.6584 6.12396 20.6679 6.12634 20.6798 6.13109C20.687 6.13585 20.6965 6.13822 20.7036 6.1406C20.6965 6.15724 20.687 6.17151 20.6774 6.18577C20.6703 6.19766 20.6608 6.20954 20.6513 6.21905C20.6418 6.23094 20.637 6.24045 20.6299 6.24996C20.6228 6.25947 20.6156 6.26898 20.6133 6.27849C20.6133 6.28324 20.6109 6.28799 20.6109 6.29275C20.6109 6.31652 20.6251 6.34267 20.6323 6.36882C20.6442 6.35931 20.6584 6.35218 20.6727 6.34267C20.6774 6.34267 20.6846 6.33316 20.6893 6.33079C20.7012 6.32128 20.7107 6.31415 20.7179 6.30464C20.7511 6.26184 20.7725 6.20954 20.7987 6.15962C20.8011 6.15487 20.8034 6.14773 20.8034 6.14298C20.8106 6.08355 20.8177 6.02649 20.8177 5.96943V5.93853C20.8153 5.91238 20.8177 5.89098 20.8225 5.87434C20.8391 5.82204 20.8866 5.81253 20.9461 5.8054C20.9794 5.80065 21.0079 5.78163 21.034 5.75785C21.084 5.70793 21.1125 5.63661 21.0792 5.58193C21.0768 5.57718 21.0745 5.5748 21.0697 5.57005C21.0626 5.55578 21.0531 5.5439 21.0507 5.52963C21.0364 5.38462 20.9128 5.27526 20.9176 5.12311V5.11836C20.9176 5.11836 20.9128 5.1136 20.9104 5.11122C20.9104 5.10885 20.908 5.10885 20.908 5.10647C20.9057 5.10409 20.9033 5.10409 20.9033 5.10409C20.889 5.08745 20.8748 5.07794 20.8605 5.06843C20.8557 5.06606 20.8486 5.06368 20.8415 5.0613C20.832 5.05892 20.8201 5.05655 20.8082 5.05417C20.8082 5.05417 20.8011 5.05179 20.7987 5.05179C20.7939 5.05179 20.7892 5.05417 20.7868 5.05417C20.763 5.05655 20.7393 5.0613 20.7131 5.06843C20.6846 5.08032 20.6537 5.09221 20.6251 5.10172C20.5919 5.1136 20.5586 5.12549 20.5229 5.12787H20.5063C20.4849 5.12787 20.4659 5.12549 20.4445 5.11836C20.4373 5.11598 20.4254 5.12073 20.4136 5.12311C20.3993 5.12311 20.3898 5.12549 20.3755 5.13262C20.3636 5.13738 20.3494 5.14451 20.3399 5.15164C20.3208 5.17066 20.3042 5.17779 20.2876 5.18254C20.2709 5.18492 20.2543 5.18254 20.2329 5.17303H20.2305C20.2139 5.16828 20.1972 5.17066 20.1806 5.16828C20.1235 5.16828 20.0712 5.19205 20.0403 5.23722C20.0261 5.25862 20.0166 5.28239 20.0118 5.30854C20.0118 5.32756 20.007 5.34896 19.9952 5.35846C19.9738 5.37748 19.9619 5.3965 19.9547 5.41314C19.9333 5.46782 19.9547 5.52488 19.9619 5.57718C19.9619 5.60333 19.9619 5.62235 19.9595 5.64137C19.9547 5.66038 19.9452 5.6794 19.9262 5.69842C19.9215 5.70318 19.9167 5.71031 19.9119 5.71506C19.8977 5.73408 19.881 5.7531 19.8715 5.77212C19.8692 5.7745 19.8668 5.77925 19.8668 5.78163C19.862 5.79114 19.8596 5.80065 19.8596 5.81015C19.862 5.85057 19.8478 5.88385 19.8311 5.91476C19.8264 5.92189 19.8216 5.9314 19.8145 5.93853C19.8145 5.93378 19.8145 5.92902 19.8145 5.92427C19.7313 5.69129 19.66 5.45831 19.5316 5.27288C19.5102 5.27526 19.4603 5.30141 19.4032 5.32994C19.2772 5.3965 19.106 5.49635 19.0609 5.50824C18.8802 5.54865 18.6995 5.58669 18.5188 5.62472C18.3738 5.65325 18.2288 5.68416 18.0838 5.71506C18.1409 5.72219 18.2003 5.72457 18.2573 5.72695C18.3643 5.72933 18.4713 5.72933 18.5735 5.74834C18.5997 5.7531 18.6234 5.784 18.6448 5.82204C18.6472 5.8268 18.652 5.83393 18.6567 5.84106C18.6757 5.8791 18.6948 5.92189 18.7162 5.95517C18.7138 5.95517 18.7114 5.95517 18.709 5.95755C18.8017 5.97894 18.8873 5.99796 18.9729 6.01936C19.0252 6.03125 19.0751 6.04313 19.1274 6.05502C19.1251 6.08592 19.1227 6.11445 19.1203 6.14536C19.0751 6.14773 19.0323 6.15011 18.9872 6.15249C18.9682 6.15486 18.9491 6.15486 18.9325 6.15724C18.9301 6.15724 18.9277 6.15724 18.9277 6.15962C18.8659 6.20241 18.8208 6.23569 18.7803 6.26184C18.7803 6.26422 18.778 6.26422 18.778 6.26422L18.9254 6.27611C18.942 6.2975 18.961 6.32128 18.98 6.34267C18.885 6.38071 18.7922 6.42112 18.6995 6.45916C18.6995 6.45916 18.6995 6.45916 18.6995 6.46392C18.7019 6.46867 18.709 6.48056 18.7328 6.51859C18.728 6.52335 18.7233 6.53286 18.7138 6.54474C18.709 6.55425 18.7019 6.56376 18.6924 6.56852C18.6472 6.58991 18.5997 6.60655 18.5569 6.62795C18.5402 6.63746 18.5236 6.64935 18.5093 6.66123C18.5046 6.66599 18.4974 6.66836 18.4927 6.67074C18.4737 6.68976 18.4547 6.71116 18.438 6.73968C18.4238 6.76346 18.4071 6.78248 18.3833 6.79912C18.3168 6.84666 18.2145 6.85855 18.1385 6.7801C18.1385 6.78248 18.1361 6.78248 18.1361 6.78485C18.003 6.88232 17.8746 6.97742 17.7724 7.05587C17.77 7.05587 17.7676 7.05587 17.7676 7.05824C17.7676 7.05824 17.8057 7.09153 17.877 7.15096C17.732 7.20564 17.6226 7.24605 17.5156 7.28647C17.7034 7.2722 17.8104 7.26269 17.8746 7.26269C17.9388 7.26269 17.9578 7.2722 17.9744 7.29122C17.9792 7.29835 17.9839 7.30548 17.9887 7.31262C17.4895 7.51469 16.9902 7.71914 16.491 7.92359C16.5362 7.91408 16.579 7.89981 16.6241 7.8903C16.9379 7.81661 17.247 7.72865 17.5513 7.62642C17.6678 7.58839 17.7819 7.54084 17.896 7.50042C18.0814 7.43861 18.2668 7.39582 18.4761 7.43624C18.5402 7.44812 18.6163 7.44337 18.6876 7.42435C18.7304 7.41484 18.7732 7.3982 18.8089 7.37918C19.0252 7.25318 19.1702 7.21515 19.3461 7.22466C19.3652 7.37443 19.3723 7.5242 19.3771 7.67397C19.339 7.67872 19.301 7.68348 19.2629 7.69061C19.1892 7.70012 19.1156 7.70963 19.0419 7.72152C18.9658 7.73102 18.8897 7.74291 18.816 7.75717C18.6139 7.78808 18.4214 7.82374 18.255 7.84989C18.2597 7.85227 18.2692 7.85702 18.2764 7.86178C18.2811 7.86415 18.2859 7.86653 18.2906 7.87129C18.2502 7.90932 18.2122 7.94498 18.1694 7.9854H18.1622C18.1622 7.9854 18.1622 7.98777 18.1599 7.98777C18.1599 7.98777 18.1591 7.98936 18.1575 7.99253C18.1456 7.99728 18.1361 8.00442 18.1313 8.00679C18.1361 8.00917 18.1504 8.0163 18.1622 8.02106C18.1622 8.02343 18.1646 8.02343 18.1646 8.02343L18.1694 8.02819C18.1813 8.0377 18.1884 8.04958 18.1979 8.05909C18.2431 8.11615 18.2312 8.15656 18.1955 8.18747C18.1694 8.21124 18.1313 8.23026 18.0957 8.24928C17.8175 8.39667 17.5299 8.52267 17.2612 8.68433C17.0568 8.80795 16.8714 8.96247 16.6717 9.0956C16.6313 9.12175 16.5932 9.15028 16.5504 9.17405C16.4553 9.23111 16.3579 9.28341 16.2628 9.34047C15.9109 9.54254 15.5591 9.74223 15.2025 9.93955C15.1003 9.9966 14.998 10.0537 14.8958 10.1083C14.8839 10.1155 14.8697 10.1178 14.8578 10.1202C14.8316 10.125 14.8031 10.1274 14.7746 10.1274C14.7532 10.125 14.7318 10.125 14.7128 10.1274C14.7128 10.1226 14.7104 10.1178 14.7104 10.1155C14.708 10.106 14.708 10.0965 14.7056 10.0869C14.5559 10.182 14.399 10.2819 14.2349 10.3865C14.1826 10.4198 14.1327 10.453 14.0756 10.4863C14.4655 10.7074 14.8554 10.8619 15.2429 10.957C15.2572 11.0212 15.2714 11.0854 15.2809 11.1496C15.2809 11.1591 15.2809 11.171 15.2809 11.1805C15.2833 11.2043 15.2857 11.2281 15.2857 11.2494H15.2881C15.376 11.2518 15.4688 11.2518 15.5591 11.2542C15.5829 11.2542 15.5947 11.2471 15.6019 11.2352C15.6066 11.2233 15.609 11.209 15.609 11.1924V11.0307C15.7231 11.0474 15.8396 11.0545 15.9561 11.0616V11.0759C15.9775 11.1734 16.0583 11.1948 16.1082 11.2566C16.1439 11.2613 16.1796 11.2661 16.2152 11.2685C16.2295 11.2708 16.2461 11.2732 16.2604 11.2732C16.2675 11.2708 16.277 11.2661 16.2865 11.259C16.2889 11.2566 16.2913 11.2566 16.2937 11.2542C16.2937 11.2542 16.2945 11.2534 16.2961 11.2518C16.2961 11.2518 16.3151 11.2328 16.3175 11.2257C16.3175 11.2257 16.3175 11.2209 16.3175 11.2185C16.3341 11.171 16.3388 11.1211 16.3531 11.0711C16.3555 11.0664 16.3531 11.0616 16.3555 11.0569C16.5338 11.0426 16.7097 11.0165 16.888 10.9761C17.2256 10.9 17.5632 10.774 17.8984 10.5981C18.4689 10.2961 18.942 9.84921 19.2891 9.33571C19.2891 9.37375 19.2843 9.41416 19.2843 9.4522C19.301 9.46171 19.3176 9.46884 19.3366 9.47835C19.3414 9.48073 19.3485 9.4831 19.3533 9.48786C19.3652 9.49261 19.3794 9.49261 19.3913 9.49737C19.4175 9.50688 19.4436 9.51876 19.4698 9.52352C19.4935 9.5259 19.5173 9.52352 19.5435 9.52114C19.5506 9.52114 19.5577 9.52114 19.5649 9.52114C19.5649 9.51876 19.5649 9.51401 19.5625 9.50925C19.5601 9.49024 19.5577 9.47597 19.5506 9.45933C19.5482 9.45458 19.5482 9.44744 19.5435 9.44269C19.5149 9.40941 19.4745 9.38563 19.4436 9.35473C19.4436 9.35473 19.4428 9.35394 19.4412 9.35235C19.4412 9.35235 19.4341 9.33571 19.4317 9.3262V9.31907C19.4317 9.31907 19.4317 9.2953 19.4365 9.29054C19.446 9.27628 19.4508 9.26439 19.4555 9.2525C19.4579 9.25013 19.4603 9.25013 19.4603 9.24775V9.243C19.4745 9.20258 19.4721 9.16217 19.4674 9.117C19.4674 9.09798 19.4674 9.07658 19.4674 9.05756V9.05043C19.5126 8.96723 19.5554 8.88402 19.5958 8.79844H19.5981C19.6124 8.82934 19.6243 8.86025 19.6314 8.89115C19.6314 8.89353 19.6314 8.89828 19.6362 8.90304C19.6409 8.91968 19.6433 8.9387 19.6409 8.95534C19.6386 8.96009 19.6409 8.96485 19.6386 8.96961C19.61 9.03141 19.6243 9.08609 19.6552 9.13126C19.6837 9.16692 19.7289 9.20496 19.7741 9.21209C19.7836 9.21209 19.7955 9.20258 19.8073 9.18832V9.18594ZM17.3135 9.39277C17.2636 9.41892 17.2161 9.44507 17.1685 9.47122C17.2185 9.44507 17.266 9.41892 17.3159 9.39277H17.3135ZM17.8437 9.05281C17.8437 9.05281 17.8199 9.03617 17.808 9.03617C17.7914 9.03617 17.7747 9.0433 17.7581 9.05043C17.5275 9.15028 17.2708 9.21922 17.14 9.44269C17.1352 9.43794 17.1329 9.43318 17.1305 9.4308C17.3754 8.87213 17.8603 8.67244 18.3239 8.44184C18.3738 8.41807 18.4238 8.39429 18.4737 8.36814C18.5688 8.31822 18.6567 8.29207 18.7114 8.49177C18.4238 8.6772 18.1337 8.865 17.8437 9.05281ZM21.2076 6.88708C21.2171 6.84666 21.229 6.80863 21.2409 6.77059C21.2456 6.77534 21.2504 6.78248 21.2575 6.78723H21.2599C21.2884 6.77772 21.3312 6.77059 21.336 6.7587C21.3383 6.74206 21.3407 6.72542 21.3407 6.70878C21.3407 6.70402 21.3383 6.70165 21.3383 6.69927C21.3383 6.68501 21.336 6.67312 21.3312 6.66361C21.3288 6.65886 21.3265 6.65886 21.3241 6.65648C21.3122 6.64459 21.2955 6.63508 21.2789 6.62557C21.2528 6.61131 21.2266 6.6018 21.1981 6.59942C21.1886 6.59705 21.1814 6.59705 21.1743 6.59705C21.1101 6.58991 21.0531 6.5804 21.034 6.50433C21.0317 6.50433 21.0269 6.50909 21.0245 6.51146C21.0198 6.51384 21.0174 6.51384 21.0126 6.51622C21.0031 6.55663 20.9912 6.59705 20.9794 6.63984C20.9675 6.68263 20.9508 6.72304 20.9389 6.76583C20.9342 6.78723 20.9342 6.8015 20.9318 6.81814C20.9223 6.90134 20.9532 6.94651 21.034 6.95602C21.0578 6.9584 21.0816 6.96077 21.1149 6.96077C21.1482 6.9584 21.1695 6.94651 21.1838 6.92749C21.1933 6.91798 21.2028 6.9061 21.2076 6.88708ZM21.985 3.13805C21.985 3.13805 21.9897 3.14994 21.9921 3.1547C22.0087 3.19273 22.0396 3.19511 22.0824 3.17609C22.1229 3.15945 22.1419 3.1333 22.1371 3.10239C22.1347 3.09289 22.13 3.081 22.1229 3.06911H22.1205C22.1205 3.06911 22.1157 3.05723 22.1133 3.05485C22.1015 3.03583 22.0896 3.01919 22.0777 3.00492C22.0753 3.00255 22.0729 3.00017 22.0706 2.99779C22.061 2.98828 22.0492 2.97877 22.0349 2.96926C22.0278 2.96451 22.0182 2.96213 22.0087 2.95738C21.9969 2.95025 21.985 2.94549 21.9731 2.94074C21.9612 2.93598 21.9541 2.9336 21.9422 2.93123C21.9303 2.92647 21.916 2.9241 21.9041 2.92172C21.8946 2.91934 21.8875 2.91934 21.878 2.91696H21.8661C21.8661 2.91696 21.8423 2.91934 21.8328 2.92172C21.7615 2.95738 21.6973 3.00017 21.6307 3.04058C21.6355 3.05723 21.6426 3.07149 21.6474 3.08813C21.6498 3.09526 21.6521 3.10239 21.6521 3.10715H21.7853C21.8186 3.10477 21.8495 3.10002 21.8827 3.09526C21.8994 3.09526 21.916 3.09289 21.9303 3.09289C21.9541 3.09526 21.9826 3.11904 21.9873 3.13805H21.985ZM21.4382 5.57718C21.4382 5.57718 21.4477 5.5748 21.4524 5.57005C21.4572 5.56529 21.462 5.55816 21.4643 5.5534C21.4952 5.5011 21.5048 5.45118 21.4929 5.40601C21.4881 5.39175 21.4834 5.37748 21.4738 5.36322C21.4715 5.35846 21.4667 5.35371 21.462 5.34896C21.4453 5.32756 21.4239 5.30854 21.393 5.2919C21.393 5.2919 21.3906 5.2919 21.3906 5.28952H21.3883C21.3692 5.28001 21.3502 5.27526 21.3312 5.27288C21.3288 5.27288 21.3265 5.27288 21.3241 5.27288C21.3193 5.27288 21.3169 5.27764 21.3122 5.27764C21.3003 5.28001 21.286 5.28239 21.2742 5.28952C21.2694 5.2919 21.2646 5.29665 21.2575 5.29903C21.2409 5.3133 21.2266 5.32994 21.2123 5.35371C21.21 5.3656 21.1957 5.38937 21.1957 5.41077H21.1933V5.41552C21.1981 5.46069 21.1933 5.53676 21.2218 5.54865C21.2837 5.57718 21.3645 5.57242 21.4382 5.57956V5.57718ZM20.4659 9.2739C20.4659 9.2739 20.4611 9.25726 20.4587 9.25013L20.4516 9.243C20.4516 9.243 20.4445 9.23111 20.4421 9.22873C20.4255 9.22635 20.4136 9.2216 20.4041 9.2216C20.4017 9.2216 20.3969 9.21922 20.3969 9.21922H20.3898C20.3755 9.2216 20.3613 9.22398 20.347 9.22635C20.2923 9.23586 20.2376 9.24537 20.1901 9.26439C20.183 9.26677 20.1758 9.26677 20.1687 9.26915C20.1354 9.28579 20.1188 9.34998 20.1116 9.39514C20.1116 9.40228 20.1164 9.41416 20.1188 9.42367C20.1212 9.42843 20.1212 9.43318 20.1235 9.43793C20.133 9.4522 20.1449 9.46409 20.1568 9.46884C20.1735 9.47597 20.1901 9.48073 20.2067 9.48073C20.2281 9.4831 20.2519 9.48073 20.2733 9.47597C20.3731 9.45458 20.4659 9.36899 20.4659 9.2739ZM19.3889 5.02089H19.3913C19.3913 5.02089 19.3985 5.03753 19.4032 5.0399C19.4127 5.04466 19.4222 5.04941 19.4294 5.05417C19.4531 5.06368 19.4769 5.07556 19.5007 5.07794C19.5173 5.07794 19.5316 5.07794 19.5482 5.0827C19.5696 5.08507 19.591 5.08507 19.6124 5.08745C19.629 5.08745 19.6433 5.08745 19.6576 5.08983C19.7289 5.09458 19.7788 5.04228 19.7479 4.9876C19.7432 4.98285 19.7408 4.97572 19.7384 4.97096C19.7313 4.95908 19.7218 4.94957 19.7146 4.94006C19.698 4.91866 19.679 4.89727 19.6623 4.87349H19.6576C19.6409 4.86874 19.6219 4.86636 19.6029 4.86636H19.591C19.591 4.86636 19.5696 4.87112 19.5577 4.87112C19.5435 4.87349 19.5292 4.87825 19.5149 4.883C19.5031 4.88776 19.4935 4.89013 19.484 4.89489C19.4698 4.9044 19.4579 4.91153 19.446 4.92104C19.4365 4.92579 19.4294 4.93055 19.4222 4.93768C19.4056 4.95432 19.3937 4.97334 19.3866 4.99474C19.3866 4.99949 19.3889 5.00425 19.3889 5.01138V5.02089ZM21.4001 7.42197C21.4001 7.42197 21.3883 7.41246 21.3788 7.41246C21.3788 7.41246 21.3788 7.41246 21.3764 7.41246H21.374C21.3074 7.42911 21.2361 7.44575 21.1719 7.46952C21.1648 7.4719 21.1553 7.48378 21.1505 7.49805C21.1458 7.50993 21.1434 7.52658 21.1458 7.53371C21.1529 7.56223 21.1648 7.58839 21.1767 7.61454C21.1838 7.63118 21.1933 7.6502 21.2028 7.66921C21.2171 7.7025 21.2337 7.7334 21.267 7.73816C21.2813 7.73816 21.2955 7.73578 21.3122 7.72627C21.374 7.70012 21.412 7.62167 21.3811 7.57888C21.355 7.54084 21.3502 7.51231 21.4001 7.4719C21.4001 7.46239 21.4049 7.44337 21.4001 7.42673V7.42197ZM22.1514 7.41246C22.1514 7.41246 22.1466 7.41009 22.1442 7.41009C22.1347 7.40533 22.1229 7.40296 22.1133 7.40296H22.111C22.111 7.40296 22.1062 7.40296 22.1038 7.40296C22.0943 7.40533 22.0872 7.40771 22.0801 7.41246C22.0753 7.41246 22.0729 7.41484 22.0706 7.41722C22.061 7.42435 22.0539 7.43386 22.0468 7.44812C22.0159 7.50042 22.0016 7.54322 22.004 7.57888C22.0064 7.58363 22.0087 7.58601 22.0087 7.59076C22.0159 7.61691 22.0325 7.63831 22.0634 7.65257C22.0896 7.66446 22.1181 7.66446 22.1442 7.65733C22.1728 7.64782 22.1965 7.63118 22.2132 7.60027C22.2417 7.55273 22.2393 7.50518 22.2156 7.46714C22.2013 7.44337 22.1799 7.42673 22.1514 7.41246ZM20.1877 6.71591C20.2139 6.71829 20.2495 6.69214 20.2709 6.66837C20.2709 6.66599 20.2757 6.65648 20.2757 6.64935C20.2781 6.63746 20.2757 6.62795 20.2733 6.61844C20.2733 6.61369 20.2733 6.60893 20.2685 6.60655C20.2495 6.57803 20.2186 6.55901 20.1877 6.53048H20.0855C20.0617 6.53048 20.0379 6.53048 20.0142 6.53048C20.007 6.53048 19.988 6.56614 19.988 6.58278V6.58991C19.9999 6.60655 20.0118 6.6232 20.0261 6.63746C20.0665 6.68025 20.1212 6.70878 20.1877 6.71353V6.71591ZM19.0918 11.946C19.0918 11.946 19.087 11.9436 19.0846 11.9412C19.0728 11.9294 19.0609 11.9199 19.0419 11.9199C19.0205 11.9199 18.9943 11.927 18.9586 11.9436C18.9491 11.9484 18.9396 11.9555 18.9301 11.9603C18.9182 11.9674 18.9063 11.9722 18.8968 11.9817C18.8802 11.9959 18.8707 12.0173 18.8564 12.0363C18.8683 12.0411 18.8802 12.0482 18.8921 12.0554C18.8992 12.0577 18.9063 12.0625 18.9135 12.0625H18.9159C18.9396 12.0649 18.9586 12.072 18.9682 12.0815C18.9729 12.091 18.9753 12.1029 18.9729 12.1172C18.9705 12.1243 18.9705 12.1291 18.9682 12.1362C19.0014 12.1505 19.0371 12.1718 19.0656 12.1409C19.0704 12.1362 19.0775 12.1338 19.0823 12.1267C19.0894 12.11 19.0965 12.0934 19.1013 12.0768C19.106 12.0601 19.1084 12.0435 19.1084 12.0268C19.1084 11.9983 19.1037 11.9793 19.0989 11.9626C19.0989 11.9555 19.0942 11.9508 19.0918 11.946ZM21.84 4.84021C21.84 4.84021 21.8304 4.83308 21.8209 4.8307C21.8209 4.8307 21.8178 4.82912 21.8114 4.82595C21.8114 4.82595 21.7948 4.82119 21.7853 4.82119H21.7829C21.7829 4.82119 21.7734 4.82119 21.771 4.82119C21.7496 4.83308 21.7235 4.8521 21.7068 4.87112C21.6973 4.88062 21.6878 4.89251 21.6878 4.90202C21.6854 4.92342 21.6902 4.94481 21.6926 4.96621C21.6973 4.98523 21.7021 5.00187 21.7092 5.01851C21.7163 5.0304 21.7187 5.04466 21.7258 5.05655C21.7354 5.07081 21.7496 5.07556 21.7639 5.07556C21.79 5.07794 21.8186 5.05655 21.8423 5.009C21.8423 4.99236 21.8447 4.97096 21.8447 4.94957V4.91391C21.8447 4.89013 21.8423 4.86636 21.84 4.84021ZM21.6236 6.41875C21.6498 6.40686 21.6759 6.40211 21.6997 6.39022C21.7211 6.38071 21.7472 6.36882 21.7639 6.35694C21.7734 6.35218 21.7781 6.34505 21.7805 6.3403C21.7853 6.30464 21.7615 6.26898 21.7544 6.24758C21.7401 6.24045 21.7211 6.23807 21.7044 6.23807C21.6997 6.23807 21.6949 6.24045 21.6902 6.24045C21.6807 6.24045 21.6735 6.24283 21.6664 6.2452C21.6498 6.2452 21.6355 6.25234 21.6212 6.25947C21.6117 6.26422 21.6046 6.2666 21.5975 6.27135C21.5832 6.28086 21.5737 6.29037 21.5618 6.29988C21.5571 6.30701 21.5523 6.30939 21.5475 6.31415C21.5357 6.33079 21.5261 6.3498 21.5261 6.36645C21.5261 6.3712 21.5285 6.37596 21.5285 6.38071C21.5357 6.42112 21.5689 6.43777 21.6141 6.42112C21.6189 6.41875 21.6212 6.41875 21.6236 6.41875ZM18.9539 11.7891V11.7843C18.9539 11.7843 18.9586 11.7772 18.9586 11.7748C18.9563 11.7748 18.9563 11.7748 18.9563 11.7701C18.9515 11.7653 18.9396 11.7582 18.9325 11.7582C18.8731 11.7629 18.8136 11.7653 18.7566 11.7748C18.7328 11.7796 18.7114 11.7986 18.671 11.82H18.6686C18.6876 11.8628 18.6995 11.9056 18.7209 11.9389C18.7376 11.9603 18.7542 11.9698 18.7708 11.9674C18.7851 11.965 18.7994 11.9555 18.8136 11.9412C18.8136 11.9365 18.8208 11.9341 18.8255 11.927C18.8612 11.8842 18.904 11.8462 18.942 11.8034C18.9468 11.7986 18.9491 11.7939 18.9539 11.7891ZM21.7591 8.49177C21.7591 8.49177 21.7401 8.48701 21.7306 8.48701C21.7258 8.48701 21.7235 8.48701 21.7211 8.48939H21.7044C21.7044 8.48939 21.6831 8.49414 21.6735 8.4989C21.6664 8.50127 21.6617 8.50128 21.6569 8.50365C21.645 8.50841 21.6379 8.51316 21.6284 8.52029C21.6236 8.52029 21.6165 8.52505 21.6141 8.5298C21.6046 8.53693 21.5998 8.54407 21.5927 8.5512C21.5903 8.55357 21.5856 8.55595 21.5856 8.56071C21.5618 8.60112 21.5832 8.64391 21.6331 8.67244C21.6379 8.67482 21.6426 8.67957 21.6498 8.68195H21.6545C21.683 8.69384 21.7092 8.68908 21.7282 8.67482C21.7353 8.67006 21.7449 8.66769 21.7496 8.66055H21.752C21.7615 8.64153 21.7639 8.62727 21.771 8.61063C21.7758 8.59637 21.7853 8.57973 21.7877 8.57022C21.79 8.56308 21.7877 8.55833 21.7877 8.55358C21.7877 8.53693 21.79 8.52029 21.7829 8.51078C21.7781 8.50127 21.771 8.49414 21.7591 8.49177ZM22.1514 5.98132C22.1656 5.96706 22.1633 5.93615 22.168 5.91713C22.1252 5.91713 22.0848 5.91713 22.0492 5.91476H21.9255C21.9255 5.91476 21.9136 5.91951 21.9089 5.92427C21.9065 5.92664 21.9041 5.92902 21.9041 5.9314C21.9041 5.94566 21.9041 5.96468 21.9089 5.98132C21.9089 5.99321 21.9113 6.0051 21.9184 6.00747C21.9374 6.01698 21.9493 6.03838 21.9659 6.05502C21.9659 6.05502 21.9683 6.05502 21.9683 6.0574H21.9707C21.9873 6.07404 22.0064 6.08117 22.0396 6.06453C22.0801 6.04075 22.1205 6.0146 22.1514 5.98132ZM20.2234 8.1637C20.2234 8.1637 20.202 8.15656 20.1901 8.15656H20.1877C20.1877 8.15656 20.183 8.15656 20.1806 8.15656C20.1735 8.15656 20.1687 8.15894 20.1616 8.1637C20.1592 8.1637 20.1568 8.1637 20.1544 8.16845C20.1473 8.1732 20.1425 8.18034 20.1378 8.18747C20.1354 8.19222 20.133 8.19222 20.1307 8.19698C20.114 8.23026 20.1045 8.26116 20.1259 8.28494C20.1307 8.29207 20.1402 8.2992 20.1544 8.30633C20.1996 8.32773 20.3066 8.30158 20.3375 8.25879C20.3446 8.2469 20.3494 8.23739 20.3494 8.23026C20.3518 8.22075 20.3518 8.21362 20.347 8.20649C20.3422 8.19698 20.3304 8.18985 20.3113 8.18747C20.2828 8.18271 20.2519 8.17796 20.2281 8.16607C20.2281 8.16607 20.2265 8.16607 20.2234 8.16607V8.1637ZM19.8929 10.6932H19.881C19.8644 10.6932 19.8478 10.6932 19.8311 10.6955C19.8121 10.6955 19.7812 10.7074 19.7788 10.7193C19.7741 10.7359 19.7717 10.755 19.7693 10.774C19.7693 10.793 19.7669 10.8096 19.7669 10.8263C19.8169 10.831 19.8549 10.8358 19.8929 10.8358C19.9096 10.8358 19.931 10.8263 19.9381 10.8168C19.9595 10.7764 19.9738 10.7359 19.9928 10.6932H19.8929ZM20.4255 8.46561C20.4255 8.46561 20.4326 8.46324 20.4373 8.46086C20.4445 8.45848 20.454 8.45373 20.4564 8.45135C20.4825 8.40856 20.4825 8.37765 20.4682 8.35626C20.4659 8.35388 20.4635 8.35388 20.4635 8.35388C20.454 8.33962 20.4421 8.33011 20.4255 8.32535C20.4207 8.32298 20.4159 8.32298 20.4112 8.32298C20.4017 8.32298 20.3922 8.32535 20.3827 8.32773C20.3779 8.33011 20.3755 8.33011 20.3684 8.33249C20.3518 8.33962 20.3351 8.34675 20.3208 8.35626C20.3208 8.35626 20.3161 8.38716 20.3304 8.41094C20.3304 8.41331 20.3304 8.41569 20.3304 8.41569C20.3375 8.42758 20.347 8.43709 20.3541 8.4466C20.3565 8.4466 20.3589 8.44897 20.3613 8.45135C20.3708 8.46086 20.385 8.46799 20.3969 8.47275C20.4041 8.47275 20.4136 8.47037 20.4231 8.46561H20.4255ZM12.9583 3.5731C12.9773 3.57786 12.9963 3.58261 13.0106 3.59212C13.0368 3.60876 13.0558 3.61589 13.0748 3.61114C13.0795 3.60876 13.0843 3.60401 13.0891 3.60163C13.0938 3.59925 13.0986 3.59688 13.1033 3.59212C13.1081 3.58737 13.1105 3.58023 13.1152 3.57548C13.1223 3.56835 13.1271 3.56122 13.1342 3.55171C13.1342 3.55171 13.1319 3.54457 13.1295 3.5422C13.1295 3.53982 13.1271 3.53982 13.1271 3.53744C13.1271 3.53507 13.1271 3.53269 13.1223 3.53031C13.12 3.52556 13.12 3.52318 13.1176 3.5208C13.1128 3.51367 13.1081 3.50654 13.1009 3.50654C13.0748 3.50416 13.0463 3.50416 13.0201 3.50416C12.9845 3.50416 12.9488 3.50654 12.9131 3.50654C12.9084 3.50654 12.906 3.50891 12.9036 3.50891C12.9036 3.50891 12.8846 3.53269 12.8751 3.53982C12.887 3.54695 12.8989 3.55646 12.9131 3.56122C12.9298 3.56835 12.9464 3.57073 12.9607 3.5731H12.9583ZM20.5514 9.20734C20.5514 9.20734 20.5752 9.19783 20.58 9.1907C20.599 9.15979 20.6204 9.12889 20.6275 9.0956C20.6275 9.0956 20.6251 9.09322 20.6251 9.09085C20.6251 9.09085 20.6228 9.08372 20.6204 9.08372C20.6133 9.07421 20.5966 9.06232 20.5847 9.05281C20.561 9.07421 20.5372 9.0956 20.5134 9.11462C20.5134 9.11462 20.5126 9.11621 20.511 9.11938C20.5039 9.13364 20.4944 9.14553 20.4896 9.15741C20.4896 9.15741 20.4873 9.17643 20.4873 9.18594C20.4849 9.19307 20.4849 9.20258 20.4825 9.20971H20.5443C20.5443 9.20971 20.5514 9.20734 20.5538 9.20734H20.5514ZM20.0332 9.13126C20.0166 9.1479 20.0023 9.1693 19.9928 9.1907C19.9833 9.21209 19.9785 9.23824 19.9714 9.26201C19.9738 9.26201 19.9738 9.25964 19.9761 9.25964C19.9999 9.25488 20.0284 9.25013 20.0522 9.24062C20.0522 9.23824 20.0546 9.23824 20.057 9.23824C20.0641 9.23586 20.0689 9.22873 20.0736 9.22398C20.0736 9.2216 20.076 9.2216 20.076 9.2216C20.0807 9.21447 20.0831 9.20734 20.0855 9.20496C20.0879 9.2002 20.0902 9.19783 20.0926 9.19307C20.1021 9.18118 20.1093 9.17168 20.1093 9.16455C20.1093 9.14077 20.0998 9.11938 20.095 9.09798C20.0855 9.10274 20.0784 9.10749 20.0689 9.11224C20.057 9.117 20.0427 9.12413 20.0332 9.13126ZM21.0055 8.28256C21.0055 8.28256 21.0126 8.28018 21.0174 8.28256C21.0364 8.28256 21.0673 8.27543 21.103 8.2683C21.1077 8.2683 21.1101 8.2683 21.1149 8.2683C21.1006 8.2255 21.0911 8.18271 21.084 8.17083H21.0816C21.0388 8.17796 20.996 8.1946 20.9532 8.20886C20.9699 8.23501 20.9794 8.27305 21.0055 8.28494V8.28256ZM18.8659 11.4848C18.8517 11.4943 18.8445 11.53 18.8517 11.5419C18.8659 11.5633 18.8921 11.5751 18.9135 11.5894C18.9159 11.5894 18.9206 11.587 18.9277 11.5823C18.9349 11.5775 18.942 11.5704 18.9444 11.5656C18.9539 11.5442 18.9634 11.5228 18.9729 11.4991C18.9824 11.4729 18.9943 11.442 19.0086 11.4064C18.9634 11.4301 18.9254 11.4491 18.8921 11.4682C18.885 11.4729 18.8731 11.4777 18.8659 11.4848ZM21.2147 7.99015C21.2028 7.94974 21.1957 7.92121 21.1886 7.89268C21.1719 7.89744 21.1529 7.90219 21.1339 7.90695C21.1149 7.9117 21.0982 7.91646 21.0959 7.92596C21.0935 7.9331 21.0959 7.94023 21.0959 7.94736C21.0959 7.964 21.1006 7.97826 21.1077 7.9949C21.1101 8.00204 21.1125 8.01155 21.1172 8.01868C21.1172 8.02106 21.122 8.02106 21.1291 8.01868C21.1458 8.01868 21.1814 8.00679 21.2171 7.99966C21.2147 7.99728 21.2147 7.99491 21.2147 7.99015ZM18.5688 11.4563C18.5497 11.4658 18.5331 11.4753 18.5307 11.4872C18.5236 11.5133 18.5402 11.5442 18.5474 11.5751C18.5474 11.5728 18.5545 11.5728 18.5616 11.5704C18.5878 11.5656 18.6187 11.5609 18.6258 11.5466C18.6306 11.5347 18.6306 11.5205 18.6306 11.5062C18.6282 11.4896 18.6282 11.4705 18.6258 11.4515C18.6163 11.4491 18.6068 11.4444 18.5973 11.4396C18.5878 11.4468 18.5783 11.4515 18.5688 11.4563ZM20.6109 4.99711C20.6109 4.99711 20.6299 4.99711 20.6394 4.99474C20.6632 4.99236 20.6893 4.9876 20.7131 4.98523C20.7131 4.98523 20.7083 4.96383 20.7083 4.95194C20.706 4.94006 20.7036 4.92817 20.7012 4.91153C20.656 4.92579 20.6251 4.9353 20.5919 4.94481H20.5895C20.5895 4.94481 20.599 4.97334 20.6037 4.98523C20.6061 4.98998 20.6085 4.99711 20.6109 4.99711ZM21.1577 5.91713C21.1577 5.91713 21.1672 5.91238 21.1719 5.91C21.1719 5.8791 21.1743 5.85295 21.1743 5.82442C21.1743 5.81015 21.1743 5.79827 21.1719 5.784C21.1719 5.784 21.1711 5.78321 21.1695 5.78163C21.1695 5.78163 21.1458 5.76499 21.1339 5.75548C21.1339 5.76023 21.1291 5.76736 21.1268 5.77449C21.122 5.784 21.1196 5.79589 21.122 5.80065C21.1291 5.81015 21.1291 5.81491 21.1291 5.82204C21.1339 5.83631 21.1315 5.84819 21.122 5.86246C21.1172 5.86721 21.1172 5.87196 21.1101 5.87672C21.1054 5.88385 21.1054 5.89574 21.1101 5.91C21.1101 5.91713 21.1125 5.92664 21.1125 5.93377C21.1268 5.92902 21.141 5.92189 21.1577 5.91713ZM17.3587 11.5323C17.3183 11.5466 17.2898 11.5561 17.2636 11.5656C17.2684 11.5751 17.2708 11.5847 17.2731 11.5942C17.2779 11.6108 17.2826 11.6251 17.2922 11.6274C17.3159 11.6346 17.3468 11.6227 17.3682 11.6084C17.3706 11.6084 17.3706 11.606 17.373 11.606C17.3754 11.606 17.373 11.6037 17.373 11.6013C17.373 11.5965 17.373 11.5894 17.3682 11.5799C17.3658 11.5656 17.3611 11.549 17.3563 11.5323H17.3587ZM20.2852 8.91017C20.2852 8.91017 20.2899 8.91017 20.2947 8.90779C20.3137 8.90779 20.3327 8.90304 20.3518 8.89591C20.3589 8.89115 20.3684 8.88877 20.3755 8.8864C20.3755 8.88402 20.3731 8.85074 20.3684 8.84123H20.366L20.3161 8.83885H20.3113C20.2923 8.84123 20.2709 8.84361 20.2448 8.84361C20.2543 8.86025 20.259 8.87214 20.2662 8.88402C20.2733 8.89829 20.2781 8.91017 20.2852 8.91017ZM17.3682 11.316C17.3682 11.316 17.3516 11.3255 17.3516 11.3279C17.3587 11.3588 17.3682 11.3897 17.3825 11.4182C17.3825 11.4182 17.3896 11.4182 17.392 11.4182C17.4039 11.4159 17.4229 11.4087 17.4395 11.404C17.43 11.3731 17.4205 11.3398 17.4086 11.2946C17.392 11.3041 17.3777 11.3113 17.3682 11.3184V11.316ZM13.1271 4.06996C13.1271 4.06996 13.1033 4.09136 13.0986 4.108V4.11275C13.0986 4.11275 13.1081 4.1389 13.1176 4.14604C13.12 4.14604 13.1223 4.15079 13.1247 4.15079C13.1842 4.14841 13.2008 4.11275 13.2079 4.06758C13.2103 4.06283 13.2103 4.05807 13.2103 4.05332H13.2032C13.2032 4.05332 13.1865 4.05094 13.1794 4.05094C13.1604 4.05094 13.1461 4.0557 13.1319 4.06521L13.1271 4.06996ZM10.2933 5.35609H10.2815C10.2815 5.35609 10.2648 5.35847 10.2553 5.36084C10.2529 5.36084 10.2529 5.36322 10.2505 5.36322C10.241 5.3656 10.2339 5.37035 10.2339 5.37273V5.39412C10.2339 5.40839 10.2363 5.42028 10.2363 5.43216C10.2387 5.43929 10.2387 5.44643 10.241 5.45356C10.2505 5.45356 10.2624 5.45118 10.2767 5.4488C10.2791 5.44643 10.2815 5.44643 10.2838 5.44643C10.2957 5.44643 10.31 5.44167 10.329 5.43929C10.3171 5.41077 10.3124 5.38699 10.3028 5.37273C10.3028 5.37273 10.2957 5.36084 10.2933 5.35609ZM21.6783 6.08117L21.6664 6.12158C21.7021 6.12872 21.7401 6.13585 21.7758 6.14298H21.7829C21.7877 6.12872 21.7924 6.11445 21.7995 6.10019C21.7591 6.0883 21.7211 6.07641 21.6831 6.06691L21.6783 6.08117ZM21.4905 6.06691C21.4905 6.06691 21.4952 6.05739 21.4952 6.05026C21.4952 6.036 21.4929 6.01936 21.4929 5.99558C21.4738 6.00747 21.462 6.0146 21.4477 6.02174C21.4382 6.02649 21.4287 6.03125 21.4215 6.036C21.412 6.04313 21.4001 6.04789 21.393 6.05502C21.393 6.05502 21.393 6.06453 21.3954 6.06691C21.3978 6.07879 21.4049 6.09306 21.4097 6.10494C21.4311 6.09543 21.4477 6.0883 21.4667 6.07879C21.4738 6.07404 21.4834 6.07166 21.4905 6.06691ZM19.9524 11.3612C19.9524 11.3612 19.9452 11.3517 19.9405 11.3493H19.9381C19.9381 11.3493 19.9333 11.3469 19.931 11.3469C19.9262 11.3469 19.9191 11.3493 19.9143 11.3517C19.9096 11.3517 19.9072 11.3517 19.9024 11.3541C19.8906 11.3588 19.8787 11.3659 19.8739 11.3731C19.8715 11.3731 19.8715 11.385 19.8739 11.3921C19.8763 11.4064 19.8834 11.423 19.8929 11.4301C19.8977 11.4325 19.9024 11.4349 19.9096 11.4349C19.9191 11.4349 19.9333 11.4349 19.95 11.4301C19.9595 11.4301 19.969 11.4277 19.9809 11.4277C19.9785 11.423 19.9785 11.4206 19.9761 11.4159C19.9666 11.3945 19.9595 11.3731 19.9524 11.3612ZM20.1877 6.24758C20.1877 6.24758 20.1806 6.21668 20.1758 6.20954C20.1735 6.20954 20.1735 6.20717 20.1735 6.20717C20.1402 6.21192 20.1069 6.21905 20.057 6.22856C20.0593 6.23332 20.0617 6.23569 20.0641 6.23807C20.076 6.26184 20.0855 6.27849 20.0902 6.28086C20.1235 6.27373 20.1568 6.26184 20.1877 6.24758ZM21.4524 4.9567C21.4762 4.94481 21.5071 4.94006 21.5261 4.92579C21.5333 4.91628 21.5238 4.89013 21.519 4.8521V4.84734C21.481 4.87349 21.4548 4.88538 21.4382 4.9044C21.4358 4.90677 21.4358 4.90915 21.4358 4.91153C21.4358 4.92342 21.4453 4.94244 21.4501 4.9567H21.4524ZM20.7226 10.4245C20.7226 10.4245 20.7083 10.434 20.7012 10.4412C20.6941 10.4435 20.6893 10.4483 20.6846 10.453C20.6798 10.4578 20.6727 10.4626 20.6703 10.4697C20.6608 10.4863 20.6679 10.5077 20.6703 10.5291C20.6941 10.5244 20.7226 10.5244 20.7393 10.5125C20.744 10.5125 20.744 10.5006 20.744 10.4911V10.4554C20.744 10.4554 20.7321 10.4412 20.7274 10.4317C20.725 10.4293 20.7226 10.4269 20.7226 10.4245ZM20.6299 4.81168C20.6513 4.80931 20.6774 4.80217 20.6965 4.78791C20.7012 4.78553 20.7012 4.7784 20.7012 4.77127C20.7012 4.75701 20.6988 4.74036 20.6988 4.71659H20.6965C20.6679 4.73323 20.6465 4.74274 20.6323 4.75463C20.6251 4.75938 20.6156 4.76176 20.6109 4.76651C20.6061 4.77127 20.6156 4.79742 20.6228 4.80693C20.6251 4.80931 20.6275 4.81168 20.6299 4.81168ZM17.7153 11.0949C17.7153 11.0949 17.7129 11.0854 17.7129 11.0783C17.6725 11.0902 17.644 11.0949 17.6178 11.1044C17.625 11.1139 17.6297 11.1258 17.6345 11.1353C17.6392 11.1401 17.6416 11.1472 17.6464 11.1472C17.6678 11.1496 17.6939 11.1401 17.7153 11.1306C17.7201 11.1306 17.7153 11.1139 17.7153 11.0949ZM21.9422 4.63338C21.9422 4.63338 21.9517 4.63101 21.9517 4.62863C21.9541 4.62863 21.9541 4.62388 21.9541 4.6215V4.61199C21.9541 4.61199 21.9564 4.60486 21.9564 4.6001C21.9541 4.58584 21.9517 4.57157 21.9517 4.55493C21.9374 4.56207 21.9255 4.56682 21.9136 4.57157C21.9041 4.57395 21.8994 4.57871 21.8946 4.58346C21.8923 4.58584 21.8875 4.58584 21.8875 4.58822C21.8851 4.59297 21.8851 4.59535 21.8851 4.6001C21.8851 4.61437 21.8923 4.63101 21.897 4.64765C21.8994 4.64527 21.9065 4.64527 21.9113 4.64289C21.9232 4.64289 21.935 4.63814 21.9422 4.63338ZM19.8097 7.30549C19.8097 7.32213 19.8169 7.33639 19.8192 7.35779H19.8216C19.8216 7.35779 19.8383 7.33877 19.8454 7.32926C19.8573 7.31499 19.8739 7.29598 19.8882 7.28171C19.8953 7.2722 19.9024 7.26269 19.9119 7.25081C19.8668 7.25794 19.8383 7.26269 19.8073 7.26745H19.8026C19.8026 7.26745 19.8073 7.2936 19.8097 7.30549ZM20.0403 6.4758C20.0403 6.4758 20.0261 6.45441 20.0189 6.4449C20.0189 6.4449 20.0166 6.44252 20.0142 6.44014C20.0094 6.43301 20.0047 6.42588 19.9975 6.4235H19.9904C19.9904 6.4235 19.9785 6.4235 19.9714 6.4235C19.9714 6.4235 19.9698 6.42429 19.9666 6.42588C19.9666 6.42588 19.9595 6.42826 19.9571 6.42826C19.9524 6.43063 19.9452 6.43301 19.9381 6.43539C19.9476 6.45441 19.9524 6.47818 19.969 6.48769C19.9738 6.49244 19.9856 6.48769 19.9999 6.48293C20.0118 6.48293 20.0237 6.4758 20.0403 6.47343V6.4758ZM19.7955 4.84259C19.7955 4.84259 19.8073 4.83546 19.8073 4.83308C19.8097 4.82119 19.8097 4.80931 19.8097 4.79504V4.74036H19.8073C19.8073 4.74036 19.786 4.757 19.7788 4.76176C19.7646 4.77127 19.7527 4.7784 19.7527 4.78553C19.7527 4.80931 19.7622 4.8307 19.7693 4.85447C19.7764 4.84972 19.786 4.84734 19.7955 4.84259ZM21.4358 8.17796C21.4358 8.17796 21.4311 8.18271 21.4311 8.18509C21.4263 8.18985 21.4215 8.1946 21.4215 8.1946C21.4429 8.21837 21.4643 8.23501 21.4881 8.25641C21.4976 8.2469 21.5071 8.23739 21.5166 8.23026C21.4952 8.20649 21.4738 8.18509 21.4501 8.1637C21.4429 8.16845 21.4406 8.17083 21.4358 8.17796ZM19.6172 9.32382C19.6172 9.32382 19.6148 9.32382 19.6124 9.31907C19.61 9.31431 19.61 9.31194 19.6077 9.30718C19.6053 9.30481 19.6029 9.3048 19.6005 9.30243C19.5981 9.30005 19.5958 9.2953 19.5934 9.29292H19.5863C19.5863 9.29292 19.5767 9.29292 19.572 9.29292C19.5696 9.2953 19.5672 9.2953 19.5649 9.2953C19.5554 9.30005 19.5482 9.30481 19.5458 9.30718V9.31431C19.5458 9.31431 19.5482 9.33809 19.553 9.3476C19.5554 9.34997 19.5554 9.35473 19.5577 9.35711C19.5649 9.35948 19.5744 9.35711 19.5863 9.35473C19.5981 9.35235 19.6124 9.3476 19.629 9.34522C19.6267 9.33809 19.6219 9.33333 19.6195 9.32858C19.6195 9.3262 19.6195 9.32382 19.6195 9.32145L19.6172 9.32382ZM21.0126 7.40296C21.0126 7.40296 21.0317 7.40296 21.0412 7.3982C21.0507 7.39582 21.0602 7.38869 21.0673 7.38394C21.0697 7.38156 21.0697 7.37918 21.0697 7.37443C21.0697 7.3673 21.0697 7.35779 21.0673 7.34828C21.0673 7.34115 21.0649 7.33401 21.0649 7.32688C21.0317 7.34352 21.0103 7.35303 20.9936 7.36492C20.9936 7.3673 20.996 7.3768 20.9984 7.38394C21.0031 7.39345 21.0079 7.40296 21.0126 7.40296ZM20.4991 8.66531C20.5134 8.66768 20.5324 8.67006 20.5467 8.67482C20.5467 8.67482 20.5491 8.67006 20.5514 8.66769C20.5538 8.65818 20.5586 8.64867 20.561 8.63916C20.5372 8.62965 20.5134 8.62252 20.4896 8.61301C20.4873 8.62014 20.4849 8.6249 20.4849 8.62965C20.4801 8.63916 20.4754 8.64867 20.4706 8.66055H20.473C20.473 8.66055 20.4896 8.66293 20.4991 8.66531ZM20.1544 9.53065C20.1544 9.53065 20.1354 9.54016 20.1283 9.54492C20.1235 9.54967 20.1164 9.55205 20.1164 9.5568C20.1164 9.56869 20.1212 9.58057 20.1259 9.59246C20.1283 9.60197 20.1307 9.61148 20.133 9.62099H20.1354C20.1354 9.62099 20.1402 9.62099 20.1425 9.62099C20.1521 9.61861 20.1639 9.61386 20.1735 9.61148V9.59959L20.1544 9.53303V9.53065ZM20.2638 7.59552C20.2638 7.59552 20.2685 7.59552 20.2733 7.59314H20.2876C20.2995 7.59314 20.3113 7.59076 20.328 7.58839C20.3232 7.58363 20.3208 7.57888 20.3185 7.57412C20.3185 7.57174 20.3185 7.56937 20.3137 7.56699C20.3113 7.55986 20.3066 7.5551 20.3042 7.55035C20.3018 7.54559 20.2995 7.54322 20.2947 7.54084H20.2923C20.2923 7.54084 20.2923 7.54084 20.2899 7.54084H20.2852C20.2852 7.54084 20.2804 7.54084 20.2781 7.54084C20.2638 7.54322 20.2495 7.54797 20.2353 7.55273C20.2376 7.55986 20.2376 7.56937 20.24 7.5765C20.24 7.58601 20.2472 7.59076 20.2519 7.59314C20.2543 7.59552 20.259 7.59552 20.2638 7.59552ZM18.652 11.3303C18.671 11.3374 18.69 11.3445 18.7114 11.3541C18.7162 11.3469 18.7185 11.3398 18.7233 11.3327C18.7304 11.3208 18.7399 11.3065 18.7471 11.2899C18.7447 11.2851 18.7423 11.2804 18.7376 11.2732C18.7067 11.2851 18.6757 11.297 18.6425 11.3065C18.6472 11.316 18.6496 11.3231 18.652 11.3303ZM20.0736 10.3532C20.0665 10.3698 20.057 10.3865 20.0498 10.4031C20.0617 10.4055 20.0736 10.4103 20.0855 10.415C20.0974 10.3889 20.1069 10.3675 20.1188 10.3413C20.1069 10.3389 20.0903 10.3318 20.0855 10.3318C20.0807 10.3389 20.0784 10.3461 20.0736 10.3532ZM20.095 11.2827C20.095 11.2827 20.0902 11.2661 20.0879 11.2566C20.0641 11.2756 20.0451 11.2851 20.0379 11.297C20.0332 11.3089 20.0427 11.3255 20.0475 11.3374C20.0641 11.3303 20.0855 11.3231 20.0974 11.3113C20.0974 11.3113 20.0974 11.3089 20.0998 11.3089C20.0998 11.3065 20.0998 11.3018 20.0974 11.297C20.0974 11.2922 20.0974 11.2875 20.095 11.2827Z" fill="currentColor"/>
</svg>
