<svg width="83" height="11" viewBox="0 0 83 11" fill="none" xmlns="http://www.w3.org/2000/svg">
<path d="M4.816 10.14C1.974 10.14 0.378 9.02 0.378 6.836V6.752H2.478V7.004C2.478 7.872 2.912 8.222 4.816 8.222C6.496 8.222 6.888 7.97 6.888 7.34C6.888 6.766 6.566 6.556 5.6 6.388L2.968 6.01C1.288 5.744 0.294 4.904 0.294 3.378C0.294 1.964 1.442 0.48 4.592 0.48C7.476 0.48 8.82 1.81 8.82 3.784V3.868H6.706V3.672C6.706 2.776 6.244 2.398 4.382 2.398C2.87 2.398 2.408 2.692 2.408 3.294C2.408 3.84 2.716 4.036 3.5 4.176L6.132 4.596C8.232 4.932 8.988 5.954 8.988 7.242C8.988 8.768 7.798 10.14 4.816 10.14ZM18.3412 10H10.4032V0.62H18.3412V2.51H12.5032V4.344H18.1312V6.22H12.5032V8.11H18.3412V10ZM21.9639 10H19.2199L22.8739 5.366V5.212L19.2199 0.62H21.9639L24.5959 3.966H24.7499L27.2839 0.62H30.0279L26.3879 5.254V5.408L30.0279 10H27.2839L24.6659 6.612H24.5119L21.9639 10ZM36.632 10H34.518V6.892L30.36 0.62H32.95L34.742 3.364L35.526 4.624H35.68L36.464 3.364L38.256 0.62H40.86L36.632 6.906V10ZM47.6715 10H41.7775V0.62H47.4055C49.3235 0.62 50.3595 1.432 50.3595 2.902C50.3595 4.064 49.7435 4.904 48.1755 5.016V5.142C49.9115 5.268 50.7515 6.136 50.7515 7.396C50.7515 8.992 49.7715 10 47.6715 10ZM43.8775 2.51V4.344H47.1675C47.9375 4.344 48.2595 4.078 48.2595 3.434C48.2595 2.79 47.9235 2.51 47.1395 2.51H43.8775ZM43.8775 6.08V8.11H47.4195C48.2735 8.11 48.6235 7.844 48.6235 7.088C48.6235 6.346 48.2735 6.08 47.4195 6.08H43.8775ZM56.8886 10.14C53.7946 10.14 51.8766 8.236 51.8766 5.31C51.8766 2.384 53.7946 0.48 56.8886 0.48C59.8006 0.48 61.6766 1.936 61.6766 4.316V4.526H59.3386V4.316C59.3386 3.084 58.6386 2.496 56.9306 2.496C54.8726 2.496 54.1026 3.224 54.1026 5.31C54.1026 7.396 54.8726 8.124 56.9306 8.124C58.6386 8.124 59.3386 7.536 59.3386 6.304V6.094H61.6766V6.304C61.6766 8.684 59.8146 10.14 56.8886 10.14ZM65.2466 10H63.1466V0.62H68.3266C70.6366 0.62 71.9526 1.642 71.9526 3.434C71.9526 4.96 71.0706 5.87 69.3066 6.038V6.15C70.1466 6.374 70.4686 6.822 70.8186 7.48L72.1766 10H69.7406L68.4526 7.564C68.0746 6.836 67.7246 6.598 66.6326 6.598H65.2466V10ZM65.2466 2.51V5.016H68.3126C69.3066 5.016 69.7546 4.736 69.7546 3.756C69.7546 2.832 69.3066 2.51 68.3126 2.51H65.2466ZM78.6219 10H76.5219V2.51H73.0359V0.62H82.1079V2.51H78.6219V10Z" fill="white"/>
</svg>
