<svg width="16" height="16" viewBox="0 0 16 16" fill="none" xmlns="http://www.w3.org/2000/svg">
<path d="M14.8927 5.87736L12.359 2.25472C12.25 2.11321 12.0866 2 11.8959 2H4.10414C3.91344 2 3.74998 2.08491 3.641 2.25472L1.10733 5.87736C0.94387 6.10377 0.971114 6.41509 1.16182 6.61321L7.59134 13.8019C7.70032 13.9151 7.83654 14 8 14C8.16346 14 8.29968 13.9434 8.40866 13.8019L14.8382 6.61321C15.0289 6.41509 15.0561 6.10377 14.8927 5.87736ZM5.27563 6.81132L6.63781 11.0283L2.87818 6.81132H5.27563ZM8.51763 3.18868L9.47116 5.65094H6.52884L7.48237 3.18868H8.51763ZM9.52565 6.81132L8 11.566L6.47435 6.81132H9.52565ZM10.7244 6.81132H13.1218L9.36219 11.0283L10.7244 6.81132ZM13.3125 5.62264H10.6971L9.7436 3.18868H11.5962L13.3125 5.62264ZM4.37658 3.18868H6.22916L5.27563 5.65094H2.68747L4.37658 3.18868Z" fill="currentColor"/>
</svg>
