<svg width="20" height="16" viewBox="0 0 20 16" fill="none" xmlns="http://www.w3.org/2000/svg">
<path d="M10.0318 3.74951C9.76957 3.74951 9.51863 3.82 9.30059 3.95345C9.08256 3.82094 8.83163 3.74951 8.56942 3.74951C8.15214 3.74951 7.75743 3.93371 7.48771 4.25513C7.0225 4.80868 7.08265 5.66671 7.62398 6.20804L9.03368 7.61774C9.10417 7.68823 9.20003 7.7277 9.29965 7.7277C9.39928 7.7277 9.49513 7.68823 9.56562 7.61774L10.9753 6.20804C11.5167 5.66671 11.5768 4.80868 11.1116 4.25513C10.8438 3.93279 10.449 3.74951 10.0318 3.74951ZM10.4453 5.6761L9.30061 6.82077L8.15594 5.6761C7.89278 5.412 7.85051 4.99097 8.06384 4.73819C8.19071 4.58782 8.37492 4.50136 8.56946 4.50136C8.7452 4.50136 8.90968 4.56996 9.03466 4.69401C9.17563 4.83499 9.42562 4.83499 9.56658 4.69401C9.82784 4.43182 10.2968 4.45155 10.5374 4.73818C10.7507 4.99099 10.7094 5.41203 10.4453 5.6761Z" fill="currentColor"/>
<path d="M19.4318 11.0819L17.7073 9.68915L16.4865 6.85574C16.2337 6.26931 15.7788 5.79188 15.2046 5.51184L13.7949 4.82296V0.37592C13.7949 0.168224 13.6267 0 13.419 0H5.18361C4.97592 0 4.80769 0.168224 4.80769 0.37592V1.09206L0.725143 1.95572C0.522147 1.99895 0.392457 2.19819 0.434753 2.40119L2.51171 12.2314C2.53238 12.3291 2.59065 12.4147 2.67429 12.4692C2.73632 12.5096 2.8068 12.5303 2.87917 12.5303C2.90548 12.5303 2.93085 12.5274 2.95717 12.5218L6.6158 11.7484H10.2922L10.8984 12.8536C11.2236 13.4456 11.7527 13.8967 12.388 14.1232L14.7516 14.9672L15.5523 15.8731C15.6265 15.9568 15.7299 16 15.8342 16C15.9226 16 16.0118 15.969 16.0833 15.906C16.2393 15.7688 16.2534 15.531 16.1162 15.376L15.2515 14.3977C15.2092 14.3497 15.1557 14.314 15.0965 14.2924L12.6417 13.4156C12.1794 13.2511 11.795 12.9231 11.5591 12.4927L11.1512 11.7484H12.2414C12.2668 11.8179 12.2903 11.8875 12.3213 11.9551L12.5026 12.3555C12.5656 12.4946 12.7019 12.5763 12.8447 12.5763C12.8964 12.5763 12.9491 12.5651 12.9998 12.5425C13.1887 12.457 13.2723 12.2333 13.1868 12.0444L13.0054 11.6441C12.7094 10.9909 12.7771 10.2165 13.1812 9.62443C13.278 9.48252 13.2667 9.29362 13.1539 9.16486L12.0816 7.93935C11.7987 7.61604 11.8119 7.12267 12.1108 6.81534C12.1474 6.77869 12.2076 6.77775 12.2442 6.81252L13.1539 7.66209L13.1549 7.66303L14.7328 9.1357C14.885 9.2776 15.1228 9.26915 15.2638 9.11784C15.4057 8.96559 15.3972 8.72782 15.2459 8.58686L13.7968 7.23355V5.66032L14.8775 6.18754C15.2901 6.38866 15.6171 6.73168 15.7985 7.15365L17.056 10.0727C17.0795 10.1291 17.1171 10.178 17.165 10.2165L18.9619 11.6675C19.0315 11.7239 19.1142 11.7512 19.1978 11.7512C19.3078 11.7512 19.4158 11.7033 19.491 11.6112C19.6188 11.4486 19.5934 11.2116 19.4318 11.0819ZM2.4845 8.46266L4.80767 3.87656V6.86226L2.90834 10.4682L2.4845 8.46266ZM4.80767 2.21385L2.23626 7.28882L1.78421 5.15172L3.28977 2.18094L4.80661 1.85953L4.80767 2.21385ZM2.34645 2.38113L1.53634 3.97878L1.24782 2.61419L2.34645 2.38113ZM3.15093 11.6193L4.80779 8.47476V11.3618L3.16972 11.7077L3.15093 11.6193ZM12.7567 6.26327C12.423 5.95031 11.8911 5.96347 11.5716 6.29146C11.0011 6.8779 10.9776 7.81959 11.5152 8.43516L12.4061 9.45297C12.1514 9.92758 12.0405 10.4651 12.0781 10.9961H5.55961V0.751382H13.0431V5.0341V5.03974V6.53026L12.7567 6.26327Z" fill="currentColor"/>
</svg>
