<svg width="16" height="16" viewBox="0 0 16 16" fill="none" xmlns="http://www.w3.org/2000/svg">
<g clip-path="url(#clip0_4864_3123)">
<path fill-rule="evenodd" clip-rule="evenodd" d="M12.5254 12.5248C10.0302 15.02 5.9694 15.02 3.4742 12.5248C0.979001 10.0296 0.979001 5.96883 3.4742 3.47363C3.4862 3.46243 3.4982 3.45046 3.5102 3.43926L12.5606 12.4889C12.5486 12.5009 12.5374 12.5128 12.5254 12.5248ZM14.0438 13.2408C16.127 10.8432 16.5462 7.50162 15.3006 4.72402C14.9334 3.84082 14.4014 3.01602 13.6918 2.30722C12.983 1.59762 12.1582 1.06564 11.2742 0.698435C8.4966 -0.546365 5.1558 -0.127129 2.759 1.95527C2.6278 2.06807 2.5006 2.18482 2.3782 2.30722C2.3662 2.31922 2.355 2.33038 2.343 2.34238C-0.781 5.46638 -0.781 10.5321 2.343 13.6561C5.467 16.7801 10.5326 16.7801 13.6566 13.6561C13.6686 13.6441 13.6798 13.6321 13.6918 13.6201C13.8142 13.4977 13.931 13.372 14.0438 13.2408Z" fill="white"/>
</g>
<defs>
<clipPath id="clip0_4864_3123">
<rect width="16" height="16" fill="white"/>
</clipPath>
</defs>
</svg>
