<svg width="20" height="16" viewBox="0 0 20 16" fill="none" xmlns="http://www.w3.org/2000/svg">
<path d="M17.88 0H2.12C1.55807 0.00105726 1.01945 0.224753 0.622102 0.622102C0.224753 1.01945 0.00105726 1.55807 0 2.12V11.08C0.00105726 11.6419 0.224753 12.1806 0.622102 12.5779C1.01945 12.9752 1.55807 13.1989 2.12 13.2H6.8V15.2H5.6C5.49391 15.2 5.39217 15.2421 5.31716 15.3172C5.24214 15.3922 5.2 15.4939 5.2 15.6C5.2 15.7061 5.24214 15.8078 5.31716 15.8828C5.39217 15.9579 5.49391 16 5.6 16H14.4C14.5061 16 14.6078 15.9579 14.6828 15.8828C14.7579 15.8078 14.8 15.7061 14.8 15.6C14.8 15.4939 14.7579 15.3922 14.6828 15.3172C14.6078 15.2421 14.5061 15.2 14.4 15.2H13.2V13.2H17.88C18.4419 13.1989 18.9806 12.9752 19.3779 12.5779C19.7752 12.1806 19.9989 11.6419 20 11.08V2.12C19.9989 1.55807 19.7752 1.01945 19.3779 0.622102C18.9806 0.224753 18.4419 0.00105726 17.88 0ZM19.2 11.08C19.2 11.4301 19.0609 11.7658 18.8134 12.0134C18.5658 12.2609 18.2301 12.4 17.88 12.4H2.12C1.76991 12.4 1.43417 12.2609 1.18662 12.0134C0.939071 11.7658 0.8 11.4301 0.8 11.08V2.12C0.8 1.76991 0.939071 1.43417 1.18662 1.18662C1.43417 0.939071 1.76991 0.8 2.12 0.8H17.88C18.2301 0.8 18.5658 0.939071 18.8134 1.18662C19.0609 1.43417 19.2 1.76991 19.2 2.12V11.08Z" fill="currentColor"/>
<path d="M13.9283 6.30792C13.9077 5.30176 13.491 4.34435 12.7685 3.64372C12.0461 2.94309 11.0764 2.55584 10.0701 2.56612C9.06374 2.57639 8.10213 2.98336 7.39416 3.6986C6.68619 4.41383 6.28906 5.37955 6.28906 6.38592C6.28906 7.39229 6.68619 8.35801 7.39416 9.07324C8.10213 9.78848 9.06374 10.1954 10.0701 10.2057C11.0764 10.216 12.0461 9.82875 12.7685 9.12812C13.491 8.42749 13.9077 7.47008 13.9283 6.46392C13.9283 6.42792 13.9283 6.39192 13.9283 6.35592C13.9302 6.33998 13.9302 6.32386 13.9283 6.30792ZM12.5603 8.27192L12.3043 7.90392L12.5123 7.24792L13.0923 6.99992C13.0115 7.45813 12.8298 7.89263 12.5603 8.27192ZM9.76027 4.27192L10.7363 4.51592L10.9283 5.87992L10.3003 6.46792L8.93227 5.79992L8.88427 5.27592L9.76027 4.27192ZM9.35227 8.53592L8.68827 8.28392C8.69209 8.24668 8.69209 8.20915 8.68827 8.17192L8.21227 7.07992L8.69227 6.56392L10.1123 7.25992L10.2563 7.89992L9.35227 8.53592ZM13.1163 6.09592L12.3403 6.44792L11.7483 5.93592C11.7483 5.93592 11.7483 5.91192 11.7483 5.89992L11.5243 4.33192L11.9243 4.00792C12.2505 4.26044 12.5238 4.57485 12.7283 4.93315C12.9329 5.29145 13.0647 5.68658 13.1163 6.09592ZM9.36427 3.39992V3.57192C9.34268 3.58429 9.32255 3.59905 9.30427 3.61592L8.30027 4.73992H7.38827C7.84574 4.05143 8.55537 3.5702 9.36427 3.39992ZM6.88027 6.79192L7.33627 7.05992L7.92827 8.47592L7.78827 8.67592C7.27705 8.17166 6.95621 7.50595 6.88027 6.79192ZM9.78027 9.59192V9.21192L10.8523 8.45592C10.8916 8.42596 10.9254 8.38942 10.9523 8.34792L11.6403 8.37192L12.0003 8.87192C11.4401 9.34241 10.7318 9.6002 10.0003 9.59992C9.92427 9.59992 9.85227 9.59192 9.78027 9.58792V9.59192Z" fill="currentColor"/>
</svg>
