<svg width="21" height="20" viewBox="0 0 21 20" fill="none" xmlns="http://www.w3.org/2000/svg">
<path d="M11.9085 0C13.0335 0.003 13.6045 0.009 14.0975 0.023L14.2915 0.03C14.5155 0.038 14.7365 0.0479999 15.0035 0.0599999C16.0675 0.11 16.7935 0.278 17.4305 0.525C18.0905 0.779 18.6465 1.123 19.2025 1.678C19.711 2.1779 20.1044 2.78259 20.3555 3.45C20.6025 4.087 20.7705 4.813 20.8205 5.878C20.8325 6.144 20.8425 6.365 20.8505 6.59L20.8565 6.784C20.8715 7.276 20.8775 7.847 20.8795 8.972L20.8805 9.718V11.028C20.8829 11.7574 20.8752 12.4868 20.8575 13.216L20.8515 13.41C20.8435 13.635 20.8335 13.856 20.8215 14.122C20.7715 15.187 20.6015 15.912 20.3555 16.55C20.1051 17.2178 19.7116 17.8226 19.2025 18.322C18.7024 18.8303 18.0978 19.2238 17.4305 19.475C16.7935 19.722 16.0675 19.89 15.0035 19.94C14.7662 19.9512 14.5288 19.9612 14.2915 19.97L14.0975 19.976C13.6045 19.99 13.0335 19.997 11.9085 19.999L11.1625 20H9.85346C9.12372 20.0025 8.39398 19.9949 7.66446 19.977L7.47046 19.971C7.23307 19.962 6.99573 19.9517 6.75846 19.94C5.69446 19.89 4.96846 19.722 4.33046 19.475C3.66313 19.2244 3.05868 18.8308 2.55946 18.322C2.05051 17.8223 1.65668 17.2176 1.40546 16.55C1.15846 15.913 0.99046 15.187 0.94046 14.122C0.929319 13.8847 0.919318 13.6474 0.91046 13.41L0.90546 13.216C0.887032 12.4868 0.878698 11.7574 0.88046 11.028V8.972C0.877669 8.2426 0.885003 7.5132 0.90246 6.784L0.90946 6.59C0.91746 6.365 0.92746 6.144 0.93946 5.878C0.98946 4.813 1.15746 4.088 1.40446 3.45C1.65557 2.7819 2.05018 2.17702 2.56046 1.678C3.05955 1.16947 3.6636 0.775987 4.33046 0.525C4.96846 0.278 5.69346 0.11 6.75846 0.0599999C7.02446 0.0479999 7.24646 0.038 7.47046 0.03L7.66446 0.0239999C8.39365 0.00623271 9.12306 -0.0014347 9.85246 0.000999928L11.9085 0ZM10.8805 5C9.55438 5 8.28261 5.52678 7.34493 6.46447C6.40724 7.40215 5.88046 8.67392 5.88046 10C5.88046 11.3261 6.40724 12.5979 7.34493 13.5355C8.28261 14.4732 9.55438 15 10.8805 15C12.2065 15 13.4783 14.4732 14.416 13.5355C15.3537 12.5979 15.8805 11.3261 15.8805 10C15.8805 8.67392 15.3537 7.40215 14.416 6.46447C13.4783 5.52678 12.2065 5 10.8805 5ZM10.8805 7C11.2744 6.99993 11.6645 7.07747 12.0285 7.22817C12.3926 7.37887 12.7233 7.5998 13.0019 7.87833C13.2805 8.15686 13.5016 8.48754 13.6524 8.85149C13.8032 9.21544 13.8809 9.60553 13.881 9.9995C13.881 10.3935 13.8035 10.7836 13.6528 11.1476C13.5021 11.5116 13.2812 11.8423 13.0026 12.121C12.7241 12.3996 12.3934 12.6206 12.0295 12.7714C11.6655 12.9223 11.2754 12.9999 10.8815 13C10.0858 13 9.32275 12.6839 8.76014 12.1213C8.19753 11.5587 7.88146 10.7956 7.88146 10C7.88146 9.20435 8.19753 8.44129 8.76014 7.87868C9.32275 7.31607 10.0858 7 10.8815 7M16.1315 3.5C15.7999 3.5 15.482 3.6317 15.2476 3.86612C15.0132 4.10054 14.8815 4.41848 14.8815 4.75C14.8815 5.08152 15.0132 5.39946 15.2476 5.63388C15.482 5.8683 15.7999 6 16.1315 6C16.463 6 16.7809 5.8683 17.0153 5.63388C17.2498 5.39946 17.3815 5.08152 17.3815 4.75C17.3815 4.41848 17.2498 4.10054 17.0153 3.86612C16.7809 3.6317 16.463 3.5 16.1315 3.5Z" fill="white"/>
</svg>
