<svg width="30" height="17" viewBox="0 0 30 17" fill="none" xmlns="http://www.w3.org/2000/svg">
<path d="M7.76278 3.02738L7.76205 2.97739C6.73477 2.99231 5.90312 3.84084 5.90312 4.87208L7.77241 3.68515C7.81887 3.68452 7.86475 3.67474 7.90743 3.65638C7.95013 3.63801 7.98879 3.61141 8.02121 3.5781C8.05362 3.54479 8.07916 3.50542 8.09636 3.46223C8.11355 3.41906 8.12207 3.37291 8.12144 3.32644M7.76278 3.02738L7.76199 2.97739C7.80853 2.97665 7.85475 2.9851 7.89801 3.00226C7.94128 3.01941 7.98073 3.04493 8.01412 3.07735C8.04751 3.10977 8.07417 3.14846 8.09259 3.19121C8.111 3.23395 8.12081 3.2799 8.12144 3.32644M7.76278 3.02738C6.76305 3.04191 5.95312 3.86794 5.95312 4.87208V12.1986C5.95312 13.2028 6.76378 14.0258 7.76278 14.0404M7.76278 3.02738C7.80274 3.02675 7.84243 3.03401 7.87958 3.04874C7.91674 3.06347 7.95062 3.08538 7.97929 3.11322C8.00796 3.14106 8.03085 3.17429 8.04667 3.21099L7.76278 14.0404M8.12144 3.32644L8.07144 3.32712L8.12144 3.32643C8.12144 3.32643 8.12144 3.32644 8.12144 3.32644ZM7.76278 14.0404L7.76199 14.0904C7.762 14.0904 7.76201 14.0904 7.76202 14.0904C7.80855 14.0911 7.85476 14.0826 7.89801 14.0655C7.94128 14.0483 7.98073 14.0228 8.01412 13.9904C8.04751 13.958 8.07417 13.9193 8.09259 13.8766C8.111 13.8338 8.12081 13.7879 8.12144 13.7413M7.76278 14.0404C7.80274 14.041 7.84243 14.0337 7.87958 14.019C7.91674 14.0043 7.95062 13.9824 7.97929 13.9545C8.00796 13.9267 8.03085 13.8935 8.04667 13.8568C8.06248 13.8201 8.0709 13.7806 8.07144 13.7406L8.12144 13.7413C8.12144 13.7413 8.12144 13.7413 8.12144 13.7413M8.12144 13.7413C8.12207 13.6948 8.11355 13.6487 8.09636 13.6055M8.12144 13.7413L8.09636 13.6055M8.09636 13.6055C8.07916 13.5623 8.05362 13.523 8.02121 13.4897M8.09636 13.6055L8.02121 13.4897M8.02121 13.4897C7.98879 13.4563 7.95013 13.4297 7.90743 13.4114M8.02121 13.4897L7.90743 13.4114M7.90743 13.4114C7.86475 13.393 7.81887 13.3832 7.77241 13.3826L7.90743 13.4114ZM6.6109 4.87208C6.6109 4.21978 7.12834 3.69454 7.77239 3.68515L7.77236 13.3826C7.12746 13.3732 6.6109 12.8508 6.6109 12.1986V4.87208Z" fill="currentColor" stroke="currentColor" stroke-width="0.1"/>
<path d="M22.2389 2.9774L22.2389 2.9774C23.2678 2.99604 24.0971 3.84398 24.0971 4.87209V12.1987C24.0971 13.2269 23.267 14.0717 22.2389 14.0904L22.2389 14.0904C22.1924 14.0912 22.1462 14.0829 22.103 14.0658C22.0597 14.0488 22.0202 14.0234 21.9868 13.9911C21.9534 13.9589 21.9266 13.9203 21.9081 13.8777C21.8895 13.8351 21.8796 13.7892 21.8788 13.7427C21.8788 13.7427 21.8788 13.7427 21.8788 13.7427L22.2389 2.9774ZM22.2389 2.9774C22.1924 2.97657 22.1462 2.98491 22.103 3.00194M22.2389 2.9774L22.103 3.00194M22.103 3.00194C22.0597 3.01897 22.0202 3.04435 21.9868 3.07663M22.103 3.00194L21.9868 3.07663M21.9868 3.07663C21.9534 3.10892 21.9266 3.14748 21.9081 3.19011M21.9868 3.07663L21.9081 3.19011M21.9081 3.19011C21.8895 3.23273 21.8796 3.27858 21.8788 3.32506L21.9081 3.19011ZM21.8788 3.32507C21.8779 3.37154 21.8863 3.41772 21.9033 3.46096C21.9203 3.50421 21.9457 3.54368 21.978 3.57713C22.0103 3.61057 22.0488 3.63732 22.0915 3.65586C22.1341 3.67439 22.1799 3.68435 22.2264 3.68516C22.8749 3.69691 23.3893 4.22271 23.3893 4.87209V12.1987C23.3893 12.8479 22.8758 13.3708 22.2264 13.3826C22.2264 13.3826 22.2264 13.3826 22.2264 13.3826L22.2273 13.4326L21.8788 3.32507Z" fill="currentColor" stroke="currentColor" stroke-width="0.1"/>
<path d="M20.8189 1.65778H20.819C21.4066 1.65755 21.8771 2.1283 21.8771 2.7165V14.3527C21.8771 14.9409 21.4066 15.4114 20.8183 15.4114H9.17977C8.59153 15.4114 8.12104 14.9409 8.12104 14.3527V2.7165C8.12104 2.12827 8.59153 1.65778 9.17977 1.65778H9.18038H20.8189ZM9.18038 0.95C8.20843 0.95 7.41387 1.74456 7.41387 2.7165V14.3527C7.41387 15.3246 8.20843 16.1192 9.18038 16.1192H20.8189C21.7909 16.1192 22.5854 15.3246 22.5854 14.3527V2.7165C22.5854 1.74451 21.7908 0.949632 20.8189 0.95C20.8189 0.95 20.8189 0.95 20.8189 0.95L9.18038 0.95Z" fill="currentColor" stroke="currentColor" stroke-width="0.1"/>
<path d="M23.7756 8.18267C23.6817 8.18267 23.5917 8.21995 23.5253 8.28632C23.459 8.35268 23.4217 8.4427 23.4217 8.53655C23.4217 8.63041 23.459 8.72042 23.5253 8.78679C23.5917 8.85316 23.6817 8.89044 23.7756 8.89044H25.9283C26.0221 8.89044 26.1122 8.85316 26.1785 8.78679C26.2449 8.72042 26.2822 8.63041 26.2822 8.53655C26.2822 8.4427 26.2449 8.35268 26.1785 8.28632C26.1122 8.21995 26.0221 8.18267 25.9283 8.18267H23.7756Z" fill="currentColor" stroke="currentColor" stroke-width="0.1"/>
<path d="M26.8833 7.22368C26.1646 7.22368 25.575 7.81584 25.575 8.53791C25.575 9.25642 26.1648 9.84619 26.8833 9.84619C27.6054 9.84619 28.1975 9.25663 28.1975 8.53791C28.1975 7.81563 27.6056 7.22368 26.8833 7.22368ZM26.8833 7.93146C27.2222 7.93146 27.4897 8.199 27.4897 8.53791C27.4897 8.8694 27.2224 9.13842 26.8833 9.13842C26.5516 9.13842 26.2828 8.86963 26.2828 8.53791C26.2828 8.19877 26.5518 7.93146 26.8833 7.93146Z" fill="currentColor" stroke="currentColor" stroke-width="0.1"/>
<path d="M28.3223 2.83623C27.6037 2.83623 27.0135 3.42836 27.0135 4.15046C27.0135 4.86897 27.6038 5.45934 28.3223 5.45934C29.0444 5.45934 29.6366 4.86915 29.6366 4.15046C29.6366 3.42818 29.0446 2.83623 28.3223 2.83623ZM28.3223 3.54401C28.6612 3.54401 28.9288 3.81155 28.9288 4.15046C28.9288 4.482 28.6614 4.75156 28.3223 4.75156C27.9906 4.75156 27.7213 4.48218 27.7213 4.15046C27.7213 3.81137 27.9908 3.54401 28.3223 3.54401Z" fill="currentColor" stroke="currentColor" stroke-width="0.1"/>
<path d="M28.3223 11.6104C27.6038 11.6104 27.0135 12.2008 27.0135 12.9193C27.0135 13.6414 27.6037 14.2335 28.3223 14.2335C29.0446 14.2335 29.6366 13.6416 29.6366 12.9193C29.6366 12.2006 29.0444 11.6104 28.3223 11.6104ZM28.3223 12.3182C28.6614 12.3182 28.9288 12.5877 28.9288 12.9193C28.9288 13.2582 28.6612 13.5257 28.3223 13.5257C27.9908 13.5257 27.7213 13.2584 27.7213 12.9193C27.7213 12.5876 27.9906 12.3182 28.3223 12.3182Z" fill="currentColor" stroke="currentColor" stroke-width="0.1"/>
<path d="M23.7762 10.7715L23.7762 10.7714C23.683 10.7625 23.59 10.7908 23.5177 10.8502L23.5177 10.8503C23.4452 10.9098 23.3994 10.9956 23.3902 11.0889C23.381 11.1822 23.4092 11.2754 23.4686 11.3479L23.4687 11.348L24.9489 13.1481C24.9489 13.1482 24.9489 13.1482 24.9489 13.1482C24.9821 13.1885 25.0237 13.221 25.0709 13.2434C25.1181 13.2657 25.1697 13.2773 25.2219 13.2774H25.222H27.367C27.4609 13.2774 27.5509 13.2401 27.6173 13.1737C27.6836 13.1074 27.7209 13.0174 27.7209 12.9235C27.7209 12.8297 27.6836 12.7396 27.6173 12.6733C27.5509 12.6069 27.4609 12.5696 27.367 12.5696H25.3892L24.0154 10.8987L24.0153 10.8986C23.9858 10.8628 23.9494 10.8331 23.9084 10.8113C23.8674 10.7894 23.8224 10.7759 23.7762 10.7715Z" fill="currentColor" stroke="currentColor" stroke-width="0.1"/>
<path d="M23.5172 6.21901L23.5172 6.21899C23.4813 6.18941 23.4516 6.15305 23.4298 6.11199C23.408 6.07093 23.3945 6.02598 23.3901 5.9797C23.3857 5.93342 23.3904 5.88672 23.404 5.84227C23.4176 5.79784 23.4399 5.75652 23.4695 5.72069L23.5172 6.21901ZM23.5172 6.21901C23.5531 6.24857 23.5945 6.27077 23.6389 6.28434M23.5172 6.21901L23.6389 6.28434M23.6389 6.28434C23.6834 6.29791 23.7301 6.30258 23.7764 6.29809M23.6389 6.28434L23.7764 6.29809M23.7764 6.29809C23.8227 6.2936 23.8676 6.28003 23.9087 6.25815M23.7764 6.29809L23.9087 6.25815M23.9087 6.25815C23.9497 6.23629 23.986 6.20656 24.0155 6.17066L23.9087 6.25815ZM25.2222 3.79546L25.2221 3.79546L24.0156 6.17062L25.3894 4.50324H27.3672C27.4611 4.50324 27.5511 4.46595 27.6175 4.39958C27.6838 4.33322 27.7211 4.2432 27.7211 4.14935C27.7211 4.05549 27.6838 3.96548 27.6175 3.89911C27.5511 3.83274 27.4611 3.79546 27.3672 3.79546L25.2222 3.79546ZM24.9491 3.92471L23.4695 5.72064L24.9491 3.92471Z" fill="currentColor" stroke="currentColor" stroke-width="0.1"/>
<path d="M4.07147 8.17925C3.97761 8.17925 3.8876 8.21653 3.82123 8.2829C3.75486 8.34927 3.71758 8.43928 3.71758 8.53314C3.71758 8.62699 3.75486 8.71701 3.82123 8.78337C3.8876 8.84974 3.97761 8.88703 4.07147 8.88703H6.22418C6.31804 8.88703 6.40805 8.84974 6.47442 8.78337C6.54079 8.71701 6.57807 8.62699 6.57807 8.53314C6.57807 8.43928 6.54079 8.34927 6.47442 8.2829C6.40805 8.21653 6.31804 8.17925 6.22418 8.17925H4.07147Z" fill="currentColor" stroke="currentColor" stroke-width="0.1"/>
<path d="M3.11577 7.22368C2.3937 7.22368 1.80156 7.81325 1.80156 8.53197C1.80156 9.25424 2.3935 9.84619 3.11577 9.84619C3.83451 9.84619 4.42408 9.25403 4.42408 8.53197C4.42408 7.81346 3.8343 7.22368 3.11577 7.22368ZM3.11577 7.93146C3.44751 7.93146 3.7163 8.20025 3.7163 8.53197C3.7163 8.87111 3.44727 9.13842 3.11577 9.13842C2.77687 9.13842 2.50934 8.87088 2.50934 8.53197C2.50934 8.20048 2.77663 7.93146 3.11577 7.93146Z" fill="currentColor" stroke="currentColor" stroke-width="0.1"/>
<path d="M1.67732 11.6104C0.955229 11.6104 0.363086 12.2006 0.363086 12.9193C0.363086 13.6416 0.955051 14.2335 1.67732 14.2335C2.39601 14.2335 2.98618 13.6414 2.98618 12.9193C2.98618 12.2008 2.39583 11.6104 1.67732 11.6104ZM1.67732 12.3182C2.00903 12.3182 2.2784 12.5876 2.2784 12.9193C2.2784 13.2584 2.00885 13.5257 1.67732 13.5257C1.33842 13.5257 1.07086 13.2582 1.07086 12.9193C1.07086 12.5877 1.33824 12.3182 1.67732 12.3182Z" fill="currentColor" stroke="currentColor" stroke-width="0.1"/>
<path d="M1.67732 2.83623C0.955051 2.83623 0.363086 3.42818 0.363086 4.15046C0.363086 4.86915 0.955229 5.45934 1.67732 5.45934C2.39583 5.45934 2.98618 4.86897 2.98618 4.15046C2.98618 3.42836 2.39601 2.83623 1.67732 2.83623ZM1.67732 3.54401C2.00885 3.54401 2.2784 3.81137 2.2784 4.15046C2.2784 4.48218 2.00903 4.75156 1.67732 4.75156C1.33824 4.75156 1.07086 4.482 1.07086 4.15046C1.07086 3.81155 1.33842 3.54401 1.67732 3.54401Z" fill="currentColor" stroke="currentColor" stroke-width="0.1"/>
<path d="M5.98366 6.17126L5.98371 6.17131C6.04333 6.24363 6.12922 6.28935 6.22252 6.29842C6.31582 6.30749 6.4089 6.27918 6.48134 6.21969L6.48136 6.21968C6.5538 6.16015 6.59965 6.07431 6.60885 5.981C6.61805 5.8877 6.58986 5.79455 6.53044 5.72202L6.53038 5.72195L5.05013 3.92178C5.05012 3.92178 5.05012 3.92177 5.05011 3.92176C5.01696 3.88142 4.97529 3.84891 4.9281 3.82657C4.88089 3.80422 4.82933 3.79259 4.7771 3.79253H4.77704H2.63201C2.53816 3.79253 2.44814 3.82981 2.38178 3.89618C2.31541 3.96255 2.27812 4.05256 2.27812 4.14642C2.27812 4.24027 2.31541 4.33029 2.38178 4.39666C2.44814 4.46302 2.53816 4.50031 2.63201 4.50031H4.6098L5.98366 6.17126Z" fill="currentColor" stroke="currentColor" stroke-width="0.1"/>
<path d="M6.48201 10.8508L6.48204 10.8508C6.5179 10.8804 6.54759 10.9168 6.5694 10.9578C6.59121 10.9989 6.60471 11.0438 6.60914 11.0901C6.61357 11.1364 6.60884 11.1831 6.59522 11.2275C6.58159 11.272 6.55934 11.3133 6.52974 11.3492L5.05012 13.1451L5.05008 13.1452L5.01149 13.1134C4.98302 13.148 4.94724 13.1759 4.9067 13.1951C4.86617 13.2143 4.82189 13.2243 4.77704 13.2244L6.48201 10.8508ZM6.48201 10.8508C6.44612 10.8212 6.40476 10.799 6.36028 10.7855C6.31581 10.7719 6.26909 10.7672 6.22281 10.7717C6.17653 10.7762 6.13159 10.7898 6.09055 10.8117C6.04953 10.8335 6.01322 10.8633 5.9837 10.8992L6.48201 10.8508Z" fill="currentColor" stroke="currentColor" stroke-width="0.1"/>
<mask id="mask0_446_266" style="mask-type:luminance" maskUnits="userSpaceOnUse" x="9" y="2" width="20" height="15">
<path d="M28.7588 17H9.38544V2.88182H28.7588V17Z" fill="currentColor"/>
</mask>
<g mask="url(#mask0_446_266)">
<path d="M10.3581 11.6735L10.3625 11.6981L10.3847 11.7094L15.8632 14.4935L15.8932 14.5088L15.9187 14.4867L20.3199 10.6575L20.3374 10.6424L20.3371 10.6192C20.3149 8.65918 20.2438 6.70446 20.084 4.75018L20.0813 4.71707L20.0497 4.70673L14.3547 2.84207L14.3328 2.83492L14.3132 2.84684L9.35965 5.8513L9.33038 5.86906L9.33635 5.90277L10.3581 11.6735ZM10.0927 6.53288L14.9271 8.5007L15.4746 13.5865L10.9339 11.2806L10.0927 6.53288ZM15.559 8.42752L19.5065 5.54143L19.703 10.2535L16.106 13.516L15.559 8.42752ZM10.3808 5.96978L14.4142 3.52568L19.0978 5.0583L15.1781 7.92217L10.3808 5.96978Z" fill="currentColor" stroke="currentColor" stroke-width="0.1"/>
</g>
<path d="M12.6931 9.32875C12.3746 9.22374 12.1325 9.42609 12.1503 9.78212C12.1679 10.1381 12.4383 10.5095 12.7568 10.6146C13.0753 10.717 13.3174 10.5147 13.2995 10.1586C13.2819 9.80517 13.0091 9.43121 12.6931 9.32875Z" fill="currentColor"/>
<path d="M14.2802 6.71617C13.9796 6.90315 13.9821 7.17465 14.2881 7.32321C14.5938 7.47433 15.0882 7.44359 15.3914 7.25661C15.6921 7.06964 15.6895 6.79813 15.3836 6.64958C15.0778 6.49845 14.5835 6.52919 14.2802 6.71617Z" fill="currentColor"/>
<path d="M11.4312 6.11671C11.7013 6.24734 12.1345 6.22172 12.3995 6.0578C12.6645 5.89387 12.662 5.65311 12.3917 5.52248C12.1242 5.39185 11.691 5.41746 11.4234 5.58139C11.1584 5.74531 11.1635 5.98352 11.4312 6.11671Z" fill="currentColor"/>
<path d="M12.8206 5.292C13.0907 5.42263 13.5239 5.39702 13.7889 5.23309C14.0539 5.06917 14.0514 4.83096 13.7811 4.69777C13.5135 4.56714 13.0804 4.59276 12.8153 4.75668C12.5504 4.92061 12.5529 5.16138 12.8202 5.292H12.8206Z" fill="currentColor"/>
<path d="M14.1859 4.50306C14.456 4.63369 14.8891 4.60808 15.1542 4.44415C15.4191 4.28023 15.4166 4.04203 15.1464 3.91139C14.8788 3.78077 14.4456 3.80638 14.1806 3.9703C13.913 4.13423 13.9181 4.37244 14.1855 4.50306H14.1859Z" fill="currentColor"/>
<path d="M15.6407 6.37814C15.9388 6.52157 16.4179 6.4934 16.7109 6.31154C17.0039 6.13225 17.0014 5.86587 16.7031 5.72243C16.4076 5.57643 15.9285 5.60717 15.6329 5.78647C15.3399 5.96832 15.345 6.23214 15.6407 6.37814Z" fill="currentColor"/>
<path d="M16.9531 5.49181C17.2359 5.63013 17.692 5.60195 17.9698 5.43034C18.2501 5.25873 18.2475 5.00771 17.9649 4.8694C17.6821 4.73109 17.226 4.75926 16.9457 4.93087C16.6679 5.10248 16.6705 5.3535 16.9535 5.49181H16.9531Z" fill="currentColor"/>
<path d="M16.5912 12.6046C16.8205 12.6789 17.1008 12.4535 17.2206 12.0975C17.3378 11.7415 17.2509 11.3931 17.0218 11.3163C16.7925 11.242 16.5122 11.47 16.3924 11.826C16.2752 12.182 16.3645 12.5304 16.5912 12.6046Z" fill="currentColor"/>
<path d="M17.6928 10.0536C17.9222 10.1279 18.2024 9.89994 18.3222 9.54391C18.442 9.18788 18.3525 8.83954 18.1235 8.76526C17.8967 8.69098 17.6138 8.91894 17.4966 9.27241C17.3768 9.62843 17.4663 9.97678 17.6928 10.0536Z" fill="currentColor"/>
<path d="M18.7598 7.53312C18.9865 7.60996 19.2694 7.382 19.3866 7.02598C19.5064 6.66995 19.4169 6.32161 19.1879 6.24733C18.961 6.17049 18.6782 6.39845 18.561 6.75447C18.4412 7.1105 18.5307 7.45885 18.7598 7.53312Z" fill="currentColor"/>
</svg>
